<?xml version="1.0" encoding="utf-8"?>
<!-- Generator: Adobe Illustrator 18.0.0, SVG Export Plug-In . SVG Version: 6.00 Build 0)  -->
<!DOCTYPE svg PUBLIC "-//W3C//DTD SVG 1.1//EN" "http://www.w3.org/Graphics/SVG/1.1/DTD/svg11.dtd">
<svg version="1.1" id="圖層_1" xmlns="http://www.w3.org/2000/svg" xmlns:xlink="http://www.w3.org/1999/xlink" x="0px" y="0px"
	 viewBox="0 0 40 100" enable-background="new 0 0 40 100" xml:space="preserve">
<g>
	<rect fill="none" width="40" height="100"/>
	<g>
		<path opacity="0.2" fill="#796A56" enable-background="new    " d="M2.1,71.2c0,0,6.7-6,8.4-6.3c1.8-0.3,5.6-0.1,8.2-1.5
			c2.6-1.4,4.2-1.6,6-3.4c1.9-1.8,4.2-1.1,5.2,0s2.7,5.2,2.3,7.8c-0.4,2.6,0.5,3,1.6,4.5s3.1,2.5,0.6,4.4s-8.3,4.2-12,4.4
			c-3.7,0.3-15.8,0.2-19.1-4.7C1.9,73.9,1.7,72.3,2.1,71.2z"/>
		<path fill="#FFFFFF" d="M2.1,70.9c0,0,6.7-6,8.4-6.3s5.6-0.1,8.2-1.5s4.2-1.6,6-3.4c1.9-1.8,4.2-1.1,5.2,0s2.7,5.2,2.3,7.8
			c-0.4,2.6,0.5,3,1.6,4.5s3.1,2.5,0.6,4.4s-8.3,4.2-12,4.4S6.6,81,3.3,76.1C1.9,73.7,1.7,72.1,2.1,70.9z"/>
		<path fill="#C2B595" d="M15.3,72.1c0,0-1.8,1.4-2.1,0.5c-0.2-0.9,2.8-6.1,6.5-7.8c3.7-1.7,4.3-0.5,4.3-0.5s2.9-2.3,3.4-2.4
			c0.5-0.2,4.2,4.1,1.5,4.6c-0.4,0.1-3.5,2.1-3.5,2.1s-5.7,5-7.3,5.1C16.5,73.7,15.9,72.6,15.3,72.1z"/>
		<path fill="#DD9034" d="M4.7,73.1c0,0-0.3,2.3,2.4,3.2c2.7,0.8,5.5,1.7,6.4,1.7s4.3-0.4,5.5,0c1.1,0.4,2.5,0.5,3.9-0.5
			s3.5-0.4,4.1-0.5s5.1-2.4,5.3-2.5s0.6-1.3-0.2-2.1c-0.8-0.8-2.5-2.1-4.3-2.8C26,68.9,26,68.9,26,68.9s-4.1,2.9-4.2,3.1
			c-0.1,0.2-2.3,1.7-3.2,1.5s0.8-1.7,1.8-3.7c0.7-1.4,2.2-2.4,3.1-2.8c0.1-0.1,0.1-0.3-0.1-0.3c-1.3-0.1-4.1-0.3-4.6-0.1
			c-0.6,0.2-2.4,0.8-2.7,2.8s-1.4,2.5-1.4,2.5s-1,1.3-1.2,0.3s0.7-3.6,2.4-4.5s-1.3-0.6-2.3-0.3C11.8,68,9.6,68,8.5,70
			C7.9,70.7,5.1,72.2,4.7,73.1z"/>
		<g>
			<path fill="none" stroke="#823733" stroke-width="0.5" stroke-miterlimit="10" d="M16.7,67.2c-0.3-0.3-0.6-0.4-1.1-0.3
				c-0.7,0.1-1.4,0.1-2.1,0.2c-0.7,0.1-1.4,0.4-2,0.9c-1.4,1.1-2.9,2.1-4.4,3.1c-0.4,0.2-0.7,0.5-1.2,0.7c-0.3,0.1-0.6,0.4-0.9,0.8
				c-0.6,0.8-0.6,1.1,0.2,2.2c0.7,1.2,1.9,1.6,3.1,1.9c0.9,0.3,1.8,0.4,2.6,0.9c0.3,0.2,0.7,0.1,1,0.2c1.2,0.2,2.4,0.3,3.6,0
				c1.3-0.3,2.6-0.2,3.8,0.3c1,0.4,2,0.3,2.9-0.4c0.6-0.4,1.2-0.7,2-0.7c0.9,0,1.7-0.1,2.6-0.2c1.1-0.1,2.1-0.4,3-0.9
				c0.5-0.3,1-0.6,1.4-1"/>
			<path fill="none" stroke="#823733" stroke-width="0.5" stroke-miterlimit="10" d="M25.5,68.7c0.5,0,1.4-0.2,1.8,0.1
				c0.4,0.2,0.9,0.4,1.2,0.8s0.8,0.6,1.3,0.8c0.6,0.2,1.1,0.5,1.4,1.1c0.2,0.3,0.4,0.7,0.8,0.8c0.5,0.2,0.7,0.7,1,1
				c0.2,0.3,0.2,0.5-0.1,0.6c-0.5,0.3-1,0.7-1.5,1.1l-0.7,0.5"/>
			<path fill="none" stroke="#823733" stroke-width="0.5" stroke-miterlimit="10" d="M25.6,68c-0.2-0.5,0.1-1-0.1-1.5
				c-0.4-1.6-1.8-2.6-3.5-2.4c-1.5,0.1-2.7,0.8-3.6,2c-0.1,0.2-0.4,0.2-0.4,0.5"/>
			<path fill="none" stroke="#823733" stroke-width="0.5" stroke-miterlimit="10" d="M23.3,70.7c0.4-0.2,0.7-0.5,1.1-0.6
				c0.6-0.2,0.9-0.8,1-1.5c0.1-0.4,0.3-0.6,0.6-0.8c0.9-0.5,1.9-1,2.9-1.4c0.5-0.1,0.7-0.5,0.7-1c0-0.6,0-1.1-0.1-1.7
				c-0.1-0.8-0.6-1.3-1.3-1.7c-0.1-0.1-0.2-0.2-0.4-0.3c-0.4-0.1-0.7-0.3-1.2,0s-0.9,0.6-1.2,1c-0.2,0.3-0.6,0.6-0.9,0.8
				c-0.2,0.2-0.5,0.4-0.5,0.7"/>
			<path fill="none" stroke="#823733" stroke-width="0.5" stroke-miterlimit="10" d="M26.2,62.2c0,0.1,0.1,0.2,0.1,0.2
				c0.9-0.1,1.3,0.8,2,1.2c0.1,0.1,0.2,0.2,0.2,0.3c0.1,0.8,0.3,1.5,0,2.3"/>
			<path fill="none" stroke="#823733" stroke-width="0.5" stroke-miterlimit="10" d="M19.4,73.4c0.1-0.1,0.2-0.3,0.4-0.4
				c0.7-0.4,1.3-0.9,2.1-1.2c0.5-0.2,1-0.6,1.4-1l0.6-0.3"/>
			<path fill="none" stroke="#823733" stroke-width="0.5" stroke-miterlimit="10" d="M20.4,65.8c0.4,0.3,0.9,0.1,1.4,0.2
				s1.3,0.4,1.7,0.9"/>
			<path fill="none" stroke="#823733" stroke-width="0.5" stroke-miterlimit="10" d="M16.6,67.4c-1.3,0.7-2,1.8-2.6,3l-0.2,0.3
				c-0.4,0.4-0.6,1.9,0,1.8l0.4-0.4c0.1-0.2,0.5-0.1,0.5-0.4c0-0.4,0-0.8,0.2-1.1c0.4-0.7,0.8-1.4,1.3-1.9c0.2-0.2,0.5-0.5,0.5-0.8
				c0.1-0.9,0.6-1.3,1.5-1.2c0.2,0,0.4,0,0.6-0.2c0.3-0.2,0.6-0.4,0.9-0.5c0.2-0.1,0.5,0,0.6-0.2c0.5-0.7,1.2-0.9,2-1.1
				c0.5-0.1,1-0.1,1.5,0.1c0.4,0.2,0.6,0.5,0.7,1c0.1,0.4-0.2,0.5-0.5,0.8c-0.8,0.7-1.7,1.3-2.5,1.9c-0.9,0.7-1.6,1.5-1.7,2.7
				c-0.1,0.7-0.2,1.3-0.9,1.7c-0.1,0.1-0.4,0.2-0.3,0.4c0.5,0.1,1,0.2,1.5,0.3c0.1,0,0.2,0.1,0.3,0c0.7-0.4,1.2-0.8,1.3-1.6"/>
		</g>
	</g>
</g>
</svg>
