<?xml version="1.0" encoding="utf-8"?>
<!-- Generator: Adobe Illustrator 18.0.0, SVG Export Plug-In . SVG Version: 6.00 Build 0)  -->
<!DOCTYPE svg PUBLIC "-//W3C//DTD SVG 1.1//EN" "http://www.w3.org/Graphics/SVG/1.1/DTD/svg11.dtd">
<svg version="1.1" id="圖層_1" xmlns="http://www.w3.org/2000/svg" xmlns:xlink="http://www.w3.org/1999/xlink" x="0px" y="0px"
	 viewBox="-25 0 65 100" enable-background="new -25 0 65 100" xml:space="preserve">
<rect x="-25" fill="none" width="65" height="100"/>
<g>
	<path opacity="0.3" fill="#F3AE00" d="M32.9,63.4c0,0,1.9,4.9-0.9,5.3c-2.8,0.4-4.1-0.6-7.7,1.1c-3.6,1.7-14.4,1.5-18.1,1.5
		s-3.6-1.3-7.7-1.1c-4.1,0.2-7.1,0.2-7.7-0.6c-0.6-0.8,0.7-3.6,0.7-3.6s2.6-5.5,2.6-11.4s-0.6-7.8,0-12S-4.8,29-4.8,29v-1.5
		c0,0,0-1.5,0-3.2s0.9-0.2,3.2,0s11,1.5,15.1,0.5s14.6,0,16.9,0s1.3,1.3,0.8,2.7c-0.4,1.5-0.8,3-0.8,3s1.6,14,1.6,18.4S32,61,32,61
		L32.9,63.4z"/>
	<path d="M30.3,64.8c-0.1-0.7-0.1-1.3,0-2c0-0.3,0.1-0.6,0.1-1l0.1-0.5l0.1-0.4v-7.7l0-3.9c0-1.3-0.1-2.6-0.2-3.8
		c-0.2-2.6-0.4-5.1-0.7-7.7L29.3,34l-0.1-1l-0.1-0.5l0-0.2c0-0.1-0.1-0.3,0-0.4l0.5-1.9l0.3-0.9c0.1-0.3,0.2-0.6,0.3-0.9
		c0.1-0.3,0.2-0.6,0.2-0.7c0,0,0-0.1,0-0.1c0,0-0.1,0-0.2-0.1c-0.4-0.1-1.2,0-1.8-0.1L26.4,27c-2.6-0.2-5.2-0.3-7.7-0.3
		c-1.3,0-2.6,0.1-3.8,0.2c-0.3,0-0.6,0.1-0.9,0.2l-1,0.2c-0.7,0.1-1.3,0.2-2,0.2c-2.6,0.1-5.2-0.1-7.8-0.4c-1-0.1-2.1-0.3-3.2-0.4
		c-0.5-0.1-1.1-0.2-1.6-0.4c-0.5-0.2-1-0.5-1.2-0.6c-0.2-0.1-0.4,0-0.4,0.1c-0.1,0.2-0.1,0.3-0.1,0.5c-0.1,0.4-0.1,0.7-0.2,1
		c-0.1,0.6-0.3,0.9-0.4,0.9l0-2.1l0-0.5c0-0.1,0.1-0.3,0.1-0.4c0.1-0.2,0.4-0.4,0.6-0.4c0.3,0,0.6,0.1,0.8,0.2l0.5,0.2
		c0.3,0.1,0.6,0.2,0.9,0.3c0.3,0.1,0.6,0.1,1,0.1L2.1,26c2.7,0.3,5.4,0.6,8.1,0.6c0.7,0,1.3,0,2-0.1c0.7-0.1,1.2-0.2,2-0.4
		c1.4-0.3,2.8-0.3,4.2-0.3c2.8,0,5.5,0.1,8.3,0.3l2,0.1l1,0c0.4,0,0.7,0,1.3,0.3c0.3,0.2,0.4,0.4,0.5,0.7c0,0.3,0,0.5-0.1,0.7
		c-0.1,0.4-0.2,0.7-0.4,1c-0.2,0.6-0.4,1.3-0.6,1.9l-0.3,1l-0.1,0.2c0,0,0,0,0,0.1l0.1,0.5l0.2,2l0.4,4.1c0.3,2.7,0.5,5.5,0.7,8.2
		c0.1,1.4,0.1,2.8,0.1,4.1v4.1c0,1.9-0.1,4-0.3,5.8c-0.4,1-0.6,1.9-0.7,2.6C30.5,64.3,30.5,64.8,30.3,64.8z"/>
	<path d="M32.7,63.7c0.2,0.9,0.4,1.8,0.4,2.7c0,0.5-0.1,1-0.5,1.5c-0.3,0.5-0.9,0.8-1.4,0.9c-0.9,0.1-1.8,0.1-2.7,0.1
		c-0.9,0-1.6,0-2.4,0.2c-0.4,0.1-0.8,0.2-1.2,0.4c-0.4,0.1-0.7,0.3-1.2,0.5c-0.9,0.3-1.7,0.5-2.6,0.7C19.4,70.8,17.7,71,16,71
		c-1.7,0.1-3.5,0.1-5.2,0.1l-2.6,0c-0.9,0-1.7,0-2.6-0.1C4.7,71,3.8,70.7,3,70.5c-0.8-0.2-1.6-0.3-2.4-0.3c-1.7,0-3.4,0.2-5.2,0.1
		c-0.7,0-1.4-0.1-2.1-0.3c-0.3-0.1-0.8-0.3-1-0.7c-0.2-0.5-0.1-0.8,0-1.1c0.4-1.2,1-1.8,1.3-1.7c-0.2,0.4-0.3,0.8-0.4,1.2
		C-7,68-7.1,68.4-7,68.6c0,0.2,0,0.1,0.1,0.2c0.1,0.1,0.3,0.1,0.4,0.2c0.4,0.1,0.8,0.1,1.2,0.2c1.7,0.1,3.4,0,5.1-0.1
		c0.9,0,1.8,0,2.7,0.1c0.9,0.2,1.7,0.5,2.5,0.7c0.8,0.2,1.6,0.2,2.5,0.2l2.6,0c3.4,0,6.9-0.1,10.2-0.5c0.8-0.1,1.7-0.3,2.5-0.5
		c0.4-0.1,0.7-0.3,1.1-0.4c0.4-0.2,0.8-0.4,1.3-0.5c0.9-0.3,1.8-0.5,2.7-0.4c0.9,0,1.7,0.1,2.5,0c0.3,0,0.7,0,0.9-0.1
		c0.3,0,0.4-0.2,0.6-0.3c0.3-0.4,0.5-1,0.5-1.6C32.5,64.7,32.4,63.8,32.7,63.7z"/>
	<path d="M-2.9,31.2c-0.1,2.6-0.3,5.2-0.4,7.8c-0.1,1.3-0.2,2.6-0.3,3.9C-3.8,44.1-4,45.4-4,46.6c0,2.5,0.2,5.1,0.2,7.8
		c0,1.3,0,2.6-0.2,3.9c-0.2,1.3-0.5,2.6-0.7,3.9c-0.2,0.9-0.5,2-0.8,2.8c-0.3,0.8-0.6,1.5-0.8,1.5c0-2.7,0.9-5.2,1.3-7.7
		c0.4-2.5,0.3-5.1,0.2-7.6C-4.9,49.8-5,48.5-5,47.2c0-1.3,0.1-2.6,0.3-3.9c0.3-2.5,0.5-5.1,0.6-7.7C-4.1,33.6-3.5,31.1-2.9,31.2z"/>
	<path d="M29.8,30.4l-14,0.6c-1.2,0.1-2.3,0.1-3.5,0.1c-1.3,0-2.4-0.2-3.5-0.3l-7-0.6c-1.8-0.2-4-0.8-3.9-1.4L11.7,30
		c2.3,0,4.6-0.1,7-0.2l7-0.3C27.5,29.5,29.8,29.9,29.8,30.4z"/>
	<path d="M-4.7,66.3c0.5,0.2,1.1,0.4,1.6,0.5c0.3,0,0.6,0.1,0.9,0.1c0.3,0,0.7,0,1,0C0,67,1.2,67.2,2.5,67.3
		c2.5,0.3,4.9,0.6,7.4,0.7c2.5,0.2,4.9,0,7.4-0.3c2.5-0.3,4.9-0.9,7.4-1.3c1.8-0.2,4.3-0.4,4.4,0.2c-1.2,0.3-2.5,0.6-3.7,0.8
		c-1.2,0.1-2.4,0.4-3.7,0.6c-2.5,0.5-4.9,0.9-7.5,1c-2.5,0.2-5.1,0-7.6-0.2c-2.5-0.2-5-0.6-7.4-0.9c-0.4-0.1-0.9-0.1-1.4-0.2
		c-0.5-0.1-1-0.2-1.4-0.4C-4.5,67.1-4.9,66.6-4.7,66.3z"/>
	<g>
		<path d="M6.5,55l-2.8-2.5l-0.7-0.6H1.2c0,0,0.1,0.1,0.1,0.1L12.4,62C12.7,61.3,9.3,57.5,6.5,55z"/>
		<path d="M6.2,44.1l4.7-4.3l1.4-1.3c0.4-0.4,0.8-0.6,1.2-0.6c0.4,0,0.8,0.3,1.3,0.8l1.4,1.3l4.4,4h1.8l-1.1-1l-5.5-5l-0.7-0.6
			l-0.4-0.3c-0.1-0.1-0.3-0.2-0.4-0.3c-0.6-0.3-1.3-0.3-1.9,0c-0.2,0.1-0.3,0.2-0.4,0.3l-0.3,0.3l-0.7,0.6l-1.4,1.3l-5.2,4.7H6.2z"
			/>
		<path d="M23.7,51.9L23.5,52l-1.4,1.2l-2.8,2.5l-5.5,5c0.3,0.7,4.1-2,6.9-4.5l2.8-2.5l1.4-1.2c0.2-0.2,0.4-0.4,0.5-0.6H23.7z"/>
	</g>
	<path fill="#B90518" d="M15.5,49.6c0.2,0,0.3-0.1,0.3-0.3l0.2-1.6c0-0.2-0.1-0.3-0.3-0.3h-1.9V46c0-0.6,0.2-1,1-1l0.8,0
		c0.2,0,0.3-0.1,0.3-0.3v-1.4c0-0.2-0.1-0.3-0.3-0.3h-1.3c-1.6,0-2.7,1-2.7,2.8v1.6h-1.3c-0.2,0-0.3,0.1-0.3,0.3l0,1.6
		c0,0.2,0.1,0.3,0.3,0.3h1.3l0,5h2.2l0-5H15.5z"/>
	<path stroke="#000000" stroke-width="0.1409" stroke-miterlimit="10" d="M-14.2,70.6c0-0.6-0.4-1.2-0.9-1.6
		c-0.5-0.4-1.1-0.5-1.7-0.5c-1.1,0-2.3,0.1-3.4,0.5c-0.3,0.1-0.5,0.2-0.8,0.4c-0.1,0-0.1,0.1-0.2,0.2c-0.1,0.1-0.1,0.1-0.1,0.2
		c-0.1,0.2-0.1,0.4,0,0.6c0.2,0.4,0.4,0.5,0.7,0.7c0.3,0.2,0.5,0.3,0.8,0.4c1.1,0.3,2.3,0.4,3.4,0.2c0.4-0.1,0.9-0.2,1.2-0.5
		c0.3-0.2,0.5-0.5,0.4-0.6c-0.9,0.5-2,0.6-3.1,0.6c-0.5,0-1.1-0.1-1.6-0.2c-0.5-0.1-1-0.4-1.3-0.7c-0.1-0.2-0.1-0.3,0-0.4
		c0.1-0.2,0.3-0.3,0.6-0.4c0.5-0.2,1-0.3,1.5-0.4c1-0.1,2.2-0.3,3.1,0.2c0.3,0.2,0.6,0.4,0.9,0.7C-14.5,70.3-14.4,70.6-14.2,70.6z"
		/>
	<path stroke="#000000" stroke-width="0.1409" stroke-miterlimit="10" d="M26.2,74.2c-0.2-0.5-0.6-1-1-1.4c-0.4-0.4-1-0.7-1.6-0.8
		c-0.6-0.1-1.2,0.2-1.7,0.4c-0.5,0.2-1,0.4-1.5,0.7c-0.2,0.1-0.5,0.3-0.7,0.5c-0.1,0.1-0.2,0.2-0.3,0.3C19.1,74,19,74.2,19,74.4
		c0,0.3,0.2,0.5,0.3,0.5c0.2,0.1,0.3,0.2,0.4,0.2c0.3,0.1,0.6,0.1,0.9,0.2c1.1,0.1,2.2,0.1,3.4,0c0.4,0,0.9-0.2,1.2-0.4
		c0.3-0.2,0.5-0.4,0.4-0.6c-0.9,0.4-2.1,0.5-3.1,0.5c-0.5,0-1.1,0-1.6-0.1c-0.3,0-0.5-0.1-0.8-0.1c-0.2-0.1-0.5-0.1-0.6-0.3
		c0,0,0,0,0-0.1c0-0.1,0.1-0.2,0.2-0.2c0.2-0.2,0.4-0.3,0.6-0.5c0.5-0.3,1-0.5,1.5-0.7c0.5-0.2,1-0.4,1.5-0.4c0.5,0,1,0.2,1.4,0.5
		C25.3,73.4,25.9,74.3,26.2,74.2z"/>
	<path stroke="#000000" stroke-width="0.1409" stroke-miterlimit="10" d="M29.3,74c0,0-0.1,0-0.1,0C29.1,73.9,29.2,73.9,29.3,74
		c0,0,0-0.1,0.1-0.1c0.1,0,0.2,0,0.4,0c0-0.2-0.2-0.4-0.5-0.4c-0.3,0-0.6,0.1-0.7,0.3c-0.1,0.2,0,0.4,0.2,0.5c0.2,0.1,0.6,0.1,0.8,0
		C29.8,74.2,29.6,73.9,29.3,74z"/>
	<path stroke="#000000" stroke-width="0.1409" stroke-miterlimit="10" d="M29.8,72L29.8,72C29.8,72,29.8,72,29.8,72
		c-0.2,0.1-0.3,0-0.5,0c0,0.2,0.2,0.4,0.4,0.4c0.2,0,0.4-0.1,0.5-0.3c0.1-0.2,0-0.4-0.2-0.5c-0.2-0.1-0.4-0.1-0.6,0
		c-0.1,0-0.1,0.2,0,0.2c0,0,0.1,0.1,0.2,0.1C29.7,72,29.8,72,29.8,72z"/>
	<path stroke="#000000" stroke-width="0.1409" stroke-miterlimit="10" d="M26.2,72L26.2,72C26.2,72,26.2,72,26.2,72
		c-0.2,0.1-0.3,0-0.5,0c0,0.2,0.2,0.4,0.4,0.4c0.2,0,0.4-0.1,0.5-0.3c0.1-0.2,0-0.4-0.2-0.5c-0.2-0.1-0.4-0.1-0.6,0
		c-0.1,0-0.1,0.2,0,0.2c0,0,0.1,0.1,0.2,0.1C26.1,72,26.2,72,26.2,72z"/>
	<path stroke="#000000" stroke-width="0.1409" stroke-miterlimit="10" d="M31.7,71.8L31.7,71.8C31.7,71.8,31.7,71.7,31.7,71.8
		c-0.1,0-0.3,0-0.4,0c0,0.2,0.2,0.3,0.3,0.4c0.2,0,0.4-0.1,0.4-0.2c0.1-0.2,0-0.4-0.1-0.5c-0.1-0.1-0.4-0.1-0.5,0
		c-0.1,0,0,0.2,0,0.2C31.5,71.7,31.5,71.7,31.7,71.8C31.6,71.7,31.6,71.7,31.7,71.8z"/>
	<path stroke="#000000" stroke-width="0.1409" stroke-miterlimit="10" d="M24,73.8L24,73.8C24,73.8,24.1,73.8,24,73.8
		c-0.2,0.1-0.3,0-0.5,0c0,0.2,0.2,0.4,0.4,0.4c0.2,0,0.4-0.1,0.5-0.3c0.1-0.2,0-0.4-0.2-0.5c-0.2-0.1-0.4-0.1-0.6,0
		c-0.1,0-0.1,0.2,0,0.2c0,0,0.1,0.1,0.2,0.1C24,73.8,24.1,73.8,24,73.8z"/>
	<path stroke="#000000" stroke-width="0.1409" stroke-miterlimit="10" d="M-19.1,70.2c0,0-0.1,0-0.1,0
		C-19.3,70.1-19.2,70.1-19.1,70.2c0,0,0-0.1,0.1-0.1c0.1,0,0.2,0,0.4,0c0-0.2-0.2-0.4-0.5-0.4c-0.3,0-0.6,0.1-0.7,0.3
		c-0.1,0.2,0,0.4,0.2,0.5c0.2,0.1,0.6,0.1,0.8,0C-18.6,70.4-18.8,70.2-19.1,70.2z"/>
	<path stroke="#000000" stroke-width="0.1409" stroke-miterlimit="10" d="M-5.7,71.8c0,0-0.1,0-0.1,0C-5.9,71.7-5.8,71.7-5.7,71.8
		c0,0,0-0.1,0.1-0.1c0.1,0,0.2,0,0.4,0c0-0.2-0.2-0.4-0.5-0.4c-0.3,0-0.6,0.1-0.7,0.3c-0.1,0.2,0,0.4,0.2,0.5c0.2,0.1,0.6,0.1,0.8,0
		C-5.2,72-5.4,71.7-5.7,71.8z"/>
	<path stroke="#000000" stroke-width="0.1409" stroke-miterlimit="10" d="M-17.8,70L-17.8,70C-17.8,70-17.8,70-17.8,70
		c-0.1,0-0.3,0-0.4,0c0,0.2,0.2,0.3,0.3,0.4c0.2,0,0.4-0.1,0.4-0.2c0.1-0.2,0-0.4-0.1-0.5c-0.1-0.1-0.4-0.1-0.5,0
		c-0.1,0,0,0.2,0,0.2C-18,69.9-18,70-17.8,70C-17.9,70-17.8,70-17.8,70z"/>
	<path stroke="#000000" stroke-width="0.1409" stroke-miterlimit="10" d="M-9,70.4C-9,70.3-9,70.3-9,70.4C-9,70.3-8.9,70.3-9,70.4
		C-8.9,70.4-9,70.5-9,70.4c0,0.1,0,0.1-0.1,0.1c-0.1,0-0.2,0-0.4,0c0,0.2,0.1,0.5,0.4,0.6c0.2,0.1,0.4,0,0.6-0.3
		c0.1-0.1,0.1-0.4,0-0.6c-0.1-0.2-0.2-0.3-0.2-0.3c-0.2-0.1-0.5-0.1-0.6,0.1c-0.1,0.1,0,0.2,0,0.3C-9.3,70.3-9.2,70.3-9,70.4z"/>
	<path stroke="#000000" stroke-width="0.1409" stroke-miterlimit="10" d="M-12.6,70.6L-12.6,70.6C-12.6,70.6-12.5,70.6-12.6,70.6
		c-0.1,0-0.3,0-0.4,0c0,0.2,0.2,0.3,0.3,0.4c0.2,0,0.4-0.1,0.4-0.2c0.1-0.2,0-0.4-0.1-0.5c-0.1-0.1-0.4-0.1-0.5,0
		c-0.1,0,0,0.2,0,0.2C-12.8,70.6-12.7,70.6-12.6,70.6C-12.6,70.6-12.6,70.6-12.6,70.6z"/>
	<path stroke="#000000" stroke-width="0.1409" stroke-miterlimit="10" d="M-12.8,72.1C-12.8,72.1-12.7,72-12.8,72.1
		C-12.7,72.2-12.7,72.2-12.8,72.1c0,0,0,0.1-0.1,0.1c-0.1,0-0.2,0-0.4,0c0,0.2,0.1,0.5,0.4,0.5c0.2,0.1,0.4,0,0.6-0.3
		c0.1-0.1,0.1-0.4,0-0.5c-0.1-0.2-0.2-0.3-0.2-0.3c-0.2-0.1-0.5-0.1-0.6,0.1c-0.1,0.1,0,0.2,0,0.3C-13.1,72.1-12.9,72.1-12.8,72.1z"
		/>
</g>
</svg>
