<?xml version="1.0" encoding="utf-8"?>
<!-- Generator: Adobe Illustrator 18.0.0, SVG Export Plug-In . SVG Version: 6.00 Build 0)  -->
<!DOCTYPE svg PUBLIC "-//W3C//DTD SVG 1.1//EN" "http://www.w3.org/Graphics/SVG/1.1/DTD/svg11.dtd">
<svg version="1.1" id="圖層_1" xmlns="http://www.w3.org/2000/svg" xmlns:xlink="http://www.w3.org/1999/xlink" x="0px" y="0px"
	 viewBox="0 0 40 100" enable-background="new 0 0 40 100" xml:space="preserve">
<g>
	<g>
		<path opacity="0.2" fill="#796A56" enable-background="new    " d="M37.6,70.5c-0.1-2.1-0.8-11.8-5-10.3s-5.8-0.7-5.8-0.7
			c-4-5.7-8.5-3.2-9.4-1.5S15,59.5,15,59.5c-4.6,0.2-5,4.2-7.2,8.6s4.7,3.4,5.7,1.5s2-1.1,2.7-1.2c0.7,0,0.6,9.7,0.6,9.7
			s-0.3,6.2,2.6,7s3.6-1.4,5-2c1.3-0.5,2.7-0.2,3.6-0.9c0.9-0.8,1.2-5.4,2.3-6c1.1-0.6,3.8,3,5.9,2.7s0.1-4.7,0.1-6
			S37.7,72.6,37.6,70.5z M23.4,80.1c-0.6,1.6-1.7-6.4-1.7-6.4c-0.3-1.8,2-0.6,2.9-0.3S24,78.6,23.4,80.1z"/>
		<path fill="#FFFFFF" d="M37.6,70.1c-0.1-2.1-0.8-11.8-5-10.3s-5.8-0.7-5.8-0.7c-4-5.7-8.5-3.2-9.4-1.5S15,59.2,15,59.2
			c-4.6,0.2-5,4.2-7.2,8.6s4.7,3.4,5.7,1.5s2-1.1,2.7-1.2c0.7,0,0.6,9.7,0.6,9.7s-0.3,6.2,2.6,7s3.6-1.4,5-2
			c1.3-0.5,2.7-0.2,3.6-0.9c0.9-0.8,1.2-5.4,2.3-6c1.1-0.6,3.8,3,5.9,2.7s0.1-4.7,0.1-6S37.7,72.2,37.6,70.1z M23.4,79.8
			c-0.6,1.6-1.7-6.4-1.7-6.4c-0.3-1.8,2-0.6,2.9-0.3S24,78.2,23.4,79.8z"/>
		<path fill="#7A8A5C" d="M18.4,66.8l-0.3,1l1.8,15l1.3-0.3c0,0-0.1-1.9-0.5-4.8s-1.1-11.1-1.1-11.1S18.7,66.2,18.4,66.8z"/>
		<polygon fill="#7A8A5C" points="27.5,70.8 26.6,72 25.4,80.6 27.2,80.6 28.5,71.6 		"/>
		<path fill="#D4D900" d="M28.1,69.8l-0.9-1.2l-1.9,0.7c0,0-0.8,0.6-1.3,0.8s0-1.2,0-1.2l1.5-2.4l2.5-0.1l1-2c0,0,0-1.6,2.6-1.6
			c2.6,0.1,3.5,4.9,3.5,4.9l0.6,2.1l-5.3-5l-1.4,4h1.8c0,0,1.7-0.1,1.9,0.5c0.3,0.6,2.4,7.4,2.4,7.4l-0.9-0.3c0,0-3-5.1-4.2-5.1
			c-1.3,0-1.2,0.4-1.2,0.4l-1.4-0.9L28.1,69.8z"/>
		<path fill="#D4D900" d="M19,66.8l-2.5-1.7l-4.8,3l0.4-1.9l3.8-4.4l3.3,2.1l0.2-3.9l1.3-1.8L23,58l2.7,2.6l1,2.6
			c0,0-4.3-3.7-4.9-2.8c-0.5,0.9-1.7,4.8-1.7,4.8l2-1.5c0,0,0.7-0.6,2.1,0.4s3.6,3.3,3.4,6.5c0,0-3.7-4-5-4.1
			C21.1,66.2,20.9,67.6,19,66.8z"/>
		<g>
			<path fill="#823733" d="M19,63.1c0-0.8,0-1.6,0-2.3c0-1.2,0.5-2.2,1.6-2.7c1.2-0.6,2.3-0.6,3.4,0.4c0.9,0.9,1.8,1.8,2.3,3
				c0.4,1,0.9,2,1.5,3.1c-1-0.9-1.9-1.7-2.8-2.4s-1.9-1.3-2.9-2c-0.1,0-0.2,0.1-0.3,0.1c-0.3,1.2-0.6,2.4-0.9,3.6
				c0.1,0,0.2,0.1,0.3,0.1c0.3-0.2,0.6-0.3,0.9-0.5c0.8-0.4,1.6-0.4,2.3,0.2c0.6,0.6,1.3,1.2,1.8,1.9c0.3,0.5,0.5,0.8,1.2,0.7
				c0.2,0,0.4,0,0.7,0.1c0.1-0.4,0.2-0.8,0.3-1.2c0.3-0.9,0.5-1.9,1.6-2.2c1.4-0.4,2.7-0.2,3.7,0.9c1.3,1.6,1.9,3.7,2.2,5.7
				c0,0-0.1,0.1-0.1,0.2c-1.5-1.6-3-3.2-4.6-5c-1,1.2-1.5,2.4-1.7,3.7c0.8,0,1.6,0,2.3,0.2c1,0.3,1.6,1.1,1.9,2.1
				c0.6,1.9,1,3.9,1.5,5.9c0,0.1,0,0.1-0.1,0.4c-0.3-0.3-0.6-0.5-0.8-0.7c-1.1-1.4-2.1-2.9-3.1-4.3c-0.7-0.9-1.5-1.1-2.3-0.4
				c-0.4,0.3-0.7,1.1-0.8,1.6c-0.2,1.2-0.7,5.6-0.9,6.7c-0.1,0.8-0.4,0.9-1.3,0.8c-0.7-0.1-0.8-0.5-0.7-1.1c0.1-0.3,0.1-0.8,0.2-1.3
				c0.3-2,0.7-5.1,0.8-6.2c0.1-0.7,0.2-1.2,0.9-1.5c-0.4-0.5-0.7-1-1.2-1.4c-0.1-0.1-0.6-0.1-0.7,0c-0.7,0.7-1.3,1.4-2,2.1
				c0-1.3,0.5-2.5,1.1-3.6c-1-1.3-1.3-1.4-2.9-0.9C20,67.4,20,67.4,20.1,69c0.1,1.4,0.5,4.4,0.6,5.7c-0.2,0.1-0.2,0.1-0.2,0.1
				c-1.7,0-1.7,0-1.7-1.7c0-1.2-0.5-4.1-0.6-5.3c0-0.2,0-0.3,0-0.5c0-0.3,0.2-0.8,0-1c-0.5-0.5-1-1-1.6-1.3c-0.2-0.1-0.7,0-0.9,0.2
				c-1.3,0.9-2.6,1.9-3.9,2.8c-0.2,0.1-0.3,0.2-0.5,0.3c-0.1,0-0.2-0.1-0.2-0.1c0.3-0.7,0.6-1.4,1-2c0.7-1,1.4-2.1,2.2-3.1
				c1.4-1.8,2.4-1.9,4.1-0.5C18.6,62.8,18.8,63,19,63.1z M21.7,64.1c-0.4,0.2-0.8,0.5-1.3,0.8c3.2,1,5.1,3.4,7.1,5.6
				c-0.3-1.1-0.7-2.2-1-3.2c-0.4-1.4-1.3-2.4-2.4-3.3C23.2,63.3,22.5,63.3,21.7,64.1L21.7,64.1z M28.8,69.7c2.8,1.5,4,4.4,6,6.6
				c-0.1-0.9-0.3-1.7-0.5-2.6c-0.3-1.1-0.6-2.1-1-3.2c-0.5-1.3-1.7-2-2.8-1.7c1.4,1,2.3,2.5,2.5,3.6c-0.3-0.4-0.4-0.7-0.6-0.9
				c-0.6-0.7-1.1-1.5-1.8-2.1C29.9,68.8,29.5,68.9,28.8,69.7z M11.5,67.5c0.1,0.1,0.2,0.1,0.2,0.2c2.2-1.7,4.5-3.4,7.4-3.9
				c-0.5-0.8-1-1.1-1.9-0.7c-0.8,0.4-1.7,0.7-2.5,1c0.6-1.1,1.9-0.9,2.9-1.4c-0.9-0.8-1.9-0.9-2.6,0C13.8,64.2,12.7,65.9,11.5,67.5z
				 M26.6,63.1c-0.6-1.7-1.2-3.3-2.7-4.4c-1.3-1-2.9-1-4,0.2c-0.3,0.3-0.4,0.6-0.6,1c2-0.9,3.3,0.3,4.7,1.2
				C24.9,61.7,25.7,62.4,26.6,63.1z M28.9,64.4c1.6-0.2,2.8,0.5,3.7,1.6c0.9,1,1.8,2,2.7,2.9c0.1,0,0.2-0.1,0.2-0.1
				c-0.5-1.4-1-2.8-1.7-4.1c-0.6-1.3-1.8-1.8-3.2-1.6C29.9,63.3,29.2,63.4,28.9,64.4z M26.5,80.6c0.1-0.2,0.4-0.4,0.4-0.7
				c0.3-1.6,1-6.5,1.3-8.1c0-0.2-0.1-0.4-0.2-0.5c-0.3-0.1-0.7-0.3-0.9-0.2c-0.2,0.1-0.4,0.5-0.5,0.9c-0.2,1.5-0.8,6.2-1.1,7.6
				C25.4,80.4,25.4,80.5,26.5,80.6z M21.7,59.9C21,60,20.4,60,19.8,60.2c-0.2,0.1-0.5,0.4-0.5,0.6c-0.1,1.5,0.1,2.9,0.8,4.3
				c0.3-0.3,0.6-0.7,0.7-1.1c0.2-0.9,0.3-1.8,0.5-2.8C21.3,60.8,21.5,60.4,21.7,59.9z M18.8,70.7l0.1,0.4c0,0.5,0.1,2.4,0.2,2.9
				c0,0.2,0.2,0.5,0.4,0.6c0.7,0.2,0.9,0,0.9-0.7c0-1.5-0.5-4.7-0.5-6.2c0-0.6-0.2-0.9-0.8-0.8c-0.7,0.1-0.5,0.6-0.5,1
				C18.6,68.8,18.7,69.7,18.8,70.7z M28.1,69.8c0.4-0.4,0.9-0.6,1-1c0.5-1.3,0.9-2.7,1.4-4c-0.8-0.3-1.7-0.3-1.8,0.3
				C28.1,66.5,27.9,68,28.1,69.8z M19,66.8c0.2-0.5,0.5-0.9,0.6-1.3c0.2-0.6-0.3-1.4-0.7-1.3c-0.6,0.1-1.3,0.3-1.9,0.5
				c0.1-0.1,0.3-0.2,0.4-0.3C18,65.2,18.5,65.9,19,66.8z M22.4,66.3c0-0.1,0-0.2,0-0.3c-0.6-0.3-1.1-0.6-1.7-0.7
				c-0.2-0.1-0.6,0.2-0.8,0.4c-0.2,0.2-0.3,0.6-0.2,0.9c0.1,0.2,0.5,0.4,0.7,0.4C21.1,66.8,21.8,66.5,22.4,66.3z M30.2,70.9
				c-0.5-0.3-0.8-0.6-1.2-0.8c-0.2-0.1-0.6-0.1-0.7,0c-0.2,0.2-0.3,0.6-0.2,0.9c0.1,0.2,0.5,0.4,0.8,0.4
				C29.2,71.3,29.6,71.1,30.2,70.9z M24.7,67.8c-0.3,0.9-0.6,1.6-0.9,2.3c0,0,0.1,0,0.1,0.1c0.5-0.5,1-0.9,1.6-1.4
				C25.3,68.4,25.1,68.2,24.7,67.8z M26.6,66.6c0.2,0.6,0.3,0.9,0.4,1.3c0,0.1,0.2,0.3,0.3,0.3c0.1,0,0.3-0.1,0.4-0.2
				c0.1-0.4,0.2-0.8,0.1-1.1C27.6,66.6,27.1,66.7,26.6,66.6z"/>
			<path fill="#823733" d="M20.6,75.3c0.1,0.4,0.2,0.8,0.2,1.3c0.1,1.1,0.6,4.2,0.7,5.3c0.1,0.6-0.1,0.9-0.8,0.9c-0.3,0-0.5,0-0.8,0
				c-0.5,0-0.6-0.2-0.6-0.6c0-1.7-0.5-5.3-0.6-7c0,0,0.1-0.1,0.2-0.2c0.1,0.5,0.2,1,0.2,1.5c0,1.2,0.5,4.3,0.4,5.5
				c0,0.7,0.3,0.7,0.9,0.7c0.5,0,0.8-0.2,0.7-0.8c-0.2-1.5-0.7-5-0.8-6.5C20.5,75.3,20.6,75.3,20.6,75.3z"/>
			<path fill="#823733" d="M21.7,64.1c0.4,0.1,0.8,0.1,1.1,0.3c0.8,0.6,1.5,1.4,2.2,2.1C24,65.7,22.9,64.9,21.7,64.1L21.7,64.1z"/>
			<path fill="#823733" d="M24.6,60.6c-1.1-0.7-2.2-1.4-3.3-2C22.6,58.9,23.7,59.6,24.6,60.6z"/>
			<path fill="#823733" d="M21.3,58.6c1.1,0.7,2.2,1.4,3.3,2"/>
			<path fill="#823733" d="M32.9,65.2c-1.1-0.7-1.9-1.2-3-1.9C31.3,63.6,32,64.2,32.9,65.2z"/>
			<path fill="#823733" d="M32.9,65.2c-1.1-0.7-2.2-1.4-3.3-2"/>
			<path fill="#823733" d="M27.1,78.7c0.1-0.4,0.1-0.1-0.3,0c-0.4,0-1,0-1.1-0.2c-0.2-0.4,0.2,0.4,0.2,0.4S27.1,79,27.1,78.7z"/>
		</g>
	</g>
	<rect fill="none" width="40" height="100"/>
</g>
</svg>
