<?xml version="1.0" encoding="utf-8"?>
<!-- Generator: Adobe Illustrator 18.0.0, SVG Export Plug-In . SVG Version: 6.00 Build 0)  -->
<!DOCTYPE svg PUBLIC "-//W3C//DTD SVG 1.1//EN" "http://www.w3.org/Graphics/SVG/1.1/DTD/svg11.dtd">
<svg version="1.1" id="圖層_1" xmlns="http://www.w3.org/2000/svg" xmlns:xlink="http://www.w3.org/1999/xlink" x="0px" y="0px"
	 viewBox="0 0 40 100" enable-background="new 0 0 40 100" xml:space="preserve">
<g>
	<g>
		<g>
			<path fill="none" stroke="#823733" stroke-width="0.4423" stroke-miterlimit="10" d="M20.8,63.2c0.1-0.8,0.1-1.6,0.1-2.4
				c-0.1-0.9-1-1.5-1.7-1.6c-1.7-0.3-3.1,0.4-4,1.7c-0.7,0.9-1.3,1.9-1.5,3.1c-0.1,0.6-0.6,1.3-1.3,1.6c-1.7,0.7-2.2,2-2,3.7
				c0.3,2,1,3.7,2.8,4.9c1.6,1,3.1,0.5,4.6-0.1c0.9-0.4,1.7-0.9,2.7-1c0.9-0.1,1.7-0.2,2.6-0.3c1.1-0.1,1.8,0.8,2.3,1.5
				c0.1,0.1,0.1,0.6,0.1,1.3v0.2c0,0.1-0.1,0.6-0.8,1.1c-1.5,1-0.8,1.6-0.8,1.6s0.4,0.6,2.1,0.4c0,0,1.3,0.2-0.2,0.8
				c-0.3,0.1-1.6,0.3-1.5,0.7c0.1,0.3,0.3,0.5,0.7,0.6c0.8,0.2,2.2-0.3,3.2-1.2"/>
			<path fill="none" stroke="#823733" stroke-width="0.4423" stroke-miterlimit="10" d="M21.6,79.3c-1.1,1-0.8,2,0.5,2.8
				c1.2,0.8,2.5,0.8,3.9,0.9c1.6,0.2,2.9,0,4.2-1c0.6-0.4,0.7-0.9,0.5-1.4c-0.2-0.6-0.4-1.2-1-1.6c-0.5-0.3-0.8-0.4-1.2-0.8
				c-0.5-0.4-0.6-1.3-0.6-1.8l-0.4-4.3c-0.1-0.8-0.4-1.3-1.1-1.8c-0.6-0.4-1-0.7-1.6-0.2c0,0-0.4,0.3-0.3,0.8
				c0.1,0.8,0.8,0.8,1.2,1.5c0.2,0.4,0.1,0.8-0.1,1.2l-0.4,0.3"/>
			<path fill="none" stroke="#823733" stroke-width="0.4423" stroke-miterlimit="10" d="M24.4,70.6c-0.7-0.9-1.7-1.8-2.4-2.7
				c-1.1-1.5-0.9-3,0.1-4.5c0.2-0.3,1-0.3,1.6,0.1c1.3,0.8,1.9,2,2,3.5c0,1.1,0.1,2.1,0.3,3.2c0,0.1,0,0.2-0.1,0.3"/>
			<path fill="none" stroke="#823733" stroke-width="0.4423" stroke-miterlimit="10" d="M18.7,63.3c-0.2-0.4-0.1-0.7,0.3-0.9
				c0.3-0.2,0.5-0.3,0.7-0.7c0.4-0.8-0.5-2.1-1.8-1.4c-0.7,0.4-1.9,2.8-1.8,3.3"/>
			<path fill="none" stroke="#823733" stroke-width="0.4423" stroke-miterlimit="10" d="M20.1,62.9c-1.2,0.6-2.5,0.7-3.9,0.8
				c-0.1,0-0.8,0.2-0.9,0.2"/>
			<path fill="none" stroke="#823733" stroke-width="0.4423" stroke-miterlimit="10" d="M20.6,63.4c0.5-0.2,1-0.4,1.5-0.1"/>
		</g>
		<path opacity="0.35" fill="none" stroke="#823733" stroke-width="0.2654" stroke-miterlimit="10" enable-background="new    " d="
			M11.9,62.9c0,0,1.3-5.9,6.5-6.2s4.2,3.1,4.2,3.1s-0.1,2.1,3.2,1.9c3.3-0.2,4.3,13.6,4.3,13.6s-0.4,1.9,2.2,2.9
			c2.5,1.1,1.9,6.8-6.3,6.3s-7.4-4.7-7.6-5.6s-0.3-2.7-2.2-2.5s-5.6,0.2-7.3-5s1.6-6.4,1.6-6.4S11.4,64.4,11.9,62.9z"/>
	</g>
	<rect fill="none" width="40" height="100"/>
</g>
</svg>
