<?xml version="1.0" encoding="utf-8"?>
<!-- Generator: Adobe Illustrator 18.0.0, SVG Export Plug-In . SVG Version: 6.00 Build 0)  -->
<!DOCTYPE svg PUBLIC "-//W3C//DTD SVG 1.1//EN" "http://www.w3.org/Graphics/SVG/1.1/DTD/svg11.dtd">
<svg version="1.1" id="圖層_1" xmlns="http://www.w3.org/2000/svg" xmlns:xlink="http://www.w3.org/1999/xlink" x="0px" y="0px"
	 viewBox="-25 0 65 100" enable-background="new -25 0 65 100" xml:space="preserve">
<g>
	<path opacity="0.3" fill="#F3AE00" d="M-17,64.4c0,0-1.9,4.9,0.9,5.3s4.1-0.6,7.7,1.1c3.6,1.7,14.4,1.5,18.1,1.5s3.6-1.3,7.7-1.1
		c4.1,0.2,7.1,0.2,7.7-0.6c0.6-0.8-0.7-3.6-0.7-3.6s-2.6-5.5-2.6-11.4s0.6-7.8,0-12C21.1,39.3,20.8,30,20.8,30v-1.5c0,0,0-1.5,0-3.2
		c0-1.7-0.9-0.2-3.2,0c-2.2,0.2-11,1.5-15.1,0.5s-14.6,0-16.9,0s-1.3,1.3-0.8,2.7c0.4,1.5,0.8,3,0.8,3s-1.6,14-1.6,18.4
		s0,12.1,0,12.1L-17,64.4z"/>
	<path fill="#FFFFFF" d="M2.8,63l-6-5.4l-3-2.7l-1.5-1.3l-0.8-0.7c-0.3-0.2-0.4-0.4-0.6-0.6c-0.6-1-0.4-2.8,0.3-3.5l3-2.7l6-5.5
		l1.5-1.4c0.5-0.5,0.9-0.8,1.4-0.9c0.5,0,0.9,0.1,1.4,0.6L6,40.3l6,5.5l3,2.7l0.8,0.7c0.1,0.1,0.3,0.2,0.4,0.3
		c0.1,0.1,0.2,0.2,0.2,0.3c0.2,0.4,0.3,1.1,0.1,1.6c-0.1,0.3-0.2,0.4-0.4,0.6l-0.8,0.7l-1.5,1.4l-3,2.7c-3,2.7-6.7,6.8-6.4,7.5"/>
	<path d="M-13.4,66c0.1-0.7,0.1-1.3,0-2c0-0.3-0.1-0.6-0.1-1l-0.1-0.5l-0.1-0.4v-7.7l0-3.9c0-1.3,0.1-2.6,0.2-3.8
		c0.2-2.6,0.4-5.1,0.7-7.7l0.4-3.9l0.1-1l0.1-0.5l0-0.2c0-0.1,0.1-0.3,0-0.4l-0.5-1.9l-0.3-0.9c-0.1-0.3-0.2-0.6-0.3-0.9
		c-0.1-0.3-0.2-0.6-0.2-0.7c0,0,0-0.1,0-0.1c0,0,0.1,0,0.2-0.1c0.4-0.1,1.2,0,1.8-0.1l1.9-0.1c2.6-0.2,5.2-0.3,7.7-0.3
		c1.3,0,2.6,0.1,3.8,0.2c0.3,0,0.6,0.1,0.9,0.2l1,0.2c0.7,0.1,1.3,0.2,2,0.2c2.6,0.1,5.2-0.1,7.8-0.4c1-0.1,2.1-0.3,3.2-0.4
		c0.5-0.1,1.1-0.2,1.6-0.4c0.5-0.2,1-0.5,1.2-0.6c0.2-0.1,0.4,0,0.4,0.1c0.1,0.2,0.1,0.3,0.1,0.5c0.1,0.4,0.1,0.7,0.2,1
		c0.1,0.6,0.3,0.9,0.4,0.9l0-2.1l0-0.5c0-0.1-0.1-0.3-0.1-0.4c-0.1-0.2-0.4-0.4-0.6-0.4c-0.3,0-0.6,0.1-0.8,0.2l-0.5,0.2
		c-0.3,0.1-0.6,0.2-0.9,0.3c-0.3,0.1-0.6,0.1-1,0.1l-2.1,0.2c-2.7,0.3-5.4,0.6-8.1,0.6c-0.7,0-1.3,0-2-0.1c-0.7-0.1-1.2-0.2-2-0.4
		C1.3,27-0.1,27-1.5,26.9c-2.8,0-5.5,0.1-8.3,0.3l-2,0.1l-1,0c-0.4,0-0.7,0-1.3,0.3c-0.3,0.2-0.4,0.4-0.5,0.7c0,0.3,0,0.5,0.1,0.7
		c0.1,0.4,0.2,0.7,0.4,1c0.2,0.6,0.4,1.3,0.6,1.9l0.3,1l0.1,0.2c0,0,0,0,0,0.1l-0.1,0.5l-0.2,2l-0.4,4.1c-0.3,2.7-0.5,5.5-0.7,8.2
		c-0.1,1.4-0.1,2.8-0.1,4.1v4.1c0,1.9,0.1,4,0.3,5.8c0.4,1,0.6,1.9,0.7,2.6C-13.6,65.5-13.6,66-13.4,66z"/>
	<path d="M-15.8,64.9c-0.2,0.9-0.4,1.8-0.4,2.7c0,0.5,0.1,1,0.5,1.5c0.3,0.5,0.9,0.8,1.4,0.9c0.9,0.1,1.8,0.1,2.7,0.1
		c0.9,0,1.6,0,2.4,0.2c0.4,0.1,0.8,0.2,1.2,0.4c0.4,0.1,0.7,0.3,1.2,0.5c0.9,0.3,1.7,0.5,2.6,0.7c1.7,0.3,3.5,0.4,5.2,0.5
		c1.7,0.1,3.5,0.1,5.2,0.1l2.6,0c0.9,0,1.7,0,2.6-0.1c0.9-0.1,1.8-0.4,2.6-0.6c0.8-0.2,1.6-0.3,2.4-0.3c1.7,0,3.4,0.2,5.2,0.1
		c0.7,0,1.4-0.1,2.1-0.3c0.3-0.1,0.8-0.3,1-0.7c0.2-0.5,0.1-0.8,0-1.1c-0.4-1.2-1-1.8-1.3-1.7c0.2,0.4,0.3,0.8,0.4,1.2
		c0.1,0.4,0.2,0.8,0.1,1.1c0,0.2,0,0.1-0.1,0.2c-0.1,0.1-0.3,0.1-0.4,0.2c-0.4,0.1-0.8,0.1-1.2,0.2c-1.7,0.1-3.4,0-5.1-0.1
		c-0.9,0-1.8,0-2.7,0.1c-0.9,0.2-1.7,0.5-2.5,0.7c-0.8,0.2-1.6,0.2-2.5,0.2l-2.6,0c-3.4,0-6.9-0.1-10.2-0.5
		c-0.8-0.1-1.7-0.3-2.5-0.5c-0.4-0.1-0.7-0.3-1.1-0.4c-0.4-0.2-0.8-0.4-1.3-0.5C-9,69.1-10,69-10.9,69c-0.9,0-1.7,0.1-2.5,0
		c-0.3,0-0.7,0-0.9-0.1c-0.3,0-0.4-0.2-0.6-0.3c-0.3-0.4-0.5-1-0.5-1.6C-15.6,65.9-15.5,65-15.8,64.9z"/>
	<path d="M19.8,32.4c0.1,2.6,0.3,5.2,0.4,7.8c0.1,1.3,0.2,2.6,0.3,3.9c0.2,1.3,0.3,2.5,0.3,3.8c0,2.5-0.2,5.1-0.2,7.8
		c0,1.3,0,2.6,0.2,3.9c0.2,1.3,0.5,2.6,0.7,3.9c0.2,0.9,0.5,2,0.8,2.8c0.3,0.8,0.6,1.5,0.8,1.5c0-2.7-0.9-5.2-1.3-7.7
		c-0.4-2.5-0.3-5.1-0.2-7.6c0.1-1.3,0.1-2.6,0.1-3.9c0-1.3-0.1-2.6-0.3-3.9c-0.3-2.5-0.5-5.1-0.6-7.7C21,34.8,20.4,32.4,19.8,32.4z"
		/>
	<path d="M-12.9,31.7l14,0.6c1.2,0.1,2.3,0.1,3.5,0.1c1.3,0,2.4-0.2,3.5-0.3l7-0.6c1.8-0.2,4-0.8,3.9-1.4L5.2,31.3
		c-2.3,0-4.6-0.1-7-0.2l-7-0.3C-10.6,30.7-12.9,31.1-12.9,31.7z"/>
	<path d="M21.7,67.5c-0.5,0.2-1.1,0.4-1.6,0.5c-0.3,0-0.6,0.1-0.9,0.1c-0.3,0-0.7,0-1,0c-1.3,0.1-2.5,0.3-3.7,0.4
		C12,68.9,9.5,69.1,7,69.3c-2.5,0.2-4.9,0-7.4-0.3c-2.5-0.3-4.9-0.9-7.4-1.3c-1.8-0.2-4.3-0.4-4.4,0.2c1.2,0.3,2.5,0.6,3.7,0.8
		c1.2,0.1,2.4,0.4,3.7,0.6c2.5,0.5,4.9,0.9,7.5,1c2.5,0.2,5.1,0,7.6-0.2c2.5-0.2,5-0.6,7.4-0.9c0.4-0.1,0.9-0.1,1.4-0.2
		c0.5-0.1,1-0.2,1.4-0.4C21.4,68.3,21.8,67.8,21.7,67.5z"/>
	<path fill="#B90518" stroke="#B90518" stroke-width="0.3309" stroke-miterlimit="10" d="M-1.4,48.3c0-0.2,0.1-0.5,0.1-0.7
		c0.2-1.3,1.2-2.2,2.5-2.2c1.6-0.1,3.2-0.1,4.8,0c1.4,0.1,2.5,1.1,2.5,2.6c0,1.5,0,3.1,0,4.6c0,1.4-1.1,2.5-2.5,2.6
		c-1.6,0.1-3.2,0.1-4.8,0c-1.4-0.1-2.4-1.1-2.5-2.6c0-0.1,0-0.2-0.1-0.4C-1.4,50.9-1.4,49.6-1.4,48.3z M3.5,54.2c0.7,0,1.5,0,2.2,0
		c1.1,0,1.8-0.7,1.9-1.9c0-1.4,0-2.8,0-4.3c0-1.1-0.7-1.8-1.9-1.9c-1.4,0-2.9,0-4.3,0c-1.1,0-1.8,0.7-1.9,1.8c0,1.4,0,2.9,0,4.3
		c0,1.1,0.7,1.8,1.9,1.8C2.1,54.2,2.8,54.2,3.5,54.2z"/>
	<path fill="#B90518" stroke="#B90518" stroke-width="0.3309" stroke-miterlimit="10" d="M3.5,47.7c-1.4,0-2.5,1.1-2.5,2.5
		c0,1.4,1.1,2.5,2.5,2.5c1.4,0,2.5-1.1,2.5-2.5C6.1,48.8,4.9,47.7,3.5,47.7z M3.5,51.9c-0.9,0-1.7-0.7-1.7-1.7s0.7-1.7,1.7-1.7
		s1.7,0.7,1.7,1.7S4.5,51.9,3.5,51.9z"/>
	<path fill="#B90518" stroke="#B90518" stroke-width="0.3309" stroke-miterlimit="10" d="M6.8,47.6c0,0.3-0.3,0.6-0.6,0.6
		s-0.6-0.3-0.6-0.6c0-0.3,0.3-0.6,0.6-0.6S6.8,47.2,6.8,47.6z"/>
	<path stroke="#000000" stroke-width="0.1409" stroke-miterlimit="10" d="M-15.9,73.9c0.7,0.2,1.4,0.3,2.1,0.4
		c0.4,0,0.7,0.1,1.1,0.1c0.3,0,0.6-0.1,0.7-0.4c0-0.1,0-0.3-0.1-0.4l-0.1-0.2l-0.1-0.1c-0.6-0.5-1.2-0.9-1.9-1.2
		c-0.4-0.1-0.7-0.2-1.1-0.2c-0.2,0-0.4,0-0.5,0c-0.1,0-0.2,0-0.3,0.1c-0.1,0-0.3,0.1-0.3,0.3c-0.1,0.2-0.1,0.5,0,0.6
		c0.1,0.2,0.2,0.3,0.3,0.4c0.2,0.2,0.4,0.2,0.5,0.1c-0.2-0.3-0.4-0.6-0.4-0.8c0,0,0-0.1,0.1-0.1c0.1,0,0.3,0,0.5,0
		c0.7,0,1.3,0.2,1.9,0.5c0.3,0.2,0.6,0.4,0.8,0.6l0.2,0.1c0,0,0,0,0,0.1c0,0,0,0.1,0,0.1c0,0-0.2,0-0.3,0c-0.2,0-0.3,0-0.5-0.1
		c-0.3,0-0.7-0.1-1-0.2C-15.1,73.6-15.8,73.6-15.9,73.9z"/>
	<path stroke="#000000" stroke-width="0.1409" stroke-miterlimit="10" d="M-16.7,69.7L-16.7,69.7C-16.7,69.7-16.7,69.7-16.7,69.7
		c-0.1,0-0.3,0-0.4,0c0,0.2,0.2,0.3,0.3,0.4c0.2,0,0.4-0.1,0.4-0.2c0.1-0.2,0-0.4-0.1-0.5c-0.1-0.1-0.4-0.1-0.5,0
		c-0.1,0,0,0.2,0,0.2C-16.9,69.7-16.9,69.7-16.7,69.7C-16.8,69.7-16.7,69.7-16.7,69.7z"/>
	<path stroke="#000000" stroke-width="0.1409" stroke-miterlimit="10" d="M-10.4,73L-10.4,73C-10.5,73-10.4,73-10.4,73
		c-0.2,0.1-0.3,0-0.5,0c0,0.2,0.2,0.4,0.4,0.4c0.2,0,0.4-0.1,0.5-0.3c0.1-0.2,0-0.4-0.2-0.5c-0.2-0.1-0.4-0.1-0.6,0
		c-0.1,0-0.1,0.2,0,0.2c0,0,0.1,0.1,0.2,0.1C-10.5,73-10.4,73-10.4,73z"/>
	<path stroke="#000000" stroke-width="0.1409" stroke-miterlimit="10" d="M-17.8,70.9L-17.8,70.9C-17.8,70.9-17.8,70.8-17.8,70.9
		c-0.1,0-0.3,0-0.4,0c0,0.2,0.2,0.3,0.3,0.4c0.2,0,0.4-0.1,0.4-0.2c0.1-0.2,0-0.4-0.1-0.5c-0.1-0.1-0.4-0.1-0.5,0
		c-0.1,0,0,0.2,0,0.2C-18,70.8-17.9,70.8-17.8,70.9C-17.9,70.9-17.8,70.9-17.8,70.9z"/>
	<path d="M-3.6,56.2l-2.8-2.5l-0.7-0.6h-1.8c0,0,0.1,0.1,0.1,0.1l11.1,9.9C2.6,62.5-0.8,58.7-3.6,56.2z"/>
	<path d="M-4,45.3l4.7-4.3l1.4-1.3c0.4-0.4,0.8-0.6,1.2-0.6c0.4,0,0.8,0.3,1.3,0.8L6,41.3l4.4,4h1.8l-1.1-1l-5.5-5l-0.7-0.6
		l-0.4-0.3c-0.1-0.1-0.3-0.2-0.4-0.3c-0.6-0.3-1.3-0.3-1.9,0c-0.2,0.1-0.3,0.2-0.4,0.3l-0.3,0.3l-0.7,0.6l-1.4,1.3l-5.2,4.7H-4z"/>
	<path d="M13.5,53.1l-0.2,0.2L12,54.5L9.2,57l-5.5,5c0.3,0.7,4.1-2,6.9-4.5l2.8-2.5l1.4-1.2c0.2-0.2,0.4-0.4,0.5-0.6H13.5z"/>
</g>
<rect x="-25" fill="none" width="65" height="100"/>
</svg>
