<?xml version="1.0" encoding="utf-8"?>
<!-- Generator: Adobe Illustrator 18.0.0, SVG Export Plug-In . SVG Version: 6.00 Build 0)  -->
<!DOCTYPE svg PUBLIC "-//W3C//DTD SVG 1.1//EN" "http://www.w3.org/Graphics/SVG/1.1/DTD/svg11.dtd">
<svg version="1.1" id="圖層_1" xmlns="http://www.w3.org/2000/svg" xmlns:xlink="http://www.w3.org/1999/xlink" x="0px" y="0px"
	 viewBox="0 0 40 100" enable-background="new 0 0 40 100" xml:space="preserve">
<g>
	<rect fill="none" width="40" height="100"/>
	<g>
		<path opacity="0.2" fill="#796A56" enable-background="new    " d="M2.7,58.4c0,0,2.3-2.9,8.2-0.7s10.6,7.8,12.5,8.8
			s3.7,1.1,6.9,1c3.2,0,6.3,4.9,4,10.2c-2.3,5.3-6.9,7.1-12,4.7s-7.3-8.1-8.1-12.2c-0.8-4.2-6.1-3.3-7.9-4.6S0.2,63,2.7,58.4z"/>
		<path fill="#FFFFFF" d="M2.9,58.1c0,0,2.3-2.9,8.2-0.7s10.6,7.8,12.5,8.8s3.7,1.1,6.9,1c3.2,0,6.3,4.9,4,10.2
			c-2.3,5.3-6.9,7.1-12,4.7s-7.3-8.1-8.1-12.2c-0.8-4.2-6.1-3.3-7.9-4.6S0.4,62.8,2.9,58.1z"/>
		<path fill="#EDBD62" d="M18.6,70.5c0-0.2-0.2-0.3-0.3-0.4c-0.4-0.4-0.6-0.9-1-1.4c-1.2-1.6-2.7-2.9-4.6-3.3
			C11.2,65,9.6,64.6,8,64.2c-2-0.5-2.3-1.4-1.7-3.2c1-0.2,2.1-0.3,3.1,0c3.8,1,6.8,3.3,9.5,6.2c1.4,1.5,2.6,3.4,4.8,3.9
			c0.2,0.1,0.4,0.1,0.4,0.4c0,0,5.5,0.8,6.9,4.7c0.7,0.5,0.3,1.3,0.3,1.9s0,1.2-0.7,1.5c-0.8,0.4-1.4,1-2.2,1.3
			c-1.1,0.3-2.1,0.9-3.4,0.6c-1.9-0.5-3.5-1.4-4.6-3c-0.5-0.8-1.4-1.3-1.7-2.3c-0.3-0.8-0.4-1.7-0.5-2.5c-0.1-0.6-0.1-1.2,0.4-1.6"
			/>
		<path fill="#804F21" d="M23.4,74.6c0.4,0.7,0.8,1.5,1.7,1.8l0.2,0.1c1,0.6,1.9,1.1,2.9,1.7c0.5,0.3,0.8,0.2,1.3,0
			c1.8-0.7,2.3-1.5,2.3-3.5c0-0.8,0.2-1.7,0.4-2.5c0.1-0.6,0-1-0.5-1.4c-1-0.7-2-0.9-3.1-0.5c-0.9,0.3-1.8,0.6-2.7,0.7
			c-0.9,0.1-1.7-0.2-2.5,0.4c-0.2,0.2-0.5,0.7-0.6,1.1C22.6,72.6,22.3,72.9,23.4,74.6z"/>
		<path fill="none" stroke="#823733" stroke-width="0.5" stroke-miterlimit="10" d="M24.5,70.7c0-0.3-0.2-0.4-0.4-0.4
			c-2.2-0.6-3.4-2.4-4.8-3.9c-2.6-2.9-5.6-5.2-9.5-6.2C9.1,60,8.3,60,7.5,60.1c-0.4,0.1-0.8,0.4-0.9,0.8c-0.3,1.4,0.2,2.1,1.9,2.5
			c1.6,0.4,3.1,0.8,4.7,1.2c1.9,0.5,3.4,1.7,4.6,3.3c0.3,0.4,0.6,0.9,1,1.4c0.1,0.1,0.3,0.2,0.3,0.4c0.1,1.6,0.7,3.1,0.8,4.7
			c0,0.6,0.4,1.4,0.1,2.1"/>
		<path fill="none" stroke="#823733" stroke-width="0.5" stroke-miterlimit="10" d="M22.2,72c0.1,0,0.3-0.6,0.6-0.8
			c0.8-0.6,1.6-0.3,2.5-0.4s1.8-0.4,2.7-0.7c1.1-0.4,2.2-0.2,3.1,0.5c0.5,0.3,0.6,0.8,0.5,1.4c-0.2,0.8-0.4,1.7-0.4,2.5
			c0,2-0.4,2.7-2.3,3.5c-0.5,0.2-0.8,0.2-1.3,0c-0.9-0.6-1.9-1.1-2.9-1.7l-0.2-0.1c-0.8-0.4-1.3-1.2-1.7-1.8
			c-0.5-0.9-1.3-1.5-0.5-2.6"/>
		<path fill="none" stroke="#823733" stroke-width="0.5" stroke-miterlimit="10" d="M19,71.1c-0.5,0.5-0.5,1.1-0.4,1.6
			c0.1,0.8,0.3,1.7,0.5,2.5c0.3,1,1.2,1.5,1.7,2.3c1.1,1.6,2.7,2.5,4.6,3c1.3,0.3,2.3-0.2,3.4-0.6c0.8-0.2,1.4-0.9,2.2-1.3
			c0.7-0.3,0.8-0.9,0.7-1.5c0-0.6,0.2-1.6-0.5-2.1"/>
		<path fill="none" stroke="#C19962" stroke-width="0.5" stroke-miterlimit="10" d="M27.9,71.7c1.2,0.6,1.2,0.6,0.9,1.8
			c-0.2,0.6-0.4,1.2-0.2,1.9"/>
	</g>
</g>
</svg>
