<?xml version="1.0" encoding="utf-8"?>
<!-- Generator: Adobe Illustrator 18.0.0, SVG Export Plug-In . SVG Version: 6.00 Build 0)  -->
<!DOCTYPE svg PUBLIC "-//W3C//DTD SVG 1.1//EN" "http://www.w3.org/Graphics/SVG/1.1/DTD/svg11.dtd">
<svg version="1.1" id="圖層_1" xmlns="http://www.w3.org/2000/svg" xmlns:xlink="http://www.w3.org/1999/xlink" x="0px" y="0px"
	 viewBox="0 0 40 100" enable-background="new 0 0 40 100" xml:space="preserve">
<g>
	<g>
		<path fill="none" stroke="#823733" stroke-width="0.4417" stroke-miterlimit="10" d="M28.6,69.5c0.4,0.4,0.5,0.9,0.5,1.4
			c-0.2,1-0.2,2,0,3c0.2,0.7-0.3,1.1-0.8,1.6c-0.8,0.7-1.8,1.1-2.8,1.4c-0.2,0.1-0.4,0-0.6-0.1"/>
		<path fill="none" stroke="#823733" stroke-width="0.4417" stroke-miterlimit="10" d="M32.8,74.3c-0.8,0.2-1.6-0.1-2.4-0.1
			c-0.3,0-0.6-0.1-0.9-0.2"/>
		<path fill="none" stroke="#823733" stroke-width="0.4417" stroke-miterlimit="10" d="M5.1,80c0.7,0.6,1.1,0.5,1.7,0
			c0.5-0.3,1-0.7,1.4-1.1c0.5-0.4,1.1-0.4,1.6-0.6c1.3-0.5,1.3-0.4,1-1.8c-0.2-0.8-0.6-1.4-0.8-2.2c-0.1-0.5-1.2-0.9-1.8-0.7
			c-0.9,0.3-1.7,0.5-2.6,0.7c-0.4,0.1-0.7-0.1-1-0.2c-0.8-0.3-1.2-0.2-1.4,0.7c-0.3,0.9-0.6,1.9-0.9,2.9c0.9,0.5,1.9,1.1,2.9,1.5"/>
		<path fill="none" stroke="#823733" stroke-width="0.4417" stroke-miterlimit="10" d="M5.3,79.4c0-0.3-0.1-0.5,0-0.8
			c0.1-0.7-0.1-1.3-0.3-1.9c-0.1-0.2-0.1-0.4-0.1-0.5"/>
		<path fill="none" stroke="#823733" stroke-width="0.4417" stroke-miterlimit="10" d="M3.9,75.1c0.6,1.4,2.3,1.8,3.5,0.9
			c0.6-0.4,1.8-0.2,2.4,0.2c0.3,0.2,0.6,0.4,1,0.4"/>
		<path fill="none" stroke="#823733" stroke-width="0.4417" stroke-miterlimit="10" d="M30.4,70.1c0.7,0.3,1.3,0.7,1.9,1.2"/>
		<path opacity="0.35" fill="none" stroke="#823733" stroke-width="0.265" stroke-miterlimit="10" enable-background="new    " d="
			M21.4,57.6c-0.8,0.4-5.6,2.4-7.1,5s-0.6,6.9,3.5,10.2S22,83.9,30,82s10.5-10,6.4-13.5s-7.5-3.1-8.7-8.1
			C26.6,55.4,21.4,57.6,21.4,57.6z"/>
		<path opacity="0.35" fill="none" stroke="#823733" stroke-width="0.265" stroke-miterlimit="10" enable-background="new    " d="
			M8.7,71.1c-4.8-0.6-8.9,3.8-7.5,8.5v0.1c1.5,4.8,11.2,1.5,11.9-0.5c0.8-2,1.3-5-2-7.2C10.5,71.5,9.6,71.2,8.7,71.1z"/>
		<path fill="none" stroke="#823733" stroke-width="0.4417" stroke-miterlimit="10" d="M25.8,65.1c-0.9-0.3-2.2,0.7-3.1,1.8
			c-0.5,0.6-1.1,1.4-1.8,1.5c-0.4,0.1-0.7,0.2-1,0.5"/>
		<path fill="none" stroke="#823733" stroke-width="0.4417" stroke-miterlimit="10" d="M21.5,62.5c-0.9,0-1.1,0.4-1.3,1.2
			c-0.1,0.6-0.2,1.2-0.2,1.8s-0.4,1-0.7,1.6c-0.6,1.3-0.6,1.2,0.6,2c0.7,0.4,1.4,0.6,2.1,1c0.4,0.2,1.5-0.3,1.7-0.8
			c0.4-0.8,0.9-1.6,1.4-2.4c0.2-0.3,0.5-0.4,0.8-0.6c0.8-0.4,1-0.7,0.6-1.5c-0.4-0.8-0.8-1.5-1.2-2.4c-0.1-0.2-0.3-0.3-0.5-0.2
			c-0.9,0.2-1.9,0.5-2.8,0.9"/>
		<path fill="none" stroke="#823733" stroke-width="0.4417" stroke-miterlimit="10" d="M21.8,63.5c0.2,0.2,0.5,0.3,0.6,0.6
			c0.4,0.6,0,1.1,0.7,1.4c0.2,0.1,0.3,0.2,0.5,0.3"/>
		<path fill="none" stroke="#823733" stroke-width="0.4417" stroke-miterlimit="10" d="M32.1,68.9c0.8,0.2,0.9,1.1,1.1,1.9
			c0.4,1.4,0.6,2.8,0.9,4.1c0.1,0.2,0,0.5-0.2,0.7c-0.5,0.6-1,1.2-1.6,1.7c-0.4,0.3-0.8,0.6-1.4,0.4c-0.3-0.1-0.5,0.1-0.7,0.3
			c-0.8,0.7-1.7,1.2-2.8,1.5c-0.3,0.1-0.6,0-0.8-0.2c-0.5-0.5-1-1-1.4-1.5c-1-1.2-0.9-3.3-0.2-4.3c0.6-0.9,1.3-1.7,1.9-2.6
			c0.1-0.1,0.2-0.3,0.3-0.4c0.4-1,1.3-1.1,2.1-1.1c0.9,0,1.3-0.2,2.2-0.4C31.5,68.8,31.7,68.8,32.1,68.9z"/>
	</g>
	<rect fill="none" width="40" height="100"/>
</g>
</svg>
