<?xml version="1.0" encoding="utf-8"?>
<!-- Generator: Adobe Illustrator 18.0.0, SVG Export Plug-In . SVG Version: 6.00 Build 0)  -->
<!DOCTYPE svg PUBLIC "-//W3C//DTD SVG 1.1//EN" "http://www.w3.org/Graphics/SVG/1.1/DTD/svg11.dtd">
<svg version="1.1" id="圖層_1" xmlns="http://www.w3.org/2000/svg" xmlns:xlink="http://www.w3.org/1999/xlink" x="0px" y="0px"
	 viewBox="0 0 40 100" enable-background="new 0 0 40 100" xml:space="preserve">
<g>
	<g>
		<g>
			<path fill="none" stroke="#823733" stroke-width="0.5" stroke-miterlimit="10" d="M24.4,71.2c0-0.3-0.2-0.4-0.4-0.4
				c-2.2-0.6-3.4-2.4-4.8-3.9c-2.6-2.9-5.6-5.2-9.5-6.2c-1-0.3-2.1-0.2-3.1,0c-0.6,1.9-0.2,2.7,1.7,3.2c1.6,0.4,3.1,0.8,4.7,1.2
				c1.9,0.5,3.4,1.7,4.6,3.3c0.3,0.4,0.6,0.9,1,1.4c0.1,0.1,0.3,0.2,0.3,0.4c0.1,1.6,0.7,3.1,0.8,4.7c0,0.6,0.4,1.2,0.1,1.8"/>
			<path fill="none" stroke="#823733" stroke-width="0.5" stroke-miterlimit="10" d="M22.1,72.4c0.1,0,0.3-0.6,0.6-0.8
				c0.8-0.6,1.6-0.3,2.5-0.4s1.8-0.4,2.7-0.7C29,70.1,30,70.4,31,71c0.5,0.3,0.6,0.8,0.5,1.4c-0.2,0.8-0.4,1.7-0.4,2.5
				c0,2-0.4,2.7-2.3,3.5c-0.5,0.2-0.8,0.2-1.3,0c-0.9-0.6-1.9-1.1-2.9-1.7l-0.2-0.1c-0.8-0.4-1.3-1.2-1.7-1.8
				c-0.5-0.9-1.3-1.5-0.5-2.6"/>
			<path fill="none" stroke="#823733" stroke-width="0.5" stroke-miterlimit="10" d="M18.9,71.6c-0.5,0.5-0.5,1.1-0.4,1.6
				c0.1,0.8,0.3,1.7,0.5,2.5c0.3,1,1.2,1.5,1.7,2.3c1.1,1.6,2.7,2.5,4.6,3c1.3,0.3,2.3-0.2,3.4-0.6c0.8-0.2,1.4-0.9,2.2-1.3
				c0.7-0.3,0.8-0.9,0.7-1.5c0-0.6,0.4-1.4-0.3-1.9"/>
			<path fill="none" stroke="#823733" stroke-width="0.5" stroke-miterlimit="10" d="M27.8,72.1c1.2,0.6,1.2,0.6,0.9,1.8
				c-0.2,0.6-0.4,1.2-0.2,1.9"/>
		</g>
		<path opacity="0.35" fill="none" stroke="#823733" stroke-width="0.3" stroke-miterlimit="10" enable-background="new    " d="
			M2.8,58.5c0,0,2.3-2.9,8.2-0.7s10.6,7.8,12.5,8.8s3.7,1.1,6.9,1c3.2,0,6.3,4.9,4,10.2c-2.3,5.3-6.9,7.1-12,4.7s-7.3-8.1-8.1-12.2
			c-0.8-4.2-6.1-3.3-7.9-4.6C4.6,64.5,0.3,63.2,2.8,58.5z"/>
	</g>
	<rect fill="none" width="40" height="100"/>
</g>
</svg>
