<svg xmlns="http://www.w3.org/2000/svg" viewBox="0 0 165 165">
<g><g>
<path fill="#f3ae00" opacity="0.3" d="M160.82,122.51s5.6,14.55-2.81,15.81-12.33-1.89-23,3.17-43.16,4.43-54.37,4.43-10.65-3.8-23-3.17-21.3.63-23-1.9,2.24-10.75,2.24-10.75,7.85-16.45,7.85-34.17-1.69-23.41,0-36.06,2.8-40.49,2.8-40.49V5.32c0-5.2,2.8-.49,9.53,0s33.07,4.57,45.4,1.4,43.72,0,50.6,0,3.77,3.8,2.45,8.23-2.45,8.94-2.45,8.94S158,66,158,79.17v36.38Z"/><path d="M152.93,126.81a22.9,22.9,0,0,1,0-6c.11-1,.24-1.91.42-2.86l.28-1.41.29-1.21V80.66c-.05-3.79-.31-7.66-.6-11.51-.58-7.72-1.34-15.43-2.12-23.14l-1.23-11.57-.32-2.88-.16-1.45-.08-.72c0-.3-.2-.76,0-1.16l1.57-5.77.77-2.84c.31-1,.69-1.95,1-2.84a8,8,0,0,0,.61-2.16.4.4,0,0,0-.11-.27c-.07-.07-.17-.1-.55-.2-1.33-.26-3.63-.15-5.51-.3l-5.82-.35c-7.74-.47-15.47-.87-23.16-.84a87.53,87.53,0,0,0-11.39.7c-.94.09-1.81.34-2.71.51l-3,.6a55.23,55.23,0,0,1-6,.56,167.84,167.84,0,0,1-23.46-1.19c-3.09-.32-6.39-.81-9.57-1.31a20.85,20.85,0,0,1-4.87-1.06,29.23,29.23,0,0,1-3.7-1.84A.79.79,0,0,0,52.3,10,6.91,6.91,0,0,0,52,11.51c-.17,1.15-.34,2.16-.53,3-.37,1.69-.79,2.69-1.22,2.69V11l.11-1.35a5.13,5.13,0,0,1,.4-1.18,2.22,2.22,0,0,1,1.93-1.19,6,6,0,0,1,2.46.62l1.43.6a15.19,15.19,0,0,0,2.68.81,24.53,24.53,0,0,0,2.9.35l6.15.68A202.85,202.85,0,0,0,92.68,12c2,0,4-.12,6-.34a54.77,54.77,0,0,0,5.94-1.08,74.5,74.5,0,0,1,12.55-1c8.31-.09,16.55.37,24.77.86l6.13.36,3,.1a7.36,7.36,0,0,1,3.88.9A3.24,3.24,0,0,1,156.4,14a5.4,5.4,0,0,1-.19,2.21c-.33,1.18-.74,2.11-1.08,3.05C154.47,21,154,23.11,153.46,25l-.8,2.95-.19.72a.36.36,0,0,0,0,.25l.17,1.51.67,6.13,1.29,12.28c.81,8.19,1.6,16.38,2.12,24.63.29,4.12.33,8.35.3,12.43V98.26c0,5.68-.29,11.93-.77,17.41a65.54,65.54,0,0,0-2.2,7.72C153.59,125.37,153.4,126.72,152.93,126.81Z"/><path d="M160.16,123.5a24.77,24.77,0,0,1,1.16,8.18,8.93,8.93,0,0,1-1.37,4.45,6.6,6.6,0,0,1-4.29,2.58,40.24,40.24,0,0,1-8,.22,25,25,0,0,0-7.27.51,24.53,24.53,0,0,0-3.47,1.11c-1.18.44-2.18,1-3.56,1.5a38.13,38.13,0,0,1-7.81,2,142.23,142.23,0,0,1-15.59,1.51c-5.19.25-10.38.35-15.56.38H86.61a75.92,75.92,0,0,1-7.9-.23,38.91,38.91,0,0,1-7.77-1.89,24.86,24.86,0,0,0-7.22-.95c-5,.12-10.29.52-15.53.35a23.11,23.11,0,0,1-6.3-1,5.5,5.5,0,0,1-3.09-2.15,4.65,4.65,0,0,1-.09-3.34c1.16-3.52,3-5.38,3.78-5.08a29.19,29.19,0,0,0-1.19,3.48,8.89,8.89,0,0,0-.41,3.17c.07.45,0,.31.33.56a4.54,4.54,0,0,0,1.27.54A21.21,21.21,0,0,0,46,140a132.43,132.43,0,0,0,15.28-.18,34.06,34.06,0,0,1,8.09.44c2.76.52,5.16,1.57,7.49,2a35.74,35.74,0,0,0,7.4.54l7.73,0c10.29-.05,20.62-.2,30.71-1.5a54.92,54.92,0,0,0,7.37-1.47,23.05,23.05,0,0,0,3.4-1.24,38.84,38.84,0,0,1,3.76-1.52,25.06,25.06,0,0,1,8.1-1.34c2.71,0,5.22.28,7.64.1a18.42,18.42,0,0,0,2.67-.3,3.28,3.28,0,0,0,1.86-1,9,9,0,0,0,1.59-4.71C159.44,126.47,159.3,123.75,160.16,123.5Z"/><path d="M53.28,25.89c-.34,7.77-.75,15.53-1.3,23.3-.28,3.88-.59,7.76-1,11.66A91.39,91.39,0,0,0,50,72.29c0,7.6.73,15.45.68,23.25a85.3,85.3,0,0,1-.65,11.83c-.49,3.93-1.36,7.8-2.19,11.57a87.9,87.9,0,0,1-2.46,8.49c-.86,2.5-1.66,4.4-2.52,4.38.11-8.09,2.74-15.66,3.82-23.13s.9-15.2.63-22.94c-.15-3.86-.41-7.74-.45-11.69a81.76,81.76,0,0,1,.76-11.82c.91-7.62,1.38-15.38,1.84-23.1C49.82,33.3,51.56,25.82,53.28,25.89Z"/><path d="M151.38,23.75l-42,1.65c-3.53.17-7,.29-10.6.29-3.75,0-7.12-.57-10.64-.83L67.19,22.93c-5.25-.49-11.92-2.51-11.76-4.24l41.81,3.84c6.85.14,13.88-.41,20.88-.62l21-.82C144.43,20.88,151.32,22,151.38,23.75Z"/><path d="M47.76,131.39a16.82,16.82,0,0,0,4.9,1.44,20.54,20.54,0,0,0,2.6.2c.89,0,2,0,2.89.12,3.82.3,7.52.81,11.24,1.27,7.42.94,14.82,1.77,22.24,2.19a108.27,108.27,0,0,0,22.09-1c7.4-1,14.56-2.59,22.15-3.8,5.49-.47,12.75-1.14,13.29.49A75.25,75.25,0,0,1,138,134.71c-3.65.38-7.27,1.2-11,1.87a190.26,190.26,0,0,1-22.41,3.13A136,136,0,0,1,81.89,139c-7.48-.7-15-1.82-22.3-2.59l-4.26-.49a14.69,14.69,0,0,1-4.27-1.12C48.59,133.71,47.34,132.14,47.76,131.39Z"/>
<path fill="#fff" d="M103.39,118.22,121.48,102l9-8.09,4.52-4,2.26-2a6.73,6.73,0,0,0,1.69-2c1.82-3,1.3-8.35-1-10.37l-9-8.21L111,50.92l-4.5-4.11c-1.62-1.52-2.68-2.51-4.13-2.62a4.91,4.91,0,0,0-4.06,1.86l-4.51,4.1-18,16.41-9,8.2-2.25,2c-.34.33-.81.72-1.06,1a3.47,3.47,0,0,0-.63.86,6.3,6.3,0,0,0-.27,4.87,4.32,4.32,0,0,0,1.34,1.85l2.26,2,4.52,4.06,9,8.1C88.8,107.7,99.86,120,99,122.2"/><path d="M81.59,97.44,73.27,90l-2.12-1.9H65.63l.42.36,33.27,29.82C100.11,116.25,89.94,104.92,81.59,97.44Z"/><path d="M80.49,64.78,94.53,52l4.14-3.77a4.54,4.54,0,0,1,3.73-1.71c1.34.1,2.32,1,3.8,2.41l4.14,3.78,13.24,12.08H129l-3.19-2.91L109.27,46.76l-2.07-1.89-1-.95a8.2,8.2,0,0,0-1.32-.94,5.64,5.64,0,0,0-5.71.09,7.77,7.77,0,0,0-1.3,1l-1,.94-2.07,1.89-4.14,3.77L75.05,64.78Z"/><path d="M133,88.09l-.52.46-4.16,3.72L120,99.72l-16.64,14.89c.78,2,12.23-6,20.59-13.49l8.32-7.44L136.43,90A8.42,8.42,0,0,0,138,88.09Z"/>
<path fill="#b90518" d="M108.51,81.23a.93.93,0,0,0,.91-.81L110,75.6a.92.92,0,0,0-.91-1h-5.77v-4c0-1.83.51-3.07,3.13-3.07h2.43a.92.92,0,0,0,.92-.92V62.48a.92.92,0,0,0-.92-.91h-4c-4.82,0-8.12,2.94-8.12,8.35v4.66H92.91a.92.92,0,0,0-.92.92l0,4.82a.92.92,0,0,0,.92.91h3.89l0,14.91h6.52l0-14.91Z"/>
<path stroke="#000" stroke-miterlimit="10" stroke-width="0.42" d="M24.28,144.27a6.31,6.31,0,0,0-2.67-4.78A9.73,9.73,0,0,0,16.49,138,27.41,27.41,0,0,0,6.4,139.47,8.6,8.6,0,0,0,4,140.81a2.72,2.72,0,0,0-.53.54,2,2,0,0,0-.44.71,2.21,2.21,0,0,0,0,1.8A4.73,4.73,0,0,0,5.09,146,11.61,11.61,0,0,0,7.51,147a24.2,24.2,0,0,0,10.18.69,8.78,8.78,0,0,0,3.68-1.36c1-.65,1.45-1.43,1.2-1.8-2.6,1.51-6,1.86-9.17,1.8a20.57,20.57,0,0,1-4.71-.65,8.34,8.34,0,0,1-3.92-2c-.44-.52-.44-.81-.11-1.27a4.29,4.29,0,0,1,1.68-1.19A17.92,17.92,0,0,1,10.89,140c3.13-.42,6.61-.81,9.25.49a7.83,7.83,0,0,1,2.6,2.15C23.41,143.44,23.83,144.29,24.28,144.27Z"/>
<path stroke="#000" stroke-miterlimit="10" stroke-width="0.42" d="M140.57,155a14,14,0,0,0-3-4.33,7.86,7.86,0,0,0-4.89-2.3,11.61,11.61,0,0,0-5.17,1.12,38.59,38.59,0,0,0-4.62,2.14,16.51,16.51,0,0,0-2.2,1.43,6.68,6.68,0,0,0-1,1,2.56,2.56,0,0,0-.66,1.65,2.05,2.05,0,0,0,1,1.62,5.49,5.49,0,0,0,1.34.58,14.21,14.21,0,0,0,2.59.49,47.73,47.73,0,0,0,10.14,0,9.75,9.75,0,0,0,3.73-1.2c1-.61,1.57-1.34,1.35-1.72-2.78,1.27-6.18,1.55-9.4,1.59-1.63,0-3.29-.06-4.91-.19a17.64,17.64,0,0,1-2.36-.34,3.91,3.91,0,0,1-1.84-.75c-.1-.14-.13-.12-.06-.32a2.38,2.38,0,0,1,.54-.73,10.62,10.62,0,0,1,1.86-1.36,34,34,0,0,1,4.37-2.14,14.12,14.12,0,0,1,4.49-1.31,5.84,5.84,0,0,1,4.07,1.44C137.78,152.75,139.78,155.34,140.57,155Z"/>
<path stroke="#000" stroke-miterlimit="10" stroke-width="0.42" d="M149.88,154.28a.28.28,0,0,1-.4,0c-.09-.17.2-.21.31-.16a3.88,3.88,0,0,1,.49-.06c.31,0,.74.07,1.18.05a1.55,1.55,0,0,0-1.49-1.23,2,2,0,0,0-2,.82,1.21,1.21,0,0,0,.59,1.63,2.33,2.33,0,0,0,2.29-.1C151.36,154.89,150.77,154.22,149.88,154.28Z"/>
<path stroke="#000" stroke-miterlimit="10" stroke-width="0.42" d="M151.39,148.39h0s.13,0-.23.09a9.53,9.53,0,0,1-1.13,0,1.36,1.36,0,1,0,.46-1.14.51.51,0,0,0,.05.73,1,1,0,0,0,.46.23C151.15,148.37,151.48,148.39,151.39,148.39Z"/>
<path stroke="#000" stroke-miterlimit="10" stroke-width="0.42" d="M140.57,148.31h0s.13,0-.23.09a9.6,9.6,0,0,1-1.13,0,1.36,1.36,0,1,0,.46-1.14.51.51,0,0,0,.05.73,1,1,0,0,0,.46.24C140.34,148.29,140.66,148.31,140.57,148.31Z"/>
<path stroke="#000" stroke-miterlimit="10" stroke-width="0.42" d="M157,147.66h0l-.1,0a5.26,5.26,0,0,1-1.12.07,1.21,1.21,0,1,0,.41-1,.46.46,0,0,0,.09.67,1.09,1.09,0,0,0,.46.21Z"/>
<path stroke="#000" stroke-miterlimit="10" stroke-width="0.42" d="M134.09,153.7h0s.13,0-.23.08a6.61,6.61,0,0,1-1.13,0,1.36,1.36,0,0,0,2.62.4,1.36,1.36,0,0,0-2.16-1.53.5.5,0,0,0,.05.72.92.92,0,0,0,.46.24A1.87,1.87,0,0,0,134.09,153.7Z"/>
<path stroke="#000" stroke-miterlimit="10" stroke-width="0.42" d="M9.66,142.93a.26.26,0,0,1-.39,0c-.09-.16.19-.21.3-.15a2.87,2.87,0,0,1,.49-.07c.32,0,.75.07,1.18.05a1.55,1.55,0,0,0-1.49-1.23,1.92,1.92,0,0,0-1.95.83A1.2,1.2,0,0,0,8.39,144a2.31,2.31,0,0,0,2.28-.09C11.15,143.54,10.55,142.87,9.66,142.93Z"/>
<path stroke="#000" stroke-miterlimit="10" stroke-width="0.42" d="M44.87,147.68a.28.28,0,0,1-.4,0c-.09-.17.2-.21.31-.16a3.88,3.88,0,0,1,.49-.06c.31,0,.74.07,1.18.05A1.55,1.55,0,0,0,45,146.32a2,2,0,0,0-2,.82,1.21,1.21,0,0,0,.59,1.63,2.33,2.33,0,0,0,2.29-.1C46.36,148.29,45.76,147.62,44.87,147.68Z"/>
<path stroke="#000" stroke-miterlimit="10" stroke-width="0.42" d="M13.57,142.35h0s.09,0-.09,0a5.34,5.34,0,0,1-1.12.06,1.22,1.22,0,0,0,2.34.37,1.22,1.22,0,0,0-1.93-1.38.45.45,0,0,0,.09.66,1,1,0,0,0,.46.22Z"/>
<path stroke="#000" stroke-miterlimit="10" stroke-width="0.42" d="M34.86,143.47a.27.27,0,0,1,.12-.22c.1,0,.16.08.18.16s-.12.46-.26.24c0,0-.18.06-.48,0s-.7-.1-1.14-.08a1.88,1.88,0,0,0,1.08,1.73,1.39,1.39,0,0,0,1.73-.92,2.44,2.44,0,0,0,.09-1.67,1.77,1.77,0,0,0-.73-1,1.29,1.29,0,0,0-1.78.4.77.77,0,0,0,.11.9A1.48,1.48,0,0,0,34.86,143.47Z"/>
<path stroke="#000" stroke-miterlimit="10" stroke-width="0.42" d="M29.31,144.23h0l-.1,0a5.26,5.26,0,0,1-1.12.07,1.22,1.22,0,0,0,1,1.11,1.22,1.22,0,0,0,.89-2.2,1.22,1.22,0,0,0-1.51.07.46.46,0,0,0,.09.67,1.07,1.07,0,0,0,.47.21Z"/>
<path stroke="#000" stroke-miterlimit="10" stroke-width="0.42" d="M28.67,148.76c0-.19.27-.27.29,0s-.12.4-.25.22c0,0-.18,0-.48,0s-.7-.09-1.14-.08a1.73,1.73,0,0,0,1.06,1.59,1.41,1.41,0,0,0,1.75-.84,2,2,0,0,0,.08-1.54,1.7,1.7,0,0,0-.74-.94,1.36,1.36,0,0,0-1.76.4.67.67,0,0,0,.11.83A1.55,1.55,0,0,0,28.67,148.76Z"/>
<rect fill="none" width="165" height="165"/></g></g></svg>