<?xml version="1.0" encoding="utf-8"?>
<!-- Generator: Adobe Illustrator 23.0.2, SVG Export Plug-In . SVG Version: 6.00 Build 0)  -->
<svg version="1.1" xmlns="http://www.w3.org/2000/svg" xmlns:xlink="http://www.w3.org/1999/xlink" x="0px" y="0px"
	 viewBox="0 0 165 165" style="enable-background:new 0 0 165 165;" xml:space="preserve">
<g>
	<g>
		<path opacity="0.3" fill="#F3AE00" d="M24.6,125.5c0,0-5.6,14.5,2.8,15.8s12.3-1.9,23,3.2s43.1,4.5,54.3,4.5s10.7-3.8,23-3.2s21.3,0.6,23-1.9
			s-2.2-10.8-2.2-10.8s-7.9-16.4-7.9-34.2s1.7-23.4,0-36.1s-2.8-40.5-2.8-40.5V8.4c0-5.2-2.8-0.5-9.5,0S95.3,12.9,83,9.8
			s-43.7,0-50.6,0s-3.8,3.8-2.5,8.2s2.5,8.9,2.5,8.9S27.4,69,27.4,82.2v36.4L24.6,125.5z"/>
		<path d="M35.4,130.5c0.3-2,0.3-4,0-5.9c-0.1-1-0.2-1.9-0.4-2.9l-0.3-1.4l-0.3-1.2V84.3c0-3.8,0.3-7.7,0.6-11.5
			c0.6-7.7,1.3-15.4,2.1-23.1l1.2-11.6l0.3-2.9l0.2-1.4L39,33c0-0.3,0.2-0.8,0-1.2l-1.6-5.7l-0.8-2.8c-0.3-1-0.7-2-1-2.8
			c-0.3-0.7-0.5-1.4-0.6-2.2c0-0.1,0-0.2,0.1-0.3c0.1-0.1,0.2-0.1,0.5-0.2c1.3-0.3,3.6-0.1,5.5-0.3l5.8-0.3
			c7.7-0.5,15.5-0.9,23.2-0.9c3.8,0,7.6,0.2,11.4,0.7c0.9,0.1,1.8,0.3,2.7,0.5l3,0.6c2,0.3,4,0.5,6,0.6c7.8,0.2,15.7-0.2,23.5-1.2
			c3.1-0.3,6.4-0.8,9.6-1.3c1.7-0.2,3.3-0.5,4.9-1.1c1.3-0.5,2.5-1.1,3.7-1.8c0.3-0.3,0.8-0.2,1.1,0.2c0,0.1,0.1,0.1,0.1,0.2
			c0.2,0.5,0.3,1,0.3,1.5c0.2,1.1,0.3,2.2,0.5,3c0.4,1.7,0.8,2.7,1.2,2.7v-6.2l-0.2-1.4c-0.1-0.4-0.2-0.8-0.4-1.2
			c-0.4-0.7-1.1-1.2-1.9-1.2c-0.9,0-1.7,0.2-2.4,0.6l-1.4,0.6c-0.9,0.4-1.8,0.6-2.7,0.8c-1,0.2-1.9,0.3-2.9,0.4l-6.2,0.7
			c-8.1,1-16.2,1.6-24.4,1.6c-2,0-4-0.1-6-0.3c-2-0.3-4-0.6-5.9-1.1c-4.2-0.7-8.4-1-12.6-1c-8.3-0.1-16.5,0.4-24.8,0.9l-6.1,0.4
			l-3,0.1c-1.3-0.1-2.7,0.2-3.9,0.9c-0.8,0.5-1.3,1.3-1.4,2.2c-0.1,0.7,0,1.5,0.2,2.2c0.3,1.2,0.7,2.1,1.1,3
			c0.7,1.8,1.1,3.9,1.7,5.8l0.8,3l0.2,0.7c0,0.1,0,0.2,0,0.2l-0.2,1.5L35,40.2l-1.3,12.3c-0.8,8.2-1.6,16.4-2.1,24.6
			c-0.3,4.1-0.3,8.3-0.3,12.4v12.3c0,5.7,0.3,11.9,0.8,17.4c0.9,2.5,1.6,5.1,2.2,7.7C34.7,129,34.9,130.4,35.4,130.5z"/>
		<path d="M28.2,127.2c-0.8,2.6-1.2,5.4-1.2,8.2c0.1,1.6,0.5,3.1,1.4,4.5c1,1.4,2.6,2.3,4.3,2.6c2.7,0.3,5.3,0.4,8,0.2
			c3.7-0.3,7.3,0.2,10.7,1.6c1.2,0.4,2.2,1,3.6,1.5c2.5,0.9,5.1,1.6,7.8,2c5.2,0.8,10.4,1.3,15.6,1.5c5.2,0.2,10.4,0.4,15.6,0.4h7.8
			c2.6,0.1,5.3,0,7.9-0.2c2.6-0.4,5.3-1,7.8-1.9c2.3-0.7,4.8-1,7.2-1c5,0.1,10.3,0.5,15.5,0.4c2.1,0,4.3-0.4,6.3-1
			c1.3-0.3,2.3-1.1,3.1-2.1c0.4-1.1,0.5-2.3,0.1-3.3c-1.2-3.5-3-5.4-3.8-5.1c0.5,1.2,0.8,2.3,1.2,3.6c0.3,1,0.5,2.1,0.4,3.2
			c-0.1,0.4-0.1,0.3-0.3,0.6c-0.4,0.2-0.8,0.4-1.3,0.5c-1.2,0.3-2.3,0.5-3.5,0.5c-5.1,0.2-10.2,0.2-15.3-0.2c-2.7-0.2-5.4,0-8.1,0.4
			c-2.8,0.5-5.2,1.6-7.5,2c-2.4,0.4-4.9,0.6-7.4,0.5h-7.7c-10.3-0.1-20.6-0.2-30.7-1.5c-2.5-0.3-4.9-0.8-7.4-1.5
			c-1.2-0.3-2.3-0.7-3.4-1.2c-1.2-0.6-2.5-1.1-3.8-1.5c-2.6-0.9-5.3-1.3-8.1-1.3c-2.7,0-5.2,0.3-7.6,0.1c-0.9,0-1.8-0.1-2.7-0.3
			c-0.7-0.1-1.4-0.5-1.9-1c-1-1.4-1.5-3-1.6-4.7C28.9,130.1,29,127.4,28.2,127.2z"/>
		<path d="M135.1,29.5c0.3,7.8,0.8,15.5,1.3,23.3c0.3,3.9,0.6,7.8,1,11.7c0.5,3.8,0.9,7.6,0.9,11.4c0,7.6-0.7,15.4-0.7,23.2
			c-0.1,4,0.2,7.9,0.6,11.8c0.5,3.9,1.4,7.8,2.2,11.6c0.7,2.9,1.5,5.7,2.5,8.5c0.9,2.5,1.7,4.4,2.5,4.4c-0.1-8.1-2.7-15.7-3.8-23.1
			s-0.9-15.2-0.6-22.9c0.2-3.9,0.4-7.7,0.4-11.7c0-4-0.2-7.9-0.8-11.8c-0.9-7.6-1.4-15.4-1.8-23.1C138.5,37,136.8,29.5,135.1,29.5z"
			/>
		<path d="M37,27.4l42,1.7c3.5,0.2,7,0.3,10.6,0.3c3.8,0,7.1-0.6,10.7-0.8l20.9-1.9c5.2-0.5,11.9-2.5,11.8-4.2l-41.9,3.8
			c-6.8,0.1-13.9-0.4-20.9-0.6l-21-0.8C43.9,24.5,37,25.7,37,27.4z"/>
		<path d="M140.6,135c-1.6,0.7-3.2,1.2-4.9,1.4c-0.9,0.1-1.7,0.2-2.6,0.2c-0.9,0-2,0-2.9,0.1c-3.8,0.3-7.5,0.8-11.2,1.3
			c-7.4,0.9-14.8,1.8-22.2,2.2c-7.4,0.4-14.8,0.1-22.1-1c-7.4-0.9-14.6-2.6-22.2-3.8c-5.5-0.4-12.8-1.1-13.3,0.6
			c3.7,1.1,7.4,1.9,11.2,2.4c3.7,0.4,7.3,1.2,11,1.9c7.4,1.5,14.9,2.5,22.4,3.1c7.6,0.4,15.2,0.2,22.7-0.7c7.5-0.7,15-1.8,22.3-2.6
			l4.3-0.5c1.5-0.2,2.9-0.5,4.3-1.1C139.7,137.4,141,135.8,140.6,135z"/>
		<path fill="#FFFFFF" d="M88.3,125.5c-0.9-2.2,10.2-14.5,19.3-22.7l9-8.1l4.5-4.1l2.3-2c0.6-0.5,1.1-1.1,1.3-1.8
			c0.6-1.6,0.5-3.3-0.3-4.9c-0.2-0.3-0.4-0.6-0.6-0.9c-0.2-0.3-0.7-0.7-1.1-1l-2.2-2l-9-8.2l-18-16.4L89,49.4
			c-1-1.2-2.5-1.9-4.1-1.9c-1.4,0.1-2.5,1.1-4.1,2.6l-4.5,4.1l-18,16.4l-9,8.2c-2.3,2-2.8,7.4-1,10.4c0.4,0.8,1,1.5,1.7,2l2.3,2
			l4.5,4l9,8.1l18.1,16.2"/>
		<path fill="#B90518" stroke="#B90518" stroke-width="0.99" stroke-miterlimit="10" d="M71.3,77.3c0.1-0.7,0.2-1.4,0.3-2.1c0.7-3.9,3.5-6.6,7.4-6.7c4.8-0.2,9.6-0.2,14.3,0c4.2,0,7.6,3.5,7.6,7.7
			c0.1,4.6,0.1,9.2,0,13.8c0,4.2-3.4,7.6-7.6,7.7c-4.8,0.2-9.6,0.2-14.3,0c-4.3-0.2-7.3-3.4-7.6-7.7c0-0.4-0.1-0.7-0.2-1.1V77.3z
			 M86.2,95c2.2,0,4.4,0.1,6.6,0c3.4-0.1,5.5-2.2,5.6-5.6c0.1-4.3,0.1-8.5,0-12.8c0.2-2.9-2.1-5.4-5-5.6c-0.2,0-0.4,0-0.6,0
			c-4.3-0.1-8.7-0.1-13,0c-3.4,0.1-5.5,2.1-5.6,5.5c-0.1,4.3-0.1,8.6,0,13c0.1,3.4,2.2,5.4,5.6,5.5C81.9,95.1,84,95,86.2,95z"/>
		<path fill="#B90518" stroke="#B90518" stroke-width="0.99" stroke-miterlimit="10" d="M86.2,75.5c-4.2,0-7.6,3.4-7.6,7.6c0,4.2,3.4,7.6,7.6,7.6s7.6-3.4,7.6-7.6c0,0,0,0,0,0
			C93.8,78.8,90.4,75.4,86.2,75.5z M86.2,88c-2.8,0-5-2.2-5-5s2.2-5,5-5s5,2.2,5,5C91.2,85.8,88.9,88,86.2,88L86.2,88z"/>
		<path fill="#B90518" stroke="#B90518" stroke-width="0.99" stroke-miterlimit="10" d="M96,75.1c0,1-0.8,1.8-1.8,1.8c-1,0-1.8-0.8-1.8-1.8c0-1,0.8-1.8,1.8-1.8c0,0,0,0,0,0
			C95.2,73.3,96,74.1,96,75.1C96,75.1,96,75.1,96,75.1z"/>
		<path stroke="#000000" stroke-width="0.42" stroke-miterlimit="10" d="M27.8,154.1c2.1,0.5,4.2,1,6.3,1.3c1.1,0.2,2.3,0.3,3.4,0.2c0.9-0.1,1.8-0.4,2-1.2c0-0.4-0.1-0.8-0.3-1.1
			l-0.4-0.5l-0.3-0.3c-1.6-1.6-3.6-2.8-5.7-3.5c-1.1-0.3-2.2-0.6-3.3-0.6c-0.5-0.1-1.1-0.1-1.6-0.1c-0.3,0-0.7,0-1,0.1
			c-0.4,0.1-0.8,0.4-1,0.8c-0.3,0.6-0.3,1.2,0,1.8c0.2,0.4,0.5,0.8,0.8,1.1c0.6,0.5,1.2,0.7,1.6,0.4c-0.6-0.7-0.9-1.5-1.1-2.4
			c0-0.1,0-0.2,0.4-0.2c0.5,0,1,0,1.4,0c2,0.1,4,0.6,5.7,1.6c0.9,0.5,1.7,1.1,2.4,1.8l0.5,0.4l0.1,0.1c0.1,0.1,0,0.2-0.1,0.2
			c-0.3,0-0.7,0-1,0c-0.5,0-1-0.1-1.5-0.2c-1-0.1-2-0.3-3.1-0.5C30.2,153.1,28,153.3,27.8,154.1z"/>
		<path stroke="#000000" stroke-width="0.42" stroke-miterlimit="10" d="M25.4,141.6L25.4,141.6h-0.1c-0.4,0.1-0.7,0.1-1.1,0.1c0.1,0.7,0.7,1.2,1.3,1.1c0.7-0.1,1.2-0.7,1.1-1.3
			c0-0.4-0.2-0.7-0.5-0.9c-0.5-0.3-1.1-0.3-1.5,0.1c-0.2,0.2-0.1,0.5,0,0.6c0,0,0,0,0.1,0c0.1,0.1,0.3,0.2,0.5,0.2L25.4,141.6z"/>
		<path stroke="#000000" stroke-width="0.42" stroke-miterlimit="10" d="M44.2,151.3L44.2,151.3c0,0,0.1,0-0.2,0.1c-0.4,0-0.8,0-1.1,0c0.1,0.7,0.7,1.3,1.5,1.3c0.5,0,1-0.4,1.2-0.9
			c0.3-0.7,0-1.5-0.7-1.8c-0.5-0.2-1-0.1-1.4,0.2c-0.2,0.2-0.2,0.5,0,0.7c0,0,0,0,0,0c0.1,0.1,0.3,0.2,0.5,0.2
			C44,151.3,44.1,151.3,44.2,151.3z"/>
		<path stroke="#000000" stroke-width="0.42" stroke-miterlimit="10" d="M22.2,145L22.2,145C22.2,145,22.3,145,22.2,145c-0.5,0.1-0.8,0.1-1.2,0.1c0,0.6,0.5,1,1,1.1
			c0.7,0.1,1.3-0.4,1.4-1c0.1-0.5-0.1-0.9-0.5-1.2c-0.5-0.3-1.1-0.3-1.5,0.1c-0.2,0.2-0.1,0.5,0.1,0.6c0,0,0,0,0,0
			c0.1,0.1,0.3,0.2,0.5,0.2L22.2,145z"/>
		<path d="M64.7,101.1l-8.3-7.5l-2.1-1.9h-5.5l0.4,0.4l33.3,29.8C83.2,119.9,73.1,108.6,64.7,101.1z"/>
		<path d="M63.6,68.4l14-12.8l4.1-3.8c0.9-1.1,2.3-1.8,3.7-1.7c1.3,0.1,2.3,1,3.8,2.4l4.1,3.8l13.2,12.1h5.4l-3.1-2.9L92.4,50.4
			l-2.1-1.9l-1.1-1c-0.4-0.3-0.8-0.6-1.3-0.9c-1.8-1-4-1-5.7,0.1c-0.5,0.3-0.9,0.6-1.3,1l-1,0.9l-2.1,1.9l-4.1,3.8L58.2,68.4H63.6z"
			/>
		<path d="M116.1,91.7l-0.5,0.5l-4.2,3.7l-8.3,7.4l-16.6,14.9c0.8,2,12.2-6,20.6-13.5l8.3-7.4l4.2-3.7c0.6-0.5,1.1-1.2,1.5-1.9
			H116.1z"/>
		<rect y="0" fill="none" width="165" height="165"/>
	</g>
</g>
</svg>
