<svg xmlns="http://www.w3.org/2000/svg" viewBox="0 0 165 165">
<g><g>
<path fill="#f3ae00" opacity="0.3" d="M24.62,125.54s-5.6,14.55,2.81,15.82,12.33-1.9,23,3.16S93.57,149,104.78,149s10.65-3.8,23-3.16,21.3.63,23-1.9-2.24-10.76-2.24-10.76-7.85-16.45-7.85-34.16,1.68-23.41,0-36.06-2.8-40.5-2.8-40.5V8.35c0-5.2-2.8-.49-9.53,0s-33.07,4.57-45.4,1.41-43.72,0-50.6,0-3.77,3.8-2.45,8.22,2.45,8.94,2.45,8.94S27.43,69,27.43,82.21v36.37Z"/><path d="M35.4,130.45a22.82,22.82,0,0,0,0-5.95c-.11-1-.24-1.92-.42-2.86l-.28-1.41L34.45,119V84.31c0-3.79.31-7.67.6-11.52.58-7.71,1.34-15.42,2.12-23.13l1.23-11.57.32-2.89.16-1.44L39,33c0-.3.2-.76,0-1.16L37.41,26.1l-.78-2.84c-.3-1-.68-2-1-2.83A8,8,0,0,1,35,18.27a.35.35,0,0,1,.11-.27c.07-.07.16-.1.54-.2,1.34-.26,3.64-.15,5.52-.31L47,17.15c7.74-.47,15.46-.88,23.16-.85A89.31,89.31,0,0,1,81.55,17c.94.09,1.81.33,2.71.5l3,.61a55.23,55.23,0,0,0,6,.56,167.84,167.84,0,0,0,23.46-1.19c3.09-.32,6.39-.81,9.57-1.31a20.49,20.49,0,0,0,4.87-1.07,28.12,28.12,0,0,0,3.7-1.83.79.79,0,0,1,1.22.36,7.15,7.15,0,0,1,.34,1.52c.16,1.15.34,2.16.53,3,.37,1.69.79,2.69,1.22,2.68V14.63L138,13.28a5.28,5.28,0,0,0-.4-1.18,2.22,2.22,0,0,0-1.94-1.19,6,6,0,0,0-2.45.61l-1.43.61a15.19,15.19,0,0,1-2.68.81,24.53,24.53,0,0,1-2.9.35l-6.15.68a204.92,204.92,0,0,1-24.4,1.65c-2,0-4-.13-6-.34a57.31,57.31,0,0,1-5.94-1.08,74.54,74.54,0,0,0-12.56-1c-8.3-.09-16.54.36-24.76.86l-6.13.35-3,.11a7.25,7.25,0,0,0-3.87.9,3.29,3.29,0,0,0-1.43,2.22,5.58,5.58,0,0,0,.2,2.22c.32,1.17.74,2.11,1.08,3,.66,1.75,1.1,3.87,1.67,5.79l.8,2.95.19.72a.39.39,0,0,1,0,.24L35.7,34.1,35,40.24,33.74,52.52c-.81,8.19-1.6,16.38-2.12,24.63-.29,4.12-.33,8.35-.3,12.42v12.34c0,5.68.29,11.93.77,17.41a65.47,65.47,0,0,1,2.2,7.71C34.74,129,34.92,130.37,35.4,130.45Z"/><path d="M28.17,127.15A24.71,24.71,0,0,0,27,135.32a9,9,0,0,0,1.37,4.46,6.53,6.53,0,0,0,4.29,2.57,39.53,39.53,0,0,0,8,.23,22.89,22.89,0,0,1,10.74,1.62c1.18.44,2.17,1,3.56,1.5a38.79,38.79,0,0,0,7.81,2A142.23,142.23,0,0,0,78.4,149.2c5.19.25,10.38.35,15.56.38h7.76a76,76,0,0,0,7.9-.24,38.24,38.24,0,0,0,7.77-1.88,24.86,24.86,0,0,1,7.22-1c5,.12,10.29.52,15.53.35a23.16,23.16,0,0,0,6.3-1,5.5,5.5,0,0,0,3.09-2.15,4.65,4.65,0,0,0,.09-3.34c-1.16-3.52-3-5.38-3.78-5.08A29.19,29.19,0,0,1,147,138.8a8.89,8.89,0,0,1,.41,3.17c-.08.45-.05.31-.33.56a4.68,4.68,0,0,1-1.27.54,20.35,20.35,0,0,1-3.54.53,130.05,130.05,0,0,1-15.27-.17,34,34,0,0,0-8.09.43c-2.76.53-5.16,1.58-7.49,2a35.74,35.74,0,0,1-7.4.54l-7.74,0c-10.28-.05-20.61-.2-30.71-1.5a55.09,55.09,0,0,1-7.36-1.47,23.6,23.6,0,0,1-3.41-1.24,35.4,35.4,0,0,0-3.75-1.52,25.06,25.06,0,0,0-8.1-1.34c-2.71,0-5.22.28-7.64.1a18.42,18.42,0,0,1-2.67-.3,3.28,3.28,0,0,1-1.86-1,9,9,0,0,1-1.59-4.71C28.89,130.11,29,127.4,28.17,127.15Z"/><path d="M135.05,29.54c.34,7.77.75,15.53,1.3,23.3.28,3.88.58,7.76,1,11.66a93.32,93.32,0,0,1,.94,11.44c0,7.6-.73,15.45-.68,23.25a85.3,85.3,0,0,0,.65,11.83c.49,3.93,1.35,7.79,2.19,11.57a87.9,87.9,0,0,0,2.46,8.49c.86,2.5,1.66,4.4,2.52,4.38-.11-8.09-2.74-15.66-3.82-23.13s-.9-15.21-.64-22.94c.16-3.86.42-7.74.45-11.69a81.76,81.76,0,0,0-.75-11.82c-.91-7.62-1.38-15.38-1.84-23.11C138.51,37,136.77,29.47,135.05,29.54Z"/><path d="M37,27.39l42,1.66c3.54.17,7,.29,10.6.29,3.76,0,7.13-.57,10.65-.83l20.93-1.94c5.25-.48,11.91-2.51,11.76-4.23L91.09,26.18c-6.85.14-13.88-.42-20.88-.63l-21-.81C43.9,24.53,37,25.67,37,27.39Z"/><path d="M140.57,135a17.14,17.14,0,0,1-4.9,1.44,20.54,20.54,0,0,1-2.6.2c-.89,0-2,0-2.89.12-3.82.3-7.52.81-11.24,1.27-7.42.93-14.82,1.77-22.24,2.19a108.27,108.27,0,0,1-22.09-1c-7.4-.95-14.56-2.59-22.15-3.8C47,135,39.71,134.31,39.17,136a75.25,75.25,0,0,0,11.21,2.41c3.65.38,7.26,1.2,11,1.87a190.26,190.26,0,0,0,22.41,3.13,136,136,0,0,0,22.68-.72c7.48-.69,15-1.81,22.3-2.58l4.26-.49a15,15,0,0,0,4.27-1.12C139.74,137.36,141,135.79,140.57,135Z"/>
<path fill="#b90518" stroke="#b90518" stroke-width="0.99" stroke-miterlimit="10" d="M71.3,77.3c.1-.7.17-1.4.3-2.09.71-3.92,3.49-6.59,7.45-6.73,4.78-.16,9.57-.17,14.35,0A7.69,7.69,0,0,1,101,76.16c.14,4.58.14,9.18,0,13.77A7.68,7.68,0,0,1,93.4,97.6c-4.78.17-9.57.18-14.35,0-4.31-.17-7.3-3.37-7.59-7.7a10.6,10.6,0,0,0-.16-1.11ZM86.2,95c2.18,0,4.37.07,6.55,0,3.43-.12,5.53-2.16,5.61-5.58q.15-6.39,0-12.79a5.29,5.29,0,0,0-5.61-5.58c-4.34-.1-8.69-.09-13,0-3.39.07-5.5,2.12-5.6,5.5q-.16,6.47,0,13c.1,3.38,2.21,5.38,5.6,5.5C81.88,95.1,84,95,86.2,95Z"/>
<path fill="#b90518" stroke="#b90518" stroke-width="0.99" stroke-miterlimit="10" d="M86.19,75.45A7.59,7.59,0,1,0,93.78,83,7.59,7.59,0,0,0,86.19,75.45Zm0,12.57a5,5,0,1,1,5-5A5,5,0,0,1,86.19,88Z"/>
<path fill="#b90518" stroke="#b90518" stroke-width="0.99" stroke-miterlimit="10" d="M96,75.11a1.81,1.81,0,1,1-1.8-1.81A1.8,1.8,0,0,1,96,75.11Z"/>
<path stroke="#000" stroke-width="0.42" stroke-miterlimit="10" d="M27.84,154.12c2.08.5,4.16,1,6.29,1.28a17.12,17.12,0,0,0,3.4.25c.94-.05,1.82-.36,1.95-1.2a1.57,1.57,0,0,0-.32-1.13l-.44-.52-.34-.33A15,15,0,0,0,32.67,149a14,14,0,0,0-3.3-.64c-.55-.05-1.1-.06-1.64-.06a3.15,3.15,0,0,0-1,.15,1.71,1.71,0,0,0-1.05.81,2,2,0,0,0,0,1.79,3.31,3.31,0,0,0,.82,1.05c.61.52,1.23.69,1.59.44A5.32,5.32,0,0,1,27,150.11c0-.15,0-.2.37-.25a11.29,11.29,0,0,1,1.43,0,12,12,0,0,1,5.68,1.63,16.23,16.23,0,0,1,2.43,1.77l.49.45.14.15c.09.1,0,.22-.14.21a5.5,5.5,0,0,1-1,0c-.5,0-1-.09-1.53-.16-1-.14-2-.33-3.08-.53C30.21,153.06,28.05,153.27,27.84,154.12Z"/>
<path stroke="#000" stroke-width="0.42" stroke-miterlimit="10" d="M25.44,141.58h0l-.1,0a5.9,5.9,0,0,1-1.12.07,1.22,1.22,0,1,0,1.93-1.1,1.25,1.25,0,0,0-1.52.08.44.44,0,0,0,.1.66.9.9,0,0,0,.46.22Z"/>
<path stroke="#000" stroke-width="0.42" stroke-miterlimit="10" d="M44.25,151.31h0s.13,0-.23.08a9.53,9.53,0,0,1-1.13,0,1.36,1.36,0,0,0,2.62.4,1.36,1.36,0,0,0-2.16-1.54.51.51,0,0,0,0,.73,1.06,1.06,0,0,0,.46.24A3.93,3.93,0,0,0,44.25,151.31Z"/>
<path stroke="#000" stroke-width="0.42" stroke-miterlimit="10" d="M22.2,145h0s.09,0-.09,0a5.4,5.4,0,0,1-1.13.06,1.23,1.23,0,0,0,1,1.11,1.22,1.22,0,0,0,.89-2.2,1.23,1.23,0,0,0-1.52.08.45.45,0,0,0,.1.66,1,1,0,0,0,.46.21Z"/>
<path d="M64.72,101.09,56.4,93.63l-2.12-1.9H48.77l.41.37,33.28,29.82C83.24,119.89,73.08,108.57,64.72,101.09Z"/>
<path d="M63.62,68.43l14-12.79,4.14-3.77a4.53,4.53,0,0,1,3.74-1.71c1.34.1,2.31,1,3.79,2.41l4.14,3.78,13.24,12.08h5.44L109,65.52,92.41,50.41l-2.07-1.89-1.06-1A7.78,7.78,0,0,0,88,46.63a5.6,5.6,0,0,0-5.7.09,7.84,7.84,0,0,0-1.31,1l-1,.94-2.07,1.89-4.14,3.77L58.18,68.43Z"/>
<path d="M116.13,91.73l-.51.47-4.16,3.72-8.33,7.44-16.64,14.9c.79,2,12.23-6,20.59-13.49l8.32-7.44,4.16-3.73a8.26,8.26,0,0,0,1.52-1.87Z"/>
<rect fill="none" width="165" height="165"/></g>
</g>
</svg>