<svg xmlns="http://www.w3.org/2000/svg" viewBox="0 0 120 120">
<g><g>
<rect fill="none" width="120" height="120"/>
<path fill="none" stroke="#823733" stroke-miterlimit="10" stroke-width="0.9" opacity="0.35" d="M107.56,60.28c-.33-6.4-2.34-35.62-15-30.85S75.2,27.37,75.2,27.37c-12-17-25.69-9.72-28.35-4.47s-7.33,4.43-7.33,4.43C25.63,28,24.5,40,17.82,53.19s14,10.17,17,4.54,6-3.38,8-3.47S44.7,83.37,44.7,83.37s-.86,18.68,7.9,21,10.93-4.34,14.93-5.88,8-.46,10.72-2.8,3.62-16.34,6.92-18.17,11.38,9.17,17.72,8.25.33-14.09.33-18.13S107.89,66.69,107.56,60.28ZM65,89.38c-1.67,4.75-5-19.27-5-19.27-.8-5.27,5.94-1.75,8.6-1S66.63,84.62,65,89.38Z"/>
<path stroke="#823733" stroke-miterlimit="10" fill="#823733" stroke-width="0.3" d="M51.63,38.13c0-2.49,0-4.71,0-6.93,0-3.69,1.47-6.63,4.92-8.23,3.61-1.66,7.06-1.85,10.29,1.12A25.75,25.75,0,0,1,73.65,33c1.26,3,2.78,5.93,4.43,9.39-3.16-2.64-5.76-5-8.54-7.11s-5.72-4-8.59-5.93l-1,.26L57.22,40.44l.76.44c.92-.48,1.83-1,2.76-1.44,2.51-1.28,5-1.29,7.06.73a39.7,39.7,0,0,1,5.3,5.71c1,1.39,1.65,2.45,3.52,2a6.35,6.35,0,0,1,2,.19c.35-1.21.68-2.39,1-3.55.85-2.82,1.59-5.77,4.94-6.7,4.17-1.17,8.27-.69,11,2.74,4,5,5.6,11.05,6.76,17.23,0,.1-.16.24-.33.49-4.49-4.9-9-9.77-13.78-15a23.46,23.46,0,0,0-5.07,11.15c2.48.14,4.9-.11,7.07.51,3,.86,4.84,3.38,5.67,6.28C97.58,67.05,99,73,100.47,78.88a5.51,5.51,0,0,1-.16,1.24A17.67,17.67,0,0,1,97.88,78c-3.19-4.25-6.28-8.58-9.47-12.84-2-2.63-4.44-3.31-6.94-1.31-1.3,1-2,3.17-2.38,4.93-.68,3.47-2.24,16.74-2.71,20.25-.31,2.36-1.16,2.72-4,2.3-2.21-.33-2.37-1.38-2-3.38.16-.92.38-2.3.63-3.93.88-5.92,2.09-15.23,2.4-18.59.19-2,.59-3.62,2.79-4.47a47.45,47.45,0,0,0-3.5-4.17,2.1,2.1,0,0,0-2.07-.08c-2.07,2-4,4.12-6,6.27.11-3.83,1.58-7.38,3.25-10.85-2.94-3.91-4-4.25-8.61-2.66S54.71,51,54.9,55.79c.17,4.07,1.6,13.35,1.78,17.25-.47.26-.6.39-.74.39-5.17,0-5.08-.05-5.08-5.12,0-3.6-1.5-12.42-1.66-16a12.71,12.71,0,0,1,0-1.38c0-1,.55-2.39.08-2.89a22.91,22.91,0,0,0-4.93-4c-.59-.36-2,.11-2.74.62-4,2.73-7.91,5.59-11.85,8.41-.47.33-.92.67-1.38,1l-.71-.44a60.36,60.36,0,0,1,3.16-6.15c2.06-3.15,4.34-6.18,6.61-9.19,4.08-5.39,7.08-5.72,12.31-1.49C50.33,37.24,51,37.65,51.63,38.13ZM60,41.06l-4,2.33c9.55,3.11,15.23,10.1,21.27,16.73-.85-3.38-2-6.54-3-9.74a19.14,19.14,0,0,0-7.26-9.88c-2.55-1.85-4.56-1.71-7,.56ZM81,57.83c8.45,4.47,12,13.33,18.1,20A60.86,60.86,0,0,0,97.58,70a96.88,96.88,0,0,0-2.89-9.48c-1.56-4-5.19-6-8.5-5.08,4.29,3,7,7.65,7.49,10.73-.77-1.24-1.16-2-1.71-2.74A50.5,50.5,0,0,0,86.51,57C84.48,55.26,83.18,55.67,81,57.83ZM29,51.3l.71.6c6.72-5.17,13.51-10.2,22.38-11.59-1.53-2.33-3.15-3.26-5.62-2.21S41.34,40.12,39,41c1.75-3.18,5.84-2.74,8.85-4.37-2.59-2.53-5.59-2.76-7.8-.08C36.14,41.32,32.65,46.38,29,51.3ZM74.6,38.19c-1.74-5.11-3.73-9.91-8-13.33-3.9-3.1-8.74-3-12.15.68a16.35,16.35,0,0,0-1.79,2.94c5.88-2.67,9.9,1,14,3.5A87.2,87.2,0,0,1,74.6,38.19Zm7,3.8c4.92-.73,8.28,1.58,11.21,4.93,2.61,3,5.33,5.88,8,8.82l.7-.29c-1.65-4.14-3.07-8.39-5-12.39-1.84-3.81-5.4-5.27-9.63-4.78C84.59,38.56,82.47,39,81.62,42ZM74.24,90.72a5.83,5.83,0,0,0,1.22-2c.9-4.89,3.05-19.51,3.79-24.43a1.74,1.74,0,0,0-.6-1.5c-.86-.39-2.1-.9-2.74-.55a3.85,3.85,0,0,0-1.39,2.59c-.68,4.4-2.48,18.54-3.2,22.93C70.93,90.13,71.09,90.57,74.24,90.72ZM59.73,28.3a50.55,50.55,0,0,0-5.76.85,2.52,2.52,0,0,0-1.48,1.78,24.88,24.88,0,0,0,2.35,13,8.49,8.49,0,0,0,2-3.35c.65-2.73,1-5.54,1.58-8.3A39.68,39.68,0,0,1,59.73,28.3ZM50.94,60.83c-.1,0,.3,1.28.2,1.29-.08,1.61.43,7.19.54,8.78A2.33,2.33,0,0,0,53,72.59c2,.67,2.72.12,2.68-2-.07-4.44-1.57-14.1-1.57-18.54,0-1.87-.51-2.7-2.45-2.54-2.16.18-1.55,1.7-1.46,2.89C50.37,55.22,50.67,58,50.94,60.83ZM79.07,58.2c1.28-1.2,2.57-1.86,3-2.87,1.54-4,2.79-8,4.16-12.1-2.49-.93-5-.76-5.51.76A29.11,29.11,0,0,0,79.07,58.2Zm-27.25-9a30.69,30.69,0,0,0,1.69-3.78c.51-1.75-.84-4.26-2.12-4-1.92.33-3.79.94-5.68,1.43l1.3-.75ZM62,47.74v-.9a31.52,31.52,0,0,0-5.18-2.19c-.71-.18-1.94.62-2.53,1.32a3.32,3.32,0,0,0-.72,2.65,2.56,2.56,0,0,0,2.23,1.07C58,49.23,60,48.41,62,47.74ZM85.26,61.56a32.71,32.71,0,0,0-3.62-2.36c-.63-.31-1.93-.45-2.16-.12a3.11,3.11,0,0,0-.55,2.6,3,3,0,0,0,2.41,1.06C82.43,62.71,83.49,62.13,85.26,61.56ZM68.74,52.07,66.17,59l.43.2,4.76-4.31Zm5.84-3.55c.53,1.67.82,2.77,1.24,3.82a1.35,1.35,0,0,0,.91.8c.36,0,1-.35,1.08-.64.2-1.1.63-2.48.17-3.28C77.64,48.63,76,48.77,74.58,48.52Z"/>
<path stroke="#823733" stroke-miterlimit="10" fill="#823733" stroke-width="0.3" d="M56.6,74.86c.19,1.26.47,2.52.56,3.78.26,3.38,1.8,12.66,2.09,16,.16,1.84-.41,2.81-2.36,2.71a19.79,19.79,0,0,0-2.31,0c-1.37.1-1.72-.66-1.74-1.83-.09-5.08-1.62-16-1.7-21.12,0-.09.2-.19.69-.62a41.33,41.33,0,0,1,.53,4.39c0,3.54,1.47,13,1.34,16.52-.07,2.05,1,2.2,2.62,2.15s2.36-.49,2.17-2.33C58,90,56.32,79.48,56,74.89Z"/>
<path stroke="#823733" stroke-miterlimit="10" fill="#823733" stroke-width="0.3" d="M59.94,41.06c1.14.26,2.54.2,3.38.85A44,44,0,0,1,70,48.35L60,41.06Z"/>
<path stroke="#823733" stroke-miterlimit="10" fill="#823733" stroke-width="0.3" d="M68.54,30.62l-10-6.15A20,20,0,0,1,68.54,30.62Z"/>
<path stroke="#823733" stroke-miterlimit="10" fill="#823733" stroke-width="0.3" d="M93.56,44.43c-3.35-2-5.63-3.65-9-5.7C88.59,39.69,90.8,41.47,93.56,44.43Z"/>
<path stroke="#823733" stroke-miterlimit="10" fill="#823733" stroke-width="0.3" d="M76.11,84.87c.17-1.07.26-.22-.89-.14s-3,.12-3.36-.58c-.67-1.34.67,1.33.67,1.33S75.94,85.91,76.11,84.87Z"/></g></g></svg>