<svg xmlns="http://www.w3.org/2000/svg" viewBox="0 0 120 120">
<g><g>
<path fill="none" stroke="#823733" stroke-miterlimit="10" stroke-width="1.5" d="M79.33,65.55c.11-.84-.51-1.07-1.13-1.23-6.61-1.71-10.14-7.21-14.31-11.81C56,43.82,47,37,35.54,33.9a19.22,19.22,0,0,0-9.35.09c-1.8,5.64-.68,8.18,5.2,9.71,4.68,1.22,9.37,2.47,14.06,3.62,5.63,1.38,10.18,5.25,13.77,10,1,1.33,1.86,2.79,2.92,4.07.35.43.79.74.81,1.33.15,4.83,2,9.37,2.33,14.19.13,1.81,1.22,3.56.41,5.47"/>
<path fill="none" stroke="#823733" stroke-miterlimit="10" stroke-width="1.5" d="M72.47,69.42c.39,0,1-1.73,1.78-2.32,2.35-1.88,4.67-1,7.49-1.26a32.34,32.34,0,0,0,8.05-2.12,9.8,9.8,0,0,1,9.37,1.39c1.52,1,1.82,2.35,1.44,4.13a35.31,35.31,0,0,0-1.11,7.53c0,6-1.32,8.22-6.76,10.45a3.74,3.74,0,0,1-3.86-.12c-2.81-1.77-5.72-3.37-8.59-5l-.62-.17c-2.47-1.09-3.83-3.51-5-5.51-1.51-2.6-3.79-4.57-1.47-7.84"/>
<path fill="none" stroke="#823733" stroke-miterlimit="10" stroke-width="1.5" d="M62.89,66.78a5.35,5.35,0,0,0-1.28,4.94,47,47,0,0,0,1.65,7.59c.95,2.9,3.47,4.48,5,6.86,3.22,5,8,7.61,13.71,9.11,3.84,1,7-.69,10.24-1.68,2.36-.72,4.31-2.66,6.59-3.78,2.08-1,2.32-2.83,2.21-4.6s1.09-4.11-1-5.63"/>
<path fill="none" stroke="#823733" stroke-miterlimit="10" stroke-width="1.5" d="M89.58,68.49c3.74,1.69,3.65,1.66,2.57,5.36-.54,1.82-1.19,3.7-.67,5.68"/>
<path fill="none" stroke="#823733" stroke-miterlimit="10" stroke-width="0.9" opacity="0.35" d="M14.67,27.66s7-8.65,24.61-2S71.2,49.09,76.85,52.17s11,3.19,20.62,3.14,19,14.58,12,30.55-20.62,21.28-35.91,14-22-24.23-24.28-36.72-18.43-10-23.84-13.76S7,41.63,14.67,27.66Z"/>
<rect fill="none" class="cls-3" width="120" height="120"/></g></g></svg>