<svg xmlns="http://www.w3.org/2000/svg" viewBox="0 0 120 120">
<g><g>
<path fill="none" stroke="#823733" stroke-miterlimit="10" stroke-width="1.33" d="M61.6,38.75c.15-2.43.4-4.86.41-7.29-.21-2.68-2.87-4.42-5-4.81-5.17-1-9.17,1.08-12,5.1-1.95,2.77-4,5.58-4.58,9.25a6.86,6.86,0,0,1-3.94,4.77c-5.19,2.11-6.61,6.09-5.89,11.2.84,6,3.07,11.11,8.39,14.61,4.71,3.1,9.21,1.59,13.67-.31,2.7-1.16,5.18-2.83,8.21-3.15,2.59-.27,5.16-.7,7.75-.88,3.31-.23,5.26,2.25,6.92,4.41.29.38.38,1.84.32,3.81l-.11.46a4.63,4.63,0,0,1-2.28,3.17c-4.51,3.11-2.36,4.8-2.36,4.8s1.14,1.87,6.25,1.2c0,0,3.81.62-.66,2.33-.87.33-4.82,1-4.65,2.1a2.23,2.23,0,0,0,2,1.85c2.43.47,6.75-.86,9.51-3.52"/>
<path fill="none" stroke="#823733" stroke-miterlimit="10" stroke-width="1.33" d="M63.92,87.2c-3.42,3-2.53,6,1.42,8.38,3.73,2.29,7.52,2.31,11.56,2.8,4.84.59,8.74-.13,12.61-3.08,1.65-1.27,2-2.65,1.57-4.07C90.54,89.43,90,87.5,88,86.38a20.49,20.49,0,0,1-3.69-2.47c-1.45-1.21-1.76-3.9-1.76-5.47L81.24,65.66A6.44,6.44,0,0,0,78,60.32c-1.67-1.11-3-2.13-4.79-.63A2.51,2.51,0,0,0,72.32,62c.43,2.4,2.45,2.53,3.49,4.38.61,1.1.22,2.39-.33,3.59l-1.14,1"/>
<path fill="none" stroke="#823733" stroke-miterlimit="10" stroke-width="1.33" d="M72.37,61c-2.2-2.73-5-5.28-7.11-8.09-3.28-4.42-2.63-9,.22-13.42.65-1,3-.83,4.77.22a11.85,11.85,0,0,1,5.92,10.48,65.38,65.38,0,0,0,.9,9.57,2.55,2.55,0,0,1-.21.9"/>
<path fill="none" stroke="#823733" stroke-miterlimit="10" stroke-width="1.33" d="M55.22,39.21a1.9,1.9,0,0,1,.9-2.76,4.61,4.61,0,0,0,2.05-2c1.15-2.26-1.4-6.27-5.43-4.07-2.14,1.17-5.58,8.43-5.26,10"/>
<path fill="none" stroke="#823733" stroke-miterlimit="10" stroke-width="1.33" d="M59.32,38.07c-3.64,1.91-7.63,2.2-11.61,2.51-.39,0-2.29.48-2.67.56"/>
<path fill="none" stroke="#823733" stroke-miterlimit="10" stroke-width="1.33" d="M60.91,39.44c1.49-.68,3-1.1,4.56-.23"/>
<path fill="none" stroke="#823733" stroke-miterlimit="10" stroke-width="0.8" opacity="0.35" d="M34.78,38.07s3.83-17.8,19.42-18.58,12.65,9.29,12.65,9.29-.35,6.35,9.68,5.79,13,40.93,13,40.93S88.32,81.09,96,84.32s5.75,20.3-18.89,18.83S54.8,89.13,54.2,86.28s-.9-8.09-6.63-7.52-16.91.56-21.91-15,4.8-19.09,4.8-19.09A14.94,14.94,0,0,0,34.78,38.07Z"/>
<rect fill="none" width="120" height="120"/></g></g></svg>