<svg xmlns="http://www.w3.org/2000/svg" viewBox="0 0 120 120">
<g><g>
<path fill="#796a56" opacity="0.2" d="M107.49,60.17c-.33-6.39-2.33-35.53-15-30.78s-17.3-2.05-17.3-2.05c-12-17-25.61-9.69-28.27-4.46s-7.31,4.42-7.31,4.42C25.78,28,24.65,39.94,18,53.1s14,10.13,17,4.52,6-3.37,8-3.46,1.84,29,1.84,29-.84,18.63,7.89,21,10.89-4.32,14.88-5.86,8-.46,10.7-2.79,3.61-16.3,6.9-18.12,11.35,9.14,17.67,8.23.33-14.06.33-18.09S107.82,66.56,107.49,60.17ZM65,89.18C63.33,93.92,60,70,60,70c-.8-5.26,5.92-1.75,8.58-1S66.67,84.44,65,89.18Z"/>
<path fill="#fff" d="M107.49,59.05c-.33-6.39-2.33-35.53-15-30.78s-17.3-2-17.3-2c-12-17-25.61-9.7-28.27-4.47s-7.31,4.42-7.31,4.42C25.78,26.85,24.65,38.82,18,52s14,10.13,17,4.53,6-3.38,8-3.46,1.84,29,1.84,29-.84,18.64,7.89,21,10.89-4.32,14.88-5.86,8-.46,10.7-2.79,3.61-16.3,6.9-18.12,11.35,9.14,17.67,8.23.33-14.06.33-18.09S107.82,65.44,107.49,59.05ZM65,88.06c-1.67,4.74-5-19.21-5-19.21-.8-5.26,5.92-1.75,8.58-1S66.67,83.32,65,88.06Z"/>
<path fill="#7a8a5c" d="M50.09,49.11l-.8,3.08,5.36,45,3.91-.83S58.13,90.68,57.07,82s-3.38-33.45-3.38-33.45S50.89,47.41,50.09,49.11Z"/>
<polygon fill="#7a8a5c" points="77.25 61.06 74.54 64.7 70.87 90.52 76.4 90.52 80.29 63.39 77.25 61.06"/>
<path fill="#d4d900" d="M79.07,58.09l-2.84-3.56-5.56,2a21.59,21.59,0,0,1-4,2.48c-1.57.58,0-3.54,0-3.54l4.56-7.24L78.61,48l3-6.06s.14-4.86,7.95-4.67S100.18,52,100.18,52L102,58.15l-15.8-15L82,55.23l5.38-.09s5-.4,5.8,1.37,7.21,22.2,7.21,22.2l-2.58-.91S89,62.62,85.14,62.62s-3.67,1.07-3.67,1.07l-4.22-2.63Z"/>
<path fill="#d4d900" d="M51.9,49.11l-7.45-5.19-14.55,9L31,47.37l11.42-13.3,9.78,6.18.56-11.81L56.63,23l7-.32,8,7.75,2.92,7.74S61.6,26.92,60,29.59s-5.13,14.29-5.13,14.29l5.88-4.5S63,37.7,67,40.44,77.76,50.37,77.22,60c0,0-11-11.86-15.13-12.35S57.57,51.54,51.9,49.11Z"/>
<path fill="#823733" d="M51.71,38.08c0-2.49,0-4.7,0-6.92,0-3.68,1.47-6.61,4.91-8.2,3.6-1.67,7-1.85,10.26,1.11A25.72,25.72,0,0,1,73.67,33c1.26,3,2.77,5.91,4.42,9.36-3.15-2.64-5.74-5-8.52-7.09s-5.7-4-8.56-5.92l-1,.27L57.29,40.38l.75.43,2.75-1.43c2.51-1.27,4.95-1.28,7.05.72a39.44,39.44,0,0,1,5.28,5.7c1,1.39,1.64,2.45,3.52,2a6.66,6.66,0,0,1,2,.2c.35-1.21.68-2.38,1-3.55.84-2.81,1.58-5.75,4.92-6.68,4.16-1.16,8.25-.69,11,2.74,4,4.94,5.59,11,6.74,17.18,0,.1-.15.24-.32.48l-13.74-15a23.34,23.34,0,0,0-5.06,11.12c2.47.14,4.88-.11,7,.51,3,.85,4.82,3.37,5.65,6.26,1.67,5.84,3.06,11.75,4.55,17.63a5.51,5.51,0,0,1-.16,1.24,17.52,17.52,0,0,1-2.42-2.15c-3.18-4.24-6.27-8.55-9.44-12.8-2-2.62-4.43-3.3-6.93-1.31-1.3,1-2,3.16-2.37,4.92-.68,3.46-2.23,16.7-2.7,20.2-.32,2.35-1.17,2.71-4,2.29-2.2-.33-2.36-1.37-2-3.37.16-.92.38-2.29.62-3.92.88-5.9,2.09-15.19,2.4-18.54.19-2,.59-3.61,2.79-4.46a48.77,48.77,0,0,0-3.5-4.16,2.11,2.11,0,0,0-2.06-.08c-2.07,2-4,4.11-6,6.26C64.79,59,66.25,55.47,67.92,52c-2.93-3.9-4-4.23-8.59-2.64S54.79,50.93,55,55.69c.16,4.06,1.59,13.31,1.77,17.2-.47.25-.61.39-.74.39-5.15,0-5.06,0-5.06-5.11,0-3.59-1.51-12.39-1.66-16,0-.46,0-.92,0-1.38,0-1,.55-2.38.09-2.89a23.11,23.11,0,0,0-4.92-4c-.59-.35-2,.12-2.73.63-4,2.72-7.89,5.57-11.82,8.38l-1.38,1-.7-.44A61,61,0,0,1,31,47.37c2.06-3.15,4.33-6.16,6.6-9.17,4.06-5.37,7.06-5.7,12.27-1.48C50.41,37.19,51,37.6,51.71,38.08ZM60,41l-4,2.32C65.54,46.42,71.2,53.39,77.22,60c-.85-3.37-2-6.52-3-9.71A19.09,19.09,0,0,0,67,40.44c-2.54-1.85-4.54-1.71-7,.55ZM81,57.72C89.47,62.17,93,71,99.1,77.66a62.33,62.33,0,0,0-1.56-7.76,95.44,95.44,0,0,0-2.88-9.45c-1.56-4-5.18-6-8.48-5.08,4.28,3,7,7.64,7.47,10.71a30.64,30.64,0,0,0-1.71-2.73,49.58,49.58,0,0,0-5.44-6.42C84.47,55.15,83.17,55.56,81,57.72ZM29.13,51.21l.71.6c6.7-5.16,13.47-10.18,22.32-11.56C50.63,37.92,49,37,46.56,38s-5.11,2-7.46,2.93c1.74-3.17,5.82-2.72,8.82-4.35-2.58-2.52-5.57-2.76-7.78-.08C36.26,41.25,32.78,46.3,29.13,51.21ZM74.62,38.13c-1.73-5.09-3.72-9.88-8-13.29-3.89-3.1-8.72-3-12.12.67a16,16,0,0,0-1.78,2.93c5.86-2.65,9.87,1,14,3.5A85,85,0,0,1,74.62,38.13Zm7,3.79c4.91-.73,8.26,1.57,11.18,4.92,2.61,3,5.31,5.87,8,8.8l.69-.3c-1.63-4.12-3-8.36-5-12.35-1.83-3.8-5.39-5.26-9.6-4.76C84.58,38.5,82.46,38.9,81.62,41.92Zm-7.36,48.6a5.92,5.92,0,0,0,1.21-2c.9-4.88,3-19.46,3.79-24.36a1.79,1.79,0,0,0-.6-1.51c-.86-.38-2.1-.89-2.73-.54a3.83,3.83,0,0,0-1.39,2.58c-.68,4.38-2.47,18.49-3.19,22.87C71,89.93,71.12,90.37,74.26,90.52ZM59.79,28.27a49.82,49.82,0,0,0-5.74.85,2.5,2.5,0,0,0-1.48,1.77,24.86,24.86,0,0,0,2.34,13,8.5,8.5,0,0,0,2-3.34c.66-2.73,1-5.53,1.58-8.28A39.62,39.62,0,0,1,59.79,28.27ZM51,60.71c-.11,0,.29,1.28.19,1.29-.08,1.6.43,7.17.54,8.76A2.34,2.34,0,0,0,53,72.44c2,.67,2.72.12,2.68-2C55.63,66,54.13,56.39,54.13,52c0-1.86-.51-2.69-2.44-2.53-2.16.18-1.54,1.7-1.45,2.89C50.45,55.12,50.76,57.92,51,60.71Zm28-2.62c1.28-1.2,2.57-1.85,3-2.86,1.53-4,2.78-8,4.14-12.07-2.48-.93-5-.76-5.48.76A29.08,29.08,0,0,0,79.07,58.09Zm-27.17-9a31.33,31.33,0,0,0,1.69-3.77c.5-1.75-.84-4.26-2.12-4-1.91.33-3.78.94-5.66,1.44l1.3-.76Zm10.19-1.46v-.89a32.21,32.21,0,0,0-5.16-2.19c-.71-.18-1.94.62-2.53,1.32a3.33,3.33,0,0,0-.71,2.64,2.54,2.54,0,0,0,2.22,1.07A63.14,63.14,0,0,0,62.09,47.65ZM85.25,61.44a33.67,33.67,0,0,0-3.6-2.36c-.64-.3-1.94-.44-2.16-.11a3.13,3.13,0,0,0-.56,2.59,3,3,0,0,0,2.41,1.06C82.42,62.59,83.49,62,85.25,61.44ZM68.78,52l-2.57,6.86.43.21,4.75-4.31Zm5.82-3.54c.52,1.66.82,2.75,1.23,3.8a1.37,1.37,0,0,0,.91.8c.37,0,1-.35,1.08-.64.2-1.09.63-2.47.17-3.27C77.65,48.54,76,48.69,74.6,48.44Z"/>
<path fill="#823733" d="M56.66,74.7c.2,1.26.47,2.51.57,3.78.26,3.36,1.79,12.62,2.08,16,.16,1.83-.41,2.8-2.36,2.71a17.64,17.64,0,0,0-2.3,0c-1.36.11-1.71-.65-1.73-1.82-.09-5.06-1.62-16-1.7-21.06,0-.09.2-.19.69-.62A41,41,0,0,1,52.44,78c.05,3.53,1.47,13,1.34,16.48-.08,2,1,2.2,2.61,2.14s2.36-.48,2.17-2.31c-.47-4.56-2.17-15-2.53-19.59Z"/>
<path fill="#823733" d="M60,41c1.14.27,2.53.21,3.37.86A43.23,43.23,0,0,1,70,48.27Q65,44.63,60,41Z"/>
<path fill="#823733" d="M68.58,30.58l-10-6.14A20,20,0,0,1,68.58,30.58Z"/>
<path fill="#823733" d="M58.56,24.44l10,6.14"/>
<path fill="#823733" d="M93.53,44.36c-3.34-2-5.62-3.64-9-5.69C88.57,39.63,90.77,41.4,93.53,44.36Z"/>
<path fill="#823733" d="M93.53,44.36l-10-6.14"/>
<path fill="#823733" d="M76.13,84.69c.17-1.07.25-.22-.9-.15s-3,.12-3.34-.57c-.67-1.34.67,1.33.67,1.33S76,85.73,76.13,84.69Z"/>
<rect fill="none" width="120" height="120"/></g></g></svg>