<?xml version="1.0" encoding="utf-8"?>
<!-- Generator: Adobe Illustrator 23.0.2, SVG Export Plug-In . SVG Version: 6.00 Build 0)  -->
<svg version="1.1" xmlns="http://www.w3.org/2000/svg" xmlns:xlink="http://www.w3.org/1999/xlink" x="0px" y="0px"
	 viewBox="0 0 120 120" style="enable-background:new 0 0 120 120;" xml:space="preserve">
<g>
	<g>
		<rect y="0" fill="none" width="120" height="120"/>
		<path opacity="0.2" fill="#796A56" d="M27.3,67.7C12.8,65.8,0.7,79,4.8,93c0,0.1,0.1,0.3,0.1,0.4C9.3,107.8,38.4,98,40.7,92s3.8-14.9-5.9-21.5
			C32.6,69,30,68,27.3,67.7z"/>
		<path opacity="0.2" fill="#796A56" d="M65.2,27.4c-2.4,1.4-16.8,7.1-21.2,15S42.3,63,54.7,73s12.5,33.2,36.3,27.6s31.5-30.2,19.4-40.5
			s-22.6-9.4-26.2-24.4S65.2,27.4,65.2,27.4z"/>
		<path fill="#FFFFFF" d="M27.3,66.6C12.8,64.7,0.7,77.9,4.8,91.9c0,0.1,0.1,0.3,0.1,0.4c4.4,14.4,33.5,4.6,35.8-1.5s3.8-14.9-5.9-21.5
			C32.6,67.8,30,66.9,27.3,66.6z"/>
		<path fill="#FFFFFF" d="M65.2,26.3c-2.4,1.4-16.8,7.1-21.2,15s-1.7,20.6,10.6,30.6S67.1,105.1,91,99.5s31.4-30.2,19.4-40.5
			s-22.6-9.4-26.1-24.4S65.2,26.3,65.2,26.3z"/>
		<path fill="#804F21" d="M98.9,60.3c2,1.4,2.6,3.4,3.2,5.6c1.3,4.1,1.7,8.3,2.6,12.4c0.1,0.7,0,1.5-0.5,2c-1.5,1.8-3.1,3.5-4.8,5.1
			c-1.1,1.1-2.6,1.6-4.1,1.2c-0.8-0.2-1.4,0.2-2.1,0.9c-2.7,2.5-6.1,4.2-9.7,4.9c-1.7-1.9-3.5-3.7-5.2-5.7c-3-3.5-2.6-9.9-0.5-13
			c1.8-2.7,3.8-5.2,5.8-7.8c0.3-0.4,0.6-0.8,0.8-1.2c1.2-2.9,3.8-3.4,6.4-3.4c2.6-0.1,5.3-0.5,7.8-1.2"/>
		<path fill="#804F21" d="M71.3,41.2c2.8-1.2,3.9-0.2,6.8-1c0.4-0.1,0.9,0.1,1.1,0.5l3.8,7.4c1.2,2.3,0.8,3.3-1.7,4.4
			c-1,0.3-1.9,0.9-2.5,1.7c-1.5,2.3-2.9,4.6-4.1,7.1c-0.8,1.6-4,3.1-5.2,2.4c-2-1.1-4.3-1.5-6.3-2.9c-3.5-2.4-3.6-2.1-1.7-5.9
			c0.8-1.5,2.1-2.8,2.1-4.7c0-1.8,0.2-3.6,0.6-5.4c0.5-2.4,0.9-3.5,3.8-3.6C69,41.4,70.1,41.4,71.3,41.2"/>
		<path fill="#804F21" d="M17.9,93.6c2.1,1.9,3.2,1.5,5.2,0.1c1.5-1,2.9-2.2,4.2-3.4c1.4-1.3,3.2-1.3,4.8-1.8c4-1.4,3.8-1.2,3-5.4
			c-0.5-2.4-1.7-4.3-2.4-6.5c-0.4-1.4-3.7-2.6-5.4-2c-2.6,0.9-5.2,1.6-7.9,2.1c-1,0.1-2.1-0.1-3-0.6c-2.6-0.9-3.5-0.5-4.3,2
			c-0.7,2.2-1.4,4.5-2.1,6.8c-0.5,1.1,0,2.3,1,2.9c2.2,1.4,4.6,2.6,7,3.6"/>
		<path fill="none" stroke="#C19962" stroke-width="1.5" stroke-miterlimit="10" d="M86.9,61.8c1.2,1,1.7,2.6,1.4,4.1c-0.6,3-0.6,6-0.1,9c0.5,2.1-1,3.4-2.4,4.7c-2.5,2.2-5.4,3.2-8.4,4.3
			c-0.6,0.2-1.4,0.1-1.9-0.3"/>
		<path fill="none" stroke="#C19962" stroke-width="1.5" stroke-miterlimit="10" d="M99.5,76.3c-2.4,0.7-4.8-0.2-7.1-0.3c-0.9-0.1-1.8-0.3-2.7-0.6"/>
		<path fill="none" stroke="#C19962" stroke-width="1.5" stroke-miterlimit="10" d="M66.4,44.2c0.7,0.5,1.3,1,1.9,1.7c1.3,1.7,0,3.3,2,4.1c0.5,0.3,1,0.6,1.5,0.9"/>
		<path fill="none" stroke="#C19962" stroke-width="1.5" stroke-miterlimit="10" d="M78.6,48.9c-2.6-0.8-6.7,2.1-9.4,5.4c-1.4,1.8-3.3,4.2-5.4,4.6c-1.1,0.1-2.1,0.6-2.9,1.4"/>
		<path fill="none" stroke="#C19962" stroke-width="1.5" stroke-miterlimit="10" d="M17,91.5c-0.1-0.8-0.2-1.5-0.1-2.3c0.2-2-0.1-3.9-0.9-5.7c-0.2-0.5-0.3-1.1-0.4-1.6"/>
		<path fill="none" stroke="#C19962" stroke-width="1.5" stroke-miterlimit="10" d="M12.9,78.6c1.6,3.5,5.7,5.1,9.2,3.5c0.4-0.2,0.9-0.4,1.2-0.7c1.8-1.3,5.4-0.7,7.1,0.6c0.8,0.7,1.9,1.1,3,1.1"
			/>
		<path fill="none" stroke="#C19962" stroke-width="1.5" stroke-miterlimit="10" d="M92.3,63.8c2,1,3.9,2.2,5.7,3.6"/>
		<path fill="none" stroke="#823733" stroke-width="1.32" stroke-miterlimit="10" d="M97.3,60.1c2.3,0.6,2.6,3.4,3.2,5.6c1.3,4.1,1.7,8.3,2.6,12.4c0.1,0.7-0.1,1.4-0.5,2
			c-1.5,1.8-3.1,3.5-4.8,5.1c-1.1,1.1-2.6,1.6-4.1,1.2c-0.8-0.2-1.4,0.2-2.1,0.9c-2.3,2.2-5.2,3.8-8.3,4.6c-0.9,0.2-1.8-0.1-2.4-0.7
			c-1.4-1.5-2.9-3-4.2-4.6c-3-3.5-2.6-9.9-0.5-13c1.8-2.7,3.8-5.2,5.8-7.8c0.3-0.4,0.6-0.8,0.8-1.2c1.2-2.9,3.8-3.4,6.4-3.4
			s4-0.6,6.6-1.2C96.2,59.8,96.8,59.9,97.3,60.1z"/>
		<path fill="none" stroke="#823733" stroke-width="1.32" stroke-miterlimit="10" d="M65.6,41c-2.8,0.1-3.3,1.2-3.8,3.6c-0.3,1.8-0.5,3.6-0.5,5.4c0,1.9-1.3,3.2-2.1,4.7c-1.9,3.8-1.8,3.6,1.7,5.9
			c2,1.3,4.3,1.8,6.3,2.9c1.2,0.7,4.4-0.8,5.2-2.4c1.2-2.4,2.6-4.8,4.1-7c0.6-0.8,1.5-1.4,2.5-1.7c2.4-1.2,2.9-2.1,1.7-4.4L77,40.8
			c-0.3-0.6-1-0.9-1.7-0.8c-2.8,0.7-5.6,1.5-8.2,2.6"/>
		<path fill="none" stroke="#823733" stroke-width="1.32" stroke-miterlimit="10" d="M16.5,93.4c2.1,1.9,3.2,1.5,5.2,0.1c1.5-1,2.9-2.2,4.2-3.4c1.4-1.3,3.2-1.3,4.8-1.8c4-1.4,3.8-1.2,3-5.4
			c-0.5-2.4-1.7-4.3-2.4-6.5c-0.4-1.3-3.7-2.6-5.4-2c-2.6,0.9-5.3,1.6-7.9,2.2c-1,0.1-2.1-0.1-3-0.6c-2.5-0.9-3.5-0.5-4.3,2
			c-0.7,2.3-1.5,4.6-2.2,7c-0.3,1,0.1,2.1,1,2.6c2.9,1.7,6,3.2,9.1,4.5"/>
	</g>
</g>
</svg>
