<?xml version="1.0" encoding="utf-8"?>
<!-- Generator: Adobe Illustrator 23.0.2, SVG Export Plug-In . SVG Version: 6.00 Build 0)  -->
<svg version="1.1" xmlns="http://www.w3.org/2000/svg" xmlns:xlink="http://www.w3.org/1999/xlink" x="0px" y="0px"
	 viewBox="0 0 165 165" style="enable-background:new 0 0 165 165;" xml:space="preserve">
<g>
	<g>
		<path opacity="0.3" fill="#F3AE00" d="M160.8,122.5c0,0,5.6,14.5-2.8,15.8s-12.3-1.9-23,3.2s-43.2,4.4-54.4,4.4s-10.7-3.8-23-3.2s-21.3,0.6-23-1.9
			s2.2-10.8,2.2-10.8s7.8-16.4,7.8-34.2s-1.7-23.4,0-36.1s2.8-40.5,2.8-40.5V5.3c0-5.2,2.8-0.5,9.5,0s33.1,4.6,45.4,1.4
			s43.7,0,50.6,0s3.8,3.8,2.4,8.2s-2.4,8.9-2.4,8.9S158,66,158,79.2v36.4L160.8,122.5z"/>
		<path d="M152.9,126.8c-0.3-2-0.3-4,0-6c0.1-1,0.2-1.9,0.4-2.9l0.3-1.4l0.3-1.2V80.7c-0.1-3.8-0.3-7.7-0.6-11.5
			c-0.6-7.7-1.3-15.4-2.1-23.1L150,34.4l-0.3-2.9l-0.2-1.5l-0.1-0.7c0-0.3-0.2-0.8,0-1.2l1.6-5.8l0.8-2.8c0.3-1,0.7-2,1-2.8
			c0.3-0.7,0.5-1.4,0.6-2.2c0-0.1,0-0.2-0.1-0.3c-0.1-0.1-0.2-0.1-0.6-0.2c-1.3-0.3-3.6-0.1-5.5-0.3l-5.8-0.4
			c-7.7-0.5-15.5-0.9-23.2-0.8c-3.8,0-7.6,0.2-11.4,0.7c-0.9,0.1-1.8,0.3-2.7,0.5l-3,0.6c-2,0.3-4,0.5-6,0.6
			c-7.8,0.2-15.7-0.2-23.5-1.2c-3.1-0.3-6.4-0.8-9.6-1.3c-1.7-0.2-3.3-0.5-4.9-1.1c-1.3-0.5-2.5-1.1-3.7-1.8
			c-0.4-0.3-0.8-0.2-1.1,0.2c0,0.1-0.1,0.1-0.1,0.2c-0.2,0.5-0.3,1-0.3,1.5c-0.2,1.1-0.3,2.2-0.5,3c-0.4,1.7-0.8,2.7-1.2,2.7V11
			l0.1-1.4c0.1-0.4,0.2-0.8,0.4-1.2c0.4-0.7,1.1-1.2,1.9-1.2c0.9,0,1.7,0.2,2.5,0.6l1.4,0.6c0.9,0.4,1.8,0.6,2.7,0.8
			c1,0.2,1.9,0.3,2.9,0.4l6.2,0.7c8.1,1,16.2,1.6,24.4,1.7c2,0,4-0.1,6-0.3c2-0.3,4-0.6,5.9-1.1c4.1-0.7,8.3-1,12.6-1
			c8.3-0.1,16.5,0.4,24.8,0.9l6.1,0.4l3,0.1c1.4-0.1,2.7,0.2,3.9,0.9c0.8,0.5,1.3,1.3,1.4,2.2c0.1,0.7,0,1.5-0.2,2.2
			c-0.3,1.2-0.7,2.1-1.1,3c-0.7,1.7-1.1,3.9-1.7,5.7l-0.8,3l-0.2,0.7c0,0.1,0,0.2,0,0.2l0.2,1.5l0.7,6.1l1.3,12.3
			c0.8,8.2,1.6,16.4,2.1,24.6c0.3,4.1,0.3,8.3,0.3,12.4v12.4c0,5.7-0.3,11.9-0.8,17.4c-0.9,2.5-1.6,5.1-2.2,7.7
			C153.6,125.4,153.4,126.7,152.9,126.8z"/>
		<path d="M160.2,123.5c0.8,2.6,1.2,5.4,1.2,8.2c-0.1,1.6-0.5,3.1-1.4,4.4c-1,1.4-2.6,2.3-4.3,2.6c-2.7,0.3-5.3,0.4-8,0.2
			c-2.4-0.2-4.9,0-7.3,0.5c-1.2,0.3-2.3,0.7-3.5,1.1c-1.2,0.4-2.2,1-3.6,1.5c-2.5,0.9-5.1,1.6-7.8,2c-5.2,0.8-10.4,1.3-15.6,1.5
			c-5.2,0.2-10.4,0.4-15.6,0.4h-7.8c-2.6,0.1-5.3,0-7.9-0.2c-2.6-0.4-5.3-1-7.8-1.9c-2.3-0.7-4.8-1-7.2-0.9
			c-5,0.1-10.3,0.5-15.5,0.4c-2.1,0-4.3-0.4-6.3-1c-1.3-0.3-2.3-1.1-3.1-2.1c-0.4-1.1-0.5-2.3-0.1-3.3c1.2-3.5,3-5.4,3.8-5.1
			c-0.5,1.1-0.9,2.3-1.2,3.5c-0.3,1-0.5,2.1-0.4,3.2c0.1,0.4,0,0.3,0.3,0.6c0.4,0.2,0.8,0.4,1.3,0.5c1.2,0.3,2.3,0.5,3.5,0.6
			c5.1,0.2,10.2,0.2,15.3-0.2c2.7-0.2,5.4,0,8.1,0.4c2.8,0.5,5.2,1.6,7.5,2c2.4,0.4,4.9,0.6,7.4,0.5H92c10.3-0.1,20.6-0.2,30.7-1.5
			c2.5-0.3,4.9-0.8,7.4-1.5c1.2-0.3,2.3-0.7,3.4-1.2c1.2-0.6,2.5-1.1,3.8-1.5c2.6-0.9,5.3-1.3,8.1-1.3c2.7,0,5.2,0.3,7.6,0.1
			c0.9,0,1.8-0.1,2.7-0.3c0.7-0.1,1.4-0.5,1.9-1c1-1.4,1.5-3,1.6-4.7C159.4,126.5,159.3,123.8,160.2,123.5z"/>
		<path d="M53.3,25.9c-0.3,7.8-0.8,15.5-1.3,23.3c-0.3,3.9-0.6,7.8-1,11.7c-0.6,3.8-0.9,7.6-1,11.4c0,7.6,0.7,15.4,0.7,23.2
			c0.1,4-0.2,7.9-0.7,11.8c-0.5,3.9-1.4,7.8-2.2,11.6c-0.7,2.9-1.5,5.7-2.5,8.5c-0.9,2.5-1.7,4.4-2.5,4.4c0.1-8.1,2.7-15.7,3.8-23.1
			s0.9-15.2,0.6-22.9c-0.2-3.9-0.4-7.7-0.5-11.7c0-4,0.2-7.9,0.8-11.8c0.9-7.6,1.4-15.4,1.8-23.1C49.8,33.3,51.6,25.8,53.3,25.9z"/>
		<path d="M151.4,23.8l-42,1.6c-3.5,0.2-7,0.3-10.6,0.3c-3.8,0-7.1-0.6-10.6-0.8l-21-1.9c-5.2-0.5-11.9-2.5-11.8-4.2l41.8,3.8
			c6.8,0.1,13.9-0.4,20.9-0.6l21-0.8C144.4,20.9,151.3,22,151.4,23.8z"/>
		<path d="M47.8,131.4c1.6,0.7,3.2,1.2,4.9,1.4c0.9,0.1,1.7,0.2,2.6,0.2c0.9,0,2,0,2.9,0.1c3.8,0.3,7.5,0.8,11.2,1.3
			c7.4,0.9,14.8,1.8,22.2,2.2c7.4,0.4,14.8,0.1,22.1-1c7.4-1,14.6-2.6,22.1-3.8c5.5-0.5,12.8-1.1,13.3,0.5
			c-3.7,1.1-7.4,1.9-11.2,2.4c-3.6,0.4-7.3,1.2-11,1.9c-7.4,1.5-14.9,2.5-22.4,3.1c-7.6,0.4-15.2,0.2-22.7-0.7
			c-7.5-0.7-15-1.8-22.3-2.6l-4.3-0.5c-1.5-0.2-2.9-0.5-4.3-1.1C48.6,133.7,47.3,132.1,47.8,131.4z"/>
		<path d="M81.6,97.4L73.3,90l-2.1-1.9h-5.5l0.4,0.4l33.3,29.8C100.1,116.3,89.9,104.9,81.6,97.4z"/>
		<path d="M80.5,64.8l14-12.8l4.1-3.8c0.9-1.1,2.3-1.8,3.7-1.7c1.3,0.1,2.3,1,3.8,2.4l4.1,3.8l13.2,12.1h5.4l-3.2-2.9l-16.5-15.1
			l-2.1-1.9l-1-1c-0.4-0.4-0.9-0.7-1.3-0.9c-1.8-1-4-1-5.7,0.1c-0.5,0.3-0.9,0.6-1.3,1l-1,0.9l-2.1,1.9l-4.1,3.8L75.1,64.8H80.5z"/>
		<path d="M133,88.1l-0.5,0.5l-4.2,3.7l-8.3,7.5l-16.6,14.9c0.8,2,12.2-6,20.6-13.5l8.3-7.4l4.2-3.7c0.6-0.6,1.1-1.2,1.6-1.9H133z"
			/>
		<path fill="#B90518" d="M108.5,81.2c0.5,0,0.9-0.4,0.9-0.8l0.6-4.8c0-0.5-0.3-1-0.8-1c0,0,0,0-0.1,0h-5.8v-4c0-1.8,0.5-3.1,3.1-3.1
			h2.4c0.5,0,0.9-0.4,0.9-0.9v-4.1c0-0.5-0.4-0.9-0.9-0.9h-4c-4.8,0-8.1,2.9-8.1,8.3v4.7h-3.8c-0.5,0-0.9,0.4-0.9,0.9v4.8
			c0,0.5,0.4,0.9,0.9,0.9h3.9v14.9h6.5V81.2L108.5,81.2z"/>
		<path stroke="#000000" stroke-width="0.42" stroke-miterlimit="10" d="M24.3,144.3c-0.1-1.9-1.1-3.7-2.7-4.8c-1.5-1-3.3-1.5-5.1-1.5c-3.4-0.1-6.8,0.4-10.1,1.5
			c-0.9,0.3-1.7,0.8-2.4,1.3c-0.2,0.2-0.4,0.3-0.5,0.5c-0.2,0.2-0.3,0.4-0.4,0.7c-0.3,0.6-0.3,1.2,0,1.8c0.4,0.9,1.2,1.7,2.1,2.1
			c0.8,0.4,1.6,0.8,2.4,1c3.3,1,6.8,1.2,10.2,0.7c1.3-0.2,2.6-0.6,3.7-1.4c1-0.6,1.5-1.4,1.2-1.8c-2.6,1.5-6,1.9-9.2,1.8
			c-1.6,0-3.2-0.3-4.7-0.6c-1.5-0.3-2.8-1-3.9-2c-0.4-0.5-0.4-0.8-0.1-1.3c0.5-0.5,1-0.9,1.7-1.2c1.5-0.6,3-1,4.5-1.2
			c3.1-0.4,6.6-0.8,9.2,0.5c1,0.5,1.9,1.3,2.6,2.1C23.4,143.4,23.8,144.3,24.3,144.3z"/>
		<path stroke="#000000" stroke-width="0.42" stroke-miterlimit="10" d="M140.6,155c-0.7-1.6-1.7-3.1-3-4.3c-1.3-1.3-3-2.1-4.9-2.3c-1.8,0-3.6,0.4-5.2,1.1c-1.6,0.6-3.1,1.3-4.6,2.1
			c-0.8,0.4-1.5,0.9-2.2,1.4c-0.4,0.3-0.7,0.6-1,1c-0.4,0.5-0.6,1-0.7,1.6c0,0.7,0.4,1.3,1,1.6c0.4,0.3,0.9,0.4,1.3,0.6
			c0.8,0.2,1.7,0.4,2.6,0.5c3.4,0.4,6.8,0.4,10.1,0c1.3-0.1,2.6-0.6,3.7-1.2c1-0.6,1.6-1.3,1.4-1.7c-2.8,1.3-6.2,1.6-9.4,1.6
			c-1.6,0-3.3-0.1-4.9-0.2c-0.8-0.1-1.6-0.2-2.4-0.3c-0.7-0.1-1.3-0.3-1.8-0.8c-0.1-0.1-0.1-0.1-0.1-0.3c0.1-0.3,0.3-0.5,0.5-0.7
			c0.6-0.5,1.2-1,1.9-1.4c1.4-0.8,2.9-1.5,4.4-2.1c1.4-0.7,2.9-1.1,4.5-1.3c1.5-0.1,2.9,0.5,4.1,1.4
			C137.8,152.8,139.8,155.3,140.6,155z"/>
		<path stroke="#000000" stroke-width="0.42" stroke-miterlimit="10" d="M149.9,154.3c-0.1,0.1-0.3,0.1-0.4,0c0,0,0,0,0,0c-0.1-0.2,0.2-0.2,0.3-0.2c0.2,0,0.3-0.1,0.5-0.1
			c0.3,0,0.7,0.1,1.2,0.1c-0.1-0.7-0.8-1.2-1.5-1.2c-0.8-0.1-1.6,0.2-2,0.8c-0.3,0.6,0,1.3,0.6,1.6c0,0,0,0,0,0
			c0.7,0.4,1.6,0.3,2.3-0.1C151.4,154.9,150.8,154.2,149.9,154.3z"/>
		<path stroke="#000000" stroke-width="0.42" stroke-miterlimit="10" d="M151.4,148.4L151.4,148.4c0,0,0.1,0-0.2,0.1c-0.4,0-0.8,0-1.1,0c0.1,0.7,0.7,1.3,1.5,1.2
			c0.7-0.1,1.3-0.7,1.2-1.5s-0.7-1.3-1.5-1.2c-0.3,0-0.6,0.1-0.8,0.3c-0.2,0.2-0.2,0.5,0,0.7c0,0,0,0,0,0c0.1,0.1,0.3,0.2,0.5,0.2
			C151.1,148.4,151.5,148.4,151.4,148.4z"/>
		<path stroke="#000000" stroke-width="0.42" stroke-miterlimit="10" d="M140.6,148.3L140.6,148.3c0,0,0.1,0-0.2,0.1c-0.4,0-0.8,0-1.1,0c0.1,0.7,0.7,1.3,1.5,1.2
			c0.7-0.1,1.3-0.7,1.2-1.5s-0.7-1.3-1.5-1.2c-0.3,0-0.6,0.1-0.8,0.3c-0.2,0.2-0.2,0.5,0,0.7c0,0,0,0,0,0c0.1,0.1,0.3,0.2,0.5,0.2
			C140.3,148.3,140.7,148.3,140.6,148.3z"/>
		<path stroke="#000000" stroke-width="0.42" stroke-miterlimit="10" d="M157,147.7L157,147.7h-0.1c-0.4,0.1-0.7,0.1-1.1,0.1c0,0.7,0.6,1.2,1.3,1.1s1.2-0.6,1.1-1.3
			c0-0.7-0.6-1.2-1.3-1.1c-0.3,0-0.5,0.1-0.7,0.3c-0.2,0.2-0.1,0.5,0.1,0.6c0,0,0,0,0,0c0.1,0.1,0.3,0.2,0.5,0.2L157,147.7z"/>
		<path stroke="#000000" stroke-width="0.42" stroke-miterlimit="10" d="M134.1,153.7L134.1,153.7c0,0,0.1,0-0.2,0.1c-0.4,0-0.8,0-1.1,0c0.1,0.7,0.7,1.3,1.5,1.3c0.5,0,1-0.4,1.2-0.9
			c0.3-0.7-0.1-1.5-0.8-1.8c-0.5-0.2-1-0.1-1.4,0.2c-0.2,0.2-0.2,0.5,0,0.7c0,0,0,0,0,0c0.1,0.1,0.3,0.2,0.5,0.2
			C133.8,153.7,134,153.7,134.1,153.7z"/>
		<path stroke="#000000" stroke-width="0.42" stroke-miterlimit="10" d="M9.7,142.9c-0.1,0.1-0.3,0.1-0.4,0c0,0,0,0,0,0c-0.1-0.2,0.2-0.2,0.3-0.1c0.2,0,0.3-0.1,0.5-0.1
			c0.3,0,0.8,0.1,1.2,0.1c-0.1-0.7-0.8-1.2-1.5-1.2c-0.8-0.1-1.5,0.2-1.9,0.8c-0.3,0.6-0.1,1.3,0.5,1.6c0,0,0,0,0.1,0
			c0.7,0.4,1.6,0.3,2.3-0.1C11.1,143.5,10.6,142.9,9.7,142.9z"/>
		<path stroke="#000000" stroke-width="0.42" stroke-miterlimit="10" d="M44.9,147.7c-0.1,0.1-0.3,0.1-0.4,0c0,0,0,0,0,0c-0.1-0.2,0.2-0.2,0.3-0.2c0.2,0,0.3-0.1,0.5-0.1
			c0.3,0,0.7,0.1,1.2,0.1c-0.2-0.7-0.8-1.2-1.5-1.2c-0.8-0.1-1.6,0.2-2,0.8c-0.3,0.6,0,1.3,0.6,1.6c0,0,0,0,0,0
			c0.7,0.4,1.6,0.3,2.3-0.1C46.4,148.3,45.8,147.6,44.9,147.7z"/>
		<path stroke="#000000" stroke-width="0.42" stroke-miterlimit="10" d="M13.6,142.4L13.6,142.4C13.6,142.4,13.7,142.4,13.6,142.4c-0.5,0.1-0.8,0.1-1.2,0.1c0.1,0.7,0.6,1.2,1.3,1.1
			c0.5,0,0.8-0.3,1-0.7c0.3-0.6,0-1.3-0.7-1.6c-0.4-0.2-0.9-0.1-1.3,0.2c-0.2,0.2-0.1,0.5,0.1,0.6c0,0,0,0,0,0
			c0.1,0.1,0.3,0.2,0.5,0.2L13.6,142.4z"/>
		<path stroke="#000000" stroke-width="0.42" stroke-miterlimit="10" d="M34.9,143.5c0-0.1,0-0.2,0.1-0.2c0.1,0,0.2,0.1,0.2,0.2s-0.1,0.5-0.3,0.2c0,0-0.2,0.1-0.5,0s-0.7-0.1-1.1-0.1
			c0,0.7,0.4,1.4,1.1,1.7c0.7,0.2,1.5-0.2,1.7-0.9c0.2-0.5,0.3-1.1,0.1-1.7c-0.1-0.4-0.4-0.8-0.7-1c-0.6-0.4-1.4-0.2-1.8,0.4
			c0,0,0,0,0,0c-0.2,0.3-0.1,0.7,0.1,0.9C34.1,143.3,34.5,143.5,34.9,143.5z"/>
		<path stroke="#000000" stroke-width="0.42" stroke-miterlimit="10" d="M29.3,144.2L29.3,144.2h-0.1c-0.4,0.1-0.7,0.1-1.1,0.1c0,0.6,0.5,1,1,1.1c0.7,0.1,1.3-0.4,1.4-1
			c0.1-0.5-0.1-0.9-0.5-1.2c-0.5-0.3-1.1-0.3-1.5,0.1c-0.2,0.2-0.1,0.5,0.1,0.6c0,0,0,0,0,0c0.1,0.1,0.3,0.2,0.5,0.2L29.3,144.2z"/>
		<path stroke="#000000" stroke-width="0.42" stroke-miterlimit="10" d="M28.7,148.8c0-0.2,0.3-0.3,0.3,0s-0.1,0.4-0.2,0.2c0,0-0.2,0-0.5,0s-0.7-0.1-1.1-0.1c0,0.7,0.4,1.3,1.1,1.6
			c0.7,0.2,1.5-0.1,1.8-0.8c0.2-0.5,0.3-1,0.1-1.5c-0.1-0.4-0.4-0.7-0.7-0.9c-0.6-0.3-1.4-0.2-1.8,0.4c-0.2,0.3-0.1,0.6,0.1,0.8
			C27.9,148.7,28.3,148.8,28.7,148.8z"/>
		<rect y="0" fill="none" width="165" height="165"/>
	</g>
</g>
</svg>
