<svg xmlns="http://www.w3.org/2000/svg" viewBox="0 0 120 120">
<g><g>
<rect fill="none" width="120" height="120"/>
<path fill="#796a56" opacity="0.2" d="M11.28,64.2S31.38,46,36.74,45s16.91-.42,24.78-4.61S74.08,35.56,79.77,30a10.81,10.81,0,0,1,15.58,0c3,3.18,8.2,15.57,7,23.53s1.52,9.16,5,13.58,9.45,7.43,1.92,13.29S84.13,93,73.07,93.84s-47.84.48-57.66-14.07C10.48,72.47,9.94,67.57,11.28,64.2Z"/>
<path fill="#fff" d="M11.28,63.38s20.1-18.23,25.46-19.16,16.91-.43,24.78-4.62,12.56-4.85,18.25-10.38a10.82,10.82,0,0,1,15.58,0c3,3.18,8.2,15.58,7,23.53s1.52,9.17,5,13.59,9.45,7.43,1.92,13.29S84.13,92.19,73.07,93,25.23,93.5,15.41,79C10.48,71.65,9.94,66.75,11.28,63.38Z"/>
<path fill="#c2b595" d="M51,66.86s-5.58,4.21-6.25,1.55S53.1,49.9,64.4,44.84s13.09-1.48,13.09-1.48,8.75-6.8,10.13-7.25,12.84,12.31,4.52,13.82c-1.36.24-10.71,6.44-10.71,6.44S64.14,71.53,59.38,71.65,52.72,68.29,51,66.86Z"/>
<path fill="#dd9034" d="M19.13,69.94s-.91,7,7.18,9.55,16.57,5.14,19.26,5.11,13.09-1.09,16.56,0S69.68,86,74,83s10.54-1.32,12.27-1.52,15.5-7.28,16-7.65a5.35,5.35,0,0,0-.7-6.46,43.7,43.7,0,0,0-12.93-8.49L83.25,56.7S70.93,65.32,70.67,66s-6.89,5.1-9.64,4.62,2.54-5.09,5.43-11.24c2.06-4.38,6.71-7.17,9.23-8.42a.47.47,0,0,0-.18-.89c-3.84-.26-12.45-.81-13.84-.41-1.8.51-7.23,2.53-8.06,8.33s-4.37,7.5-4.37,7.5-3.17,4-3.67.9,2-11,7.2-13.59-4-1.91-7.06-1c-5.51,1.71-12.09,1.83-15.27,7.8C28.79,62.68,20.16,67.1,19.13,69.94Z"/>
<path fill="none" stroke="#823733" stroke-miterlimit="10" stroke-width="1.51" d="M55.34,52.09a3.28,3.28,0,0,0-3.21-1c-2.13.3-4.3.35-6.42.71a12.83,12.83,0,0,0-6,2.73,134.46,134.46,0,0,1-13.32,9.24,20.41,20.41,0,0,1-3.58,2.08,6.44,6.44,0,0,0-2.69,2.37c-1.79,2.51-1.74,3.23.51,6.78s5.84,4.72,9.42,5.85c2.65.85,5.43,1.21,7.91,2.65.85.5,2.06.34,3.1.55a26.07,26.07,0,0,0,10.88,0,19.11,19.11,0,0,1,11.54,1A8.92,8.92,0,0,0,72.21,84a10.1,10.1,0,0,1,6.1-2c2.63,0,5.28-.34,7.91-.52a23,23,0,0,0,9.2-2.75,15.06,15.06,0,0,0,4.14-2.93"/>
<path fill="none" stroke="#823733" stroke-miterlimit="10" stroke-width="1.51" d="M81.91,56.7c1.38-.13,4.17-.49,5.44.2A12.62,12.62,0,0,1,91,59.35a8.22,8.22,0,0,0,3.81,2.27,7.58,7.58,0,0,1,4.3,3.3,5.29,5.29,0,0,0,2.45,2.45c1.63.55,2.19,2,3.15,3.14.72.83.46,1.41-.21,1.81a44,44,0,0,0-4.6,3.32l-2,1.6"/>
<path fill="none" stroke="#823733" stroke-miterlimit="10" stroke-width="1.51" d="M82.26,54.4c-.52-1.51.19-3-.26-4.63a9.7,9.7,0,0,0-10.44-7.39,15,15,0,0,0-10.85,5.94c-.41.53-1.31.6-1.33,1.47"/>
<path fill="none" stroke="#823733" stroke-miterlimit="10" stroke-width="1.51" d="M75.18,62.63c1.13-.55,2.06-1.39,3.27-1.87,1.85-.74,2.63-2.5,3-4.39a3.3,3.3,0,0,1,1.82-2.32,45.14,45.14,0,0,1,8.89-4.12,2.86,2.86,0,0,0,2-3.11c-.06-1.7,0-3.41-.19-5.1-.26-2.42-2-3.93-3.78-5.24A5.8,5.8,0,0,0,89,35.65c-1.13-.43-2.19-.95-3.48-.07a11.76,11.76,0,0,0-3.77,3.17,11.66,11.66,0,0,1-2.63,2.47c-.73.58-1.55,1.08-1.64,2.14"/>
<path fill="none" stroke="#823733" stroke-miterlimit="10" stroke-width="1.51" d="M83.91,36.94c.11.22.24.64.33.63,2.81-.25,4,2.33,5.92,3.5a1.39,1.39,0,0,1,.64.82c.34,2.29,1,4.6,0,6.91"/>
<path fill="none" stroke="#823733" stroke-miterlimit="10" stroke-width="1.51" d="M63.33,70.86c.32-.44.48-.89,1.12-1.21,2.16-1.06,4-2.64,6.22-3.7a15.9,15.9,0,0,0,4.18-3.16l1.72-1"/>
<path fill="none" stroke="#823733" stroke-miterlimit="10" stroke-width="1.51" d="M66.46,47.81c1.28.79,2.75.26,4.13.57a10.4,10.4,0,0,1,5,2.57"/>
<path fill="none" stroke="#823733" stroke-miterlimit="10" stroke-width="1.51" d="M54.93,52.75c-3.84,2-6.08,5.33-7.9,9.06l-.54.82c-1.26,1.23-1.84,5.63-.13,5.38l1.26-1.34c.28-.71,1.51-.28,1.62-1.23.14-1.15-.11-2.49.47-3.44a33.6,33.6,0,0,1,4-5.81,4.45,4.45,0,0,0,1.51-2.45c.32-2.8,1.73-3.91,4.6-3.62a2.21,2.21,0,0,0,1.8-.51,7.73,7.73,0,0,1,2.65-1.45c.63-.26,1.61-.13,1.92-.55,1.52-2,3.76-2.71,6-3.19a6.35,6.35,0,0,1,4.43.43,4.05,4.05,0,0,1,2.14,3c.22,1.23-.7,1.64-1.45,2.35C75,52.39,72.19,54,69.72,56c-2.66,2.19-4.79,4.61-5.21,8.12-.25,2.08-.75,3.91-2.65,5.13-.38.24-1.08.52-.83,1.32,1.47.32,3,.6,4.43,1a1.17,1.17,0,0,0,1,0c2-1.12,3.57-2.55,4-5"/></g></g></svg>