<svg xmlns="http://www.w3.org/2000/svg" viewBox="0 0 120 120">
<g><g>
<path fill="none" stroke="#823733" stroke-miterlimit="10" stroke-width="1.33" d="M87,61.85a4.09,4.09,0,0,1,1.39,4.08,24.16,24.16,0,0,0-.06,9c.45,2-1,3.42-2.42,4.7-2.47,2.15-5.44,3.24-8.44,4.31a2.27,2.27,0,0,1-1.92-.26"/>
<path fill="none" stroke="#823733" stroke-miterlimit="10" stroke-width="1.33" d="M99.57,76.27c-2.4.65-4.75-.17-7.12-.29a15.8,15.8,0,0,1-2.66-.57"/>
<path fill="none" stroke="#823733" stroke-miterlimit="10" stroke-width="1.33" d="M16.62,93.38c2.09,1.91,3.17,1.48,5.21.09A33.56,33.56,0,0,0,26,90.06c1.37-1.31,3.17-1.27,4.78-1.82,4-1.37,3.8-1.24,3-5.39-.47-2.37-1.74-4.3-2.42-6.51C31,75,27.65,73.76,26,74.37a63.09,63.09,0,0,1-7.9,2.14,4.93,4.93,0,0,1-3-.57c-2.55-.91-3.52-.53-4.31,2C9.89,80.74,9,83.57,8,86.62a64,64,0,0,0,8.68,4.56"/>
<path fill="none" stroke="#823733" stroke-miterlimit="10" stroke-width="1.33" d="M17.05,91.5a11.35,11.35,0,0,1-.14-2.32A11.26,11.26,0,0,0,16,83.45a9.41,9.41,0,0,1-.36-1.61"/>
<path fill="none" stroke="#823733" stroke-miterlimit="10" stroke-width="1.33" d="M13,78.66a7,7,0,0,0,10.5,2.82c1.84-1.35,5.35-.66,7.06.58a4.38,4.38,0,0,0,3,1.08"/>
<path fill="none" stroke="#823733" stroke-miterlimit="10" stroke-width="1.33" d="M92.45,63.78a30.48,30.48,0,0,1,5.71,3.66"/>
<path fill="none" stroke="#823733" stroke-miterlimit="10" stroke-width="0.8" opacity="0.35" d="M65.35,26.31c-2.42,1.35-16.81,7.12-21.22,15.05s-1.7,20.56,10.61,30.55,12.5,33.2,36.35,27.62S122.57,69.35,110.52,59,87.9,49.58,84.38,34.6,65.35,26.31,65.35,26.31Z"/>
<path fill="none" stroke="#823733" stroke-miterlimit="10" stroke-width="0.8" opacity="0.35" d="M27.35,66.61C12.88,64.74.77,77.94,4.82,92c0,.14.09.28.13.43C9.36,106.79,38.44,97,40.79,90.89S44.61,76,34.92,69.37A17.18,17.18,0,0,0,27.35,66.61Z"/>
<path fill="none" stroke="#823733" stroke-miterlimit="10" stroke-width="1.33" d="M78.67,48.76c-2.6-.77-6.75,2.07-9.42,5.43-1.42,1.78-3.32,4.25-5.41,4.58A4.34,4.34,0,0,0,61,60.15"/>
<path fill="none" stroke="#823733" stroke-miterlimit="10" stroke-width="1.33" d="M65.69,40.92c-2.83.12-3.29,1.19-3.75,3.62a32.4,32.4,0,0,0-.56,5.38c0,1.9-1.35,3.15-2.1,4.67-1.89,3.83-1.8,3.57,1.7,5.92,2,1.35,4.28,1.81,6.32,2.9,1.26.66,4.46-.82,5.22-2.44a62.35,62.35,0,0,1,4.07-7.1,4.94,4.94,0,0,1,2.51-1.7C81.54,51,82,50.06,80.75,47.73l-3.68-7.07a1.44,1.44,0,0,0-1.64-.74,55.75,55.75,0,0,0-8.26,2.62"/>
<path fill="none" stroke="#823733" stroke-miterlimit="10" stroke-width="1.33" d="M66.45,44.05a13,13,0,0,1,1.87,1.66c1.33,1.74,0,3.27,2,4.12a10.08,10.08,0,0,1,1.49.94"/>
<path fill="none" stroke="#823733" stroke-miterlimit="10" stroke-width="1.33" d="M97.42,60.06c2.29.65,2.56,3.44,3.23,5.6,1.27,4,1.71,8.26,2.58,12.38a2.31,2.31,0,0,1-.53,2,48.55,48.55,0,0,1-4.78,5.14,4.39,4.39,0,0,1-4.15,1.25c-.79-.22-1.41.24-2.13.93a18.94,18.94,0,0,1-8.34,4.56,2.43,2.43,0,0,1-2.38-.74c-1.42-1.53-2.88-3-4.24-4.6-3-3.48-2.58-9.87-.48-13C78,70.92,80.05,68.37,82,65.76a6.29,6.29,0,0,0,.79-1.21c1.21-2.91,3.78-3.37,6.44-3.43s4-.62,6.57-1.24A4,4,0,0,1,97.42,60.06Z"/>
<rect fill="none" width="120" height="120"/></g></g></svg>