<svg xmlns="http://www.w3.org/2000/svg" viewBox="0 0 120 120">
<g><g>
<path fill="none" stroke="#823733" stroke-miterlimit="10" stroke-width="1.5" d="M70.68,66.53c-.37,2.38-2,3.8-3.92,4.91a1.11,1.11,0,0,1-1,0c-1.46-.38-2.94-.66-4.4-1-.25-.79.44-1.07.83-1.31,1.88-1.21,2.38-3,2.62-5.1.42-3.48,2.54-5.88,5.17-8,2.46-2,5.27-3.59,7.6-5.81.74-.7,1.65-1.11,1.43-2.33A4,4,0,0,0,76.9,45a6.26,6.26,0,0,0-4.4-.42c-2.22.47-4.44,1.14-6,3.16-.32.42-1.29.29-1.91.55A7.83,7.83,0,0,0,62,49.68a2.2,2.2,0,0,1-1.78.51c-2.85-.29-4.25.81-4.57,3.59a4.35,4.35,0,0,1-1.5,2.43,34.08,34.08,0,0,0-4,5.77c-.58,1-.33,2.27-.47,3.42-.11.94-.2,1.52-1.21,1.62"/>
<path fill="none" stroke="#823733" stroke-miterlimit="10" stroke-width="1.5" d="M55.72,52.14a3.26,3.26,0,0,0-3.19-1c-2.11.3-4.27.35-6.37.71a12.61,12.61,0,0,0-5.92,2.71A132.58,132.58,0,0,1,27,63.73a20,20,0,0,1-3.55,2.07,6.34,6.34,0,0,0-2.67,2.35c-1.78,2.49-1.73,3.2.51,6.73s5.8,4.68,9.35,5.81c2.63.84,5.39,1.19,7.85,2.63.85.49,2,.34,3.08.55a26,26,0,0,0,10.8,0,19,19,0,0,1,11.46,1,8.83,8.83,0,0,0,8.63-1.08,10,10,0,0,1,6.06-2c2.61,0,5.24-.33,7.85-.52a22.86,22.86,0,0,0,9.13-2.73,14.88,14.88,0,0,0,4.11-2.9"/>
<path fill="none" stroke="#823733" stroke-miterlimit="10" stroke-width="1.5" d="M83.43,56.72c1.37-.13,2.81-.49,4.07.2a12.6,12.6,0,0,1,3.61,2.43,8.14,8.14,0,0,0,3.78,2.26,7.47,7.47,0,0,1,4.27,3.27,5.27,5.27,0,0,0,2.43,2.44c1.62.54,2.17,2,3.13,3.11.71.83.46,1.41-.21,1.8A43.62,43.62,0,0,0,100,75.52l-2,1.59"/>
<path fill="none" stroke="#823733" stroke-miterlimit="10" stroke-width="1.5" d="M82.45,54.43c-.52-1.49.19-3-.26-4.59A9.63,9.63,0,0,0,71.83,42.5a14.88,14.88,0,0,0-10.78,5.9c-.41.52-1.3.6-1.32,1.45"/>
<path fill="none" stroke="#823733" stroke-miterlimit="10" stroke-width="1.5" d="M75.42,62.61c1.12-.55,2-1.38,3.25-1.86,1.84-.74,2.61-2.48,3-4.36a3.26,3.26,0,0,1,1.8-2.3A45.14,45.14,0,0,1,92.26,50a2.83,2.83,0,0,0,2-3.08c-.06-1.69,0-3.39-.19-5.06-.26-2.4-1.94-3.9-3.76-5.21a6.11,6.11,0,0,0-1.13-.82c-1.12-.43-2.17-.94-3.46-.07A12,12,0,0,0,82,38.89a11.26,11.26,0,0,1-2.61,2.45c-.72.59-1.54,1.08-1.63,2.14"/>
<path fill="none" stroke="#823733" stroke-miterlimit="10" stroke-width="1.5" d="M55.31,52.8c-3.81,2-6,5.29-7.84,9"/>
<path fill="none" stroke="#823733" stroke-miterlimit="10" stroke-width="1.5" d="M84.09,37.1c.11.22.23.63.32.63,2.8-.25,3.93,2.31,5.88,3.47a1.37,1.37,0,0,1,.64.81c.34,2.28,1,4.57,0,6.86"/>
<path fill="none" stroke="#823733" stroke-miterlimit="10" stroke-width="1.5" d="M63.65,70.78c.32-.44.48-.88,1.12-1.2,2.14-1.06,4-2.62,6.17-3.68a15.84,15.84,0,0,0,4.16-3.13l1.7-1"/>
<path fill="none" stroke="#823733" stroke-miterlimit="10" stroke-width="1.5" d="M66.76,47.89c1.27.79,2.73.26,4.11.56,1.59.36,3.09.62,4.23,1.89"/>
<path fill="none" stroke="#823733" stroke-miterlimit="10" stroke-width="1.5" d="M47.3,62.12c-.11,1.8.61,3.48.82,5.23"/>
<path fill="none" stroke="#823733" stroke-miterlimit="10" stroke-width="0.9" opacity="0.35" d="M12,63.36s20-18.11,25.28-19S54,43.9,61.86,39.75,74.33,34.92,80,29.44a10.73,10.73,0,0,1,15.46,0c3,3.16,8.15,15.46,7,23.36s1.51,9.1,4.91,13.49,9.39,7.37,1.9,13.19S84.3,92,73.33,92.79s-47.5.47-57.26-14C11.17,71.57,10.65,66.7,12,63.36Z"/>
<rect fill="none" width="120" height="120"/></g></g></svg>