<svg xmlns="http://www.w3.org/2000/svg" viewBox="0 0 480 30"><defs><style>.cls-1{fill:none;}.cls-2{opacity:0.5;}.cls-3{fill:#fff;}</style></defs><title>資產 70</title><g id="圖層_2" data-name="圖層 2"><g id="圖層_1-2" data-name="圖層 1"><rect class="cls-1" width="480" height="30"/><g class="cls-2"><path class="cls-3" d="M465.71,17.14l0,0S465.69,17.14,465.71,17.14Z"/><path class="cls-3" d="M457.91,17.76h0Z"/><polygon class="cls-3" points="464.37 15.7 464.37 15.7 464.38 15.69 464.37 15.7"/><path class="cls-3" d="M465.93,15.67c-.41,0-.54-.22-1-.09a4,4,0,0,0-.6.12c-.08.18-.26,0-.36.18l-.05-.09c0,.05-.07.09-.12,0v0c0,.08-.12,0-.14.08v0l-.07,0v0a.3.3,0,0,1-.29.07l0,.12c-.21-.12-.26.13-.44,0v0c-.2.33-.37-.18-.57.13,0,0,0-.06,0-.08s-.21.06-.2.29c-.07,0-.06-.07-.08-.15a.13.13,0,0,1-.12.15l0,0-.17,0,.05.19c-.1-.05,0-.23-.13-.18l0,.16c-.13,0-.22-.26-.35-.36-.51,0-1,.4-1.52.16l0-.12c0-.17-.12.26-.15.11l0,.08s-.06-.06,0-.1-.05,0-.09.08l-.06-.11c-.2-.07-.36.15-.57.12-.27-.2-.73,0-1,.16s-.85-.38-1.23-.07c0,0-.05,0,0,.05h-.37s-1.75,0-.35,1.38v0c.2.08.33.09.46-.1,0,.23.16,0,.21.08v0c.11-.18.25.14.36,0,0,0,0,.09,0,.09s.2-.09.21,0c.21,0,.49,0,.61-.22v0c.07-.15.1,0,.18-.1s0,0,0,0c.07-.15.23,0,.3-.1v.09l.16,0-.07,0c0-.24.13.15.24,0,.11,0,.19-.52.31-.41.05-.12,0,.19,0,.09,0,.13,0,.09,0,.19.07-.07.14.12.23,0v.1c.11-.19.25.11.32-.07s.11.29.23.09l.07.13c.06,0,0-.17.1-.11s.08.07.05.15c.16.12.29-.21.5,0,0-.16.13-.07.15-.2,0,.07.2,0,.1.16s0,0,0,0v.09c.12.18.19-.11.31-.09,0,0-.08,0-.06-.09H461l0,.08.15,0,0-.1c.07.05.11.22.19.07s-.08-.13,0-.17a1.36,1.36,0,0,0,.39.17c0-.11,0-.11.05-.13v.1c.13-.15.07.21.19.09V18l0-.21c.1-.21.08.2.19-.08-.05,0,0-.21,0-.18v.1s0-.06.07-.05,0,.14,0,.12l0,.13.09-.19c.08.1.19,0,.24.09s.17.06.2-.09c0,.09.06.12.05.23,0-.11.15-.21.21-.1h0c.2.1.31-.18.49-.06,0-.11.08-.06.05-.2.16-.16.34.27.36-.19.08,0,.11.1.15.12l0,0a.75.75,0,0,1,.3-.06c.06-.05,0-.26.15-.22s0,.07.05.07,0,.05,0,.1a.08.08,0,0,1,0-.06v0c.06,0,0-.06,0-.07l0,0c.08.1.18,0,.2.12.19-.05.3-.22.45-.29a.17.17,0,0,1,0,.18l.1,0c0,.11-.05.07-.09.09.15.16.26-.2.42-.06l0-.08h0a.17.17,0,0,1,0-.13c0,.09,0,.22.1.2s.16-.06.24-.12,0-.06,0-.1.06.09.09,0l0,.13c0-.12.08-.14.09-.19s-.05.08-.05.15l.22,0c.07-.1,0-.12,0-.23s.13-.13.22-.06l0-.11c.13-.1.21-.1.31,0,.88-1,.06-1.26.06-1.26C466.54,15.18,466.38,15.53,465.93,15.67Z"/><path class="cls-3" d="M441.74,18.2l0-.05S441.71,18.19,441.74,18.2Z"/><path class="cls-3" d="M433.94,18.24h0A0,0,0,0,0,433.94,18.24Z"/><polygon class="cls-3" points="440.53 16.64 440.53 16.64 440.54 16.62 440.53 16.64"/><path class="cls-3" d="M442.09,16.76c-.41-.06-.52-.27-.94-.19a3.18,3.18,0,0,0-.62.07c-.1.16-.26,0-.37.14l-.05-.1c0,.05-.08.09-.12,0v0c-.05.07-.12,0-.15.06v0l-.07,0,0,0a.33.33,0,0,1-.3.05v.11c-.2-.13-.26.11-.44,0v0c-.22.31-.35-.21-.58.09,0,0,0-.06,0-.09a.24.24,0,0,0-.22.28c-.07,0-.06-.07-.07-.16a.14.14,0,0,1-.13.15l0,0-.17,0,0,.19c-.09,0,0-.23-.11-.18v.15c-.12,0-.2-.27-.32-.38-.51-.07-1.05.33-1.52.06l0-.12c0-.17-.13.26-.15.1l-.06.08s0-.07,0-.1-.05,0-.09.07l0-.11c-.2-.08-.37.13-.58.09-.25-.22-.73,0-1,.1s-.84-.43-1.23-.13c0,0-.05,0-.05.05l-.36,0s-1.76-.06-.43,1.36v0c.2.09.32.11.46-.08,0,.23.16,0,.21.1v0c.12-.18.24.14.36,0,0,0,0,.09,0,.09s.2-.08.2.05c.21,0,.49,0,.62-.19v0c.08-.14.1,0,.18-.09a0,0,0,0,1,0,0c.08-.14.24,0,.3-.08v.08l.16,0-.06,0c0-.24.12.16.23,0,.11,0,.23-.51.34-.39.05-.12-.05.18,0,.1,0,.12,0,.08,0,.18.08-.06.14.13.23,0v.1c.12-.18.24.13.32,0s.09.29.23.1l0,.13c.06,0,0-.16.11-.1s.08.07,0,.15c.15.13.3-.19.49,0,0-.16.14-.06.18-.19,0,.08.19,0,.08.17,0,0,0,0,0,0l0,.1c.12.19.2-.1.31-.07s-.07,0,0-.09h.1l0,.08.15.05,0-.1c.07,0,.1.22.18.08s-.07-.14,0-.17a1.33,1.33,0,0,0,.37.2c0-.11,0-.11.06-.13v.1c.13-.14.05.22.18.11v.07l0-.21c.12-.2.07.2.2-.07-.05,0,0-.22,0-.17l0,.09s0-.06.07,0,0,.14,0,.13l0,.12.1-.18c.08.1.2,0,.23.11s.17.06.21-.08c0,.09.06.12,0,.23,0-.1.17-.19.22-.08h0c.19.12.32-.15.49,0,0-.12.08-.06.06-.21.17-.14.32.3.38-.15.08,0,.09.1.14.13l0,0a.65.65,0,0,1,.3,0c.05,0,.06-.26.16-.21s0,.07.05.07,0,0,0,.1l0-.05v0c.06,0,.05-.06,0-.07s0,0,0-.05.18,0,.19.13c.19,0,.32-.18.47-.24a.16.16,0,0,1-.06.17l.11,0c0,.1-.06.06-.1.08.14.17.27-.17.42,0l0-.08h0a.23.23,0,0,1,.06-.12c0,.1,0,.22.08.21s.17,0,.24-.09,0-.07,0-.1.06.09.09.05v.12c0-.12.09-.13.11-.18s-.06.08-.07.15l.23,0c.08-.09,0-.12,0-.23s.14-.11.22,0l0-.11c.13-.09.21-.08.3,0,1-.91.2-1.24.2-1.24C442.76,16.34,442.56,16.67,442.09,16.76Z"/><path class="cls-3" d="M417.73,18l0-.05A.05.05,0,0,0,417.73,18Z"/><path class="cls-3" d="M409.93,17.84h0Z"/><polygon class="cls-3" points="416.57 16.43 416.57 16.43 416.58 16.42 416.57 16.43"/><path class="cls-3" d="M418.13,16.6c-.41-.07-.51-.29-.94-.21a2.59,2.59,0,0,0-.62,0c-.1.16-.26,0-.38.13l0-.09s-.08.08-.12,0v0c-.06.08-.12,0-.15.07v0h-.07v0a.28.28,0,0,1-.29,0v.11c-.19-.13-.27.11-.44-.05v0c-.23.3-.34-.22-.58.07,0,0,0-.06,0-.09s-.22.05-.22.27c-.08,0-.06-.07-.07-.16a.14.14,0,0,1-.13.15l0,0-.18,0,0,.19c-.09-.06,0-.23-.1-.19v.16c-.12,0-.19-.28-.31-.39-.5-.08-1.06.3-1.53,0v-.11c0-.18-.14.25-.15.09l-.06.07s-.05-.06,0-.1,0,0-.09.07l-.05-.11c-.2-.08-.38.12-.59.07-.24-.22-.73,0-1,.07s-.83-.45-1.23-.16c0,0-.05,0-.05,0l-.36,0s-1.76-.11-.47,1.35v0c.2.1.32.12.47-.06,0,.23.16,0,.2.1v0c.13-.17.24.15.36,0,0,0,0,.08,0,.08s.2-.07.2.06c.21,0,.49,0,.63-.17v0c.08-.14.09,0,.18-.09s0,0,0,0c.08-.14.23,0,.3-.07v.09l.16,0-.06,0c0-.25.12.16.24,0,.11,0,.24-.5.35-.38.06-.11-.05.18,0,.1,0,.13,0,.08,0,.18.08-.06.12.13.22.05v.1c.14-.18.24.14.33,0s.08.29.22.1l.05.14c.06,0,.05-.17.11-.1s.08.07,0,.15c.15.14.31-.18.5.05,0-.17.14-.06.17-.19,0,.07.2,0,.08.17s0,0,0,0l0,.1c.11.19.21-.1.32-.06,0,0-.08,0-.05-.1l.1,0,0,.08.15.05,0-.1c.07.06.1.23.18.09s-.06-.14,0-.17a1.17,1.17,0,0,0,.36.21c0-.11,0-.11.07-.13v.1c.13-.14,0,.22.18.11l0,.07,0-.2c.13-.2.06.2.2-.06-.05,0,0-.22.05-.18l0,.1s.05-.06.07,0,0,.14,0,.12l0,.12.11-.17c.07.1.2,0,.23.11s.16.07.2-.07c0,.09.06.13,0,.23,0-.1.17-.18.22-.07h0c.19.12.33-.14.49,0,0-.12.08,0,.07-.2.17-.14.31.31.38-.15.08,0,.09.11.13.14l0,0a.68.68,0,0,1,.31,0c.05-.05.07-.26.16-.2s0,.06.05.07,0,0,0,.1a.33.33,0,0,1,0-.06v0c.07,0,.06-.05,0-.06a.15.15,0,0,0,0-.06c.06.11.18,0,.18.15.19,0,.32-.18.48-.23a.16.16,0,0,1-.07.17l.11,0c0,.11-.06.06-.1.08.13.18.28-.16.43,0l0-.08h0a.17.17,0,0,1,.06-.12c0,.09,0,.22.07.21s.17,0,.25-.09,0-.07,0-.1.06.09.09.05v.13c0-.12.1-.12.12-.18,0,.1-.06.08-.08.15h.23c.09-.09,0-.12,0-.23s.15-.11.23,0l0-.11c.14-.08.22-.07.31.05,1-.89.23-1.24.23-1.24C418.81,16.2,418.6,16.52,418.13,16.6Z"/><path class="cls-3" d="M393.73,17.23l0-.05S393.7,17.22,393.73,17.23Z"/><path class="cls-3" d="M385.93,16.87h0Z"/><polygon class="cls-3" points="392.6 15.61 392.6 15.61 392.61 15.59 392.6 15.61"/><path class="cls-3" d="M394.16,15.81c-.4-.08-.5-.3-.93-.23a2.64,2.64,0,0,0-.63,0c-.1.16-.26,0-.38.12l0-.1s-.08.08-.12,0v0c-.06.07-.12,0-.15.06v0h-.07l0,0a.3.3,0,0,1-.3,0v.12c-.19-.14-.27.1-.44-.07v0c-.24.29-.34-.23-.59.05,0,0,0-.06,0-.09s-.22,0-.24.27c-.07,0-.05-.08-.06-.16a.13.13,0,0,1-.13.14l0,0-.18,0,0,.19c-.09-.06,0-.24-.11-.19V16c-.13,0-.19-.28-.31-.4-.5-.09-1.06.28-1.52,0l0-.12c0-.17-.14.24-.15.08l-.06.08s0-.07,0-.1-.06,0-.1.07l0-.11c-.19-.1-.37.1-.58.05-.24-.23-.73-.05-1,.05s-.81-.47-1.23-.19c0,0,0,0,0,0l-.36,0s-1.76-.15-.5,1.33v0c.19.1.32.13.46,0,0,.23.16,0,.21.1v0c.13-.17.24.16.37,0,0,0,0,.08,0,.08s.2-.07.2.07c.21,0,.49.05.63-.16v0c.08-.14.1,0,.18-.09a.08.08,0,0,1,0,0c.09-.14.24,0,.31-.07v.09l.16,0-.06,0c0-.24.11.16.24,0,.1,0,.24-.5.35-.37.06-.12-.06.18,0,.1,0,.12,0,.07,0,.18.09-.06.13.13.23.05v.1c.13-.17.23.14.32,0s.08.3.22.12l.05.13c.06,0,.05-.16.11-.09s.08.07,0,.15c.14.14.31-.17.49.06.05-.16.14-.06.18-.18,0,.07.2,0,.08.17s0,0,0,0v.1c.1.19.2-.09.31-.06s-.07,0,0-.09h.1l0,.09.15,0v-.1c.07.05.09.23.18.09s-.07-.14,0-.17a1.25,1.25,0,0,0,.37.22c0-.11,0-.11.06-.13v.1c.14-.13,0,.22.18.12l0,.07.05-.21c.13-.19.05.21.2-.05-.05,0,0-.22.05-.18l0,.1s.05-.06.07,0,0,.14,0,.13l-.05.12.11-.18c.08.11.2,0,.23.12s.16.08.21-.07c0,.09.05.13,0,.24.05-.1.18-.18.22-.07h0c.19.13.33-.14.49,0,0-.12.09-.05.07-.2.18-.13.31.32.39-.13.08,0,.09.11.13.13l0,0a.64.64,0,0,1,.3,0c.06,0,.08-.25.18-.2s0,.07,0,.07,0,.05,0,.1l0,0v0c.06,0,.05-.05,0-.07a.13.13,0,0,0,0-.05c.06.11.18,0,.18.15a2.67,2.67,0,0,0,.48-.22.15.15,0,0,1-.07.17l.11,0c0,.1-.06,0-.1.07.12.18.28-.15.42,0l0-.08h0a.17.17,0,0,1,.06-.11c0,.09,0,.21.07.21s.17,0,.25-.08,0-.07,0-.11.06.1.09.06v.12c0-.11.1-.12.12-.17s-.06.08-.08.15h.23c.09-.09,0-.12,0-.23s.15-.1.23,0l0-.12c.14-.08.22-.06.3.06,1-.86.27-1.23.27-1.23C394.85,15.43,394.64,15.74,394.16,15.81Z"/><path class="cls-3" d="M369.75,15.8l0-.05S369.72,15.79,369.75,15.8Z"/><path class="cls-3" d="M362,15.09h0Z"/><polygon class="cls-3" points="368.69 14.12 368.69 14.12 368.7 14.11 368.69 14.12"/><path class="cls-3" d="M370.24,14.39c-.41-.09-.5-.32-.93-.27a3.21,3.21,0,0,0-.62,0c-.11.16-.26,0-.38.11l0-.1s-.09.08-.12,0v0c-.06.07-.12,0-.15.05v0h-.07l0,0a.28.28,0,0,1-.3,0v.12c-.18-.15-.28.09-.44-.08v0c-.25.28-.33-.24-.59,0,0,0,0-.06,0-.09s-.22,0-.24.25c-.08,0-.06-.07-.06-.16a.13.13,0,0,1-.14.13l0,0-.17,0v.19c-.09-.06,0-.23-.09-.2l0,.16c-.12,0-.17-.29-.28-.41-.49-.11-1.08.23-1.52-.09v-.11c0-.18-.15.24-.15.08l-.07.07s0-.07,0-.1-.05,0-.09.06l0-.11c-.19-.1-.39.09-.59,0-.23-.24-.73-.09-1,0s-.79-.51-1.22-.27c0,0,0,0,0,.05l-.36-.07s-1.74-.27-.57,1.3v0c.19.11.31.14.46,0,0,.23.16,0,.2.12v0c.14-.16.23.18.37,0,0,0,0,.08-.05.08s.21-.05.2.08c.21,0,.48.08.63-.11v0c.09-.14.1,0,.19-.08s0,0,0,0c.09-.14.23,0,.31-.06v.09h.16l-.05,0c0-.24.1.17.23,0,.11,0,.28-.49.38-.36.07-.11-.07.18,0,.1,0,.13,0,.08,0,.18s.11.15.22.07v.1c.15-.17.23.15.33,0s.06.3.22.12l0,.14c.06,0,.06-.16.12-.09s.08.07,0,.15c.13.14.32-.16.49.08.06-.16.14-.05.19-.17,0,.07.19,0,.07.17s0,0,0,0l0,.1c.09.19.21-.09.32-.05s-.07,0,0-.09l.1,0,0,.08.15.06v-.1c.07.06.07.23.17.1s0-.15,0-.17a1.45,1.45,0,0,0,.35.24c0-.12,0-.11.07-.13v.1c.15-.13,0,.22.17.12l0,.07.06-.2c.14-.19,0,.21.2-.05-.05,0,0-.22.06-.17l0,.1s.06-.06.08,0,0,.14,0,.13l0,.12.12-.17c.06.11.2,0,.22.13s.16.08.21-.06c0,.09,0,.13,0,.23.05-.1.19-.17.23,0h0c.17.13.33-.13.49,0,0-.12.08,0,.08-.2.18-.13.29.33.39-.12.08,0,.09.12.12.14l0,0a.66.66,0,0,1,.31,0c.06,0,.09-.25.18-.19s0,.07,0,.08,0,0,0,.1a.11.11,0,0,1,0,0v0c.06,0,.06-.05,0-.07a.11.11,0,0,0,0-.05c.06.11.18,0,.18.15.19,0,.33-.15.49-.19a.15.15,0,0,1-.08.16l.11,0c0,.11-.07.06-.1.08.11.18.28-.15.42,0l0-.08v0a.15.15,0,0,1,.07-.12c0,.1,0,.22,0,.22s.18,0,.26-.07,0-.07,0-.11,0,.1.08.06v.13c0-.12.11-.12.13-.17s-.06.07-.08.14h.23c.09-.09,0-.12,0-.23s.15-.1.23,0l0-.11c.14-.07.22-.05.3.07,1.07-.82.31-1.22.31-1.22C370.94,14,370.71,14.35,370.24,14.39Z"/><path class="cls-3" d="M345.87,14l0-.05A0,0,0,0,0,345.87,14Z"/><path class="cls-3" d="M338.1,14.1h0Z"/><polygon class="cls-3" points="344.69 12.45 344.69 12.45 344.7 12.43 344.69 12.45"/><path class="cls-3" d="M346.27,12.56c-.41-.06-.52-.27-.95-.18a2.65,2.65,0,0,0-.63.07c-.09.17-.26,0-.37.14l-.05-.09c0,.05-.08.08-.12,0v0c0,.07-.12,0-.15.07v0h-.07l0,0a.29.29,0,0,1-.3.05v.12c-.2-.13-.27.11-.45,0v0c-.22.31-.35-.2-.58.09,0,0,0-.06,0-.09s-.22.06-.22.28c-.08,0-.06-.07-.07-.15a.14.14,0,0,1-.13.15l0,0-.17,0,0,.19c-.09-.05,0-.23-.11-.18V13c-.13,0-.2-.26-.33-.38-.51-.06-1,.35-1.53.08l0-.12c0-.17-.13.26-.15.1l-.05.08s0-.07,0-.11-.05,0-.08.08l-.06-.11c-.2-.08-.37.13-.58.09-.26-.21-.74,0-1,.11s-.85-.42-1.24-.12c0,0,0,0,0,0l-.36,0s-1.77,0-.37,1.36v0c.2.08.32.1.45-.09,0,.23.17,0,.22.1v0c.12-.18.26.14.37,0,0,0,0,.09,0,.09s.19-.08.2.05c.21,0,.49,0,.61-.19v0c.07-.14.1,0,.18-.09v0c.08-.14.23,0,.3-.09v.09l.16,0-.06,0c0-.24.13.16.24,0,.11,0,.21-.52.33-.4.05-.11-.05.19,0,.1,0,.13,0,.08,0,.18.08-.06.13.13.23,0v.1c.13-.18.24.13.33,0s.09.29.22.1l.06.13c.06,0,0-.17.1-.1s.09.07.05.15c.15.13.29-.19.49,0,0-.17.14-.07.17-.2,0,.08.19,0,.09.17,0,0,0,0,0,0v.1c.11.19.2-.1.31-.07,0,0-.08,0-.05-.09h.1l0,.08.15.05,0-.11c.07.06.1.23.18.08s-.07-.13,0-.17a1.36,1.36,0,0,0,.37.21c0-.12,0-.12.06-.14v.1c.14-.14.05.22.19.11l0,.07,0-.21c.12-.2.06.2.2-.07-.06,0,0-.22,0-.17v.09s.05-.06.07,0,0,.14,0,.12l0,.13.1-.18c.07.1.19,0,.23.1s.16.07.2-.08c0,.09.06.13,0,.23,0-.1.17-.19.22-.08v0c.19.11.32-.16.49,0,0-.11.08,0,.06-.2.17-.15.31.3.38-.16.08,0,.09.11.13.13l0,0a.73.73,0,0,1,.31,0c.05,0,.06-.26.16-.21s0,.07,0,.07,0,0,0,.1l0-.05v0c.06,0,.05-.06,0-.07a.11.11,0,0,0,0-.05c.07.11.18,0,.19.13.18,0,.32-.18.47-.24a.17.17,0,0,1-.06.17l.11,0c0,.11-.07.06-.1.08.13.18.27-.17.42,0l0-.09h0a.23.23,0,0,1,.06-.12c0,.1,0,.22.07.21s.17,0,.25-.1,0-.06,0-.1.06.09.09.05V14c0-.12.1-.13.11-.18s-.06.08-.07.15l.23,0c.08-.1,0-.12,0-.23s.14-.11.22,0l0-.11c.14-.09.22-.08.3,0,1-.93.25-1.25.25-1.25C347,12.14,346.74,12.46,346.27,12.56Z"/><path class="cls-3" d="M322,14.9l0,0S321.93,14.9,322,14.9Z"/><path class="cls-3" d="M314.16,15.41h0Z"/><polygon class="cls-3" points="320.65 13.41 320.66 13.41 320.66 13.4 320.65 13.41"/><path class="cls-3" d="M322.23,13.44c-.42,0-.54-.24-1-.12a3.1,3.1,0,0,0-.61.09c-.09.18-.27,0-.37.17l-.05-.09s-.08.09-.12,0v0c-.05.07-.12,0-.14.07v0l-.07,0v0a.3.3,0,0,1-.29.07v.11c-.2-.12-.26.13-.44,0v0c-.21.32-.37-.19-.58.12,0,0,0-.06,0-.09s-.22.06-.21.29c-.07,0-.06-.07-.08-.15a.12.12,0,0,1-.11.15l0,0-.17.05.05.18c-.1-.05,0-.23-.13-.17l0,.15c-.13,0-.22-.25-.35-.36-.51,0-1,.4-1.52.15l0-.11c0-.18-.11.26-.14.1l0,.08s-.05-.06,0-.1-.05,0-.08.08l-.06-.1c-.21-.07-.37.14-.58.11-.26-.2-.73,0-1,.17s-.86-.38-1.23-.06c0,0-.05,0-.05.05h-.36s-1.76,0-.34,1.38v0c.2.08.33.09.45-.11,0,.23.17,0,.22.09v0c.11-.19.25.13.36,0,0,0,0,.08,0,.09s.2-.09.21,0c.2-.05.49,0,.61-.23v0c.06-.15.09,0,.17-.1a0,0,0,0,1,0,0c.08-.15.24,0,.3-.1v.09l.16,0-.06,0c0-.25.13.15.23,0,.12,0,.2-.52.32-.41,0-.12,0,.19,0,.1,0,.12,0,.08,0,.18.07-.07.14.12.23,0v.1c.12-.19.25.11.32-.06s.11.28.23.08l.06.13c.06,0,0-.16.1-.1s.09.06.06.14c.15.12.28-.21.49,0,0-.17.14-.08.16-.2,0,.07.2,0,.1.16,0,0,0,0,0,0v.1c.13.18.2-.11.31-.09,0,0-.08,0-.05-.09h.1l0,.08.16,0,0-.1c.08.05.11.22.19.07s-.08-.14,0-.17a1.21,1.21,0,0,0,.38.18c0-.12,0-.11,0-.14v.1c.13-.15.06.22.19.1v.07l0-.21c.11-.21.08.2.2-.08-.05,0,0-.21,0-.18v.1s0-.06.07,0,0,.14.05.12l0,.12.09-.18c.08.09.19,0,.23.09s.17.06.2-.09c0,.09.07.12.05.23,0-.11.16-.2.22-.09h0c.19.1.31-.17.49,0,0-.11.07-.06,0-.2.17-.16.34.28.37-.18.08,0,.1.1.15.12l0,0a.57.57,0,0,1,.3-.05c.05,0,.05-.26.15-.22s0,.07.05.07,0,0,0,.1a.16.16,0,0,1,0-.06v0c.06,0,.05-.06,0-.07l0,0c.07.1.18,0,.2.12.18,0,.3-.2.45-.26a.15.15,0,0,1-.05.17l.11,0c0,.11-.06.07-.09.09.14.17.26-.19.42,0l0-.08h0a.19.19,0,0,1,0-.12c0,.09,0,.21.09.2s.17,0,.24-.11,0-.07,0-.1.06.09.09,0v.12c0-.12.09-.13.1-.19,0,.1-.05.09-.06.16l.23,0c.07-.1,0-.12,0-.23s.13-.12.22,0l0-.11c.12-.1.21-.09.3,0,.94-1,.13-1.26.13-1.26C322.87,13,322.69,13.33,322.23,13.44Z"/><path class="cls-3" d="M298,16.15l0,0A.05.05,0,0,0,298,16.15Z"/><path class="cls-3" d="M290.16,16.37h0Z"/><polygon class="cls-3" points="296.72 14.61 296.72 14.61 296.73 14.6 296.72 14.61"/><path class="cls-3" d="M298.3,14.7c-.42,0-.53-.26-1-.16a3.27,3.27,0,0,0-.62.07c-.08.18-.26,0-.36.16l-.05-.1c0,.05-.08.09-.12,0v0c-.06.07-.12,0-.15.07v0H296v0a.29.29,0,0,1-.29.06v.11c-.2-.12-.26.12-.44,0v0c-.21.32-.36-.19-.58.1,0,0,0-.06,0-.09s-.22.06-.21.29c-.08,0-.07-.07-.08-.16a.14.14,0,0,1-.12.15l0,0-.17,0,0,.19c-.09,0,0-.23-.11-.18v.15c-.13,0-.21-.26-.33-.37-.51-.05-1,.36-1.52.1l0-.12c0-.17-.12.26-.14.1L292,15s0-.06,0-.1-.05,0-.09.07l-.05-.1c-.21-.08-.37.13-.58.1-.26-.22-.73,0-1,.12s-.84-.41-1.24-.1c0,0,0,0,0,.05l-.36,0s-1.77,0-.39,1.37v0c.2.09.32.11.46-.08,0,.23.16,0,.21.09v0c.12-.18.26.14.37,0,0,0,0,.08,0,.08s.2-.08.2.05c.21,0,.49,0,.61-.2v0c.07-.15.09,0,.17-.1a.08.08,0,0,1,0,0c.08-.14.24,0,.3-.09v.09l.16,0-.06,0c0-.25.12.15.24,0,.11,0,.21-.52.32-.4.06-.12,0,.19,0,.1,0,.12,0,.08,0,.18.07-.06.13.13.23,0v.1c.13-.19.25.12.33-.05s.09.29.22.09l.06.13c.06,0,0-.16.11-.1s.08.07,0,.15c.15.13.3-.2.5,0,0-.17.14-.07.16-.19,0,.07.2,0,.09.16,0,0,0,0,0,0v.1c.11.18.2-.11.31-.08,0,0-.08,0-.05-.09h.1l0,.08.15.05,0-.1c.08.05.11.22.19.07s-.08-.13,0-.17a1.25,1.25,0,0,0,.38.2c0-.12,0-.11,0-.14v.1c.13-.14,0,.22.19.11l0,.07,0-.21c.11-.2.07.2.19-.07-.05,0,0-.22,0-.18l0,.1s.05-.06.07,0,0,.14.05.12l0,.12.09-.18c.08.1.2,0,.24.1s.16.06.2-.08c0,.09.06.12,0,.23,0-.11.16-.19.22-.08h0c.19.11.32-.17.49,0,0-.12.08-.06.05-.2.17-.16.33.29.38-.17.08,0,.1.1.14.13l0,0a.69.69,0,0,1,.3,0c.06,0,.06-.26.16-.21s0,.07.05.07,0,0,0,.1a.11.11,0,0,1,0-.06v0c.06,0,0-.05,0-.06s0,0,0-.06.18,0,.19.14c.19,0,.32-.2.47-.26a.16.16,0,0,1-.06.17l.11,0c0,.11-.06.07-.09.09.13.17.26-.18.42,0l0-.08h0A.17.17,0,0,1,298,16c0,.09,0,.22.08.21s.17-.05.25-.1,0-.07,0-.1.06.09.09,0v.13c0-.12.1-.13.11-.18s-.06.08-.07.15l.23,0c.08-.1,0-.12,0-.23s.14-.12.22-.05l0-.11a.2.2,0,0,1,.31,0c1-.93.16-1.25.16-1.25C299,14.27,298.76,14.6,298.3,14.7Z"/><path class="cls-3" d="M274,17.22l0,0S274,17.21,274,17.22Z"/><path class="cls-3" d="M266.28,18h0Z"/><polygon class="cls-3" points="272.7 15.77 272.7 15.77 272.71 15.76 272.7 15.77"/><path class="cls-3" d="M274.28,15.74c-.42,0-.54-.22-1-.09a4.25,4.25,0,0,0-.62.12c-.08.18-.26,0-.36.18l0-.09c0,.05-.08.09-.12,0v0c-.05.07-.12,0-.15.08v0L272,16v0a.29.29,0,0,1-.29.07l0,.12c-.2-.11-.25.13-.44,0v0c-.2.33-.37-.17-.58.14,0,0,0-.06,0-.09s-.22.07-.2.3c-.08,0-.07-.06-.09-.15a.13.13,0,0,1-.11.16l0,0-.17.05.05.18c-.1,0-.05-.22-.13-.17l0,.15c-.13,0-.23-.24-.36-.34-.52,0-1,.43-1.52.2l0-.11c0-.17-.11.26-.14.11l-.05.08s0-.06,0-.1-.05,0-.08.08l-.07-.1c-.21-.06-.35.16-.57.14-.28-.19-.73.05-1,.2s-.88-.34-1.25,0c0,0,0,0,0,.05h-.36s-1.76.11-.27,1.39v0c.21.07.33.08.45-.12,0,.22.16,0,.22.07v0c.1-.19.27.12.37-.05,0,0,0,.09,0,.09s.19-.1.21,0c.2-.06.49,0,.6-.25v0c.06-.15.09,0,.17-.11s0,0,0,0c.07-.15.23-.05.29-.11V18l.16,0-.06,0c0-.24.14.15.24,0,.11,0,.16-.53.29-.42,0-.12,0,.19,0,.09,0,.13,0,.08,0,.18.08-.06.15.12.23,0l0,.09c.11-.19.25.11.32-.07s.12.28.23.08l.07.13c.06,0,0-.17.1-.11s.08.06,0,.14c.16.12.28-.22.5,0,0-.17.13-.08.15-.21,0,.07.19,0,.1.16,0,0,0,0,0,0v.1c.13.18.19-.12.3-.1,0,0-.08,0-.06-.09h.11l0,.08.16,0,0-.1c.08.05.12.22.19.07s-.08-.13,0-.17A1.11,1.11,0,0,0,270,18c0-.11,0-.11.05-.13v.09c.12-.15.07.22.19.1v-.15c.1-.2.08.2.19-.08-.05,0,0-.21,0-.18v.1s0-.06.06-.05,0,.14.06.12l0,.13.09-.19c.08.09.19-.05.24.09s.17.05.19-.11c0,.1.07.13,0,.24,0-.11.16-.21.22-.1h0c.19.09.3-.19.48-.07,0-.11.08-.06,0-.2.16-.16.35.27.37-.2.08,0,.1.1.14.12v0a.7.7,0,0,1,.3-.06c.05-.05,0-.26.14-.22s0,.06.05.06,0,.05,0,.1a.11.11,0,0,1,0-.06v0c.06,0,.05-.06,0-.07l0-.05c.08.1.18,0,.2.12.18-.05.3-.21.45-.29a.17.17,0,0,1-.05.18l.11,0c0,.11-.06.07-.09.09.14.16.25-.19.42-.05l0-.09h0a.22.22,0,0,1,.05-.12c0,.09,0,.21.09.2s.16-.06.24-.12,0-.06,0-.1.07.09.09,0l0,.13c0-.12.08-.14.09-.19s-.05.08-.05.16l.22,0c.08-.11,0-.12,0-.24s.13-.12.22-.05l0-.11c.13-.1.21-.1.31,0,.93-1,.11-1.27.11-1.27C274.92,15.27,274.74,15.61,274.28,15.74Z"/><path class="cls-3" d="M250.22,20l0,0S250.2,20,250.22,20Z"/><path class="cls-3" d="M242.49,21.09h0Z"/><polygon class="cls-3" points="248.82 18.63 248.82 18.63 248.83 18.62 248.82 18.63"/><path class="cls-3" d="M250.39,18.54c-.41,0-.55-.2-1-.05a3.18,3.18,0,0,0-.61.14c-.07.18-.26,0-.35.19l-.05-.09c0,.06-.08.09-.12.05v0c-.05.08-.12.05-.14.09v0l-.06,0v0a.29.29,0,0,1-.28.09l0,.11c-.21-.1-.25.15-.44,0v0c-.18.33-.37-.16-.56.16,0,0,0-.06,0-.09s-.21.08-.18.31c-.08,0-.07-.06-.1-.15a.12.12,0,0,1-.1.16l0,0-.17.06.06.18c-.09,0-.05-.22-.13-.17l0,.16c-.13,0-.23-.24-.37-.34-.51,0-1,.47-1.5.26l0-.11c0-.17-.1.27-.13.11l-.05.09s0-.06,0-.1,0,0-.08.09l-.07-.1c-.21-.06-.35.17-.57.16-.27-.18-.72.08-1,.23-.35.31-.88-.31-1.24,0,0,0,0,0,0,.05l-.36,0s-1.75.17-.25,1.4v0c.2.06.33.06.44-.14.05.22.17,0,.22.07v0c.1-.2.27.11.36-.07,0,0,0,.09,0,.09s.19-.1.21,0c.2-.06.49,0,.59-.27v0c.05-.16.09,0,.16-.12s0,0,0,0c.06-.15.23-.05.28-.12l0,.09.16,0h-.07c0-.24.14.14.24,0,.11,0,.15-.54.28-.43,0-.13,0,.19,0,.09,0,.12,0,.08,0,.18.07-.07.15.11.24,0v.1c.11-.2.26.1.32-.08s.13.28.24.07l.07.12c.06,0,0-.17.09-.11s.09,0,.06.14c.17.11.27-.23.5,0,0-.17.13-.09.14-.21,0,.07.2,0,.11.15,0,0,0,0,0,0v.09c.13.17.19-.12.3-.11,0,0-.08,0-.06-.08h.1v.08l.16,0,0-.1c.08,0,.13.21.19.05s-.09-.12,0-.16a1.38,1.38,0,0,0,.4.15c0-.11,0-.11,0-.14l0,.1c.11-.16.08.21.19.08v-.14c.09-.21.09.19.19-.09-.05,0-.06-.22,0-.18v.1s0-.07.07-.05,0,.14.05.11l0,.13.08-.19c.09.09.2-.05.24.08s.18,0,.2-.11c0,.09.07.12.06.23,0-.11.14-.22.21-.11h0c.2.09.3-.2.48-.08,0-.12.08-.07,0-.21.15-.17.35.26.35-.21.08,0,.11.1.16.12l0,0a1,1,0,0,1,.3-.07s0-.26.13-.22,0,.06.05.06,0,0,0,.09a.43.43,0,0,1,0,0s0,0,0,0,0-.07,0-.07a.09.09,0,0,0,0-.05c.07.09.17,0,.2.11.18-.06.29-.23.43-.3a.13.13,0,0,1,0,.17l.11,0c0,.11,0,.07-.08.1.15.15.24-.21.41-.08l0-.08h0a.22.22,0,0,1,0-.13c0,.09,0,.22.1.2s.17-.07.24-.13,0-.06,0-.1.08.08.1,0l0,.13c0-.12.08-.15.09-.2s-.05.09-.05.16l.22-.05c.07-.1,0-.11,0-.23s.12-.13.21-.07l0-.1a.19.19,0,0,1,.31,0c.87-1,0-1.27,0-1.27C251,18,250.85,18.39,250.39,18.54Z"/><path class="cls-3" d="M226.29,22.53l0-.05A.05.05,0,0,0,226.29,22.53Z"/><path class="cls-3" d="M218.43,22.3h0Z"/><polygon class="cls-3" points="225.08 20.98 225.08 20.98 225.09 20.97 225.08 20.98"/><path class="cls-3" d="M226.63,21.08c-.41,0-.52-.26-.94-.17a3.17,3.17,0,0,0-.61.07c-.09.17-.26,0-.37.14l0-.09s-.09.08-.12,0v0c-.06.07-.12,0-.15.07v0h-.07v0a.29.29,0,0,1-.29.05v.11c-.19-.13-.27.11-.44-.05v0c-.22.3-.34-.22-.57.07,0,0,0-.06,0-.09s-.22.05-.23.27c-.07,0-.06-.07-.06-.16a.15.15,0,0,1-.13.15l0,0-.18,0,0,.19c-.09-.06,0-.23-.1-.19v.16c-.12,0-.19-.28-.3-.4-.5-.08-1.06.29-1.51,0l0-.12c0-.17-.14.25-.15.09l-.06.08s0-.07,0-.11-.06,0-.1.07l0-.11c-.2-.1-.38.1-.58,0-.24-.23-.72-.07-1,0s-.79-.5-1.2-.25c0,0,0,0,0,0L217,20.8s-1.72-.28-.58,1.29v0c.19.12.31.15.47,0,0,.23.16,0,.2.12v0c.14-.16.24.17.37,0,0,0,0,.08,0,.08s.21-.06.2.07c.21,0,.49.08.64-.12v0c.09-.14.1,0,.19-.08s0,0,0,0,.24,0,.31-.05v.08h.16l-.05,0c0-.24.11.17.24,0,.1,0,.26-.49.36-.36.06-.11-.06.18,0,.1,0,.12,0,.07,0,.18.08-.06.12.14.22.06v.1c.14-.18.23.14.33,0s.07.3.22.11l.05.14c.06,0,0-.16.11-.09s.08.07,0,.15c.14.14.31-.18.49.06.05-.16.15-.06.19-.18,0,.07.19,0,.08.17s0,0,0,0l0,.1c.11.19.21-.1.32-.06s-.08,0,0-.1l.1,0,0,.08.16.06,0-.11c.07.06.09.23.18.09s-.06-.14,0-.17a1,1,0,0,0,.37.22c0-.11,0-.11.06-.13v.1c.14-.13,0,.22.18.11V23l0-.2c.13-.2.06.2.2-.06,0,0,0-.22.05-.18l0,.1s.05-.06.07,0,0,.14,0,.12l0,.12.11-.17c.07.1.2,0,.23.11s.17.07.21-.07c0,.09.05.12,0,.23,0-.1.18-.19.23-.07h0c.19.11.33-.15.5,0,0-.12.08-.06.06-.2.17-.15.32.3.38-.16.08,0,.1.11.14.13l0,0a.88.88,0,0,1,.31,0c.05,0,.06-.25.16-.2s0,.07,0,.07,0,0,0,.1l0-.06v0c.06,0,.05-.06,0-.07a.11.11,0,0,0,0-.05c.07.11.18,0,.19.14.19,0,.32-.19.47-.25a.15.15,0,0,1-.06.17l.11,0c0,.11-.06.07-.09.09.13.17.27-.18.42,0l0-.09h0a.17.17,0,0,1,.06-.12c0,.1,0,.22.08.21s.17-.05.24-.1,0-.07,0-.1.06.09.09.05v.12c0-.12.09-.13.11-.18s-.06.08-.07.15l.23,0c.08-.1,0-.12,0-.23s.14-.12.22-.05l0-.11a.2.2,0,0,1,.31,0c1-.94.16-1.25.16-1.25C227.29,20.65,227.1,21,226.63,21.08Z"/><path class="cls-3" d="M202.38,20l0-.05A.05.05,0,0,0,202.38,20Z"/><path class="cls-3" d="M194.64,19.14h0Z"/><polygon class="cls-3" points="201.38 18.32 201.38 18.32 201.39 18.31 201.38 18.32"/><path class="cls-3" d="M202.93,18.63c-.4-.1-.48-.33-.92-.29a3.29,3.29,0,0,0-.63,0c-.11.16-.26,0-.39.1l0-.1c0,.05-.09.08-.12,0v0c-.06.07-.12,0-.16.05v0h-.07l0,0a.29.29,0,0,1-.3,0v.12c-.18-.15-.28.08-.44-.1v0c-.26.27-.32-.25-.59,0,0,0,0-.06,0-.09s-.22,0-.25.25c-.08,0-.05-.08-.05-.16a.15.15,0,0,1-.15.13l0,0-.18,0v.19c-.08-.07,0-.23-.09-.2v.16c-.13,0-.17-.29-.28-.42-.5-.13-1.09.21-1.53-.12v-.12c0-.17-.16.24-.16.08l-.07.07s0-.07,0-.11-.06,0-.1.07l0-.12c-.19-.1-.39.08-.59,0-.23-.25-.73-.1-1,0s-.79-.52-1.22-.28c0,0,0,0,0,.05l-.36-.07s-1.74-.27-.56,1.3v0c.19.11.31.15.46,0,0,.24.16,0,.2.13h0c.14-.16.24.18.37,0s0,.08,0,.08.2-.06.2.07c.2,0,.48.09.63-.11l0,0c.09-.13.1,0,.19-.07a.08.08,0,0,1,0,0c.09-.14.23,0,.31-.05v.09h.16l-.06,0c.05-.24.11.17.24,0,.11,0,.28-.48.38-.35.06-.1-.07.18,0,.1,0,.13-.05.08,0,.18.09-.05.12.15.22.07v.1c.14-.16.22.16.32,0s.06.3.22.12l0,.14c.06,0,.06-.16.12-.08s.07.07,0,.15c.13.15.32-.15.48.09.06-.16.15-.05.19-.17,0,.07.2,0,.07.18s0,0,0,0l0,.09c.09.2.21-.07.32,0s-.07,0,0-.1l.1,0,0,.08.15.06v-.1c.07.06.07.23.17.1s-.05-.15,0-.17a1.3,1.3,0,0,0,.35.25c0-.12,0-.11.07-.13v.1c.15-.12,0,.22.17.13l0,.07.06-.2c.14-.19,0,.21.2,0-.05,0,0-.23.06-.17l0,.09s.06-.06.08,0,0,.13,0,.12l0,.12.12-.16c.06.11.2,0,.21.13s.16.09.22-.06c0,.09,0,.14,0,.24.05-.1.19-.17.23-.05h0c.17.13.33-.12.49,0,0-.12.08,0,.08-.19.19-.13.28.33.4-.12.08,0,.08.12.11.15l0,0a.63.63,0,0,1,.31,0c.06,0,.09-.25.18-.19s0,.07,0,.07,0,0,0,.11,0,0,0-.06v0c.06,0,0-.05,0-.07a.11.11,0,0,0,0-.05c.05.11.18,0,.17.15.19,0,.34-.14.5-.18a.16.16,0,0,1-.08.16H202c0,.1-.07.05-.11.07.11.19.29-.14.42,0l0-.08v0a.19.19,0,0,1,.07-.11c0,.09,0,.21.05.21s.18,0,.26-.06,0-.07,0-.1.05.09.08.06v.12c0-.12.12-.11.14-.16s-.07.07-.09.14h.23c.09-.09,0-.12,0-.23s.16-.09.23,0v-.11c.14-.07.22-.05.29.07,1.12-.79.37-1.21.37-1.21C203.65,18.3,203.41,18.6,202.93,18.63Z"/><path class="cls-3" d="M178.53,17.55l0-.05S178.51,17.54,178.53,17.55Z"/><path class="cls-3" d="M170.76,16.94h0Z"/><polygon class="cls-3" points="177.47 15.89 177.47 15.89 177.48 15.88 177.47 15.89"/><path class="cls-3" d="M179,16.15c-.41-.09-.5-.32-.93-.26a2.66,2.66,0,0,0-.63,0c-.1.16-.26,0-.38.12l0-.1s-.09.07-.12,0v0c-.06.07-.12,0-.15,0v0h-.07l0,0a.3.3,0,0,1-.3,0V16c-.19-.14-.28.09-.44-.08v0c-.24.28-.33-.24-.58,0,0,0,0-.06,0-.09s-.22,0-.24.26c-.08,0-.06-.07-.06-.16a.13.13,0,0,1-.14.13l0,0-.17,0,0,.19c-.09-.06,0-.23-.1-.19v.15c-.12,0-.18-.28-.29-.41-.5-.1-1.08.25-1.53-.06v-.12c0-.17-.15.24-.16.08l-.06.07s0-.06,0-.1,0,0-.09.07l-.05-.11c-.19-.1-.38.09-.59,0-.23-.24-.73-.08-1,0s-.8-.5-1.22-.24c0,0-.05,0-.05,0l-.36,0s-1.75-.21-.52,1.31v0c.19.11.31.14.46,0,0,.23.16,0,.2.12h0c.13-.16.23.17.36,0,0,0,0,.08,0,.08s.21-.06.2.08c.21,0,.49.06.63-.14v0c.09-.13.1,0,.19-.08v0c.09-.14.24,0,.31-.06V17h.16l-.06,0c0-.24.11.16.24,0,.1,0,.26-.49.36-.36.06-.11-.06.18,0,.1,0,.13-.05.08,0,.18.08-.05.11.14.22.06V17c.14-.17.22.15.32,0s.07.3.22.12l0,.13c.06,0,.06-.16.12-.09s.07.08,0,.16c.13.14.31-.17.49.07,0-.16.14-.05.18-.18,0,.08.2,0,.07.18s0,0,0,0l0,.1c.1.19.21-.09.32,0s-.08,0,0-.1l.1,0,0,.09.15.06,0-.11c.07.06.08.24.18.1s-.06-.14,0-.17a1.11,1.11,0,0,0,.36.23c0-.11,0-.1.06-.13v.1c.15-.12,0,.23.17.13v.07l0-.21c.13-.19.05.21.2-.05-.05,0,0-.22,0-.17l0,.1s0-.06.08,0,0,.14,0,.13l0,.12.12-.17c.06.11.2,0,.22.13s.16.07.21-.07c0,.09,0,.13,0,.24,0-.1.18-.18.23-.06h0c.17.13.33-.13.49,0,0-.12.08-.05.07-.19.19-.14.29.32.39-.13.09,0,.09.11.13.14l0,0a.75.75,0,0,1,.3,0c.06,0,.09-.25.18-.19s0,.07,0,.07,0,0,0,.1a.11.11,0,0,1,0-.05v0c.06,0,.06-.05,0-.07a.11.11,0,0,0,0-.05c.06.11.18,0,.18.15.18,0,.33-.16.49-.2a.15.15,0,0,1-.08.16h.11c0,.1-.07.05-.1.07.11.18.28-.15.42,0l0-.08h0a.17.17,0,0,1,.06-.11c0,.09,0,.21.06.21s.17,0,.26-.07,0-.07,0-.1.06.09.09.05v.13c0-.12.11-.12.13-.17s-.07.08-.08.15h.23c.09-.09,0-.12,0-.23s.15-.1.23,0l0-.11c.14-.08.22-.06.3.06,1.08-.83.32-1.22.32-1.22C179.74,15.79,179.51,16.1,179,16.15Z"/><path class="cls-3" d="M154.61,15.8l0-.05A.05.05,0,0,0,154.61,15.8Z"/><path class="cls-3" d="M146.83,15.37h0Z"/><polygon class="cls-3" points="153.51 14.16 153.51 14.16 153.52 14.15 153.51 14.16"/><path class="cls-3" d="M155.07,14.38c-.4-.08-.5-.3-.93-.24a3.29,3.29,0,0,0-.63,0c-.1.17-.26,0-.38.13l0-.1s-.09.07-.12,0v0c-.06.07-.12,0-.15.06v0h-.07l0,0a.3.3,0,0,1-.3,0v.12c-.19-.14-.27.09-.44-.07v0c-.24.29-.34-.23-.58,0,0,0,0-.06,0-.09s-.22,0-.23.27c-.08,0-.06-.08-.07-.17a.13.13,0,0,1-.13.14l0,0-.18,0,0,.19c-.09-.06,0-.23-.1-.19v.16c-.13,0-.19-.28-.3-.4-.51-.1-1.07.27-1.53,0l0-.11c0-.18-.14.24-.15.08l-.06.08s0-.07,0-.11-.06,0-.1.07l-.05-.11c-.19-.09-.37.1-.58.05-.24-.23-.73-.06-1,0s-.82-.47-1.23-.2c0,0-.05,0-.05,0l-.36,0s-1.75-.17-.49,1.33v0c.19.1.32.12.46-.06,0,.24.16,0,.21.11v0c.13-.17.24.16.37,0,0,0,0,.08,0,.09s.2-.07.2.06c.21,0,.49.06.63-.15v0c.08-.14.09,0,.18-.09s0,0,0,0,.23,0,.3-.07v.09h.16l-.06,0c0-.25.12.16.24,0,.11,0,.25-.49.36-.36.06-.12-.06.18,0,.1,0,.12-.05.07,0,.18.08-.06.12.13.22.05v.1c.14-.17.24.15.33,0s.07.3.22.11l.05.14s0-.16.11-.09.08.07,0,.15c.14.14.31-.17.49.06.05-.16.15-.06.18-.18,0,.07.2,0,.08.17s0,0,0,0l0,.1c.1.19.2-.09.31,0s-.07,0,0-.1l.1,0,0,.08.14.06v-.1c.07.05.09.23.18.09s-.06-.14,0-.17a1.09,1.09,0,0,0,.36.22c0-.11,0-.11.06-.13v.1c.14-.13,0,.22.18.12l0,.07.05-.2c.13-.19.05.21.2-.06-.06,0,0-.22.05-.17l0,.1s.05-.06.07,0,0,.14,0,.12l0,.12.11-.17c.07.11.2,0,.23.12s.16.08.2-.07c0,.09.06.13,0,.24.05-.1.18-.18.23-.07v0c.18.12.33-.14.49,0,0-.12.08-.05.07-.2.18-.13.3.32.39-.13.08,0,.09.11.13.13l0,0a.81.81,0,0,1,.3,0c.06,0,.08-.25.17-.19s0,.07.05.07,0,0,0,.1l0-.05v0c.06,0,.05-.06,0-.07s0,0,0,0,.18,0,.18.15c.18,0,.32-.17.48-.22a.18.18,0,0,1-.07.17l.11,0c0,.11-.07.06-.1.08.12.18.28-.16.42,0l0-.09v0c0-.05,0-.11.07-.12s0,.22.06.22.17,0,.25-.09,0-.07,0-.1,0,.1.08.06v.12c0-.12.11-.12.12-.17,0,.1-.06.08-.07.15h.23c.08-.09,0-.12,0-.22s.15-.11.23,0l0-.11c.14-.08.22-.06.3.06,1.06-.86.29-1.23.29-1.23C155.77,14,155.55,14.32,155.07,14.38Z"/><path class="cls-3" d="M130.66,14.63l0-.05S130.63,14.62,130.66,14.63Z"/><path class="cls-3" d="M122.87,14.44h0Z"/><polygon class="cls-3" points="129.51 13.03 129.51 13.03 129.52 13.02 129.51 13.03"/><path class="cls-3" d="M131.08,13.2c-.41-.07-.52-.29-1-.21a2.59,2.59,0,0,0-.62,0c-.1.17-.26,0-.38.13l0-.09s-.09.07-.12,0v0c-.06.07-.12,0-.15.06v0h-.07v0a.31.31,0,0,1-.29,0v.11c-.19-.13-.27.11-.44-.05v0c-.23.3-.35-.22-.58.06,0,0,0-.06,0-.09s-.22.05-.23.28c-.08,0-.06-.08-.07-.16a.13.13,0,0,1-.13.14l0,0-.17,0,0,.19c-.09-.06,0-.23-.11-.19v.16c-.13,0-.2-.27-.32-.39-.5-.08-1.06.3-1.53,0V13c0-.17-.14.25-.16.09l0,.08s0-.07,0-.1,0,0-.09.07l0-.11c-.2-.09-.38.12-.59.07-.25-.22-.73,0-1,.08s-.82-.44-1.23-.16c0,0,0,0,0,.05l-.37,0s-1.75-.1-.44,1.35v0c.19.1.32.12.46-.07,0,.23.16,0,.21.11v0c.13-.18.25.15.37,0,0,0,0,.08,0,.09s.2-.08.21.05c.2,0,.48,0,.62-.17v0c.07-.15.09,0,.18-.1s0,0,0,0,.23,0,.3-.08v.09l.16,0-.06,0c0-.24.12.16.24,0,.11,0,.23-.5.34-.38.06-.11,0,.18,0,.1,0,.13,0,.08,0,.18.08-.06.13.13.23,0v.1c.13-.18.24.13.33,0s.08.3.22.11l0,.13c.06,0,0-.16.11-.09s.08.07,0,.15c.15.13.3-.18.49,0,0-.17.14-.07.18-.19,0,.07.19,0,.08.17s0,0,0,0l0,.1c.11.19.2-.1.31-.06s-.07,0,0-.1l.1,0,0,.08.15.05,0-.1c.07.06.09.23.18.09s-.07-.14,0-.17a1.23,1.23,0,0,0,.37.21c0-.11,0-.11.06-.13v.1c.14-.13,0,.22.18.12V15l0-.2c.12-.2.06.21.2-.06-.06,0,0-.22,0-.17l0,.09s0-.06.08,0,0,.14,0,.13l0,.12.11-.18c.07.11.2,0,.23.12s.16.07.2-.08c0,.09.06.13,0,.24,0-.1.17-.19.22-.07h0c.19.12.33-.15.49,0,0-.12.08-.06.07-.2.17-.14.3.31.38-.15.08,0,.09.11.13.14l0,0a.68.68,0,0,1,.31,0c.05,0,.07-.26.16-.2s0,.07.05.07,0,0,0,.1l0-.06v0c.06,0,.05-.05,0-.06a.15.15,0,0,0,0-.06c.06.11.18,0,.18.15.19,0,.32-.18.48-.23a.16.16,0,0,1-.07.17l.11,0c0,.11-.06.06-.1.08.13.18.28-.16.42,0l0-.08h0a.17.17,0,0,1,.06-.12c0,.1,0,.22.06.22s.18,0,.26-.09,0-.07,0-.1.05.09.09,0v.13c0-.12.11-.13.12-.18s-.06.08-.07.15h.23c.08-.09,0-.12,0-.23s.15-.11.22,0l0-.11c.14-.09.22-.07.31,0,1-.88.25-1.23.25-1.23C131.76,12.81,131.55,13.13,131.08,13.2Z"/><path class="cls-3" d="M106.68,14.18l0,0S106.65,14.17,106.68,14.18Z"/><path class="cls-3" d="M98.89,14.11h0Z"/><path class="cls-3" d="M105.5,12.6h0v0Z"/><path class="cls-3" d="M107.06,12.74c-.41-.06-.51-.28-.94-.2a2.56,2.56,0,0,0-.62.06c-.1.16-.26,0-.38.14l0-.1s-.08.08-.12,0v0c-.06.07-.12,0-.15.07v0h-.07v0a.26.26,0,0,1-.29,0v.12c-.19-.13-.26.11-.44-.05v0c-.23.31-.35-.21-.59.08,0,0,0-.06,0-.09s-.21,0-.22.28c-.07,0-.06-.07-.07-.16A.13.13,0,0,1,103,13l0,0-.17,0,0,.19c-.09-.06,0-.23-.11-.19v.16c-.12,0-.2-.27-.32-.39-.5-.07-1,.32-1.52,0l0-.12c0-.17-.14.26-.15.1l-.06.08s0-.07,0-.11,0,0-.09.08l0-.11c-.2-.09-.37.12-.58.07-.25-.22-.73,0-1,.09-.39.26-.83-.43-1.23-.14,0,0,0,0,0,0l-.36,0s-1.75-.09-.43,1.35v0c.19.09.32.11.46-.08,0,.23.16,0,.21.1v0c.12-.17.25.15.37,0,0,0,0,.08,0,.08s.2-.08.21.06c.2,0,.48,0,.62-.18v0c.07-.14.09,0,.18-.09a0,0,0,0,0,0,0c.08-.14.23,0,.3-.08v.09l.16,0-.06,0c0-.24.12.16.24,0,.11,0,.23-.51.34-.38,0-.12-.05.18,0,.09,0,.13,0,.08,0,.19.08-.06.13.13.23,0v.1c.13-.18.24.14.33,0s.08.3.22.11l0,.13c.06,0,.05-.16.11-.1s.08.07,0,.15c.15.13.3-.18.5,0,0-.16.14-.06.17-.19,0,.07.19,0,.08.17s0,0,0,0l0,.1c.11.19.21-.1.31-.07s-.07,0,0-.09h.1l0,.09.15.05,0-.11c.07.06.1.23.18.09s-.07-.14,0-.17a1.68,1.68,0,0,0,.37.21c0-.12,0-.11.06-.14v.1c.14-.13,0,.22.19.11l0,.07,0-.21c.12-.19.06.21.2-.06,0,0,0-.22,0-.17l0,.09s.05-.06.08,0,0,.14,0,.13l0,.12.1-.18c.08.11.2,0,.23.11s.17.07.21-.08c0,.1,0,.13,0,.24,0-.1.17-.19.22-.08v0c.18.11.32-.16.49,0,0-.11.08-.05.06-.2.17-.14.31.31.38-.15.08,0,.09.11.13.13l0,0a.7.7,0,0,1,.31,0s.06-.26.16-.21,0,.07,0,.07,0,0,0,.11a.16.16,0,0,1,0-.06v0c.06,0,0,0,0-.07a.43.43,0,0,1,0-.05c.06.11.17,0,.18.14.19,0,.32-.18.48-.23a.15.15,0,0,1-.07.16l.11,0c0,.11-.06.06-.1.08.13.17.27-.17.42,0l0-.08h0a.19.19,0,0,1,0-.12c0,.09,0,.22.08.21s.17,0,.24-.09,0-.07,0-.1,0,.09.08.05v.12c0-.11.1-.12.11-.17s-.06.08-.07.15l.23,0c.08-.09,0-.12,0-.23s.14-.11.22,0l0-.12c.14-.08.22-.07.31.05,1-.9.22-1.25.22-1.25C107.74,12.33,107.53,12.66,107.06,12.74Z"/><path class="cls-3" d="M82.7,14l0-.05A.05.05,0,0,0,82.7,14Z"/><path class="cls-3" d="M74.9,14v0Z"/><path class="cls-3" d="M81.51,12.41Z"/><path class="cls-3" d="M83.08,12.54c-.41-.06-.52-.28-1-.19a2.61,2.61,0,0,0-.62.06c-.1.17-.26,0-.38.14l0-.1c0,.05-.08.08-.12,0v0c-.06.08-.12,0-.15.07v0h-.07v0a.27.27,0,0,1-.29,0v.12c-.2-.13-.27.11-.45-.05v0c-.23.31-.36-.21-.59.08,0,0,0-.06,0-.09s-.22.05-.22.28c-.07,0-.06-.07-.07-.16a.14.14,0,0,1-.13.15l0,0-.17,0,0,.19c-.09-.05,0-.23-.11-.18V13c-.12,0-.2-.26-.32-.38-.51-.07-1.06.33-1.53.05l0-.12c0-.17-.13.26-.15.1l0,.08s0-.07,0-.11,0,0-.09.08l-.06-.11c-.2-.08-.37.12-.58.08-.25-.22-.73,0-1,.09s-.83-.43-1.23-.13c0,0,0,0,0,0l-.37,0s-1.75-.07-.42,1.35v0c.19.09.32.11.46-.08,0,.24.16,0,.21.1v0c.12-.17.25.15.37,0,0,0,0,.08,0,.09s.21-.08.21.05c.2,0,.49,0,.62-.18v0c.07-.15.1,0,.18-.1a0,0,0,0,0,0,0c.08-.14.23,0,.3-.08V14l.16,0-.06,0c0-.24.12.16.24,0,.11,0,.23-.51.34-.39.05-.11,0,.19,0,.1,0,.13,0,.08,0,.18.08-.06.13.13.23,0V14c.13-.19.25.13.33-.05s.09.3.23.11l0,.13c.06,0,0-.16.11-.1s.08.07,0,.15c.15.13.3-.19.49,0,0-.17.14-.07.17-.19,0,.07.2,0,.09.17,0,0,0,0,0,0v.1c.11.18.2-.11.31-.08s-.07,0-.05-.09l.11,0,0,.08.16,0,0-.1c.07.05.1.22.18.08s-.07-.14,0-.17a1.2,1.2,0,0,0,.37.2c0-.11,0-.11.06-.13v.1c.14-.14,0,.22.18.11v.07l0-.21c.12-.2.06.21.2-.06-.06,0,0-.22,0-.18l0,.1s0-.06.07,0,0,.14,0,.12l0,.12.1-.17c.08.1.2,0,.23.11s.17.06.2-.09c0,.1.06.13,0,.24,0-.1.17-.19.22-.08v0c.18.11.32-.16.49,0,0-.12.08-.05.06-.2.17-.15.32.3.38-.15.08,0,.09.1.13.13v0a.65.65,0,0,1,.3,0s.06-.26.16-.2,0,.06.05.06,0,.05,0,.11a.16.16,0,0,1,0-.06v0c.06,0,0-.06,0-.07a.43.43,0,0,1,0,0c.06.11.17,0,.18.14.19,0,.32-.18.48-.24a.16.16,0,0,1-.07.17l.11,0c0,.11-.06.06-.1.09.13.17.27-.18.43,0l0-.08h0a.22.22,0,0,1,0-.12c0,.1,0,.22.08.21s.17,0,.25-.09,0-.07,0-.1.06.09.09.05V14c0-.11.1-.12.11-.17s-.06.08-.07.15l.23,0c.08-.1,0-.12,0-.23s.14-.11.22,0l0-.11c.14-.08.22-.07.31,0,1-.9.22-1.24.22-1.24C83.75,12.13,83.55,12.45,83.08,12.54Z"/><path class="cls-3" d="M58.7,13.93l0,0A0,0,0,0,0,58.7,13.93Z"/><path class="cls-3" d="M50.9,14h0Z"/><polygon class="cls-3" points="57.5 12.37 57.5 12.37 57.51 12.35 57.5 12.37"/><path class="cls-3" d="M59.07,12.49c-.41-.06-.52-.27-1-.18a2.61,2.61,0,0,0-.62.06c-.09.16-.26,0-.37.14l0-.09s-.09.08-.13,0v0c-.06.07-.13,0-.16.06v0h-.07v0a.31.31,0,0,1-.3.05v.11c-.19-.13-.27.11-.44,0v0c-.22.31-.35-.21-.58.09,0,0,0-.06,0-.09s-.22.05-.22.28c-.08,0-.06-.07-.07-.16a.14.14,0,0,1-.13.15l0,0-.18,0,0,.19c-.09-.05,0-.23-.11-.18v.15c-.13,0-.2-.26-.32-.38-.51-.06-1.06.34-1.53.06l0-.12c0-.17-.13.26-.15.1l-.06.08s0-.07,0-.1-.05,0-.09.07l0-.11c-.2-.08-.37.13-.58.09-.26-.22-.74,0-1,.1s-.84-.43-1.24-.13c0,0,0,0,0,.05l-.36,0s-1.76-.07-.42,1.35v0c.2.09.33.11.46-.08,0,.23.17,0,.21.1v0c.12-.18.25.14.36,0,0,0,0,.09,0,.09s.2-.08.21,0c.2,0,.48,0,.61-.19v0c.08-.14.1,0,.18-.09a0,0,0,0,1,0,0c.08-.14.24,0,.3-.08V14l.16,0-.06,0c0-.24.12.16.24,0,.11,0,.22-.51.33-.39,0-.12-.05.19,0,.1,0,.12,0,.08,0,.18.08-.06.13.13.22,0V14c.13-.18.24.13.32,0s.09.29.23.1l0,.13c.06,0,.05-.16.11-.1s.08.07,0,.15c.14.13.29-.19.49,0,0-.17.14-.07.17-.2,0,.08.19,0,.09.17s0,0,0,0v.1c.11.19.2-.1.31-.07s-.08,0,0-.09H54l0,.08.15,0,0-.1c.08.05.1.22.19.08s-.07-.14,0-.17a1.25,1.25,0,0,0,.38.2c0-.11,0-.11,0-.13v.1c.13-.14,0,.22.18.11v.07l0-.21c.12-.2.07.2.2-.07-.05,0,0-.22,0-.17v.09s0-.06.07,0,0,.14,0,.13l0,.12.1-.18c.08.1.2,0,.24.11s.16.06.2-.08c0,.09.06.12,0,.23,0-.1.17-.19.22-.08h0c.19.12.32-.15.49,0,0-.12.09-.06.06-.2.18-.15.32.29.38-.16.08,0,.1.1.14.13l0,0a.66.66,0,0,1,.3,0c.06,0,.07-.26.17-.21s0,.07,0,.07,0,0,0,.1l0-.05v0c.06,0,0-.06,0-.07a.11.11,0,0,0,0-.05c.06.11.18,0,.19.13.18,0,.31-.18.47-.24a.15.15,0,0,1-.07.17l.11,0c0,.1-.06.06-.09.08.13.17.27-.17.42,0l0-.08h0a.17.17,0,0,1,.06-.12c0,.1,0,.22.07.21s.17,0,.25-.09,0-.07,0-.1.06.09.09.05V14c0-.12.1-.13.12-.18s-.06.08-.07.15l.22,0c.09-.09,0-.11,0-.23s.14-.11.22,0l0-.11c.13-.09.21-.08.3,0,1-.91.21-1.24.21-1.24C59.75,12.07,59.54,12.4,59.07,12.49Z"/><path class="cls-3" d="M34.71,14.13l0-.05A.05.05,0,0,0,34.71,14.13Z"/><path class="cls-3" d="M26.91,14.28v0Z"/><path class="cls-3" d="M33.48,12.58Z"/><path class="cls-3" d="M35.06,12.68c-.42,0-.53-.27-1-.17a3.27,3.27,0,0,0-.62.07c-.09.17-.26,0-.37.15l0-.09s-.08.08-.12,0v0c-.06.07-.12,0-.15.07v0h-.07v0a.29.29,0,0,1-.29.06v.11c-.2-.12-.27.12-.45,0v0c-.21.31-.35-.2-.58.09,0,0,0-.06,0-.09s-.22.06-.21.29c-.08,0-.07-.07-.08-.16A.14.14,0,0,1,31,13l0,0-.17,0,0,.18c-.09-.05,0-.23-.11-.18v.16c-.13,0-.21-.27-.33-.38-.51-.06-1.05.35-1.53.09l0-.12c0-.17-.13.25-.15.1l-.05.08s-.05-.07,0-.11-.05,0-.09.08l-.06-.11c-.2-.08-.37.13-.58.09-.26-.21-.73,0-1,.12-.39.27-.85-.41-1.24-.11,0,0,0,0,0,.05l-.37,0s-1.76,0-.4,1.37v0c.2.09.32.11.46-.08,0,.23.16,0,.21.09v0c.12-.18.25.14.37,0,0,0,0,.09,0,.09s.2-.08.2,0c.21,0,.49,0,.62-.2v0c.07-.15.1,0,.18-.1a0,0,0,0,0,0,0c.08-.14.23,0,.3-.08v.08l.16,0-.06,0c0-.24.13.15.24,0,.11,0,.21-.51.33-.39.05-.12-.05.19,0,.1,0,.12,0,.08,0,.18.08-.06.13.13.23,0v.1c.13-.19.25.12.33,0s.09.29.23.1l0,.13c.06,0,0-.17.11-.1s.08.06,0,.15c.15.13.3-.2.5,0,0-.16.14-.07.17-.19,0,.07.19,0,.08.16s0,0,0,0v.1c.11.18.2-.11.31-.08,0,0-.08,0-.05-.09H30l0,.08.15,0,0-.11c.08.06.1.23.19.08s-.08-.13,0-.17a1.25,1.25,0,0,0,.38.2c0-.11,0-.11.05-.13v.1c.13-.15.05.21.18.1v.07l0-.21c.12-.2.07.21.2-.06-.05,0,0-.22,0-.18l0,.09s.05-.06.08,0,0,.14,0,.13l0,.12.09-.18c.08.1.2,0,.24.1s.16.07.2-.08c0,.09.06.12,0,.23,0-.1.16-.19.21-.08h0c.19.11.31-.16.49,0,0-.12.08-.06,0-.21.17-.14.33.3.38-.16.08,0,.1.11.14.13l0,0a.66.66,0,0,1,.3,0c.06,0,.06-.26.16-.21s0,.07,0,.07,0,0,0,.1a.08.08,0,0,1,0-.06s0,0,0,0,0-.06,0-.07l0,0c.07.11.18,0,.19.14.19,0,.32-.19.47-.25a.15.15,0,0,1-.06.17l.11,0c0,.11-.06.06-.09.08.13.17.26-.17.42,0l0-.08h0a.19.19,0,0,1,0-.12c0,.09,0,.21.08.21s.17-.05.25-.1,0-.07,0-.1.07.09.09,0v.12c0-.12.1-.13.11-.18s-.06.08-.07.15l.23,0c.08-.1,0-.12,0-.23s.14-.11.22,0l0-.11c.13-.09.21-.08.3,0,1-.93.19-1.25.19-1.25C35.72,12.25,35.52,12.58,35.06,12.68Z"/></g></g></g></svg>