<?xml version="1.0" encoding="utf-8"?>
<!-- Generator: Adobe Illustrator 23.0.2, SVG Export Plug-In . SVG Version: 6.00 Build 0)  -->
<svg version="1.1" id="圖層_1" xmlns="http://www.w3.org/2000/svg" xmlns:xlink="http://www.w3.org/1999/xlink" x="0px" y="0px"
	 viewBox="0 0 480 580" style="enable-background:new 0 0 480 580;" xml:space="preserve">
<style type="text/css">
	.st0{fill:#FFFFFF;}
	.st1{opacity:0.5;}
	.st2{fill:#C18D2F;}
	.st3{fill:none;}
</style>
<title>資產 73</title>
<g>
	<g id="圖層_1-2">
		<path class="st0" d="M23.8,19.5c0.7-3.3,3.2-5.5,6-5.4c13.3,0.4,60.8,1.6,76.3-0.1c18-1.9,63.6,4.9,85.5,4.9s76.9-1.9,95.9,0
			s58.9-1,77.9,0s61.7-5.5,77.9-2.3l10,2c3.5,0.7,6,4.5,5.9,8.8c-0.5,18.3-1.4,64.8,0.2,82.7c1.3,13.8,5.7,105.8,6.6,137.8
			s0,116.5,0,139.8s3.7,94.2,0.4,107.8c-2.7,11.2,0,47,1,59c0.2,2.2-1.2,4.1-3,4c-16-0.5-83.9-2.9-104.7-3.8c-23.8-1-36.1,0-71.2,0
			s-56,7.8-76,3.9s-63.6,0.2-88.3-0.7s-70.3-1.9-86.4-1.9H21.6v-29.4c0,0-1-111.6,0-128.1s1-95.1-0.4-118.4s3.3-145.6,4.2-150.5
			C26.2,125.2,18.8,42.4,23.8,19.5z"/>
		<g class="st1">
			<path class="st2" d="M299.4,18.9l5,0.1c0,0-0.4,0-1.2,0L299.4,18.9z"/>
			<path class="st2" d="M20,425.2c0-0.4,0-0.9,0-1.2C20,424.9,20,425.1,20,425.2z"/>
			<path class="st2" d="M457.1,57.5v-0.3c0-0.4,0-0.9,0-1.3V57.5z"/>
			<path class="st2" d="M238.4,19c16.8-0.2,30.6-0.3,42.7,0.4c3,0.1,5.9,0.5,8.9,0.7s5.8,0.3,8.5,0.4c5.6,0.1,11,0.1,16.4,0
				l34.2-0.7c3.1,0,6.4-0.1,9.7,0c1.7,0,3.4,0.1,5.1,0.1s3.6,0.1,5.4,0.1c7.4,0,15.3-0.6,24-1.2c8.3-0.6,16.7-1.3,25.2-1.7
				s17.1-0.8,25.3,0.8l6.3,1.2l1.6,0.3c0.5,0.1,1.1,0.2,1.5,0.3c0.9,0.3,1.6,0.8,2.3,1.4c1.3,1.4,2.1,3.2,2.3,5.1c0,0.5,0.1,1,0,1.5
				v1.6l-0.1,3.2c-0.2,8.4-0.3,16.7-0.4,24.9c0,7.7-0.1,18.4,0,29.4c0.1,5.5,0.2,11.1,0.4,16.5c0.1,2.7,0.3,5.3,0.5,7.8
				s0.4,4.9,0.5,7.2l0.3,7.1c0.4,6.3,0.8,13.7,1.1,20l0-0.4c0.6,9.4,1,20,1.3,24.6v-0.4l0.6,11.4l-0.1-2c0.9,16.4,1.6,33.2,2.2,48.1
				l0.1-1.2c0.6,15.9,1,26.8,1.1,37.2c0.1,10.5,0.2,20.6,0.1,34.9v-0.4c0.1,18.2,0,32.5-0.1,47c-0.1,7.2-0.1,14.5-0.2,22.3
				s-0.1,16.1,0,25.5c-0.1-4.7,0,2-0.1,1.6c0.2,8.6,0.5,17.5,0.7,24.3c0.1,3.4,0.2,6.2,0.3,8.3c0,1.1,0.1,2.2,0.2,3.3
				c0.3,12.6,0.2,10.2,0.1,11.9c0,0.1,0.1,0.3,0,0.5c0,0.3,0,0.8,0.1,1.4c0,1.2,0.1,2.8,0.1,4.8c0.1,3.9,0.2,9.1,0.3,14l-0.1-4.5
				c0.1,9.4,0.2,18.7-0.2,28.1c0.1-1.8,0.3-3.7,0.4-5.5c-0.2,7.4-0.5,8.4-0.6,9.2c-0.1,0.4-0.1,0.8-0.2,2c-0.1,0.8-0.2,1.6-0.4,2.4
				c-0.1,0.5-0.2,1.1-0.3,1.8s-0.3,1.5-0.4,2.4l0.2-0.2c-0.5,4.7-0.8,9.4-0.8,14.1c0,4.3,0,8.4,0.2,12.5c0.2,8.1,0.6,16.1,1.4,26.1
				l0.3,3.9c0.1,1-0.3,2.1-1.1,2.8c-0.2,0.1-0.4,0.2-0.6,0.3c-0.2,0.1-0.5,0.1-0.7,0.1l-2-0.1l-3.9-0.1l-15.7-0.6l-31.7-1.1
				l-31.9-1.1l-15.9-0.5c-5.3-0.2-10.6-0.4-15.9-0.5c-10.6-0.2-21.1,0.1-31.6,0.2l-15.6,0.2c-5.2,0-10.3,0-15.5,0.1
				c-10.1,0.2-20.3,0.9-30.3,2.2c-5,0.6-9.9,1.2-14.8,1.7c-4.8,0.6-9.6,0.9-14.5,0.9c-1.1,0-2.2-0.1-3.4-0.2c-0.2,0-0.6,0-1.3-0.1
				s-1.6-0.1-2.6-0.2c-0.5,0-1.1-0.1-1.6-0.2l-1.8-0.3l-4-0.6c-5.5-0.8-11.2-1-12.7-1.1c-3-0.1-6-0.1-9-0.1c-2.5,0-7.9,0-3.4-0.1
				c-8.3,0-8.5,0.1-14.5,0.3l-8.9,0.2c-8.2,0.2-16.1,0.5-23.8,0.6c-3.9,0-7.7,0.1-11.5,0s-7.7-0.3-11.5-0.4
				c-15.4-0.5-30.9-0.8-48.2-1.2c-6.2-0.2-13.2-0.3-20.8-0.4c-3.8,0-7.8-0.1-11.9-0.1H21.9c0-9.7,0-19.8,0-30.1
				c-0.1-10.5-0.2-21.2-0.3-31.6c-0.1-20.8-0.2-40.6-0.3-56.3c0-7.9,0-15.9,0-24.1c0-4.1,0.1-8.2,0.2-12.3c0.1-2.1,0.2-4.1,0.3-6.2
				L22,388c0.4-16.8,0.5-33.9,0.5-51c0-8.6,0-17.2-0.1-25.7c-0.1-8.6-0.2-17.1-0.6-25.6l-0.3-6.4c-0.1-2.1-0.2-4.2-0.2-6.3l-0.1-6.3
				c0-2.1,0-4.2,0-6.2c0-8.3,0.2-16.5,0.3-24.6c0-1,0.1-2.9,0.1-4.6c0-0.8,0-1.6,0-2.1s0-0.9,0-0.9c0.5-19.7,1.2-39.4,1.9-59.1
				c1.2-29.5,0.2-4.5,0.5-11.9c0.2-3.7,0.4-8.1,0.6-13.1c0.1-2.5,0.3-5.1,0.4-7.8c0.1-1.4,0.2-2.8,0.3-4.2s0.3-2.7,0.3-4.4
				c-0.1-5.9-0.5-12.1-0.9-18.5S24,96.6,23.6,90.1c-0.7-13-1.2-25.7-1.4-36.8c-0.3-8.9-0.1-17.8,0.6-26.6c0.6-6.1,1.3-8.9,0.8-7.1
				c-0.1,0.5-0.2,1.2-0.5,2.3c-0.3,1.4-0.5,2.8-0.6,4.2c-0.4,3.5-0.8,8.4-1,14.9c-0.4,13,0,32.4,1.4,59.6L22.8,99
				c0.4,8.1,0.8,15.4,1.2,22.2c0.1,1.7,0.2,3.4,0.2,5c0.1,1.6,0,3.2-0.2,4.8c-0.3,3.2-0.4,6.2-0.6,9.2c-0.6,11.9-1,22.6-1.3,33.7
				c-0.4,3.5-1,26.6-1.3,34.1v-0.7c-0.4,19.7-1.3,40.6-1.2,59.7c0-0.7-0.1-1.1-0.1-5.5c-0.1,6.9,0.1,15.2,0.5,21.8
				s0.4,11.6,0.3,12.1c0.4,16.5,0.5,36.4,0.5,54.7s-0.1,35.2-0.4,45.8v-1.5c-0.1,3-0.2,5.5-0.2,7.8s-0.1,4.2-0.1,6.3
				c0,4.1-0.1,8.4-0.1,15.1c0,0.7,0,1.7,0,1.5c0,13.2,0.1,38.4,0.1,49.1l-0.1,0.7l0.2,26.2v-9.8c0.2,3.4,0,19.8,0.2,38.9
				c0,4.2,0,8.5,0,12.7c0.1,4.4,0.1,8.8,0.1,13.2l14.8-0.2c4.8,0,9.7,0,14.6,0.1c8.8,0-7.8,0.1,5.4,0.2c0.4,0.1-6.2,0-2.8,0.1
				c12.9,0.1,21.2,0.5,37.2,0.8l0.7,0.1c10.4,0.2,20.2,0.5,29.2,0.8s17.1,0.4,24,0.1c21.5-0.6,14.4-0.2,36.8-0.8
				c2.9,0,5.8,0,8.7,0.1l8.3,0.1c0.9,0,1.9,0.1,3.2,0.1l2.4,0.2c0.9,0.1,2.1,0.2,3.4,0.3c0.6,0.1,1.1,0.2,1.7,0.2l3.9,0.6
				c2.6,0.4,4.6,0.8,1.5,0.3c6.1,0.9,12.3,1.1,18.4,0.5c6.2-0.5,12.5-1.3,19-2.1c6.5-0.8,13.3-1.6,20.4-2c3.5-0.2,7.2-0.4,10.9-0.5
				h5.7h5.9c6.9-0.2,22.8-0.3,27.9-0.5l14-0.1c5.6,0,8.9,0,0,0.1c-1.5,0-4.2,0-4.1,0l-2.1,0.1c9,0,17.2,0,25.3,0.2l25.2,0.8
				c-5.3-0.2-12.3-0.5-7.6-0.4l16.6,0.6h-3.5l24.7,0.9l-3.4-0.2c12.1,0.5,16.3,0.8,30,1.2c6.2,0.1-11.4-0.5,1.3-0.1l13.4,0.5
				l7.5,0.3l3.9,0.2h1c0.4,0,0.9-0.1,1.3-0.2c0.8-0.3,1.4-0.9,1.9-1.7c0.4-0.7,0.6-1.5,0.7-2.3c0-0.9-0.1-1.4-0.1-2.1
				c-0.1-1.3-0.2-2.7-0.3-4c-0.2-2.7-0.4-5.4-0.5-8.1c-0.3-5.4-0.6-10.8-0.8-15.9c0,1.9-0.3-3.6-0.4-9.3l0.1-0.7
				c-0.1-10.9,0.3-12.9,0.5-14.8c0.1-1,0.2-2,0.6-3.9c0.2-1,0.5-2.4,0.7-4.2s0.4-4,0.5-6.7v1.9c0-1.9,0.1-3.9,0-5.8
				c0.1-4.9,0.1-8,0.1-10.3s0-3.6,0-5.1c0-2.9,0.1-6.1-0.3-17c0.2,8.6-0.1,4.1-0.3-6.5l0.2,2.7c-0.2-5.9-0.2-7.8-0.3-11.7
				c0.1,3.5,0.2,1.8-0.1-6.8l0.3,5.8l-0.6-16.3c-0.1-6.3-0.4-14.4-0.5-21.6s0-13.5,0-16.1c0,0,0.2-27.1,0.1-33.3
				c0,5.4,0.2-9.5,0.3-5.2c-0.1-7,0-27.7,0.1-36v1.6c0.2-30.7-0.1-52.5-1.2-80c-0.1,1.3-0.6-13.3-0.6-9.7
				c-1.4-28.4-2.1-51.9-3.1-62.1c-0.7-12.9-0.7-15.4-1-22l0.2,3.1c-0.7-12.1-1.1-20-1.7-27s-0.6-13.3-0.7-22.3s-0.3-10.4-0.1-26.5
				c0,5.2,0.1-1.4,0.2-7.4c0,3.8,0,5,0.1-2.9c0-1.1,0-2.8,0-4.5c0-0.1,0-0.4,0-0.2c0.2-10.1,0.1-8.3,0-3.7c0-0.2,0,0.2-0.1,1.6
				c0.1-2.6,0.2-5.7,0.2-9c0-1.6,0.1-3.3,0.1-4.9c0-0.8,0-1.7-0.1-2.5c-0.1-0.8-0.3-1.6-0.6-2.4c-0.6-1.4-1.5-2.7-2.7-3.7
				c-0.5-0.4-1.1-0.8-1.8-1.1c-0.6-0.2-1.1-0.4-1.7-0.5c-2-0.4-3.4-0.7-3.7-0.8l-5.4-1.3c-1.8-0.3-3.6-0.5-5.4-0.7
				c-3.6-0.3-7-0.3-10.4-0.2c-6.7,0.1-13,0.6-19.2,1c-12.3,0.9-24,2.1-36.5,2.4c-1.4,0-0.7-0.1,1.4-0.1s5.3-0.2,9-0.5
				c-5.9,0.4-11.9,0.6-17.8,0.4c0.6,0,1.2,0,1.8,0c1.1,0,2.5,0.1,4.1,0s3.4,0,5.1-0.1s3.4-0.1,4.8-0.2c-5.3,0.2-10.7,0.4-16.1,0.1
				s-11.1-0.1-16.9,0c-11.4,0.2-23.3,0.7-35.8,0.8L306,19h-1.5c-0.3,0-0.6,0-0.9,0h-2.3c-1.9,0-4.2,0-6-0.1s-1.7-0.2-2.7-0.3
				l-9.3-0.8c-9.8-0.7-27.8-0.6-40.6-0.4c6.9-0.1,4.7,0,1.7,0.1c-6.2,0.1-9.7,0-14.5,0.1l-0.6-0.1c2.4,0.1-16.1,0.4-18.4,0.5
				c-3.5,0,9.6-0.2,11.1-0.3l-18.6,0.3l-5.8,0.1c-2.7,0-6.6,0.1-12.7-0.1c-13.2-0.6,2.4,0.3-3.9,0c-11.6-0.7-23-1.7-36.3-3l4.2,0.5
				c-10.9-0.9-19.7-1.6-27.5-2l-2.9-0.1l-2.8-0.1c-1.9-0.1-3.7,0-5.5,0c-3.7,0.1-7.2,0.6-10.9,0.7c-10.2,0.5-19.3,0.5-27.3,0.6
				s-15,0-21.1-0.1l-15.5-0.2l-5.8-0.1c-1.5,0-2.9,0.6-3.9,1.7c-1.8,1.9-1.8,4-2.1,5.4S23,23.5,23,23.7c0.4-1.3,0.8-2.7,1-4.1
				c0.3-1.6,1.2-2.9,2.5-3.9c0.7-0.5,1.6-0.8,2.5-0.9c1,0,2.2,0.1,3.4,0.1L47,15.4c9.5,0.2,17.6,0.3,17.6,0.3
				c8.1,0.1,15.6,0.1,22.8,0.1c3.6,0,7.1-0.1,10.6-0.3c1.7-0.1,3.4-0.2,5.2-0.3l2.6-0.2l2.5-0.2c6.5-0.3,13-0.1,19.4,0.4
				c6.4,0.4,12.8,0.9,19.2,1.5l19.8,1.7c6.8,0.5,13.9,1.1,21.3,1.3s15.3-0.1,23.7-0.2L238.4,19z"/>
		</g>
		<rect y="0" class="st3" width="480" height="580"/>
	</g>
</g>
</svg>
