<svg xmlns="http://www.w3.org/2000/svg" viewBox="0 0 70 50"><defs><style>.cls-1{fill:none;}.cls-2{fill:#e6e6e6;}.cls-3{fill:#fff;stroke:#fff;stroke-miterlimit:10;stroke-width:0.25px;}</style></defs><title>資產 41</title><g id="圖層_2" data-name="圖層 2"><g id="圖層_1-2" data-name="圖層 1"><rect class="cls-1" width="70" height="50"/><path class="cls-2" d="M21.71,17.1c6.09-2.42,26,1.92,28.88,9.27s-12.21,14.9-18.3,17.32S18.89,42.12,16,34.78,15.62,19.52,21.71,17.1Z"/><path class="cls-3" d="M35.8,28.23c.65.62,1.17,1.12,1.29,1.22.38.35.45.39.44.59s-.65.53-.75.37-.87-.92-1.56-1.6l.21-.06a.42.42,0,0,0,.32-.4Z"/><path class="cls-3" d="M32.8,25.19c.28.31,1,1,1,1l.14.22.89.91,0,.07c-.14.32-.35.31-.35.31l-.21.22L32.49,26l-.05-.14s.21,0,.35-.3Z"/><path class="cls-3" d="M31.23,24.78,29,22.6v-.12c.15-.28.35-.29.35-.29l.24-.15,1.9,1.89.49.47a1.28,1.28,0,0,1-.47.6Z"/><path class="cls-3" d="M32.17,35.9l-1.4,1.39-.61.59-.22.06a.43.43,0,0,1-.43-.22l-.14-.23,2.06-2,.13.06c0,.36.57.27.57.27Z"/><path class="cls-3" d="M35.4,31.55l-3,2.94,0,.13c.13.32.36.3.36.3l.27.14,2.54-2.53.66-.64a1.06,1.06,0,0,0-.47-.64Z"/></g></g></svg>