<?xml version="1.0" encoding="utf-8"?>
<!-- Generator: Adobe Illustrator 18.0.0, SVG Export Plug-In . SVG Version: 6.00 Build 0)  -->
<!DOCTYPE svg PUBLIC "-//W3C//DTD SVG 1.1//EN" "http://www.w3.org/Graphics/SVG/1.1/DTD/svg11.dtd">
<svg version="1.1" id="圖層_1" xmlns="http://www.w3.org/2000/svg" xmlns:xlink="http://www.w3.org/1999/xlink" x="0px" y="0px"
	 viewBox="0 0 90 72" enable-background="new 0 0 90 72" xml:space="preserve">
<g>
	<path stroke="#000000" stroke-width="0.8962" stroke-miterlimit="10" d="M48.7,55c-1.5,1.1-3.2,2.1-5.1,2.6c-0.9,0.2-1.9,0.3-2.9,0
		c-1-0.2-1.8-0.7-2.6-1.3c-0.6-0.5-1-1.3-0.8-1.5c0.6,0.7,1.3,1.3,2.1,1.7c0.8,0.5,1.7,0.7,2.6,0.7c1.8,0,3.6-0.8,5.1-1.8
		C47.7,55.1,48.5,54.7,48.7,55z"/>
	<path stroke="#000000" stroke-width="0.8962" stroke-miterlimit="10" d="M62.5,46.1c-2.3,3.3-4.7,6.5-7.2,9.6c-1.3,1.5-2.6,3-4,4.5
		c-1.4,1.4-2.9,2.8-4.6,3.9C45.9,64.6,45,65,44,65.3c-1,0.3-2,0.4-3.1,0.2c-1-0.2-2-0.7-2.8-1.4c-0.8-0.6-1.5-1.4-2.1-2.2
		c-0.7-0.8-1.3-1.5-1.9-2.3c-0.6-0.8-1.1-1.7-1.6-2.5c-1-1.7-1.9-3.5-2.8-5.3c-0.7-1.3-1.4-2.9-2.1-4.1c-0.3-0.6-0.6-1.1-0.9-1.4
		c-0.2-0.3-0.5-0.5-0.4-0.6c0.5,0.3,0.8,0.7,1.2,1.1c0.3,0.4,0.6,0.8,0.8,1.3c0.5,0.9,1,1.8,1.4,2.6c0.9,1.8,1.8,3.6,2.8,5.3
		c0.5,0.9,1,1.7,1.5,2.5c0.5,0.8,1.2,1.6,1.8,2.4c0.6,0.8,1.3,1.5,2,2.2c0.7,0.7,1.5,1.3,2.4,1.6c0.9,0.3,1.9,0.4,2.8,0.2
		c0.2,0,0.5-0.1,0.7-0.2l0.4-0.1l0.3-0.1c0.2-0.1,0.5-0.2,0.7-0.3l0.7-0.3c1.7-0.9,3.2-2.2,4.6-3.6c1.4-1.4,2.7-2.9,4-4.4
		c1.3-1.5,2.5-3.1,3.7-4.7C59.9,49,62.3,46,62.5,46.1z"/>
	<path stroke="#000000" stroke-width="0.8962" stroke-miterlimit="10" d="M42.2,60.7c-0.4,0.1-0.8,0-1.2,0c-0.4,0-0.7-0.1-1.1-0.3
		c-0.7-0.2-1.4-0.6-1.9-1c-1.2-0.8-2.2-1.9-3-3.1c-1.7-2.3-3.3-4.7-4.8-7.1c-0.6-0.9-1.1-2.2-0.8-2.4c1.4,2.5,2.9,4.8,4.5,7.2
		c0.8,1.1,1.6,2.3,2.6,3.4c0.9,1,2,1.9,3.3,2.4c0.5,0.2,1,0.4,1.5,0.5C41.8,60.5,42.2,60.6,42.2,60.7z"/>
	<g>
		<g>
			<path d="M44.3,23.7v21.7v0.2c0,0.5-0.5,0.9-1.1,0.9h-0.1c-0.6,0-1.1-0.4-1.1-0.9v-0.2v-7.2V9.6c0-0.5,0.5-0.9,1.1-0.9l0,0
				c0.6,0,1.1,0.4,1.1,0.9v20.9V23.7"/>
		</g>
	</g>
	<g>
		<g>
			<g>
				<path d="M51.5,51.9l0.3-3l-0.9-0.2h-0.8h-5.9v0.3v0.1c0,0.3-0.3,0.6-0.7,0.6h-0.1c-0.4,0-0.7-0.3-0.7-0.6v-0.1v-0.3h-5.1h-0.8
					l-1.6,0.3l0.2,2.7l4.6,0.5h8.4L51.5,51.9z"/>
			</g>
		</g>
	</g>
	<g>
		<g>
			<path d="M41.9,1.7v4.1c0,0.3,0.6,0.7,1.1,0.7h0.3c0.6,0,1.2-0.3,1.2-0.6V1c0-0.3-0.6-0.6-1.2-0.6H43C42.5,0.4,41.9,0.8,41.9,1.7z
				"/>
		</g>
	</g>
	<path stroke="#000000" stroke-width="0.8962" stroke-miterlimit="10" d="M48,58.2c3.1-3.3,6.3-6.6,9.4-9.9c0.6-0.6,1.5-1.3,1.7-1.1
		c-1.5,1.7-3.1,3.4-4.6,5l-4.7,4.9C49.2,57.7,48.3,58.4,48,58.2z"/>
</g>
<rect y="0" fill="none" width="90" height="72"/>
</svg>
