<svg xmlns="http://www.w3.org/2000/svg" viewBox="0 60 40 40"><g fill="none"><g stroke="#823733" stroke-miterlimit="10"><g stroke-width=".5"><path d="M-54.4-364.5c0-.3-.2-.4-.4-.4-2.2-.6-3.4-2.4-4.8-3.9-2.6-2.9-5.6-5.2-9.5-6.2-1-.3-2.1-.2-3.1 0-.6 1.9-.2 2.7 1.7 3.2 1.6.4 3.1.8 4.7 1.2 1.9.5 3.4 1.7 4.6 3.3.3.4.6.9 1 1.4.1.1.3.2.3.4.1 1.6.7 3.1.8 4.7 0 .6.4 1.2.1 1.8"/><path d="M-56.7-363.2c.1 0 .3-.6.6-.8.8-.6 1.6-.3 2.5-.4s1.8-.4 2.7-.7c1.1-.4 2.2-.2 3.1.5.5.3.6.8.5 1.4-.2.8-.4 1.7-.4 2.5 0 2-.4 2.7-2.3 3.5-.5.2-.8.2-1.3 0-.9-.6-1.9-1.1-2.9-1.7l-.2-.1c-.8-.4-1.3-1.2-1.7-1.8-.5-.9-1.3-1.5-.5-2.6"/><path d="M-59.9-364.1c-.5.5-.5 1.1-.4 1.6.1.8.3 1.7.5 2.5.3 1 1.2 1.5 1.7 2.3 1.1 1.6 2.7 2.5 4.6 3 1.3.3 2.3-.2 3.4-.6.8-.2 1.4-.9 2.2-1.3.7-.3.8-.9.7-1.5 0-.6.4-1.4-.3-1.9"/><path d="M-51-363.5c1.2.6 1.2.6.9 1.8-.2.6-.4 1.2-.2 1.9"/></g><path opacity=".35" stroke-width=".3" d="M-76-377.1s2.3-2.9 8.2-.7c5.9 2.2 10.6 7.8 12.5 8.8s3.7 1.1 6.9 1c3.2 0 6.3 4.9 4 10.2-2.3 5.3-6.9 7.1-12 4.7s-7.3-8.1-8.1-12.2c-.8-4.2-6.1-3.3-7.9-4.6-1.8-1.2-6.1-2.5-3.6-7.2z"/></g><path d="M-78.8-435.6h40v100h-40z"/></g><g fill="none"><g stroke="#823733" stroke-miterlimit="10"><path stroke-width=".442" d="M55.2-366.1c.4.4.5.9.5 1.4-.2 1-.2 2 0 3 .2.7-.3 1.1-.8 1.6-.8.7-1.8 1.1-2.8 1.4-.2.1-.4 0-.6-.1m7.9-2.5c-.8.2-1.6-.1-2.4-.1-.3 0-.6-.1-.9-.2m-24.3 6c.7.6 1.1.5 1.7 0 .5-.3 1-.7 1.4-1.1.5-.4 1.1-.4 1.6-.6 1.3-.5 1.3-.4 1-1.8-.2-.8-.6-1.4-.8-2.2-.1-.5-1.2-.9-1.8-.7-.9.3-1.7.5-2.6.7-.4.1-.7-.1-1-.2-.8-.3-1.2-.2-1.4.7-.3.9-.6 1.9-.9 2.9.9.5 1.9 1.1 2.9 1.5"/><path stroke-width=".442" d="M31.9-356.3c0-.3-.1-.5 0-.8.1-.7-.1-1.3-.3-1.9-.1-.2-.1-.4-.1-.5"/><path stroke-width=".442" d="M30.6-360.5c.6 1.4 2.3 1.8 3.5.9.6-.4 1.8-.2 2.4.2.3.2.6.4 1 .4m19.6-6.5c.7.3 1.3.7 1.9 1.2"/><path opacity=".35" stroke-width=".265" d="M48-378c-.8.4-5.6 2.4-7.1 5s-.6 6.9 3.5 10.2c4.1 3.3 4.2 11.1 12.1 9.2S67-363.7 63-367.1s-7.5-3.1-8.7-8.1c-1.1-5-6.3-2.8-6.3-2.8zm-12.6 13.4c-4.8-.6-8.9 3.8-7.5 8.5v.1c1.5 4.8 11.2 1.5 11.9-.5s1.3-5-2-7.2c-.7-.5-1.6-.7-2.4-.9z"/><path stroke-width=".442" d="M52.5-370.5c-.9-.3-2.2.7-3.1 1.8-.5.6-1.1 1.4-1.8 1.5-.4.1-.7.2-1 .5"/><path stroke-width=".442" d="M48.1-373.1c-.9 0-1.1.4-1.3 1.2-.1.6-.2 1.2-.2 1.8 0 .6-.4 1-.7 1.6-.6 1.3-.6 1.2.6 2 .7.4 1.4.6 2.1 1 .4.2 1.5-.3 1.7-.8.4-.8.9-1.6 1.4-2.4.2-.3.5-.4.8-.6.8-.4 1-.7.6-1.5s-.8-1.5-1.2-2.4c-.1-.2-.3-.3-.5-.2-.9.2-1.9.5-2.8.9"/><path stroke-width=".442" d="M48.4-372.1c.2.2.5.3.6.6.4.6 0 1.1.7 1.4.2.1.3.2.5.3m8.5 3.1c.8.2.9 1.1 1.1 1.9.4 1.4.6 2.8.9 4.1.1.2 0 .5-.2.7-.5.6-1 1.2-1.6 1.7-.4.3-.8.6-1.4.4-.3-.1-.5.1-.7.3-.8.7-1.7 1.2-2.8 1.5-.3.1-.6 0-.8-.2-.5-.5-1-1-1.4-1.5-1-1.2-.9-3.3-.2-4.3.6-.9 1.3-1.7 1.9-2.6.1-.1.2-.3.3-.4.4-1 1.3-1.1 2.1-1.1.9 0 1.3-.2 2.2-.4.1-.2.3-.2.6-.1z"/></g><path d="M26.6-435.6h40v100h-40z"/></g><path opacity=".2" fill="#796A56" d="M91.9-364.2c-4.8-.6-8.9 3.8-7.5 8.5v.1c1.5 4.8 11.2 1.5 11.9-.5.8-2 1.3-5-2-7.2-.6-.5-1.5-.8-2.4-.9zm12.7-13.4c-.8.4-5.6 2.4-7.1 5s-.6 6.9 3.5 10.2c4.1 3.3 4.2 11.1 12.1 9.2s10.5-10.1 6.5-13.5-7.5-3.1-8.7-8.1-6.3-2.8-6.3-2.8z"/><path fill="#FFF" d="M91.9-364.6c-4.8-.6-8.9 3.8-7.5 8.5v.1c1.5 4.8 11.2 1.5 11.9-.5.8-2 1.3-5-2-7.2-.6-.5-1.5-.7-2.4-.9zm12.7-13.4c-.8.4-5.6 2.4-7.1 5s-.6 6.9 3.5 10.2 4.2 11.1 12.1 9.2 10.5-10.1 6.5-13.5-7.5-3.1-8.7-8.1c-1.1-5-6.3-2.8-6.3-2.8z"/><path fill="#804F21" d="M115.8-366.7c.6.5.9 1.1 1.1 1.9.4 1.4.6 2.8.9 4.1.1.2 0 .5-.2.7-.5.6-1 1.2-1.6 1.7-.4.3-.8.6-1.4.4-.3-.1-.5.1-.7.3-.9.9-2 1.4-3.2 1.6-.6-.6-1.2-1.2-1.7-1.9-1-1.2-.9-3.3-.2-4.3.6-.9 1.3-1.7 1.9-2.6.1-.1.2-.3.3-.4.4-1 1.3-1.1 2.1-1.1.9 0 1.8-.2 2.7-.4m-9.2-6.3c.9-.4 1.3-.1 2.3-.3.1 0 .3 0 .4.2.4.9.9 1.7 1.3 2.5s.3 1.1-.6 1.5c-.3.1-.6.2-.8.6-.5.8-1 1.5-1.4 2.4-.3.5-1.3 1-1.7.8-.7-.4-1.4-.5-2.1-1-1.2-.8-1.2-.7-.6-2 .2-.5.7-.9.7-1.6 0-.6.1-1.2.2-1.8.2-.8.3-1.2 1.3-1.2-.1-.1.5 0 1-.1m-17.8 17.4c.7.6 1.1.5 1.7 0 .5-.3 1-.7 1.4-1.1.5-.4 1.1-.4 1.6-.6 1.3-.5 1.3-.4 1-1.8-.2-.8-.6-1.4-.8-2.2-.1-.5-1.2-.9-1.8-.7-.9.3-1.7.5-2.6.7-.4.1-.7-.1-1-.2-.8-.3-1.2-.2-1.4.7-.2.7-.5 1.5-.7 2.3-.1.4 0 .8.4 1 .7.4 1.5.9 2.3 1.2"/><path fill="none" stroke="#C19962" stroke-width=".5" stroke-miterlimit="10" d="M111.8-366.1c.4.4.5.9.5 1.4-.2 1-.2 2 0 3 .2.7-.3 1.1-.8 1.6-.8.7-1.8 1.1-2.8 1.4-.2.1-.4 0-.6-.1m7.9-2.5c-.8.2-1.6-.1-2.4-.1-.3 0-.6-.1-.9-.2M105-372c.2.2.5.3.6.6.4.6 0 1.1.7 1.4.2.1.3.2.5.3"/><path fill="none" stroke="#C19962" stroke-width=".5" stroke-miterlimit="10" d="M109-370.5c-.9-.3-2.2.7-3.1 1.8-.5.6-1.1 1.4-1.8 1.5-.4.1-.7.2-1 .5m-14.6 10.4c0-.3-.1-.5 0-.8.1-.7-.1-1.3-.3-1.9-.1-.2-.1-.4-.1-.5"/><path fill="none" stroke="#C19962" stroke-width=".5" stroke-miterlimit="10" d="M87.1-360.5c.6 1.4 2.3 1.8 3.5.9.6-.4 1.8-.2 2.4.2.3.2.6.4 1 .4m19.6-6.5c.7.3 1.3.7 1.9 1.2"/><path fill="none" stroke="#823733" stroke-width=".442" stroke-miterlimit="10" d="M115.3-366.7c.8.2.9 1.1 1.1 1.9.4 1.4.6 2.8.9 4.1.1.2 0 .5-.2.7-.5.6-1 1.2-1.6 1.7-.4.3-.8.6-1.4.4-.3-.1-.5.1-.7.3-.8.7-1.7 1.2-2.8 1.5-.3.1-.6 0-.8-.2-.5-.5-1-1-1.4-1.5-1-1.2-.9-3.3-.2-4.3.6-.9 1.3-1.7 1.9-2.6.1-.1.2-.3.3-.4.4-1 1.3-1.1 2.1-1.1.9 0 1.3-.2 2.2-.4.1-.2.3-.2.6-.1zm-10.6-6.4c-.9 0-1.1.4-1.3 1.2-.1.6-.2 1.2-.2 1.8 0 .6-.4 1-.7 1.6-.6 1.3-.6 1.2.6 2 .7.4 1.4.6 2.1 1 .4.2 1.5-.3 1.7-.8.4-.8.9-1.6 1.4-2.4.2-.3.5-.4.8-.6.8-.4 1-.7.6-1.5s-.8-1.5-1.2-2.4c-.1-.2-.3-.3-.5-.2-.9.2-1.9.5-2.8.9m-16.8 16.9c.7.6 1.1.5 1.7 0 .5-.3 1-.7 1.4-1.1.5-.4 1.1-.4 1.6-.6 1.3-.5 1.3-.4 1-1.8-.2-.8-.6-1.4-.8-2.2-.1-.5-1.2-.9-1.8-.7-.9.3-1.7.5-2.6.7-.4.1-.7-.1-1-.2-.8-.3-1.2-.2-1.4.7-.2.8-.5 1.5-.7 2.3-.1.3 0 .7.3.9.8.5 2.2 1.2 3 1.5"/><g fill="none" stroke="#823733" stroke-miterlimit="10"><path stroke-width=".442" d="M111.8-366.1c.4.4.5.9.5 1.4-.2 1-.2 2 0 3 .2.7-.3 1.1-.8 1.6-.8.7-1.8 1.1-2.8 1.4-.2.1-.4 0-.6-.1m7.9-2.5c-.8.2-1.6-.1-2.4-.1-.3 0-.6-.1-.9-.2m-24.3 6c.7.6 1.1.5 1.7 0 .5-.3 1-.7 1.4-1.1.5-.4 1.1-.4 1.6-.6 1.3-.5 1.3-.4 1-1.8-.2-.8-.6-1.4-.8-2.2-.1-.5-1.2-.9-1.8-.7-.9.3-1.7.5-2.6.7-.4.1-.7-.1-1-.2-.8-.3-1.2-.2-1.4.7-.3.9-.6 1.9-.9 2.9.9.5 1.9 1.1 2.9 1.5"/><path stroke-width=".442" d="M88.5-356.3c0-.3-.1-.5 0-.8.1-.7-.1-1.3-.3-1.9-.1-.2-.1-.4-.1-.5"/><path stroke-width=".442" d="M87.1-360.5c.6 1.4 2.3 1.8 3.5.9.6-.4 1.8-.2 2.4.2.3.2.6.4 1 .4m19.6-6.5c.7.3 1.3.7 1.9 1.2"/><path opacity=".35" stroke-width=".265" d="M104.6-378c-.8.4-5.6 2.4-7.1 5s-.6 6.9 3.5 10.2 4.2 11.1 12.1 9.2 10.5-10.1 6.5-13.5-7.5-3.1-8.7-8.1c-1.1-5-6.3-2.8-6.3-2.8zm-12.7 13.4c-4.8-.6-8.9 3.8-7.5 8.5v.1c1.5 4.8 11.2 1.5 11.9-.5.8-2 1.3-5-2-7.2-.6-.5-1.5-.7-2.4-.9z"/><path stroke-width=".442" d="M109-370.5c-.9-.3-2.2.7-3.1 1.8-.5.6-1.1 1.4-1.8 1.5-.4.1-.7.2-1 .5"/><path stroke-width=".442" d="M104.7-373.1c-.9 0-1.1.4-1.3 1.2-.1.6-.2 1.2-.2 1.8 0 .6-.4 1-.7 1.6-.6 1.3-.6 1.2.6 2 .7.4 1.4.6 2.1 1 .4.2 1.5-.3 1.7-.8.4-.8.9-1.6 1.4-2.4.2-.3.5-.4.8-.6.8-.4 1-.7.6-1.5s-.8-1.5-1.2-2.4c-.1-.2-.3-.3-.5-.2-.9.2-1.9.5-2.8.9"/><path stroke-width=".442" d="M105-372.1c.2.2.5.3.6.6.4.6 0 1.1.7 1.4.2.1.3.2.5.3m8.5 3.1c.8.2.9 1.1 1.1 1.9.4 1.4.6 2.8.9 4.1.1.2 0 .5-.2.7-.5.6-1 1.2-1.6 1.7-.4.3-.8.6-1.4.4-.3-.1-.5.1-.7.3-.8.7-1.7 1.2-2.8 1.5-.3.1-.6 0-.8-.2-.5-.5-1-1-1.4-1.5-1-1.2-.9-3.3-.2-4.3.6-.9 1.3-1.7 1.9-2.6.1-.1.2-.3.3-.4.4-1 1.3-1.1 2.1-1.1.9 0 1.3-.2 2.2-.4.1-.2.3-.2.6-.1z"/></g><path fill="none" d="M83.2-435.6h40v100h-40zm-109.1 0h40v100h-40z"/><path opacity=".2" fill="#796A56" d="M-23.2-377.2s2.3-2.9 8.2-.7 10.6 7.8 12.5 8.8 3.7 1.1 6.9 1 6.3 4.9 4 10.2c-2.3 5.3-6.9 7.1-12 4.7s-7.3-8.1-8.1-12.2c-.8-4.2-6.1-3.3-7.9-4.6s-6.1-2.6-3.6-7.2z"/><path fill="#FFF" d="M-23-377.5s2.3-2.9 8.2-.7 10.6 7.8 12.5 8.8 3.7 1.1 6.9 1 6.3 4.9 4 10.2c-2.3 5.3-6.9 7.1-12 4.7s-7.3-8.1-8.1-12.2c-.8-4.2-6.1-3.3-7.9-4.6s-6.1-2.6-3.6-7.2z"/><path fill="#EDBD62" d="M-7.3-365.1c0-.2-.2-.3-.3-.4-.4-.4-.6-.9-1-1.4-1.2-1.6-2.7-2.9-4.6-3.3-1.6-.4-3.1-.8-4.7-1.2-2-.5-2.3-1.4-1.7-3.2 1-.2 2.1-.3 3.1 0 3.8 1 6.8 3.3 9.5 6.2 1.4 1.5 2.6 3.4 4.8 3.9.2.1.4.1.4.4 0 0 5.5.8 6.9 4.7.7.5.3 1.3.3 1.9s0 1.2-.7 1.5c-.8.4-1.4 1-2.2 1.3-1.1.3-2.1.9-3.4.6-1.9-.5-3.5-1.4-4.6-3-.5-.8-1.4-1.3-1.7-2.3-.3-.8-.4-1.7-.5-2.5-.1-.6-.1-1.2.4-1.6"/><path fill="#804F21" d="M-2.5-361c.4.7.8 1.5 1.7 1.8l.2.1c1 .6 1.9 1.1 2.9 1.7.5.3.8.2 1.3 0 1.8-.7 2.3-1.5 2.3-3.5 0-.8.2-1.7.4-2.5.1-.6 0-1-.5-1.4-1-.7-2-.9-3.1-.5-.9.3-1.8.6-2.7.7s-1.7-.2-2.5.4c-.2.2-.5.7-.6 1.1-.2.1-.5.4.6 2.1z"/><path fill="none" stroke="#823733" stroke-width=".5" stroke-miterlimit="10" d="M-1.4-364.9c0-.3-.2-.4-.4-.4-2.2-.6-3.4-2.4-4.8-3.9-2.6-2.9-5.6-5.2-9.5-6.2-.8-.2-1.6-.2-2.4-.1-.4.1-.8.4-.9.8-.3 1.4.2 2.1 1.9 2.5 1.6.4 3.1.8 4.7 1.2 1.9.5 3.4 1.7 4.6 3.3.3.4.6.9 1 1.4.1.1.3.2.3.4.1 1.6.7 3.1.8 4.7 0 .6.4 1.4.1 2.1"/><path fill="none" stroke="#823733" stroke-width=".5" stroke-miterlimit="10" d="M-3.7-363.6c.1 0 .3-.6.6-.8.8-.6 1.6-.3 2.5-.4s1.8-.4 2.7-.7c1.1-.4 2.2-.2 3.1.5.5.3.6.8.5 1.4-.2.8-.4 1.7-.4 2.5 0 2-.4 2.7-2.3 3.5-.5.2-.8.2-1.3 0-.9-.6-1.9-1.1-2.9-1.7l-.2-.1c-.8-.4-1.3-1.2-1.7-1.8-.5-.9-1.3-1.5-.5-2.6"/><path fill="none" stroke="#823733" stroke-width=".5" stroke-miterlimit="10" d="M-6.9-364.5c-.5.5-.5 1.1-.4 1.6.1.8.3 1.7.5 2.5.3 1 1.2 1.5 1.7 2.3 1.1 1.6 2.7 2.5 4.6 3 1.3.3 2.3-.2 3.4-.6.8-.2 1.4-.9 2.2-1.3.7-.3.8-.9.7-1.5 0-.6.2-1.6-.5-2.1"/><path fill="none" stroke="#C19962" stroke-width=".5" stroke-miterlimit="10" d="M2-363.9c1.2.6 1.2.6.9 1.8-.2.6-.4 1.2-.2 1.9"/><g opacity=".8" fill="#FFF"><path d="M12.6 79.5c0-2.1 4.4-3.7 6.2-3.7 1.8 0 4.8-.8 4.8 1.2s-3 6.2-4.8 6.2c-1.8.1-6.2-1.6-6.2-3.7z"/><path d="M11.3 79.6c0-.1-.2-.1-.2-.1 0 .1.3.1.2.1zm.8 1c-.1 0 .2.1.2 0h-.2zm.5.7c.2-.3-.2-.2-.2-.4l.1-.1-.3.1c0 .2.3.2.4.4zm-.3.9c.1-.1.2 0 0-.1-.1 0-.1 0 0 .1-.1-.1-.1-.1 0 0zm-.1-.1c-.1 0 0 .1 0 0zm.4.2h-.2v.2c.1.1.1 0 .2-.2zm.3-.1c-.1 0-.1.1 0 0zm-.3 0h.2c0-.1.1-.1-.1 0 .1-.1 0 0-.1 0zm0-.1c0-.1 0-.2.2-.2-.3-.1-.4.1-.2.2zm.3-1V81h-.1c0-.1 0 .1.1.1zM13 83c.1-.1.1-.2.1-.3H13c.1.1.1.2 0 .3zm.2-.3h.2c-.1-.1-.2-.1-.2 0zm-.1-.8l-.3.1.4-.1zm.3 1.3l-.1.1.2-.1zm.3.2c-.1.1-.1.3-.2.3.1 0 .2-.1.3-.1 0 0-.1-.1-.1-.2zm.4.1s-.1.1-.2.1c0-.1.1-.1.2-.1zm-.6-.7s-.1.2 0 .2v-.2zm.1 0s0 .1 0 0c0 .1 0 0 0 0zm-.1 0s0-.1 0 0zm-.2-.5c.1-.1.3-.1.3-.3-.1 0-.1.2-.3.3zm.3.2l-.1-.1s-.1.1-.1.2l.2-.1zm.1 0h-.1zm.3.7c.1-.1.2 0 .2 0 0-.1-.1-.1-.2-.2 0 0-.1.1 0 .2zm-.2-.2c0-.1 0-.1 0 0zm1 .4zm-.7-.5c0-.1-.1 0-.1 0 0 .1 0 .1.1 0 0 .1 0 0 0 0zm.2.6v-.2c-.1.1-.1.2 0 .2zm-.5-.5c0 .1 0 .1 0 0zm0 0s.1 0 .1-.1c0 .1-.1.1-.1.1zm1.8-.8c-.1.2-.3.3-.3.1-.2.1-.4.7-.5 1.1 0-.1.1-.2.2-.2 0-.1-.1-.4.1-.5.2 0 .1.1.1.3.1-.3.3-.3.5-.6l-.2.1c0-.1.1-.2.1-.3zm-1 1.1v.3c.1-.1.2-.1.2-.2l-.2-.1z"/><path d="M14.3 83.2c.1-.2.3-.2.3-.5-.1-.1-.2.1-.3.2.3 0 0 .1 0 .3h-.1s0 .1.1.2v-.2c.1.1 0 0 0 0l-.1.1h.3c0-.1-.1-.1-.2-.1zm-.3-1.6zm0 .2s-.1.1-.1 0 .1-.1.1-.1c-.1 0-.2.1-.2.2s0 .4-.1.4c.1-.2.2-.3.3-.5zm.2.6h.2v-.2l-.1.1c0-.1-.1.1-.1.1zm.5 1.2l-.1.2.3-.3zm.3 0l-.1.2.1-.1zm7.2-6.5c-.1 0-.1 0 0 0zm0 .1l.1-.1c0 .1-.1.1-.1.1zm-.6 6.1c.2.1.5.2.3.1l-.2-.1h-.1zm1.3-4.1s0 .1.1.1l-.1-.1zm-.8-.4h.2-.2zm-.8-1.6v.2c.1 0 0-.1 0-.2zm-3.8 7.2c.1.1.1.2.2.2-.1-.2-.2-.4-.2-.2zm6.8-9h-.2c.1.1.1.1.2 0zm-6.4 9.2c-.1 0-.1 0 0 0h-.2c0 .1.1.2.2 0zm-3-6.1zm-3.1 0v-.1.1zm4.1 5.6c-.1 0 0 0 0 0zm.1-.9s0-.1 0 0c0-.1 0 0 0 0zm2.6.1c0-.1 0-.1 0 0zm-2.7.7s0 .1 0 0c0 .1 0 0 0 0zm-.1.1zm.2 0c-.1 0-.1 0 0 0-.1 0-.1 0 0 0-.1 0-.1 0 0 0zm2-7.5c0 .1 0 .1 0 0zm2.8 4.1zm-.1-.2c.2.2.1.2 0 .2l.5.4-.5-.6z"/><path d="M21.8 77l-.1.2c-.2.3-.1.2-.3.5.4-.7.1-.1.6-.7l-.1.1c-.2.3.4-.4.4-.3 0 .1-.1.2-.2.2l.2-.1-.1.1h.1c.1-.1.3-.1.4-.2-.1.1-.1 0-.2.1h.2c-.2.1-.4.2-.4.1-.7.5.2 0-.2.3H22c-.4.2-.3.2-.5.3.1 0 .7-.3.9-.3-.1 0-.1.1.1.1-.3.1-.2.1-.2.1l-.4.1h.4c0 .1-.3.1-.6.1-.1 0 .5-.1.5 0-.2.1 0 .1.2.2h-.3l.3.1h-.1c.1.1.3.1.4.2.4.1-.6 0-.2.3-.1 0-.2-.1-.3-.1.2.3.1.2.4.5h-.3c.3 0 .5.3.6.5h.3l.1.3c-.1 0-.2-.1-.3-.2l.1.1c-.1 0-.3-.1-.4-.2h.2c-.2-.1-.3-.3-.5-.4 0 0 0 .1.1.1l-.1-.1.1.1-.5-.2.1.1h-.3c.2.3.7.7.6 1.1-.2-.2-.4-.3-.6-.4.3.1 0-.3.1-.3-.1 0-.2 0-.2-.1l.1.4c-.2-.1-.2-.1-.3-.1.5.2.2.3.3.5-.2-.1-.3-.2-.2-.3-.4-.1.4.5.1.4v-.1c.1.1-.1.2-.2.1-.2.1-.4.5 0 .8 0 0-.4-.4-.5-.4 0 0 .2.3.5.6.2.3.5.6.5.6-.3-.3-1-.8-1.1-1-.1 0-.2 0-.1.2.1 0 .5.3.5.4-.4-.2-.2-.1-.6-.2.1 0 .5.5.4.5l-.5-.5.3.5c0-.1-.4-.4-.5-.4.1.1-.1.1-.1.2h.2c-.2.1.4.8.2.9-.1-.1-.5-.6-.6-.6.2.3.8 1.3.7 1.6l-.1-.1v.3c-.2-.5-.5-1.4-.7-1.7-.1-.1-.1-.1-.2-.1-.1-.1-.1-.2-.1-.3l-.2.1c.2.3.1.4.2.6v-.4c.2.3.5.9.3 1-.1-.1-.3-.5-.4-.6.1.1 0 .3-.1.2v-.2c-.1-.1.1.5-.1.2 0 0-.2-.4-.2-.2.2.4.7 1.5.8 1.8 0 0-.5-.2-.5-.4-.1-.3-.1-.8-.2-1v.3c-.1-.1-.1-.3-.1-.2.1.4-.1 0 0 .3-.1.1-.1-.1-.2 0 .1.2-.1.8-.2.9v-.3c-.2 0-.3-.2-.5-.3 0-.1-.1-.2 0-.4 0 .1-.1.2-.2.2-.1-.3.1 0 .1-.4 0 .2-.2.2-.3.4 0 .3.2.1.3 0-.1.4-.3.9-.6 1-.2.1 0-.3-.1-.2-.3-.2-.5.7-.7.3 0-.3.2-.5.2-.7.2-.1.2.2.3.3l-.3-.7c.1-.1.2-.1.2 0 0-.3-.5-.2-.7-.5-.1.1-.2.1-.2.3h.1c0 .2-.3.2-.2.4-.2.1-.4.3-.5.1l.1-.3c0 .1 0 .2.1.1-.1.1-.1-.5-.3-.1v.3c-.2.1-.4.4-.5.2-.1.3 0 0 0 .4.1-.5.3.2.4-.3-.1.4.1.2.1.6 0-.1 0-.2.1-.1 0 0 0-.1.1-.1v-.2c.1-.2.3-.1.4-.2.1.1-.1.1-.1.2l.2-.1c-.1.2.1.4-.2.5l.1.1c0 .2.2.2.3.2.1.1.3-.2.1 0l.3-.1v.1c.2.1.6-.3.8.2.1 0 .2-.1.3 0v.2c.1 0 .4.2.5 0 .1.3.3.3.5.2.2-.1.4-.2.6-.2l-.1-.3c.2-.1.4-.2.5-.4l.1-.3c0-.3.5 0 .6-.2 0 .1 0 .1-.1.1.6.3.3-.7.7-.5 0-.1 0-.1.1-.1h.1-.1s.1-.1.1-.2l.2.2c.1 0 0-.1-.2-.2v-.2c.3.3 0-.2.4 0-.1-.2.1-.4-.2-.7 0 0 .1 0 .1.1.1 0 .2 0 .1-.2l.3.2-.2-.4c.2.1.3.1.5.3-.1-.4 0-.2-.2-.6l.2.1c0-.1-.1-.3 0-.2.4.1.5-.6 1-.7-.6-.3.3 0-.1-.3.1.1.2 0 .3.2 0-.3.4-.2.1-.5.1 0 .2.1.2.2 0 0-.1-.1 0-.1s.1.1.1.1c.1-.2-.3-.4-.7-.6.2 0 .2-.1 0-.3.1 0 .3 0 .3.2 0-.1.4-.3.1-.5.1 0 .1-.1 0-.1.1-.1.1-.1.1-.3h-.1c-.4-.2 0-.2 0-.3.4-.3-.1-.2.3-.5h-.3c-.5-.1.4-.3.2-.5l-.2.1c-.2-.1.8-.4.8-.6 0 0 .1 0 .1.1.3-.4-.3 0-.4-.2.2-.1.5-.1.4-.2.1-.2-.6-.3-.4-.6-.1.1-.2.2-.3.2-.1-.1.2-.7-.2-.5 0 0 0-.1.1-.1-.2 0-.4-.2-.7 0 .2-.4 0-.4-.2-.4s-.4.1-.2-.3l-.4-.1v-.1c-.3-.1-.4.1-.5.3v-.2c-.3-.2-.4-.2-.7.3v-.3c-.1.2-.4-.4-.7-.1v-.1c-.3.3-.8-.7-.8.3l-.2.2c.3.1 0 .4.1.6-.1.1-.3-.3-.2-.3 0-.5-.3-.2-.3-.5-.3 0-.4 0-.7-.1-.3-.1-.6-.1-.8-.1l.1.4h-.2c-.1-.1-.1-.3 0-.3-.1-.2-.2.2-.2.3-.3-.1 0-.5-.1-.5h-.1c-.1.2 0 .3-.2.4-.1-.1-.1-.2-.1-.2h-.3l.2.3c-.1.2-.2 0 0 .3-.3-.5-.8 0-1-.1-.1.3-.2.3-.3.3.1 0 .2.4.1.4-.2-.7-.3-.2-.7-.6.2.3-.3.2 0 .6-.1 0-.1-.2-.3-.4-.1.4-.7.1-.9.4 0 .1.2.2.2.3l-.4-.3c0 .1.2.5-.1.3.1.1.1.1.1.2-.4 0-.7.3-.9.6-.3.3-.5.6-1.1.8.2 0 .2 0 .2.1.1 0 .2.1.3.1l-.5.2c.3.1-.1.5.3.5v-.1c.4.2.9-.1 1.4.1-.2-.1 0-.1.1-.1.2 0 .3 0 0-.2.1 0 .1.1.2.1-.2-.1-.2-.2-.1-.2.1-.2.3-.2.6-.2l-.2-.2c.1 0 .1 0 .2.1-.2-.3-.1.1-.4-.3.4.3.4-.3.8.1.1-.1-.2-.2-.1-.3l.1.1-.1-.2c.1 0 .2.1.3.2v.1c.2.1.2-.2.2-.1h-.1c.2-.3.6-.3.7-.7l-.1-.1c.1-.3.2 0 .4-.1 0-.1 0-.2.1-.2 0 .2.2.2.2.4.1-.3 0-.2.1-.7l.1.2c0-.2 0-.3.1-.4 0 .2.2.3.1.5.4.3.3-.5.5 0 0-.6-.3-.2-.3-.4-.1-.2 0-.4.1-.4s.3.6.5.6c.1.1.1-.2.2 0 0-.3.1 0 .1-.4l-.2.1c.1-.1.1-.6.3-.4 0 .1 0 .2-.1.3.1.1.1-.1.2 0 .1.4-.2.1-.3.5.1.2.2-.3.2.1 0-.6.2 0 .3-.4v.2s0-.2.1-.2v.3c.1-.3.2.2.3.1-.2 0-.1-.3-.2-.5.1-.2.2 0 .2.2.1.2 0 .4.3.3-.1 0-.2-.1-.1-.3.1 0 .2.1.2.3.3-.1-.1-.3.1-.4.1.3.1-.1.2-.2v.3c.3.1 0-.5.3-.4l.4 1 .1-.1v.3c.1-.2.2-.2.3-.1 0-.2 0-.5.1-.5.1.1 0 .2.1.2 0 .2 0 .4-.1.1v.2c.1.2.2 0 .3 0 0 0-.1 0-.1-.1l.2-.4v.2l.1-.2c0 .2 0 .4-.1.5l.2-.2c0 .1.1.2.1.3.1.1.3-.4.4-.3 0 0 0-.1.1-.1s.1.3.2 0l-.1.4c.1-.1.1-.5.2-.6.1-.1-.1.3-.1.4.2 0 .5-.3.3 0 0 .1 0 0 0 0zm.6.4s-.2 0 0 0c.2-.2.1-.1 0 0zm0 1.9c-.1-.1 0-.1 0 0 .1-.1.1-.1 0 0zm-5.9 4.8c.1.1.1.1 0 0zm-.1-.1s-.1 0 0 0 .1-.1 0 0zm.7-8.9c0 .1 0 .1 0 0z"/><path d="M22.2 78.8h.1c0 .1 0 0-.1 0zm-.8-1.7h-.1v.1zM19 82.3s0 .1.1.1l-.1-.1zM15.3 84h.1c-.1 0-.1-.1-.1-.1.1 0 .1.1 0 .1zm-.2-1.8l-.1.1c.1 0 .1 0 .1-.1zm.5 1c.1-.2 0-.2-.1-.2-.2.3-.1.3.1.2zm-.2-.2c-.1.1 0 .1 0 0zm.7 1c0-.1-.1.2-.1.2-.1.2.4-.2.1-.2zm-.3-1.5l-.1.3.1-.2zm.4.4l-.1-.1s0 .1-.1.1c.2 0 .2.1.2 0zm-.1 0H16h.1zm-.1-.4v.1zm1.5.9h.1v-.1c-.1 0-.1 0-.1.1zm-.2-.8v.2l.1-.3-.1.1zm.3 0c0-.1.2-.2.1-.2 0 0-.1.1-.1.2zm1.8.5h-.1l.2.5zm.4-1.9c-.2 0 .2.3 0 .2.1.1.2 0 .2.1 0-.1.1-.1-.2-.3zm.2.4s.1 0 0 0c.1 0 .1 0 0 0zM11.4 79l-.2.2.2-.1zm.3.4h-.3l.3.1s-.1-.1 0-.1zm10-1.7c.2 0 .2-.1.2-.1l-.2.1zm.1-.4l.3-.2zm-.3.4s0-.1 0 0c0 0 .1-.4 0 0z"/></g><path fill="none" d="M0 60h40v40H0z"/></svg>