<svg xmlns="http://www.w3.org/2000/svg" viewBox="0 60 40 40"><path fill="#FFF" d="M9.6 79.6c0-3.8 8.1-6.7 11.5-6.7s8.8-1.5 8.8 2.3-5.5 11.4-8.8 11.4-11.5-3.2-11.5-7z"/><g fill="#FFF"><path d="M7.3 79.7c0-.1-.4-.1-.5-.1.1.2.6.1.5.1zm1.3 1.8h-.2s.5.1.5 0c.1.1-.3 0-.3 0zm.9 1.4c.4-.5-.4-.3-.4-.7l.1-.2-.5.2c.1.1.3.2.5.4.2 0 .3.1.3.3zM9 84.5c.1-.2.3 0-.1-.2v.1s.1 0 .1.1zm-.1-.1c-.1-.1-.1.2 0 0zm.7.4h-.3c-.1.1.1.3-.1.4.3 0 .3-.1.4-.4zm.5-.2H10c-.1 0-.1.1.1 0zm-.5 0h.3c0-.1.2-.3-.1 0 .1-.2 0-.1-.2 0zm0-.2c0-.2 0-.4.3-.4-.4-.2-.7.2-.3.4zm.5-2l.1-.2-.3.1c.1-.1.1.3.2.1zm.3 3.5c.1-.1.2-.4.3-.5h-.2c0 .2.1.3-.1.5zm.3-.5l.3-.1c-.1-.1-.2 0-.3.1zm-.1-1.4l-.6.1h.3c.2 0 .4-.1.3-.1zm.6 2.4l-.3.2.4-.3zm.5.3c-.2.2-.1.5-.3.6.2 0 .4-.1.6-.2-.2 0-.3-.1-.3-.4zm.6.1c-.1 0-.2.1-.3.2.1 0 .2-.1.3-.2zm-1-1.2c0 .1-.1.3-.1.4l.1-.4c.1 0 0 0 0 0zm.1 0l.1.1-.1-.1zm-.1 0s0-.1 0 0zm-.5-1c.2-.1.6-.1.6-.6-.2.2-.2.5-.6.6zm.7.5l-.1-.2c-.1.1-.1.2-.2.3l.3-.1z"/><path d="M11.7 85l-.2.1v.1zm.5 1.3c.2-.1.3-.1.4 0l-.3-.3c-.1.1-.3.2-.1.3zm-.4-.3c0-.1 0-.1 0 0zm1.8.8zm-1.3-.9c0-.1-.1-.1-.3 0h.3zm.4.9v-.3c-.1.2-.1.4 0 .3zm-.9-.7c0 .1 0 0 0 0zm0 0c.1 0 .2-.1.2-.1-.1 0-.1 0-.2.1 0-.1 0-.1 0 0zm3.2-1.5c-.2.3-.5.6-.5.1-.3.2-.8 1.3-.9 2.1.1-.1.1-.3.4-.4 0-.2-.2-.6.1-.9.3-.1.1.2.2.5.1-.5.6-.5.8-1.1l-.3.1c.1-.2.3-.3.2-.4z"/><path d="M13.3 86.5h-.1c.1.1.1.3.1.6.2-.1.3-.2.4-.3l-.4-.3zm-.5-.2c.3-.3.5-.4.6-.8-.2-.1-.3.2-.5.3.4.1-.2.1-.1.5-.1 0-.2 0-.2-.1 0 .1.1.2.1.3 0-.1 0-.1 0 0 0-.1.1-.1.1-.2.1.1 0 .1-.1.1v.1h.5c-.1-.1-.2-.1-.4-.2zm-.7-2.8s.1 0 0 0zm0 .3c-.1 0-.2.2-.2.1 0-.2.1-.2.2-.3-.1.1-.3.1-.3.4h.1c0 .2-.1.8-.1.8.1-.4.2-.7.3-1zm.4 1.2h.4v-.4l-.1.2c-.1-.2-.2 0-.3.2zm1 2l-.2.4.5-.5zm.5.2l-.2.3.2-.1zm13.1-12H27h.1zm.2.2l.2-.1c-.1 0-.2.1-.2.1zm-1.2 11.1c.4.2.9.4.6.1l-.3-.3c-.1.2-.2.3-.3.2zm2.5-7.4h-.1l.3.3c-.1-.1-.2-.2-.2-.3zm-1.5-.8h.3c-.1-.1-.2-.1-.3 0zm-1.5-3l-.1.4c.2.1.1-.2.1-.4zm-7 13.3c.1.2.2.3.3.3-.2-.3-.2-.7-.3-.3zM31 72.2c-.1 0-.2 0-.3.1.1-.1.2-.1.3-.1zM19.3 89s0-.1-.1-.1-.2.1-.3 0c0 .2.2.3.4.1zm-5.5-11.3zm-5.6.1c0-.1 0-.2.1-.2-.1 0-.1 0-.1.2zm7.5 10.3c-.1-.1-.1 0 0 0zm.1-1.8s.1-.1.1-.2c0 .2-.1.2-.1.2zm4.8.2c-.1-.1 0-.1 0 0zm-5 1.3c0 .1 0 .1.1.2 0-.1-.1-.1-.1-.2zm-.1.2c-.1 0-.1.1 0 0zm.3.1c-.1 0-.1-.1-.1-.1v.1h.1zm3.7-13.8c-.1.2 0 .1 0 0zm5.1 7.6zm-.1-.5c.3.4.2.4.1.4l1 .7-1.1-1.1z"/><path d="M26.5 75s0 .1-.1.2c0 .1-.1.2-.1.2-.4.6-.3.4-.5.9.3-.6.4-.7.4-.7.1 0 .1 0 .6-.6l-.2.3s-.1.1-.1 0c-.4.6.8-.8.8-.5 0 .1-.2.3-.3.4 0 0 .1 0 .2-.1.1 0 .2-.1.2-.1l-.2.2.2.1c.2-.1.6-.3.7-.3-.1.1-.1 0-.2.1h.4c-.3.2-.7.3-.7.2-.7.4-.6.4-.4.3s.4-.1 0 .1H27c-.8.4-.5.3-1 .5.3 0 1.2-.6 1.6-.6-.1.1-.2.1.1.1-.5.2-.4.2-.4.2l-.7.1c.2 0 .5-.1.8-.1-.1.1-.6.2-1 .2-.1.1.8-.1.9 0-.3.1 0 .2.3.4-.2 0-.4-.1-.6-.1 0 0 .1 0 .2.1.1 0 .2.1.2.1h-.2c.2.1.6.1.7.3.6.2-1 0-.4.5-.2 0-.3-.2-.6-.2.3.5.2.4.7 1h-.5c.5 0 .9.5 1.2.9.2 0 .4.1.5.1l.1.5c-.1 0-.3-.1-.5-.3l.1.1c-.3 0-.5-.2-.8-.5.1 0 .3 0 .4.1-.3-.2-.6-.5-1-.6.1.1.1.1.1.2-.1-.1-.2-.1-.2-.1-.1 0 0 .1.2.2l-.6-.2.2.1-.6.2c.5.6 1.2 1.4 1.2 2-.4-.4-.7-.5-1.2-.8.6.2 0-.5.2-.6-.1.1-.4-.1-.4-.2 0 0 .1.2.1.3.1.2.1.3.1.3-.4-.3-.4-.1-.6-.1.9.4.4.6.5 1-.3-.2-.5-.4-.3-.5-.7-.2.8.9.1.8 0-.1.1 0 0-.2.2.3-.2.4-.4.2-.3.2-.7.9-.1 1.4-.1-.1-.7-.7-.9-.8 0 0 .4.6.9 1.1l.8 1.2c-.5-.5-1.9-1.4-2-1.9-.1 0-.3 0-.2.3.1 0 .9.6.9.7-.7-.3-.4-.2-1.1-.4.2 0 .9.9.8.9-.1-.1-.8-.7-.9-.8 0 0 .1.2.3.5.1.2.3.5.3.5-.1-.2-.7-.6-.9-.8.2.1-.2.2-.2.3l.3.1c-.4.1.8 1.4.4 1.6-.1-.2-.8-1.1-1.1-1.1.3.5 1.4 2.3 1.3 2.9l-.3-.2-.1.5c-.3-.8-1-2.5-1.3-3.2-.3-.1-.3-.3-.4-.1-.2-.2-.2-.4-.2-.5l-.4.1c.4.5.1.7.4 1.1v-.8c.4.5.9 1.6.5 1.8-.2-.2-.6-1-.7-1.2.1.2 0 .5-.1.4l-.1-.4c-.2-.2.2.9-.2.4-.1 0-.5-.7-.3-.4.3.7 1.3 2.7 1.4 3.3-.1 0-.8-.5-1-.8-.3-.5-.2-1.4-.4-1.8 0 .2.1.4 0 .5-.1-.1-.1-.5-.2-.4.1.7-.3 0 0 .6-.1.2-.2-.1-.3-.1.1.4-.1 1.4-.4 1.6v-.5c-.4-.1-.6-.4-.9-.5 0-.2-.1-.4 0-.7-.1.1-.2.3-.3.3-.1-.6.3 0 .2-.7-.1.4-.4.5-.6.7-.1.6.4.2.5 0-.1.8-.6 1.6-1.1 1.8-.4.1 0-.5-.1-.5-.6-.3-.9 1.2-1.3.5 0-.6.3-1 .4-1.4.3-.1.3.4.5.5l-.1-.3c.1-.1.3-.2.4-.1 0-.5-1-.4-1.3-.9-.1.1-.3.3-.3.5h.2c0 .4-.5.4-.3.7-.3.2-.7.6-.9.2l.2-.6c-.1.2 0 .4.2.3-.2.2-.1-.9-.5-.2v.5c-.3.2-.8.7-1 .4-.1.6.1 0 0 .7.2-.8.6.3.7-.6-.1.8.2.4.2 1.2.1-.2 0-.4.2-.2l.1-.1v-.3c.3-.4.6-.2.8-.4.1.1-.1.2-.1.4l.3-.3c-.1.4.1.8-.3.9l.3.1c.1.3.3.4.5.3.1.1.5-.4.3-.1l.5-.1v.1c.4.2 1.1-.5 1.4.4.2-.1.4-.2.6 0v.4c.2-.1.6.4.8.1.1.3.2.4.4.5.2.1.4 0 .6 0 .4-.1.8-.3 1.1-.3l-.1-.5c.3-.1.7-.3.9-.7l-.2-.4c.1-.2.3-.3.5-.3.3 0 .5 0 .7-.1.1.2 0 .2-.2.1.5.3.6-.1.7-.4.1-.3.1-.7.5-.6 0-.2.1-.2.2-.2s.2.1.3.1c-.1 0-.2-.1-.3-.1.1-.1.1-.2.1-.4l.4.3c.2 0-.1-.2-.4-.4 0-.1 0-.2-.1-.3.6.5 0-.4.7.1-.2-.3.2-.7-.3-1.3l.1.1c.2 0 .3-.1.2-.3l.5.3-.4-.7c.4.1.6.2.8.6-.3-.8 0-.4-.3-1.2l.3.3c.1-.1-.2-.6.1-.4.8.2.9-1.1 1.9-1.3-1-.5.6 0-.1-.5.3.1.4.1.6.3 0-.5.7-.3.1-.9.3.1.3.3.5.3 0-.1-.1-.2 0-.2.2 0 .2.2.2.3.2-.4-.5-.8-1.2-1.2.4 0 .4-.1 0-.5.3.1.5.1.5.3.1-.1.7-.6.1-.9.2 0 .1-.2.1-.2.2-.3.2-.3.3-.6h-.1c-.6-.4-.1-.3-.1-.6h.1c.7-.5-.2-.3.6-.8H30c-.5-.1-.3-.2-.1-.3.3-.2.6-.4.4-.6l.4-.1c-.3-.1 1.4-.7 1.5-1 .1-.1.1.1.2.1.6-.8-.6 0-.7-.4.3-.2.8-.1.8-.5.1-.1-.2-.3-.5-.5-.2-.2-.5-.3-.3-.7-.2.2-.4.4-.6.3-.1-.1 0-.4 0-.7 0-.3-.1-.5-.5-.3 0-.1.1-.1.1-.2-.2 0-.4-.1-.6-.1s-.5 0-.6.1c.5-.7 0-.7-.4-.7s-.8.2-.4-.5l-.8-.1.1-.1c-.5-.2-.7.2-1 .5-.1-.1 0-.2 0-.3-.6-.3-.8-.3-1.3.5V71c-.1.3-.8-.7-1.3-.1v-.2c-.5.6-1.4-1.2-1.5.5l-.3.5c.5.1 0 .8.2 1-.2.1-.5-.5-.3-.6v.1c0-.9-.6-.3-.6-.9h-.6l-.3-.1-.4-.1c-.5-.1-1-.1-1.5-.1l.2.7H19c-.1-.1-.2-.5 0-.5-.2-.4-.3.4-.3.6-.5-.2 0-.8-.1-.8h-.2l.1.1c-.1.3 0 .6-.3.6-.2-.1-.2-.4-.3-.4 0 0 0-.1-.1 0h-.4l.3.5c-.1.3-.4.1 0 .6-.5-.9-1.5.1-1.8-.1-.1.5-.3.5-.6.6.1.1.4.7.1.7-.4-1.2-.6-.3-1.2-1.1.4.5-.6.5 0 1.1-.2 0-.2-.4-.5-.6-.3.7-1.2.2-1.7.7.1.2.3.3.3.6l-.7-.5c-.1.1.4.9-.1.5.1.1.3.3.2.3-.8 0-1.2.6-1.7 1.1-.2.3-.5.6-.8.8-.3.3-.7.5-1.3.7.4-.1.4.1.3.3.1-.1.4.2.6.3l-.9.4c.5.3-.1.9.5 1V79c.3.2.7.1 1.2.1.4 0 .9 0 1.3.1-.4-.2 0-.2.2-.2.3 0 .5 0 .1-.4.2 0 .2.2.4.3-.3-.2-.3-.4-.1-.4l.1.1c.2-.4.6-.3 1.2-.4l-.3-.3c.1 0 .2.1.3.1-.3-.6-.3.2-.7-.5.7.6.7-.5 1.4.3.2-.1-.3-.4-.2-.5l.2.2-.2-.3c.1 0 .4.3.5.5 0 0 0 .1-.1.1.3.2.3-.3.4-.3l-.1-.1c.3-.5 1.1-.5 1.3-1.2l-.1-.2c.2-.5.4.1.8-.3v.1c0-.2.1-.4.2-.4 0 .3.4.4.3.7.3-.6.1-.4.1-1.3l.2.3c0-.3-.1-.5.1-.7-.1.4.3.5.2.9.7.6.5-1 1 .1-.1-1-.6-.4-.5-.6-.2-.3 0-.8.2-.7.2 0 .6 1.2 1 1 0 0 0 .1-.1.1.2.2.2-.4.5 0 0-.6.2 0 .1-.8l-.3.2c.1-.2.2-1.1.6-.8 0 .2-.1.4-.1.5.1.2.2-.2.3 0 .1.8-.4.2-.5.9.2.3.3-.6.3.2 0-1.1.4.1.5-.8v.5c0-.1.1-.3.1-.3v.6c.1-.5.4.4.5.1-.3 0-.1-.6-.3-.9.2-.3.3 0 .4.3.1.3.1.7.5.6-.1.1-.4-.3-.2-.5.1.1.3.3.4.5.5-.1-.1-.5.1-.8.2.6.2-.2.4-.4v.5c.5.3.1-1 .6-.6l-.1.7.2-.2v.5c.2-.4.3-.3.6-.2-.1-.3 0-.8.2-.9.2.3 0 .4.3.4 0 .3-.1.7-.3.3v.4c.2.3.4 0 .5 0 0 0-.1 0-.1-.1l.4-.7c.1.2 0 .3 0 .5.1-.1.1-.3.2-.3 0 .4 0 .8-.1 1l.4-.5c0 .2.2.4.2.6.2.2.5-.8.8-.5 0-.1 0-.1.1-.2.2.1.2.5.4 0v.3c0 .2-.1.3-.1.3.1-.1.1-.9.3-1.1.2-.2-.1.6-.2.8.1-.3.6-1 .4-.4-.2.2-.1.1-.2.1zm1.1.7c-.1 0-.4.1-.1 0 .5-.3.3-.1.1 0zm0 3.4c-.1-.1 0-.1.2-.1 0 .1-.1.1-.2.1zM16.8 88c.1.2.1.2 0 0zm-.2-.2c-.1.1-.1.1-.1.2.1-.1.1-.1.2 0 0-.2 0-.3-.1-.2zm1.3-16.3l.1.1c-.1.1-.1 0-.1-.1z"/><path d="M27.3 78.4c.1 0 .2.1.2.1-.1-.1-.2-.1-.2-.1zm-1.6-3.1v-.1l-.1.1zm-4.4 9.3c0 .1.1.1.1.2 0-.1-.1-.2-.1-.2zm-6.7 3.3h.2c-.1 0-.1-.1-.1-.2 0 0 0 .2-.1.2zm-.4-3.4h-.1l-.1.2c.1.1.3 0 .2-.2zm.8 1.9c.1-.4 0-.3-.2-.3-.2.5 0 .4.2.3zm-.2-.3h-.1c-.1.1 0 0 .1 0zm1.3 1.8c0-.1-.2.5-.2.3-.3.4.6-.4.2-.3zm-.7-2.8l-.1.5.2-.3zm.9.8l-.2-.2c0 .1-.1.1-.1.1.2.1.3.2.3.1zm-.3-.1h-.2.2zm-.2-.7v.1l.1.1zm2.7 1.6l.3-.1c.1-.2 0-.3-.1-.2-.1.1-.2.1-.2.3zm-.3-1.5v.4l.2-.6-.2.2zm.7 0c.1-.2.4-.4.1-.4-.1.2-.3.3-.1.4zm3.1.9h-.1l.4 1zm.9-3.4c-.3 0 .4.5 0 .4.1.2.3.1.4.3-.1-.3 0-.3-.4-.7zm.4.7zm-16-4.7l-.2.3.4-.2zm.7.6h-.6s.1.1.3.1c.1 0 .3.1.3.1-.1 0-.2-.1 0-.2zm18.3-3.1h.2c.2 0 .2-.1.2-.1l-.4.1zm.3-.6l.4-.4zm-.7.6s0-.1 0 0c0 0 .2-.7 0 0z"/></g><path fill="#6A3906" d="M22.3 84.8c-2.9 0-10.2-4.1-10.2-7 0-2.9 7.3-3.4 10.2-3.4s5.2 2.3 5.2 5.2-2.4 5.2-5.2 5.2z"/><path fill="none" d="M0 60h40v40H0z"/></svg>