<?xml version="1.0" encoding="utf-8"?>
<!-- Generator: Adobe Illustrator 18.0.0, SVG Export Plug-In . SVG Version: 6.00 Build 0)  -->
<!DOCTYPE svg PUBLIC "-//W3C//DTD SVG 1.1//EN" "http://www.w3.org/Graphics/SVG/1.1/DTD/svg11.dtd">
<svg version="1.1" id="圖層_1" xmlns="http://www.w3.org/2000/svg" xmlns:xlink="http://www.w3.org/1999/xlink" x="0px" y="0px"
	 viewBox="0 60 40 40" enable-background="new 0 60 40 40" xml:space="preserve">
<g>
	<g>
		<g>
			<path fill="#FFFFFF" d="M9.6,79.6c0-3.8,8.1-6.7,11.5-6.7s8.8-1.5,8.8,2.3c0,3.8-5.5,11.4-8.8,11.4S9.6,83.4,9.6,79.6z"/>
			<g>
				<g>
					<g>
						<g>
							<path fill="#FFFFFF" d="M7.3,79.7c0-0.1-0.4-0.1-0.5-0.1C6.9,79.8,7.4,79.7,7.3,79.7z"/>
							<path fill="#FFFFFF" d="M8.6,81.5H8.4c0,0,0.5,0.1,0.5,0C9,81.6,8.6,81.5,8.6,81.5z"/>
							<path fill="#FFFFFF" d="M9.5,82.9c0.4-0.5-0.4-0.3-0.4-0.7L9.2,82l-0.5,0.2c0.1,0.1,0.3,0.2,0.5,0.4
								C9.4,82.6,9.5,82.7,9.5,82.9z"/>
							<path fill="#FFFFFF" d="M9,84.5c0.1-0.2,0.3,0-0.1-0.2c0,0,0,0,0,0.1C8.9,84.4,9,84.4,9,84.5z"/>
							<path fill="#FFFFFF" d="M8.9,84.4C8.8,84.3,8.8,84.6,8.9,84.4L8.9,84.4z"/>
							<path fill="#FFFFFF" d="M9.6,84.8H9.3c-0.1,0.1,0.1,0.3-0.1,0.4C9.5,85.2,9.5,85.1,9.6,84.8z"/>
							<path fill="#FFFFFF" d="M10.1,84.6H10C9.9,84.6,9.9,84.7,10.1,84.6z"/>
							<path fill="#FFFFFF" d="M9.6,84.6h0.3c0-0.1,0.2-0.3-0.1,0C9.9,84.4,9.8,84.5,9.6,84.6z"/>
							<path fill="#FFFFFF" d="M9.6,84.4c0-0.2,0-0.4,0.3-0.4C9.5,83.8,9.2,84.2,9.6,84.4z"/>
							<path fill="#FFFFFF" d="M10.1,82.4l0.1-0.2l-0.3,0.1C10,82.2,10,82.6,10.1,82.4z"/>
							<path fill="#FFFFFF" d="M10.4,85.9c0.1-0.1,0.2-0.4,0.3-0.5h-0.2C10.5,85.6,10.6,85.7,10.4,85.9z"/>
							<path fill="#FFFFFF" d="M10.7,85.4l0.3-0.1C10.9,85.2,10.8,85.3,10.7,85.4z"/>
							<path fill="#FFFFFF" d="M10.6,84L10,84.1c0,0,0.2,0,0.3,0C10.5,84.1,10.7,84,10.6,84L10.6,84z"/>
							<polygon fill="#FFFFFF" points="11.2,86.4 10.9,86.6 11.3,86.3 							"/>
							<path fill="#FFFFFF" d="M11.7,86.7c-0.2,0.2-0.1,0.5-0.3,0.6c0.2,0,0.4-0.1,0.6-0.2C11.8,87.1,11.7,87,11.7,86.7z"/>
							<path fill="#FFFFFF" d="M12.3,86.8c-0.1,0-0.2,0.1-0.3,0.2C12.1,87,12.2,86.9,12.3,86.8z"/>
							<path fill="#FFFFFF" d="M11.3,85.6c0,0.1-0.1,0.3-0.1,0.4L11.3,85.6C11.4,85.6,11.3,85.6,11.3,85.6z"/>
							<path fill="#FFFFFF" d="M11.4,85.6L11.4,85.6c0.1,0.1,0.1,0.1,0.1,0.1S11.5,85.7,11.4,85.6z"/>
							<path fill="#FFFFFF" d="M11.3,85.6L11.3,85.6C11.3,85.6,11.3,85.5,11.3,85.6z"/>
							<path fill="#FFFFFF" d="M10.8,84.6c0.2-0.1,0.6-0.1,0.6-0.6C11.2,84.2,11.2,84.5,10.8,84.6z"/>
							<path fill="#FFFFFF" d="M11.5,85.1l-0.1-0.2c-0.1,0.1-0.1,0.2-0.2,0.3L11.5,85.1z"/>
							<polygon fill="#FFFFFF" points="11.7,85 11.5,85.1 11.5,85.2 							"/>
							<path fill="#FFFFFF" d="M12.2,86.3c0.2-0.1,0.3-0.1,0.4,0c-0.1-0.1-0.2-0.2-0.3-0.3C12.2,86.1,12,86.2,12.2,86.3z"/>
							<path fill="#FFFFFF" d="M11.8,86L11.8,86C11.8,85.9,11.8,85.9,11.8,86z"/>
							<path fill="#FFFFFF" d="M13.6,86.8L13.6,86.8L13.6,86.8L13.6,86.8z"/>
							<path fill="#FFFFFF" d="M12.3,85.9c0-0.1-0.1-0.1-0.3,0C12.1,85.9,12.2,85.9,12.3,85.9L12.3,85.9z"/>
							<path fill="#FFFFFF" d="M12.7,86.8c0-0.1,0-0.2,0-0.3C12.6,86.7,12.6,86.9,12.7,86.8z"/>
							<path fill="#FFFFFF" d="M11.8,86.1L11.8,86.1C11.8,86.2,11.8,86.1,11.8,86.1z"/>
							<path fill="#FFFFFF" d="M11.8,86.1c0.1,0,0.2-0.1,0.2-0.1C11.9,86,11.9,86,11.8,86.1C11.8,86,11.8,86,11.8,86.1z"/>
							<path fill="#FFFFFF" d="M15,84.6c-0.2,0.3-0.5,0.6-0.5,0.1c-0.3,0.2-0.8,1.3-0.9,2.1c0.1-0.1,0.1-0.3,0.4-0.4
								c0-0.2-0.2-0.6,0.1-0.9c0.3-0.1,0.1,0.2,0.2,0.5c0.1-0.5,0.6-0.5,0.8-1.1L14.8,85C14.9,84.8,15.1,84.7,15,84.6z"/>
							<path fill="#FFFFFF" d="M13.3,86.5h-0.1c0.1,0.1,0.1,0.3,0.1,0.6c0.2-0.1,0.3-0.2,0.4-0.3L13.3,86.5L13.3,86.5z"/>
							<path fill="#FFFFFF" d="M12.8,86.3c0.3-0.3,0.5-0.4,0.6-0.8c-0.2-0.1-0.3,0.2-0.5,0.3C13.3,85.9,12.7,85.9,12.8,86.3
								c-0.1,0-0.2,0-0.2-0.1c0,0.1,0.1,0.2,0.1,0.3l0,0l0,0l0,0c0-0.1,0-0.1,0,0l0,0C12.7,86.4,12.8,86.4,12.8,86.3
								c0.1,0.1,0,0.1-0.1,0.1v0.1l0,0h0.5C13.1,86.4,13,86.4,12.8,86.3z"/>
							<path fill="#FFFFFF" d="M12.1,83.5L12.1,83.5C12.1,83.5,12.2,83.5,12.1,83.5z"/>
							<path fill="#FFFFFF" d="M12.1,83.8c-0.1,0-0.2,0.2-0.2,0.1c0-0.2,0.1-0.2,0.2-0.3c-0.1,0.1-0.3,0.1-0.3,0.4h0.1
								c0,0.2-0.1,0.8-0.1,0.8C11.9,84.4,12,84.1,12.1,83.8z"/>
							<path fill="#FFFFFF" d="M12.5,85h0.4v-0.4l-0.1,0.2C12.7,84.6,12.6,84.8,12.5,85z"/>
							<polygon fill="#FFFFFF" points="13.5,87 13.3,87.4 13.8,86.9 							"/>
							<polygon fill="#FFFFFF" points="14,87.2 13.8,87.5 14,87.4 							"/>
							<path fill="#FFFFFF" d="M27.1,75.2H27C27.1,75.2,27.1,75.2,27.1,75.2z"/>
							<path fill="#FFFFFF" d="M27.3,75.4l0.2-0.1C27.4,75.3,27.3,75.4,27.3,75.4z"/>
							<path fill="#FFFFFF" d="M26.1,86.5c0.4,0.2,0.9,0.4,0.6,0.1l-0.3-0.3C26.3,86.5,26.2,86.6,26.1,86.5z"/>
							<path fill="#FFFFFF" d="M28.6,79.1h-0.1c0.1,0.1,0.2,0.2,0.3,0.3C28.7,79.3,28.6,79.2,28.6,79.1z"/>
							<path fill="#FFFFFF" d="M27.1,78.3h0.3C27.3,78.2,27.2,78.2,27.1,78.3z"/>
							<path fill="#FFFFFF" d="M25.6,75.3l-0.1,0.4C25.7,75.8,25.6,75.5,25.6,75.3z"/>
							<path fill="#FFFFFF" d="M18.6,88.6c0.1,0.2,0.2,0.3,0.3,0.3C18.7,88.6,18.7,88.2,18.6,88.6z"/>
							<path fill="#FFFFFF" d="M31,72.2c-0.1,0-0.2,0-0.3,0.1C30.8,72.2,30.9,72.2,31,72.2z"/>
							<path fill="#FFFFFF" d="M19.3,89c0,0,0-0.1-0.1-0.1s-0.2,0.1-0.3,0C18.9,89.1,19.1,89.2,19.3,89z"/>
							<path fill="#FFFFFF" d="M13.8,77.7L13.8,77.7L13.8,77.7z"/>
							<path fill="#FFFFFF" d="M8.2,77.8c0-0.1,0-0.2,0.1-0.2C8.2,77.6,8.2,77.6,8.2,77.8z"/>
							<path fill="#FFFFFF" d="M15.7,88.1C15.6,88,15.6,88.1,15.7,88.1L15.7,88.1z"/>
							<path fill="#FFFFFF" d="M15.8,86.3c0,0,0.1-0.1,0.1-0.2C15.9,86.3,15.8,86.3,15.8,86.3z"/>
							<path fill="#FFFFFF" d="M20.6,86.5L20.6,86.5C20.5,86.4,20.6,86.4,20.6,86.5z"/>
							<path fill="#FFFFFF" d="M15.6,87.8c0,0.1,0,0.1,0.1,0.2C15.7,87.9,15.6,87.9,15.6,87.8z"/>
							<path fill="#FFFFFF" d="M15.5,88L15.5,88C15.4,88,15.4,88.1,15.5,88z"/>
							<path fill="#FFFFFF" d="M15.8,88.1c-0.1,0-0.1-0.1-0.1-0.1v0.1C15.7,88.1,15.7,88.1,15.8,88.1z"/>
							<path fill="#FFFFFF" d="M19.5,74.3L19.5,74.3C19.4,74.5,19.5,74.4,19.5,74.3z"/>
							<path fill="#FFFFFF" d="M24.6,81.9L24.6,81.9L24.6,81.9z"/>
							<path fill="#FFFFFF" d="M24.5,81.4c0.3,0.4,0.2,0.4,0.1,0.4l1,0.7L24.5,81.4z"/>
							<path fill="#FFFFFF" d="M26.5,75c0,0,0,0.1-0.1,0.2c0,0.1-0.1,0.2-0.1,0.2c-0.4,0.6-0.3,0.4-0.5,0.9c0.3-0.6,0.4-0.7,0.4-0.7
								c0.1,0,0.1,0,0.6-0.6l-0.2,0.3c0,0-0.1,0.1-0.1,0c-0.4,0.6,0.8-0.8,0.8-0.5c0,0.1-0.2,0.3-0.3,0.4c0,0,0.1,0,0.2-0.1
								c0.1,0,0.2-0.1,0.2-0.1l-0.2,0.2l0.2,0.1l0,0c0.2-0.1,0.6-0.3,0.7-0.3c-0.1,0.1-0.1,0-0.2,0.1c0,0,0.1,0,0.2,0s0.2,0,0.2,0
								c-0.3,0.2-0.7,0.3-0.7,0.2c-0.7,0.4-0.6,0.4-0.4,0.3s0.4-0.1,0,0.1H27c-0.8,0.4-0.5,0.3-1,0.5c0.3,0,1.2-0.6,1.6-0.6
								c-0.1,0.1-0.2,0.1,0.1,0.1c-0.5,0.2-0.4,0.2-0.4,0.2L26.6,76c0.2,0,0.5-0.1,0.8-0.1c-0.1,0.1-0.6,0.2-1,0.2
								c-0.1,0.1,0.8-0.1,0.9,0c-0.3,0.1,0,0.2,0.3,0.4c-0.2,0-0.4-0.1-0.6-0.1c0,0,0.1,0,0.2,0.1c0.1,0,0.2,0.1,0.2,0.1h-0.2
								c0.2,0.1,0.6,0.1,0.7,0.3c0.6,0.2-1,0-0.4,0.5c-0.2,0-0.3-0.2-0.6-0.2c0.3,0.5,0.2,0.4,0.7,1h-0.5c0.5,0,0.9,0.5,1.2,0.9
								c0.2,0,0.4,0.1,0.5,0.1l0.1,0.5c-0.1,0-0.3-0.1-0.5-0.3l0.1,0.1c-0.3,0-0.5-0.2-0.8-0.5c0.1,0,0.3,0,0.4,0.1
								c-0.3-0.2-0.6-0.5-1-0.6c0.1,0.1,0.1,0.1,0.1,0.2c-0.1-0.1-0.2-0.1-0.2-0.1c-0.1,0,0,0.1,0.2,0.2l-0.6-0.2l0.2,0.1l-0.6,0.2
								c0.5,0.6,1.2,1.4,1.2,2c-0.4-0.4-0.7-0.5-1.2-0.8c0.6,0.2,0-0.5,0.2-0.6c-0.1,0.1-0.4-0.1-0.4-0.2c0,0,0.1,0.2,0.1,0.3
								c0.1,0.2,0.1,0.3,0.1,0.3c-0.4-0.3-0.4-0.1-0.6-0.1c0.9,0.4,0.4,0.6,0.5,1c-0.3-0.2-0.5-0.4-0.3-0.5
								c-0.7-0.2,0.8,0.9,0.1,0.8c0-0.1,0.1,0,0-0.2c0.2,0.3-0.2,0.4-0.4,0.2l0,0c-0.3,0.2-0.7,0.9-0.1,1.4
								c-0.1-0.1-0.7-0.7-0.9-0.8c0,0,0.4,0.6,0.9,1.1c0.4,0.6,0.8,1.2,0.8,1.2c-0.5-0.5-1.9-1.4-2-1.9c-0.1,0-0.3,0-0.2,0.3
								c0.1,0,0.9,0.6,0.9,0.7c-0.7-0.3-0.4-0.2-1.1-0.4c0.2,0,0.9,0.9,0.8,0.9c-0.1-0.1-0.8-0.7-0.9-0.8c0,0,0.1,0.2,0.3,0.5
								c0.1,0.2,0.3,0.5,0.3,0.5c-0.1-0.2-0.7-0.6-0.9-0.8c0.2,0.1-0.2,0.2-0.2,0.3l0.3,0.1c-0.4,0.1,0.8,1.4,0.4,1.6
								c-0.1-0.2-0.8-1.1-1.1-1.1c0.3,0.5,1.4,2.3,1.3,2.9l-0.3-0.2l-0.1,0.5c-0.3-0.8-1-2.5-1.3-3.2c-0.3-0.1-0.3-0.3-0.4-0.1
								c-0.2-0.2-0.2-0.4-0.2-0.5l-0.4,0.1c0.4,0.5,0.1,0.7,0.4,1.1c0,0,0-0.2,0-0.4c0-0.2,0-0.4,0-0.4c0.4,0.5,0.9,1.6,0.5,1.8
								c-0.2-0.2-0.6-1-0.7-1.2c0.1,0.2,0,0.5-0.1,0.4l-0.1-0.4c-0.2-0.2,0.2,0.9-0.2,0.4c-0.1,0-0.5-0.7-0.3-0.4
								c0.3,0.7,1.3,2.7,1.4,3.3c-0.1,0-0.8-0.5-1-0.8c-0.3-0.5-0.2-1.4-0.4-1.8c0,0.2,0.1,0.4,0,0.5c-0.1-0.1-0.1-0.5-0.2-0.4
								c0.1,0.7-0.3,0,0,0.6c-0.1,0.2-0.2-0.1-0.3-0.1c0.1,0.4-0.1,1.4-0.4,1.6c0-0.2,0-0.4,0-0.5c-0.4-0.1-0.6-0.4-0.9-0.5
								c0-0.2-0.1-0.4,0-0.7c-0.1,0.1-0.2,0.3-0.3,0.3c-0.1-0.6,0.3,0,0.2-0.7c-0.1,0.4-0.4,0.5-0.6,0.7c-0.1,0.6,0.4,0.2,0.5,0
								c-0.1,0.8-0.6,1.6-1.1,1.8c-0.4,0.1,0-0.5-0.1-0.5c-0.6-0.3-0.9,1.2-1.3,0.5c0-0.6,0.3-1,0.4-1.4c0.3-0.1,0.3,0.4,0.5,0.5
								l-0.1-0.3c0.1-0.1,0.3-0.2,0.4-0.1c0-0.5-1-0.4-1.3-0.9c-0.1,0.1-0.3,0.3-0.3,0.5h0.2c0,0.4-0.5,0.4-0.3,0.7
								c-0.3,0.2-0.7,0.6-0.9,0.2l0.2-0.6c-0.1,0.2,0,0.4,0.2,0.3c-0.2,0.2-0.1-0.9-0.5-0.2v0.5c-0.3,0.2-0.8,0.7-1,0.4
								c-0.1,0.6,0.1,0,0,0.7c0.2-0.8,0.6,0.3,0.7-0.6c-0.1,0.8,0.2,0.4,0.2,1.2c0.1-0.2,0-0.4,0.2-0.2l0.1-0.1l0,0l0,0l0,0
								c0-0.1,0-0.2,0-0.3c0.3-0.4,0.6-0.2,0.8-0.4c0.1,0.1-0.1,0.2-0.1,0.4l0.3-0.3c-0.1,0.4,0.1,0.8-0.3,0.9l0.3,0.1
								c0.1,0.3,0.3,0.4,0.5,0.3c0.1,0.1,0.5-0.4,0.3-0.1l0.5-0.1v0.1c0.4,0.2,1.1-0.5,1.4,0.4c0.2-0.1,0.4-0.2,0.6,0v0.4
								c0.2-0.1,0.6,0.4,0.8,0.1c0.1,0.3,0.2,0.4,0.4,0.5c0.2,0.1,0.4,0,0.6,0c0.4-0.1,0.8-0.3,1.1-0.3l-0.1-0.5
								c0.3-0.1,0.7-0.3,0.9-0.7l-0.2-0.4c0.1-0.2,0.3-0.3,0.5-0.3c0.3,0,0.5,0,0.7-0.1c0.1,0.2,0,0.2-0.2,0.1
								c0.5,0.3,0.6-0.1,0.7-0.4c0.1-0.3,0.1-0.7,0.5-0.6c0-0.2,0.1-0.2,0.2-0.2l0,0l0,0c0.1,0,0.2,0.1,0.3,0.1
								c-0.1,0-0.2-0.1-0.3-0.1c0.1-0.1,0.1-0.2,0.1-0.4l0.4,0.3l0,0c0.2,0-0.1-0.2-0.4-0.4c0-0.1,0-0.2-0.1-0.3
								c0.6,0.5,0-0.4,0.7,0.1c-0.2-0.3,0.2-0.7-0.3-1.3c0.1,0.1,0.1,0.1,0.1,0.1c0.2,0,0.3-0.1,0.2-0.3l0.5,0.3l-0.4-0.7
								c0.4,0.1,0.6,0.2,0.8,0.6c-0.3-0.8,0-0.4-0.3-1.2l0.3,0.3c0.1-0.1-0.2-0.6,0.1-0.4c0.8,0.2,0.9-1.1,1.9-1.3
								c-1-0.5,0.6,0-0.1-0.5c0.3,0.1,0.4,0.1,0.6,0.3c0-0.5,0.7-0.3,0.1-0.9c0.3,0.1,0.3,0.3,0.5,0.3c0-0.1-0.1-0.2,0-0.2
								c0.2,0,0.2,0.2,0.2,0.3c0.2-0.4-0.5-0.8-1.2-1.2c0.4,0,0.4-0.1,0-0.5c0.3,0.1,0.5,0.1,0.5,0.3c0.1-0.1,0.7-0.6,0.1-0.9
								c0.2,0,0.1-0.2,0.1-0.2c0.2-0.3,0.2-0.3,0.3-0.6h-0.1c-0.6-0.4-0.1-0.3-0.1-0.6h0.1c0.7-0.5-0.2-0.3,0.6-0.8H30
								c-0.5-0.1-0.3-0.2-0.1-0.3c0.3-0.2,0.6-0.4,0.4-0.6l0.4-0.1c-0.3-0.1,1.4-0.7,1.5-1c0.1-0.1,0.1,0.1,0.2,0.1
								c0.6-0.8-0.6,0-0.7-0.4c0.3-0.2,0.8-0.1,0.8-0.5c0.1-0.1-0.2-0.3-0.5-0.5c-0.2-0.2-0.5-0.3-0.3-0.7c-0.2,0.2-0.4,0.4-0.6,0.3
								c-0.1-0.1,0-0.4,0-0.7c0-0.3-0.1-0.5-0.5-0.3c0-0.1,0.1-0.1,0.1-0.2c-0.2,0-0.4-0.1-0.6-0.1s-0.5,0-0.6,0.1
								c0.5-0.7,0-0.7-0.4-0.7s-0.8,0.2-0.4-0.5l-0.8-0.1l0.1-0.1c-0.5-0.2-0.7,0.2-1,0.5c-0.1-0.1,0-0.2,0-0.3
								c-0.6-0.3-0.8-0.3-1.3,0.5l0-0.4c-0.1,0.3-0.8-0.7-1.3-0.1c0-0.1,0-0.1,0-0.2c-0.5,0.6-1.4-1.2-1.5,0.5l-0.3,0.5
								c0.5,0.1,0,0.8,0.2,1c-0.2,0.1-0.5-0.5-0.3-0.6v0.1c0-0.9-0.6-0.3-0.6-0.9c-0.2,0-0.4,0-0.6,0L21,71.2l-0.4-0.1
								c-0.5-0.1-1-0.1-1.5-0.1l0.2,0.7H19c-0.1-0.1-0.2-0.5,0-0.5c-0.2-0.4-0.3,0.4-0.3,0.6c-0.5-0.2,0-0.8-0.1-0.8h-0.2l0.1,0.1
								c-0.1,0.3,0,0.6-0.3,0.6c-0.2-0.1-0.2-0.4-0.3-0.4c0,0,0-0.1-0.1,0h-0.4l0.3,0.5c-0.1,0.3-0.4,0.1,0,0.6
								c-0.5-0.9-1.5,0.1-1.8-0.1c-0.1,0.5-0.3,0.5-0.6,0.6c0.1,0.1,0.4,0.7,0.1,0.7c-0.4-1.2-0.6-0.3-1.2-1.1
								c0.4,0.5-0.6,0.5,0,1.1c-0.2,0-0.2-0.4-0.5-0.6c-0.3,0.7-1.2,0.2-1.7,0.7c0.1,0.2,0.3,0.3,0.3,0.6l-0.7-0.5
								c-0.1,0.1,0.4,0.9-0.1,0.5c0.1,0.1,0.3,0.3,0.2,0.3c-0.8,0-1.2,0.6-1.7,1.1c-0.2,0.3-0.5,0.6-0.8,0.8
								c-0.3,0.3-0.7,0.5-1.3,0.7c0.4-0.1,0.4,0.1,0.3,0.3c0.1-0.1,0.4,0.2,0.6,0.3l-0.9,0.4c0.5,0.3-0.1,0.9,0.5,1l0-0.2
								c0.3,0.2,0.7,0.1,1.2,0.1c0.4,0,0.9,0,1.3,0.1c-0.4-0.2,0-0.2,0.2-0.2c0.3,0,0.5,0,0.1-0.4c0.2,0,0.2,0.2,0.4,0.3
								c-0.3-0.2-0.3-0.4-0.1-0.4l0.1,0.1c0.2-0.4,0.6-0.3,1.2-0.4l-0.3-0.3c0.1,0,0.2,0.1,0.3,0.1c-0.3-0.6-0.3,0.2-0.7-0.5
								c0.7,0.6,0.7-0.5,1.4,0.3c0.2-0.1-0.3-0.4-0.2-0.5l0.2,0.2l-0.2-0.3c0.1,0,0.4,0.3,0.5,0.5c0,0,0,0.1-0.1,0.1
								c0.3,0.2,0.3-0.3,0.4-0.3L14,77.4c0.3-0.5,1.1-0.5,1.3-1.2L15.2,76c0.2-0.5,0.4,0.1,0.8-0.3v0.1c0-0.2,0.1-0.4,0.2-0.4
								c0,0.3,0.4,0.4,0.3,0.7c0.3-0.6,0.1-0.4,0.1-1.3l0.2,0.3c0-0.3-0.1-0.5,0.1-0.7c-0.1,0.4,0.3,0.5,0.2,0.9
								c0.7,0.6,0.5-1,1,0.1c-0.1-1-0.6-0.4-0.5-0.6c-0.2-0.3,0-0.8,0.2-0.7c0.2,0,0.6,1.2,1,1c0,0,0,0.1-0.1,0.1
								c0.2,0.2,0.2-0.4,0.5,0c0-0.6,0.2,0,0.1-0.8L19,74.6c0.1-0.2,0.2-1.1,0.6-0.8c0,0.2-0.1,0.4-0.1,0.5c0.1,0.2,0.2-0.2,0.3,0
								c0.1,0.8-0.4,0.2-0.5,0.9c0.2,0.3,0.3-0.6,0.3,0.2c0-1.1,0.4,0.1,0.5-0.8v0.5c0-0.1,0.1-0.3,0.1-0.3v0.6
								c0.1-0.5,0.4,0.4,0.5,0.1c-0.3,0-0.1-0.6-0.3-0.9c0.2-0.3,0.3,0,0.4,0.3c0.1,0.3,0.1,0.7,0.5,0.6c-0.1,0.1-0.4-0.3-0.2-0.5
								c0.1,0.1,0.3,0.3,0.4,0.5c0.5-0.1-0.1-0.5,0.1-0.8c0.2,0.6,0.2-0.2,0.4-0.4v0.5c0.5,0.3,0.1-1,0.6-0.6l-0.1,0.7l0.2-0.2v0.5
								c0.2-0.4,0.3-0.3,0.6-0.2c-0.1-0.3,0-0.8,0.2-0.9c0.2,0.3,0,0.4,0.3,0.4c0,0.3-0.1,0.7-0.3,0.3c0,0.2,0,0.3,0,0.4
								c0.2,0.3,0.4,0,0.5,0c0,0-0.1,0-0.1-0.1l0.4-0.7c0.1,0.2,0,0.3,0,0.5c0.1-0.1,0.1-0.3,0.2-0.3c0,0.4,0,0.8-0.1,1l0.4-0.5
								c0,0.2,0.2,0.4,0.2,0.6c0.2,0.2,0.5-0.8,0.8-0.5c0-0.1,0-0.1,0.1-0.2c0.2,0.1,0.2,0.5,0.4,0c0,0,0,0.2,0,0.3
								c0,0.2-0.1,0.3-0.1,0.3c0.1-0.1,0.1-0.9,0.3-1.1c0.2-0.2-0.1,0.6-0.2,0.8c0.1-0.3,0.6-1,0.4-0.4C26.5,75.1,26.6,75,26.5,75z
								 M27.6,75.7c-0.1,0-0.4,0.1-0.1,0C28,75.4,27.8,75.6,27.6,75.7z M27.6,79.1c-0.1-0.1,0-0.1,0.2-0.1
								C27.8,79.1,27.7,79.1,27.6,79.1z M16.8,88L16.8,88C16.9,88.2,16.9,88.2,16.8,88z M16.6,87.8c-0.1,0.1-0.1,0.1-0.1,0.2
								c0.1-0.1,0.1-0.1,0.2,0C16.7,87.8,16.7,87.7,16.6,87.8z M17.9,71.5l0.1,0.1C17.9,71.7,17.9,71.6,17.9,71.5z"/>
							<path fill="#FFFFFF" d="M27.3,78.4c0.1,0,0.2,0.1,0.2,0.1C27.4,78.4,27.3,78.4,27.3,78.4z"/>
							<polygon fill="#FFFFFF" points="25.7,75.3 25.7,75.2 25.6,75.3 							"/>
							<path fill="#FFFFFF" d="M21.3,84.6c0,0.1,0.1,0.1,0.1,0.2C21.4,84.7,21.3,84.6,21.3,84.6z"/>
							<path fill="#FFFFFF" d="M14.6,87.9h0.2c-0.1,0-0.1-0.1-0.1-0.2C14.7,87.7,14.7,87.9,14.6,87.9z"/>
							<path fill="#FFFFFF" d="M14.2,84.5c-0.1,0-0.1,0-0.1,0L14,84.7C14.1,84.8,14.3,84.7,14.2,84.5z"/>
							<path fill="#FFFFFF" d="M15,86.4c0.1-0.4,0-0.3-0.2-0.3l0,0C14.6,86.6,14.8,86.5,15,86.4z"/>
							<path fill="#FFFFFF" d="M14.8,86.1h-0.1C14.6,86.2,14.7,86.1,14.8,86.1z"/>
							<path fill="#FFFFFF" d="M16.1,87.9c0-0.1-0.2,0.5-0.2,0.3C15.6,88.6,16.5,87.8,16.1,87.9z"/>
							<polygon fill="#FFFFFF" points="15.4,85.1 15.3,85.6 15.5,85.3 							"/>
							<path fill="#FFFFFF" d="M16.3,85.9l-0.2-0.2c0,0.1-0.1,0.1-0.1,0.1C16.2,85.9,16.3,86,16.3,85.9z"/>
							<path fill="#FFFFFF" d="M16,85.8c-0.1,0-0.1,0-0.2,0C15.9,85.8,16,85.8,16,85.8z"/>
							<polygon fill="#FFFFFF" points="15.8,85.1 15.8,85.2 15.9,85.3 							"/>
							<path fill="#FFFFFF" d="M18.5,86.7l0.3-0.1c0.1-0.2,0-0.3-0.1-0.2C18.6,86.5,18.5,86.5,18.5,86.7z"/>
							<path fill="#FFFFFF" d="M18.2,85.2c0,0.1,0,0.2,0,0.4l0.2-0.6L18.2,85.2z"/>
							<path fill="#FFFFFF" d="M18.9,85.2c0.1-0.2,0.4-0.4,0.1-0.4C18.9,85,18.7,85.1,18.9,85.2z"/>
							<polygon fill="#FFFFFF" points="22,86.1 21.9,86.1 22.3,87.1 							"/>
							<path fill="#FFFFFF" d="M22.9,82.7c-0.3,0,0.4,0.5,0,0.4c0.1,0.2,0.3,0.1,0.4,0.3C23.2,83.1,23.3,83.1,22.9,82.7z"/>
							<path fill="#FFFFFF" d="M23.3,83.4c0,0,0,0.1,0,0.2C23.3,83.5,23.3,83.4,23.3,83.4z"/>
							<polygon fill="#FFFFFF" points="7.3,78.7 7.1,79 7.5,78.8 							"/>
							<path fill="#FFFFFF" d="M8,79.3H7.4c0,0,0.1,0.1,0.3,0.1c0.1,0,0.3,0.1,0.3,0.1C7.9,79.5,7.8,79.4,8,79.3z"/>
							<path fill="#FFFFFF" d="M26.3,76.2h0.2c0.2,0,0.2-0.1,0.2-0.1L26.3,76.2z"/>
							<polygon fill="#FFFFFF" points="26.6,75.6 26.6,75.6 27,75.2 							"/>
							<path fill="#FFFFFF" d="M25.9,76.2C25.9,76.2,25.9,76.1,25.9,76.2C25.9,76.2,26.1,75.5,25.9,76.2z"/>
						</g>
					</g>
				</g>
			</g>
		</g>
		<g>
			<path fill="#6A3906" d="M22.3,84.8c-2.9,0-10.2-4.1-10.2-7c0-2.9,7.3-3.4,10.2-3.4s5.2,2.3,5.2,5.2S25.1,84.8,22.3,84.8z"/>
		</g>
	</g>
	<g>
		<rect y="60" fill="none" width="40" height="40"/>
	</g>
</g>
</svg>
