<?xml version="1.0" encoding="utf-8"?>
<!-- Generator: Adobe Illustrator 18.0.0, SVG Export Plug-In . SVG Version: 6.00 Build 0)  -->
<!DOCTYPE svg PUBLIC "-//W3C//DTD SVG 1.1//EN" "http://www.w3.org/Graphics/SVG/1.1/DTD/svg11.dtd">
<svg version="1.1" id="圖層_1" xmlns="http://www.w3.org/2000/svg" xmlns:xlink="http://www.w3.org/1999/xlink" x="0px" y="0px"
	 viewBox="0 60 40 40" enable-background="new 0 60 40 40" xml:space="preserve">
<g>
	<g>
		<g>
			<path fill="none" stroke="#823733" stroke-width="0.5" stroke-miterlimit="10" d="M-54.4-364.5c0-0.3-0.2-0.4-0.4-0.4
				c-2.2-0.6-3.4-2.4-4.8-3.9c-2.6-2.9-5.6-5.2-9.5-6.2c-1-0.3-2.1-0.2-3.1,0c-0.6,1.9-0.2,2.7,1.7,3.2c1.6,0.4,3.1,0.8,4.7,1.2
				c1.9,0.5,3.4,1.7,4.6,3.3c0.3,0.4,0.6,0.9,1,1.4c0.1,0.1,0.3,0.2,0.3,0.4c0.1,1.6,0.7,3.1,0.8,4.7c0,0.6,0.4,1.2,0.1,1.8"/>
			<path fill="none" stroke="#823733" stroke-width="0.5" stroke-miterlimit="10" d="M-56.7-363.2c0.1,0,0.3-0.6,0.6-0.8
				c0.8-0.6,1.6-0.3,2.5-0.4s1.8-0.4,2.7-0.7c1.1-0.4,2.2-0.2,3.1,0.5c0.5,0.3,0.6,0.8,0.5,1.4c-0.2,0.8-0.4,1.7-0.4,2.5
				c0,2-0.4,2.7-2.3,3.5c-0.5,0.2-0.8,0.2-1.3,0c-0.9-0.6-1.9-1.1-2.9-1.7l-0.2-0.1c-0.8-0.4-1.3-1.2-1.7-1.8
				c-0.5-0.9-1.3-1.5-0.5-2.6"/>
			<path fill="none" stroke="#823733" stroke-width="0.5" stroke-miterlimit="10" d="M-59.9-364.1c-0.5,0.5-0.5,1.1-0.4,1.6
				c0.1,0.8,0.3,1.7,0.5,2.5c0.3,1,1.2,1.5,1.7,2.3c1.1,1.6,2.7,2.5,4.6,3c1.3,0.3,2.3-0.2,3.4-0.6c0.8-0.2,1.4-0.9,2.2-1.3
				c0.7-0.3,0.8-0.9,0.7-1.5c0-0.6,0.4-1.4-0.3-1.9"/>
			<path fill="none" stroke="#823733" stroke-width="0.5" stroke-miterlimit="10" d="M-51-363.5c1.2,0.6,1.2,0.6,0.9,1.8
				c-0.2,0.6-0.4,1.2-0.2,1.9"/>
		</g>
		<path opacity="0.35" fill="none" stroke="#823733" stroke-width="0.3" stroke-miterlimit="10" enable-background="new    " d="
			M-76-377.1c0,0,2.3-2.9,8.2-0.7c5.9,2.2,10.6,7.8,12.5,8.8s3.7,1.1,6.9,1c3.2,0,6.3,4.9,4,10.2c-2.3,5.3-6.9,7.1-12,4.7
			s-7.3-8.1-8.1-12.2c-0.8-4.2-6.1-3.3-7.9-4.6C-74.2-371.1-78.5-372.4-76-377.1z"/>
	</g>
	<rect x="-78.8" y="-435.6" fill="none" width="40" height="100"/>
</g>
<g>
	<g>
		<path fill="none" stroke="#823733" stroke-width="0.4417" stroke-miterlimit="10" d="M55.2-366.1c0.4,0.4,0.5,0.9,0.5,1.4
			c-0.2,1-0.2,2,0,3c0.2,0.7-0.3,1.1-0.8,1.6c-0.8,0.7-1.8,1.1-2.8,1.4c-0.2,0.1-0.4,0-0.6-0.1"/>
		<path fill="none" stroke="#823733" stroke-width="0.4417" stroke-miterlimit="10" d="M59.4-361.3c-0.8,0.2-1.6-0.1-2.4-0.1
			c-0.3,0-0.6-0.1-0.9-0.2"/>
		<path fill="none" stroke="#823733" stroke-width="0.4417" stroke-miterlimit="10" d="M31.8-355.6c0.7,0.6,1.1,0.5,1.7,0
			c0.5-0.3,1-0.7,1.4-1.1c0.5-0.4,1.1-0.4,1.6-0.6c1.3-0.5,1.3-0.4,1-1.8c-0.2-0.8-0.6-1.4-0.8-2.2c-0.1-0.5-1.2-0.9-1.8-0.7
			c-0.9,0.3-1.7,0.5-2.6,0.7c-0.4,0.1-0.7-0.1-1-0.2c-0.8-0.3-1.2-0.2-1.4,0.7c-0.3,0.9-0.6,1.9-0.9,2.9c0.9,0.5,1.9,1.1,2.9,1.5"/>
		<path fill="none" stroke="#823733" stroke-width="0.4417" stroke-miterlimit="10" d="M31.9-356.3c0-0.3-0.1-0.5,0-0.8
			c0.1-0.7-0.1-1.3-0.3-1.9c-0.1-0.2-0.1-0.4-0.1-0.5"/>
		<path fill="none" stroke="#823733" stroke-width="0.4417" stroke-miterlimit="10" d="M30.6-360.5c0.6,1.4,2.3,1.8,3.5,0.9
			c0.6-0.4,1.8-0.2,2.4,0.2c0.3,0.2,0.6,0.4,1,0.4"/>
		<path fill="none" stroke="#823733" stroke-width="0.4417" stroke-miterlimit="10" d="M57.1-365.5c0.7,0.3,1.3,0.7,1.9,1.2"/>
		<path opacity="0.35" fill="none" stroke="#823733" stroke-width="0.265" stroke-miterlimit="10" enable-background="new    " d="
			M48-378c-0.8,0.4-5.6,2.4-7.1,5s-0.6,6.9,3.5,10.2c4.1,3.3,4.2,11.1,12.1,9.2S67-363.7,63-367.1s-7.5-3.1-8.7-8.1
			C53.2-380.2,48-378,48-378z"/>
		<path opacity="0.35" fill="none" stroke="#823733" stroke-width="0.265" stroke-miterlimit="10" enable-background="new    " d="
			M35.4-364.6c-4.8-0.6-8.9,3.8-7.5,8.5v0.1c1.5,4.8,11.2,1.5,11.9-0.5s1.3-5-2-7.2C37.1-364.2,36.2-364.4,35.4-364.6z"/>
		<path fill="none" stroke="#823733" stroke-width="0.4417" stroke-miterlimit="10" d="M52.5-370.5c-0.9-0.3-2.2,0.7-3.1,1.8
			c-0.5,0.6-1.1,1.4-1.8,1.5c-0.4,0.1-0.7,0.2-1,0.5"/>
		<path fill="none" stroke="#823733" stroke-width="0.4417" stroke-miterlimit="10" d="M48.1-373.1c-0.9,0-1.1,0.4-1.3,1.2
			c-0.1,0.6-0.2,1.2-0.2,1.8c0,0.6-0.4,1-0.7,1.6c-0.6,1.3-0.6,1.2,0.6,2c0.7,0.4,1.4,0.6,2.1,1c0.4,0.2,1.5-0.3,1.7-0.8
			c0.4-0.8,0.9-1.6,1.4-2.4c0.2-0.3,0.5-0.4,0.8-0.6c0.8-0.4,1-0.7,0.6-1.5s-0.8-1.5-1.2-2.4c-0.1-0.2-0.3-0.3-0.5-0.2
			c-0.9,0.2-1.9,0.5-2.8,0.9"/>
		<path fill="none" stroke="#823733" stroke-width="0.4417" stroke-miterlimit="10" d="M48.4-372.1c0.2,0.2,0.5,0.3,0.6,0.6
			c0.4,0.6,0,1.1,0.7,1.4c0.2,0.1,0.3,0.2,0.5,0.3"/>
		<path fill="none" stroke="#823733" stroke-width="0.4417" stroke-miterlimit="10" d="M58.7-366.7c0.8,0.2,0.9,1.1,1.1,1.9
			c0.4,1.4,0.6,2.8,0.9,4.1c0.1,0.2,0,0.5-0.2,0.7c-0.5,0.6-1,1.2-1.6,1.7c-0.4,0.3-0.8,0.6-1.4,0.4c-0.3-0.1-0.5,0.1-0.7,0.3
			c-0.8,0.7-1.7,1.2-2.8,1.5c-0.3,0.1-0.6,0-0.8-0.2c-0.5-0.5-1-1-1.4-1.5c-1-1.2-0.9-3.3-0.2-4.3c0.6-0.9,1.3-1.7,1.9-2.6
			c0.1-0.1,0.2-0.3,0.3-0.4c0.4-1,1.3-1.1,2.1-1.1c0.9,0,1.3-0.2,2.2-0.4C58.2-366.8,58.4-366.8,58.7-366.7z"/>
	</g>
	<rect x="26.6" y="-435.6" fill="none" width="40" height="100"/>
</g>
<g>
	<g>
		<path opacity="0.2" fill="#796A56" enable-background="new    " d="M91.9-364.2c-4.8-0.6-8.9,3.8-7.5,8.5v0.1
			c1.5,4.8,11.2,1.5,11.9-0.5c0.8-2,1.3-5-2-7.2C93.7-363.8,92.8-364.1,91.9-364.2z"/>
		<path opacity="0.2" fill="#796A56" enable-background="new    " d="M104.6-377.6c-0.8,0.4-5.6,2.4-7.1,5s-0.6,6.9,3.5,10.2
			c4.1,3.3,4.2,11.1,12.1,9.2s10.5-10.1,6.5-13.5s-7.5-3.1-8.7-8.1S104.6-377.6,104.6-377.6z"/>
		<path fill="#FFFFFF" d="M91.9-364.6c-4.8-0.6-8.9,3.8-7.5,8.5v0.1c1.5,4.8,11.2,1.5,11.9-0.5c0.8-2,1.3-5-2-7.2
			C93.7-364.2,92.8-364.4,91.9-364.6z"/>
		<path fill="#FFFFFF" d="M104.6-378c-0.8,0.4-5.6,2.4-7.1,5s-0.6,6.9,3.5,10.2s4.2,11.1,12.1,9.2s10.5-10.1,6.5-13.5
			s-7.5-3.1-8.7-8.1C109.8-380.2,104.6-378,104.6-378z"/>
		<path fill="#804F21" d="M115.8-366.7c0.6,0.5,0.9,1.1,1.1,1.9c0.4,1.4,0.6,2.8,0.9,4.1c0.1,0.2,0,0.5-0.2,0.7
			c-0.5,0.6-1,1.2-1.6,1.7c-0.4,0.3-0.8,0.6-1.4,0.4c-0.3-0.1-0.5,0.1-0.7,0.3c-0.9,0.9-2,1.4-3.2,1.6c-0.6-0.6-1.2-1.2-1.7-1.9
			c-1-1.2-0.9-3.3-0.2-4.3c0.6-0.9,1.3-1.7,1.9-2.6c0.1-0.1,0.2-0.3,0.3-0.4c0.4-1,1.3-1.1,2.1-1.1
			C114-366.3,114.9-366.5,115.8-366.7"/>
		<path fill="#804F21" d="M106.6-373c0.9-0.4,1.3-0.1,2.3-0.3c0.1,0,0.3,0,0.4,0.2c0.4,0.9,0.9,1.7,1.3,2.5s0.3,1.1-0.6,1.5
			c-0.3,0.1-0.6,0.2-0.8,0.6c-0.5,0.8-1,1.5-1.4,2.4c-0.3,0.5-1.3,1-1.7,0.8c-0.7-0.4-1.4-0.5-2.1-1c-1.2-0.8-1.2-0.7-0.6-2
			c0.2-0.5,0.7-0.9,0.7-1.6c0-0.6,0.1-1.2,0.2-1.8c0.2-0.8,0.3-1.2,1.3-1.2C105.5-373,106.1-372.9,106.6-373"/>
		<path fill="#804F21" d="M88.8-355.6c0.7,0.6,1.1,0.5,1.7,0c0.5-0.3,1-0.7,1.4-1.1c0.5-0.4,1.1-0.4,1.6-0.6c1.3-0.5,1.3-0.4,1-1.8
			c-0.2-0.8-0.6-1.4-0.8-2.2c-0.1-0.5-1.2-0.9-1.8-0.7c-0.9,0.3-1.7,0.5-2.6,0.7c-0.4,0.1-0.7-0.1-1-0.2c-0.8-0.3-1.2-0.2-1.4,0.7
			c-0.2,0.7-0.5,1.5-0.7,2.3c-0.1,0.4,0,0.8,0.4,1c0.7,0.4,1.5,0.9,2.3,1.2"/>
		<path fill="none" stroke="#C19962" stroke-width="0.5" stroke-miterlimit="10" d="M111.8-366.1c0.4,0.4,0.5,0.9,0.5,1.4
			c-0.2,1-0.2,2,0,3c0.2,0.7-0.3,1.1-0.8,1.6c-0.8,0.7-1.8,1.1-2.8,1.4c-0.2,0.1-0.4,0-0.6-0.1"/>
		<path fill="none" stroke="#C19962" stroke-width="0.5" stroke-miterlimit="10" d="M116-361.3c-0.8,0.2-1.6-0.1-2.4-0.1
			c-0.3,0-0.6-0.1-0.9-0.2"/>
		<path fill="none" stroke="#C19962" stroke-width="0.5" stroke-miterlimit="10" d="M105-372c0.2,0.2,0.5,0.3,0.6,0.6
			c0.4,0.6,0,1.1,0.7,1.4c0.2,0.1,0.3,0.2,0.5,0.3"/>
		<path fill="none" stroke="#C19962" stroke-width="0.5" stroke-miterlimit="10" d="M109-370.5c-0.9-0.3-2.2,0.7-3.1,1.8
			c-0.5,0.6-1.1,1.4-1.8,1.5c-0.4,0.1-0.7,0.2-1,0.5"/>
		<path fill="none" stroke="#C19962" stroke-width="0.5" stroke-miterlimit="10" d="M88.5-356.3c0-0.3-0.1-0.5,0-0.8
			c0.1-0.7-0.1-1.3-0.3-1.9c-0.1-0.2-0.1-0.4-0.1-0.5"/>
		<path fill="none" stroke="#C19962" stroke-width="0.5" stroke-miterlimit="10" d="M87.1-360.5c0.6,1.4,2.3,1.8,3.5,0.9
			c0.6-0.4,1.8-0.2,2.4,0.2c0.3,0.2,0.6,0.4,1,0.4"/>
		<path fill="none" stroke="#C19962" stroke-width="0.5" stroke-miterlimit="10" d="M113.6-365.5c0.7,0.3,1.3,0.7,1.9,1.2"/>
		<path fill="none" stroke="#823733" stroke-width="0.4417" stroke-miterlimit="10" d="M115.3-366.7c0.8,0.2,0.9,1.1,1.1,1.9
			c0.4,1.4,0.6,2.8,0.9,4.1c0.1,0.2,0,0.5-0.2,0.7c-0.5,0.6-1,1.2-1.6,1.7c-0.4,0.3-0.8,0.6-1.4,0.4c-0.3-0.1-0.5,0.1-0.7,0.3
			c-0.8,0.7-1.7,1.2-2.8,1.5c-0.3,0.1-0.6,0-0.8-0.2c-0.5-0.5-1-1-1.4-1.5c-1-1.2-0.9-3.3-0.2-4.3c0.6-0.9,1.3-1.7,1.9-2.6
			c0.1-0.1,0.2-0.3,0.3-0.4c0.4-1,1.3-1.1,2.1-1.1c0.9,0,1.3-0.2,2.2-0.4C114.8-366.8,115-366.8,115.3-366.7z"/>
		<path fill="none" stroke="#823733" stroke-width="0.4417" stroke-miterlimit="10" d="M104.7-373.1c-0.9,0-1.1,0.4-1.3,1.2
			c-0.1,0.6-0.2,1.2-0.2,1.8c0,0.6-0.4,1-0.7,1.6c-0.6,1.3-0.6,1.2,0.6,2c0.7,0.4,1.4,0.6,2.1,1c0.4,0.2,1.5-0.3,1.7-0.8
			c0.4-0.8,0.9-1.6,1.4-2.4c0.2-0.3,0.5-0.4,0.8-0.6c0.8-0.4,1-0.7,0.6-1.5s-0.8-1.5-1.2-2.4c-0.1-0.2-0.3-0.3-0.5-0.2
			c-0.9,0.2-1.9,0.5-2.8,0.9"/>
		<path fill="none" stroke="#823733" stroke-width="0.4417" stroke-miterlimit="10" d="M88.4-355.6c0.7,0.6,1.1,0.5,1.7,0
			c0.5-0.3,1-0.7,1.4-1.1c0.5-0.4,1.1-0.4,1.6-0.6c1.3-0.5,1.3-0.4,1-1.8c-0.2-0.8-0.6-1.4-0.8-2.2c-0.1-0.5-1.2-0.9-1.8-0.7
			c-0.9,0.3-1.7,0.5-2.6,0.7c-0.4,0.1-0.7-0.1-1-0.2c-0.8-0.3-1.2-0.2-1.4,0.7c-0.2,0.8-0.5,1.5-0.7,2.3c-0.1,0.3,0,0.7,0.3,0.9
			c0.8,0.5,2.2,1.2,3,1.5"/>
	</g>
	<g>
		<path fill="none" stroke="#823733" stroke-width="0.4417" stroke-miterlimit="10" d="M111.8-366.1c0.4,0.4,0.5,0.9,0.5,1.4
			c-0.2,1-0.2,2,0,3c0.2,0.7-0.3,1.1-0.8,1.6c-0.8,0.7-1.8,1.1-2.8,1.4c-0.2,0.1-0.4,0-0.6-0.1"/>
		<path fill="none" stroke="#823733" stroke-width="0.4417" stroke-miterlimit="10" d="M116-361.3c-0.8,0.2-1.6-0.1-2.4-0.1
			c-0.3,0-0.6-0.1-0.9-0.2"/>
		<path fill="none" stroke="#823733" stroke-width="0.4417" stroke-miterlimit="10" d="M88.4-355.6c0.7,0.6,1.1,0.5,1.7,0
			c0.5-0.3,1-0.7,1.4-1.1c0.5-0.4,1.1-0.4,1.6-0.6c1.3-0.5,1.3-0.4,1-1.8c-0.2-0.8-0.6-1.4-0.8-2.2c-0.1-0.5-1.2-0.9-1.8-0.7
			c-0.9,0.3-1.7,0.5-2.6,0.7c-0.4,0.1-0.7-0.1-1-0.2c-0.8-0.3-1.2-0.2-1.4,0.7c-0.3,0.9-0.6,1.9-0.9,2.9c0.9,0.5,1.9,1.1,2.9,1.5"/>
		<path fill="none" stroke="#823733" stroke-width="0.4417" stroke-miterlimit="10" d="M88.5-356.3c0-0.3-0.1-0.5,0-0.8
			c0.1-0.7-0.1-1.3-0.3-1.9c-0.1-0.2-0.1-0.4-0.1-0.5"/>
		<path fill="none" stroke="#823733" stroke-width="0.4417" stroke-miterlimit="10" d="M87.1-360.5c0.6,1.4,2.3,1.8,3.5,0.9
			c0.6-0.4,1.8-0.2,2.4,0.2c0.3,0.2,0.6,0.4,1,0.4"/>
		<path fill="none" stroke="#823733" stroke-width="0.4417" stroke-miterlimit="10" d="M113.6-365.5c0.7,0.3,1.3,0.7,1.9,1.2"/>
		<path opacity="0.35" fill="none" stroke="#823733" stroke-width="0.265" stroke-miterlimit="10" enable-background="new    " d="
			M104.6-378c-0.8,0.4-5.6,2.4-7.1,5s-0.6,6.9,3.5,10.2s4.2,11.1,12.1,9.2s10.5-10.1,6.5-13.5s-7.5-3.1-8.7-8.1
			C109.8-380.2,104.6-378,104.6-378z"/>
		<path opacity="0.35" fill="none" stroke="#823733" stroke-width="0.265" stroke-miterlimit="10" enable-background="new    " d="
			M91.9-364.6c-4.8-0.6-8.9,3.8-7.5,8.5v0.1c1.5,4.8,11.2,1.5,11.9-0.5c0.8-2,1.3-5-2-7.2C93.7-364.2,92.8-364.4,91.9-364.6z"/>
		<path fill="none" stroke="#823733" stroke-width="0.4417" stroke-miterlimit="10" d="M109-370.5c-0.9-0.3-2.2,0.7-3.1,1.8
			c-0.5,0.6-1.1,1.4-1.8,1.5c-0.4,0.1-0.7,0.2-1,0.5"/>
		<path fill="none" stroke="#823733" stroke-width="0.4417" stroke-miterlimit="10" d="M104.7-373.1c-0.9,0-1.1,0.4-1.3,1.2
			c-0.1,0.6-0.2,1.2-0.2,1.8c0,0.6-0.4,1-0.7,1.6c-0.6,1.3-0.6,1.2,0.6,2c0.7,0.4,1.4,0.6,2.1,1c0.4,0.2,1.5-0.3,1.7-0.8
			c0.4-0.8,0.9-1.6,1.4-2.4c0.2-0.3,0.5-0.4,0.8-0.6c0.8-0.4,1-0.7,0.6-1.5s-0.8-1.5-1.2-2.4c-0.1-0.2-0.3-0.3-0.5-0.2
			c-0.9,0.2-1.9,0.5-2.8,0.9"/>
		<path fill="none" stroke="#823733" stroke-width="0.4417" stroke-miterlimit="10" d="M105-372.1c0.2,0.2,0.5,0.3,0.6,0.6
			c0.4,0.6,0,1.1,0.7,1.4c0.2,0.1,0.3,0.2,0.5,0.3"/>
		<path fill="none" stroke="#823733" stroke-width="0.4417" stroke-miterlimit="10" d="M115.3-366.7c0.8,0.2,0.9,1.1,1.1,1.9
			c0.4,1.4,0.6,2.8,0.9,4.1c0.1,0.2,0,0.5-0.2,0.7c-0.5,0.6-1,1.2-1.6,1.7c-0.4,0.3-0.8,0.6-1.4,0.4c-0.3-0.1-0.5,0.1-0.7,0.3
			c-0.8,0.7-1.7,1.2-2.8,1.5c-0.3,0.1-0.6,0-0.8-0.2c-0.5-0.5-1-1-1.4-1.5c-1-1.2-0.9-3.3-0.2-4.3c0.6-0.9,1.3-1.7,1.9-2.6
			c0.1-0.1,0.2-0.3,0.3-0.4c0.4-1,1.3-1.1,2.1-1.1c0.9,0,1.3-0.2,2.2-0.4C114.8-366.8,115-366.8,115.3-366.7z"/>
	</g>
	<rect x="83.2" y="-435.6" fill="none" width="40" height="100"/>
</g>
<g>
	<rect x="-25.9" y="-435.6" fill="none" width="40" height="100"/>
	<g>
		<path opacity="0.2" fill="#796A56" enable-background="new    " d="M-23.2-377.2c0,0,2.3-2.9,8.2-0.7s10.6,7.8,12.5,8.8
			s3.7,1.1,6.9,1s6.3,4.9,4,10.2c-2.3,5.3-6.9,7.1-12,4.7s-7.3-8.1-8.1-12.2c-0.8-4.2-6.1-3.3-7.9-4.6S-25.7-372.6-23.2-377.2z"/>
		<path fill="#FFFFFF" d="M-23-377.5c0,0,2.3-2.9,8.2-0.7s10.6,7.8,12.5,8.8s3.7,1.1,6.9,1s6.3,4.9,4,10.2c-2.3,5.3-6.9,7.1-12,4.7
			s-7.3-8.1-8.1-12.2c-0.8-4.2-6.1-3.3-7.9-4.6S-25.5-372.9-23-377.5z"/>
		<path fill="#EDBD62" d="M-7.3-365.1c0-0.2-0.2-0.3-0.3-0.4c-0.4-0.4-0.6-0.9-1-1.4c-1.2-1.6-2.7-2.9-4.6-3.3
			c-1.6-0.4-3.1-0.8-4.7-1.2c-2-0.5-2.3-1.4-1.7-3.2c1-0.2,2.1-0.3,3.1,0c3.8,1,6.8,3.3,9.5,6.2c1.4,1.5,2.6,3.4,4.8,3.9
			c0.2,0.1,0.4,0.1,0.4,0.4c0,0,5.5,0.8,6.9,4.7c0.7,0.5,0.3,1.3,0.3,1.9s0,1.2-0.7,1.5c-0.8,0.4-1.4,1-2.2,1.3
			c-1.1,0.3-2.1,0.9-3.4,0.6c-1.9-0.5-3.5-1.4-4.6-3c-0.5-0.8-1.4-1.3-1.7-2.3c-0.3-0.8-0.4-1.7-0.5-2.5c-0.1-0.6-0.1-1.2,0.4-1.6"
			/>
		<path fill="#804F21" d="M-2.5-361c0.4,0.7,0.8,1.5,1.7,1.8l0.2,0.1c1,0.6,1.9,1.1,2.9,1.7c0.5,0.3,0.8,0.2,1.3,0
			c1.8-0.7,2.3-1.5,2.3-3.5c0-0.8,0.2-1.7,0.4-2.5c0.1-0.6,0-1-0.5-1.4c-1-0.7-2-0.9-3.1-0.5c-0.9,0.3-1.8,0.6-2.7,0.7
			s-1.7-0.2-2.5,0.4c-0.2,0.2-0.5,0.7-0.6,1.1C-3.3-363-3.6-362.7-2.5-361z"/>
		<path fill="none" stroke="#823733" stroke-width="0.5" stroke-miterlimit="10" d="M-1.4-364.9c0-0.3-0.2-0.4-0.4-0.4
			c-2.2-0.6-3.4-2.4-4.8-3.9c-2.6-2.9-5.6-5.2-9.5-6.2c-0.8-0.2-1.6-0.2-2.4-0.1c-0.4,0.1-0.8,0.4-0.9,0.8c-0.3,1.4,0.2,2.1,1.9,2.5
			c1.6,0.4,3.1,0.8,4.7,1.2c1.9,0.5,3.4,1.7,4.6,3.3c0.3,0.4,0.6,0.9,1,1.4c0.1,0.1,0.3,0.2,0.3,0.4c0.1,1.6,0.7,3.1,0.8,4.7
			c0,0.6,0.4,1.4,0.1,2.1"/>
		<path fill="none" stroke="#823733" stroke-width="0.5" stroke-miterlimit="10" d="M-3.7-363.6c0.1,0,0.3-0.6,0.6-0.8
			c0.8-0.6,1.6-0.3,2.5-0.4s1.8-0.4,2.7-0.7c1.1-0.4,2.2-0.2,3.1,0.5c0.5,0.3,0.6,0.8,0.5,1.4c-0.2,0.8-0.4,1.7-0.4,2.5
			c0,2-0.4,2.7-2.3,3.5c-0.5,0.2-0.8,0.2-1.3,0c-0.9-0.6-1.9-1.1-2.9-1.7l-0.2-0.1c-0.8-0.4-1.3-1.2-1.7-1.8
			c-0.5-0.9-1.3-1.5-0.5-2.6"/>
		<path fill="none" stroke="#823733" stroke-width="0.5" stroke-miterlimit="10" d="M-6.9-364.5c-0.5,0.5-0.5,1.1-0.4,1.6
			c0.1,0.8,0.3,1.7,0.5,2.5c0.3,1,1.2,1.5,1.7,2.3c1.1,1.6,2.7,2.5,4.6,3c1.3,0.3,2.3-0.2,3.4-0.6c0.8-0.2,1.4-0.9,2.2-1.3
			c0.7-0.3,0.8-0.9,0.7-1.5c0-0.6,0.2-1.6-0.5-2.1"/>
		<path fill="none" stroke="#C19962" stroke-width="0.5" stroke-miterlimit="10" d="M2-363.9c1.2,0.6,1.2,0.6,0.9,1.8
			c-0.2,0.6-0.4,1.2-0.2,1.9"/>
	</g>
</g>
<g opacity="0.8">
	<path fill="#FFFFFF" d="M12.6,79.5c0-2.1,4.4-3.7,6.2-3.7c1.8,0,4.8-0.8,4.8,1.2s-3,6.2-4.8,6.2C17,83.3,12.6,81.6,12.6,79.5z"/>
	<g>
		<g>
			<g>
				<g>
					<path fill="#FFFFFF" d="M11.3,79.6c0-0.1-0.2-0.1-0.2-0.1C11.1,79.6,11.4,79.6,11.3,79.6z"/>
					<path fill="#FFFFFF" d="M12.1,80.6L12.1,80.6c-0.1,0,0.2,0.1,0.2,0C12.2,80.6,12.1,80.6,12.1,80.6z"/>
					<path fill="#FFFFFF" d="M12.6,81.3c0.2-0.3-0.2-0.2-0.2-0.4l0.1-0.1l-0.3,0.1C12.2,81.1,12.5,81.1,12.6,81.3z"/>
					<path fill="#FFFFFF" d="M12.3,82.2c0.1-0.1,0.2,0,0-0.1C12.2,82.1,12.2,82.1,12.3,82.2C12.2,82.1,12.2,82.1,12.3,82.2z"/>
					<path fill="#FFFFFF" d="M12.2,82.1C12.1,82.1,12.2,82.2,12.2,82.1L12.2,82.1z"/>
					<path fill="#FFFFFF" d="M12.6,82.3l-0.2,0c0,0.1,0,0.2,0,0.2C12.5,82.6,12.5,82.5,12.6,82.3z"/>
					<path fill="#FFFFFF" d="M12.9,82.2L12.9,82.2C12.8,82.2,12.8,82.3,12.9,82.2z"/>
					<path fill="#FFFFFF" d="M12.6,82.2l0.2,0c0-0.1,0.1-0.1-0.1,0C12.8,82.1,12.7,82.2,12.6,82.2z"/>
					<path fill="#FFFFFF" d="M12.6,82.1c0-0.1,0-0.2,0.2-0.2C12.5,81.8,12.4,82,12.6,82.1z"/>
					<path fill="#FFFFFF" d="M12.9,81.1l0-0.1l-0.1,0C12.8,80.9,12.8,81.1,12.9,81.1z"/>
					<path fill="#FFFFFF" d="M13,83c0.1-0.1,0.1-0.2,0.1-0.3l-0.1,0C13.1,82.8,13.1,82.9,13,83z"/>
					<path fill="#FFFFFF" d="M13.2,82.7l0.2,0C13.3,82.6,13.2,82.6,13.2,82.7z"/>
					<polygon fill="#FFFFFF" points="13.1,81.9 12.8,82 13.2,81.9 					"/>
					<polygon fill="#FFFFFF" points="13.4,83.2 13.3,83.3 13.5,83.2 					"/>
					<path fill="#FFFFFF" d="M13.7,83.4c-0.1,0.1-0.1,0.3-0.2,0.3c0.1,0,0.2-0.1,0.3-0.1C13.8,83.6,13.7,83.5,13.7,83.4z"/>
					<path fill="#FFFFFF" d="M14.1,83.5c0,0-0.1,0.1-0.2,0.1C13.9,83.5,14,83.5,14.1,83.5z"/>
					<path fill="#FFFFFF" d="M13.5,82.8c0,0-0.1,0.2,0,0.2L13.5,82.8L13.5,82.8z"/>
					<path fill="#FFFFFF" d="M13.6,82.8L13.6,82.8C13.6,82.8,13.6,82.9,13.6,82.8C13.6,82.9,13.6,82.8,13.6,82.8z"/>
					<path fill="#FFFFFF" d="M13.5,82.8L13.5,82.8C13.5,82.8,13.5,82.7,13.5,82.8z"/>
					<path fill="#FFFFFF" d="M13.3,82.3c0.1-0.1,0.3-0.1,0.3-0.3C13.5,82,13.5,82.2,13.3,82.3z"/>
					<path fill="#FFFFFF" d="M13.6,82.5l-0.1-0.1c0,0-0.1,0.1-0.1,0.2L13.6,82.5z"/>
					<polygon fill="#FFFFFF" points="13.7,82.5 13.6,82.5 13.6,82.5 					"/>
					<path fill="#FFFFFF" d="M14,83.2c0.1-0.1,0.2,0,0.2,0c0-0.1-0.1-0.1-0.2-0.2C14,83,13.9,83.1,14,83.2z"/>
					<path fill="#FFFFFF" d="M13.8,83L13.8,83C13.8,82.9,13.8,82.9,13.8,83z"/>
					<polygon fill="#FFFFFF" points="14.8,83.4 14.8,83.4 14.8,83.4 					"/>
					<path fill="#FFFFFF" d="M14.1,82.9c0-0.1-0.1,0-0.1,0C14,83,14,83,14.1,82.9C14.1,83,14.1,82.9,14.1,82.9z"/>
					<path fill="#FFFFFF" d="M14.3,83.5c0-0.1,0-0.1,0-0.2C14.2,83.4,14.2,83.5,14.3,83.5z"/>
					<path fill="#FFFFFF" d="M13.8,83L13.8,83C13.8,83.1,13.8,83.1,13.8,83z"/>
					<path fill="#FFFFFF" d="M13.8,83c0,0,0.1,0,0.1-0.1C13.9,83,13.8,83,13.8,83C13.8,83,13.8,83,13.8,83z"/>
					<path fill="#FFFFFF" d="M15.6,82.2c-0.1,0.2-0.3,0.3-0.3,0.1c-0.2,0.1-0.4,0.7-0.5,1.1c0-0.1,0.1-0.2,0.2-0.2
						c0-0.1-0.1-0.4,0.1-0.5c0.2,0,0.1,0.1,0.1,0.3c0.1-0.3,0.3-0.3,0.5-0.6l-0.2,0.1C15.5,82.4,15.6,82.3,15.6,82.2z"/>
					<path fill="#FFFFFF" d="M14.6,83.3L14.6,83.3c0,0.1,0,0.2,0,0.3c0.1-0.1,0.2-0.1,0.2-0.2L14.6,83.3L14.6,83.3z"/>
					<path fill="#FFFFFF" d="M14.3,83.2c0.1-0.2,0.3-0.2,0.3-0.5c-0.1-0.1-0.2,0.1-0.3,0.2C14.6,82.9,14.3,83,14.3,83.2
						c0,0-0.1,0-0.1,0c0,0,0,0.1,0.1,0.2l0,0l0,0L14.3,83.2C14.3,83.2,14.3,83.2,14.3,83.2L14.3,83.2C14.3,83.2,14.3,83.2,14.3,83.2
						C14.4,83.3,14.3,83.2,14.3,83.2L14.3,83.2l-0.1,0.1l0.3,0C14.5,83.2,14.4,83.2,14.3,83.2z"/>
					<path fill="#FFFFFF" d="M14,81.6C14,81.6,14,81.6,14,81.6C14,81.6,14,81.6,14,81.6z"/>
					<path fill="#FFFFFF" d="M14,81.8c0,0-0.1,0.1-0.1,0c0-0.1,0.1-0.1,0.1-0.1c-0.1,0-0.2,0.1-0.2,0.2l0,0c0,0.1,0,0.4-0.1,0.4
						C13.8,82.1,13.9,82,14,81.8z"/>
					<path fill="#FFFFFF" d="M14.2,82.4l0.2,0l0-0.2l-0.1,0.1C14.3,82.2,14.2,82.4,14.2,82.4z"/>
					<polygon fill="#FFFFFF" points="14.7,83.6 14.6,83.8 14.9,83.5 					"/>
					<polygon fill="#FFFFFF" points="15,83.6 14.9,83.8 15,83.7 					"/>
					<path fill="#FFFFFF" d="M22.2,77.1L22.2,77.1C22.1,77.1,22.1,77.1,22.2,77.1z"/>
					<path fill="#FFFFFF" d="M22.2,77.2l0.1-0.1C22.3,77.2,22.2,77.2,22.2,77.2z"/>
					<path fill="#FFFFFF" d="M21.6,83.3c0.2,0.1,0.5,0.2,0.3,0.1l-0.2-0.1C21.7,83.3,21.7,83.3,21.6,83.3z"/>
					<path fill="#FFFFFF" d="M22.9,79.2L22.9,79.2c0,0,0,0.1,0.1,0.1C23,79.3,23,79.3,22.9,79.2z"/>
					<path fill="#FFFFFF" d="M22.1,78.8l0.2,0C22.2,78.8,22.2,78.8,22.1,78.8z"/>
					<path fill="#FFFFFF" d="M21.3,77.2l0,0.2C21.4,77.4,21.3,77.3,21.3,77.2z"/>
					<path fill="#FFFFFF" d="M17.5,84.4c0.1,0.1,0.1,0.2,0.2,0.2C17.6,84.4,17.5,84.2,17.5,84.4z"/>
					<path fill="#FFFFFF" d="M24.3,75.4c-0.1,0-0.1,0-0.2,0C24.2,75.5,24.2,75.5,24.3,75.4z"/>
					<path fill="#FFFFFF" d="M17.9,84.6C17.8,84.6,17.8,84.6,17.9,84.6c-0.1,0-0.2,0-0.2,0C17.7,84.7,17.8,84.8,17.9,84.6z"/>
					<path fill="#FFFFFF" d="M14.9,78.5C14.9,78.5,14.9,78.5,14.9,78.5C14.9,78.5,14.9,78.5,14.9,78.5z"/>
					<path fill="#FFFFFF" d="M11.8,78.5c0,0,0-0.1,0-0.1C11.8,78.4,11.8,78.4,11.8,78.5z"/>
					<path fill="#FFFFFF" d="M15.9,84.1C15.8,84.1,15.9,84.1,15.9,84.1L15.9,84.1z"/>
					<path fill="#FFFFFF" d="M16,83.2C16,83.2,16,83.1,16,83.2C16,83.1,16,83.2,16,83.2z"/>
					<path fill="#FFFFFF" d="M18.6,83.3L18.6,83.3C18.6,83.2,18.6,83.2,18.6,83.3z"/>
					<path fill="#FFFFFF" d="M15.9,84C15.9,84,15.9,84.1,15.9,84C15.9,84.1,15.9,84,15.9,84z"/>
					<path fill="#FFFFFF" d="M15.8,84.1C15.8,84.1,15.8,84.1,15.8,84.1C15.8,84.1,15.8,84.1,15.8,84.1z"/>
					<path fill="#FFFFFF" d="M16,84.1C15.9,84.1,15.9,84.1,16,84.1C15.9,84.1,15.9,84.1,16,84.1C15.9,84.1,15.9,84.1,16,84.1z"/>
					<path fill="#FFFFFF" d="M18,76.6C18,76.6,18,76.6,18,76.6C18,76.7,18,76.7,18,76.6z"/>
					<polygon fill="#FFFFFF" points="20.8,80.7 20.8,80.7 20.8,80.7 					"/>
					<path fill="#FFFFFF" d="M20.7,80.5c0.2,0.2,0.1,0.2,0,0.2l0.5,0.4L20.7,80.5z"/>
					<path fill="#FFFFFF" d="M21.8,77l-0.1,0.2c-0.2,0.3-0.1,0.2-0.3,0.5c0.4-0.7,0.1-0.1,0.6-0.7l-0.1,0.1c0,0,0,0,0,0
						c-0.2,0.3,0.4-0.4,0.4-0.3c0,0.1-0.1,0.2-0.2,0.2l0.2-0.1c0,0-0.1,0.1-0.1,0.1c0,0,0.1,0,0.1,0l0,0c0.1-0.1,0.3-0.1,0.4-0.2
						c-0.1,0.1-0.1,0-0.2,0.1l0.2,0c-0.2,0.1-0.4,0.2-0.4,0.1c-0.7,0.5,0.2,0-0.2,0.3l-0.1,0c-0.4,0.2-0.3,0.2-0.5,0.3
						c0.1,0,0.7-0.3,0.9-0.3c-0.1,0-0.1,0.1,0.1,0.1c-0.3,0.1-0.2,0.1-0.2,0.1l-0.4,0.1c0.1,0,0.3,0,0.4,0c0,0.1-0.3,0.1-0.6,0.1
						c-0.1,0,0.5-0.1,0.5,0c-0.2,0.1,0,0.1,0.2,0.2c-0.1,0-0.2,0-0.3,0l0.3,0.1c0,0-0.1,0-0.1,0c0.1,0.1,0.3,0.1,0.4,0.2
						c0.4,0.1-0.6,0-0.2,0.3c-0.1,0-0.2-0.1-0.3-0.1c0.2,0.3,0.1,0.2,0.4,0.5l-0.3,0c0.3,0,0.5,0.3,0.6,0.5c0.1,0,0.2,0,0.3,0
						l0.1,0.3c-0.1,0-0.2-0.1-0.3-0.2l0.1,0.1c-0.1,0-0.3-0.1-0.4-0.2c0.1,0,0.1,0,0.2,0c-0.2-0.1-0.3-0.3-0.5-0.4
						c0,0,0,0.1,0.1,0.1c0,0-0.1-0.1-0.1-0.1c0,0,0,0,0.1,0.1L22,78.9l0.1,0.1L21.8,79c0.2,0.3,0.7,0.7,0.6,1.1
						c-0.2-0.2-0.4-0.3-0.6-0.4c0.3,0.1,0-0.3,0.1-0.3c-0.1,0-0.2,0-0.2-0.1l0.1,0.4c-0.2-0.1-0.2-0.1-0.3-0.1
						c0.5,0.2,0.2,0.3,0.3,0.5c-0.2-0.1-0.3-0.2-0.2-0.3c-0.4-0.1,0.4,0.5,0.1,0.4c0,0,0,0,0-0.1c0.1,0.1-0.1,0.2-0.2,0.1l0,0
						c-0.2,0.1-0.4,0.5,0,0.8c0,0-0.4-0.4-0.5-0.4c0,0,0.2,0.3,0.5,0.6c0.2,0.3,0.5,0.6,0.5,0.6c-0.3-0.3-1-0.8-1.1-1
						c-0.1,0-0.2,0-0.1,0.2c0.1,0,0.5,0.3,0.5,0.4c-0.4-0.2-0.2-0.1-0.6-0.2c0.1,0,0.5,0.5,0.4,0.5c-0.1-0.1-0.4-0.4-0.5-0.5
						l0.3,0.5c0-0.1-0.4-0.4-0.5-0.4c0.1,0.1-0.1,0.1-0.1,0.2l0.2,0c-0.2,0.1,0.4,0.8,0.2,0.9c-0.1-0.1-0.5-0.6-0.6-0.6
						c0.2,0.3,0.8,1.3,0.7,1.6l-0.1-0.1l0,0.3c-0.2-0.5-0.5-1.4-0.7-1.7c-0.1-0.1-0.1-0.1-0.2-0.1c-0.1-0.1-0.1-0.2-0.1-0.3
						c0,0-0.2,0.1-0.2,0.1c0.2,0.3,0.1,0.4,0.2,0.6c0,0,0-0.1,0-0.2c0-0.1,0-0.2,0-0.2c0.2,0.3,0.5,0.9,0.3,1
						c-0.1-0.1-0.3-0.5-0.4-0.6c0.1,0.1,0,0.3-0.1,0.2l0-0.2c-0.1-0.1,0.1,0.5-0.1,0.2c0,0-0.2-0.4-0.2-0.2c0.2,0.4,0.7,1.5,0.8,1.8
						c0,0-0.5-0.2-0.5-0.4c-0.1-0.3-0.1-0.8-0.2-1c0,0.1,0,0.2,0,0.3c-0.1-0.1-0.1-0.3-0.1-0.2c0.1,0.4-0.1,0,0,0.3
						c-0.1,0.1-0.1-0.1-0.2,0c0.1,0.2-0.1,0.8-0.2,0.9c0-0.1,0-0.2,0-0.3c-0.2,0-0.3-0.2-0.5-0.3c0-0.1-0.1-0.2,0-0.4
						c0,0.1-0.1,0.2-0.2,0.2c-0.1-0.3,0.1,0,0.1-0.4c0,0.2-0.2,0.2-0.3,0.4c0,0.3,0.2,0.1,0.3,0c-0.1,0.4-0.3,0.9-0.6,1
						c-0.2,0.1,0-0.3-0.1-0.2c-0.3-0.2-0.5,0.7-0.7,0.3c0-0.3,0.2-0.5,0.2-0.7c0.2-0.1,0.2,0.2,0.3,0.3L17,83.1
						c0.1-0.1,0.2-0.1,0.2,0c0-0.3-0.5-0.2-0.7-0.5c-0.1,0.1-0.2,0.1-0.2,0.3l0.1,0c0,0.2-0.3,0.2-0.2,0.4c-0.2,0.1-0.4,0.3-0.5,0.1
						l0.1-0.3c0,0.1,0,0.2,0.1,0.1c-0.1,0.1-0.1-0.5-0.3-0.1l0,0.3c-0.2,0.1-0.4,0.4-0.5,0.2c-0.1,0.3,0,0,0,0.4
						c0.1-0.5,0.3,0.2,0.4-0.3c-0.1,0.4,0.1,0.2,0.1,0.6c0-0.1,0-0.2,0.1-0.1c0,0,0-0.1,0.1-0.1l0,0l0,0c0,0,0,0,0,0
						c0-0.1,0-0.1,0-0.2c0.1-0.2,0.3-0.1,0.4-0.2c0.1,0.1-0.1,0.1-0.1,0.2l0.2-0.1c-0.1,0.2,0.1,0.4-0.2,0.5l0.1,0.1
						c0,0.2,0.2,0.2,0.3,0.2c0.1,0.1,0.3-0.2,0.1,0l0.3-0.1l0,0.1c0.2,0.1,0.6-0.3,0.8,0.2c0.1,0,0.2-0.1,0.3,0l0,0.2
						c0.1,0,0.4,0.2,0.5,0c0.1,0.3,0.3,0.3,0.5,0.2c0.2-0.1,0.4-0.2,0.6-0.2l-0.1-0.3c0.2-0.1,0.4-0.2,0.5-0.4L20.1,84
						c0-0.3,0.5,0,0.6-0.2c0,0.1,0,0.1-0.1,0.1c0.6,0.3,0.3-0.7,0.7-0.5c0-0.1,0-0.1,0.1-0.1c0,0,0,0,0,0c0,0,0,0,0,0
						c0,0,0.1,0,0.1,0c-0.1,0-0.1,0-0.1,0c0,0,0.1-0.1,0.1-0.2l0.2,0.2c0,0,0,0,0,0c0.1,0,0-0.1-0.2-0.2c0-0.1,0-0.1,0-0.2
						c0.3,0.3,0-0.2,0.4,0c-0.1-0.2,0.1-0.4-0.2-0.7c0,0,0.1,0,0.1,0.1c0.1,0,0.2,0,0.1-0.2l0.3,0.2l-0.2-0.4
						c0.2,0.1,0.3,0.1,0.5,0.3c-0.1-0.4,0-0.2-0.2-0.6l0.2,0.1c0-0.1-0.1-0.3,0-0.2c0.4,0.1,0.5-0.6,1-0.7c-0.6-0.3,0.3,0-0.1-0.3
						c0.1,0.1,0.2,0,0.3,0.2c0-0.3,0.4-0.2,0.1-0.5c0.1,0,0.2,0.1,0.2,0.2c0,0-0.1-0.1,0-0.1c0.1,0,0.1,0.1,0.1,0.1
						c0.1-0.2-0.3-0.4-0.7-0.6c0.2,0,0.2-0.1,0-0.3c0.1,0,0.3,0,0.3,0.2c0-0.1,0.4-0.3,0.1-0.5c0.1,0,0.1-0.1,0-0.1
						c0.1-0.1,0.1-0.1,0.1-0.3l-0.1,0c-0.4-0.2,0-0.2,0-0.3l0,0c0.4-0.3-0.1-0.2,0.3-0.5l-0.3,0c-0.5-0.1,0.4-0.3,0.2-0.5l-0.2,0.1
						c-0.2-0.1,0.8-0.4,0.8-0.6c0,0,0.1,0,0.1,0.1c0.3-0.4-0.3,0-0.4-0.2c0.2-0.1,0.5-0.1,0.4-0.2c0.1-0.2-0.6-0.3-0.4-0.6
						c-0.1,0.1-0.2,0.2-0.3,0.2c-0.1-0.1,0.2-0.7-0.2-0.5c0,0,0-0.1,0.1-0.1c-0.2,0-0.4-0.2-0.7,0c0.2-0.4,0-0.4-0.2-0.4
						c-0.2,0-0.4,0.1-0.2-0.3c0,0-0.4-0.1-0.4-0.1l0-0.1c-0.3-0.1-0.4,0.1-0.5,0.3c0-0.1,0-0.1,0-0.2c-0.3-0.2-0.4-0.2-0.7,0.3
						l0-0.3c-0.1,0.2-0.4-0.4-0.7-0.1c0,0,0-0.1,0-0.1c-0.3,0.3-0.8-0.7-0.8,0.3l-0.2,0.2c0.3,0.1,0,0.4,0.1,0.6
						c-0.1,0.1-0.3-0.3-0.2-0.3l0,0c0-0.5-0.3-0.2-0.3-0.5c-0.3,0-0.4,0-0.7-0.1c-0.3-0.1-0.6-0.1-0.8-0.1l0.1,0.4l-0.2,0
						c-0.1-0.1-0.1-0.3,0-0.3c-0.1-0.2-0.2,0.2-0.2,0.3c-0.3-0.1,0-0.5-0.1-0.5l-0.1,0l0,0c-0.1,0.2,0,0.3-0.2,0.4
						c-0.1-0.1-0.1-0.2-0.1-0.2c0,0,0,0-0.1,0l-0.2,0l0.2,0.3c-0.1,0.2-0.2,0,0,0.3c-0.3-0.5-0.8,0-1-0.1c-0.1,0.3-0.2,0.3-0.3,0.3
						c0.1,0,0.2,0.4,0.1,0.4c-0.2-0.7-0.3-0.2-0.7-0.6c0.2,0.3-0.3,0.2,0,0.6c-0.1,0-0.1-0.2-0.3-0.4c-0.1,0.4-0.7,0.1-0.9,0.4
						c0,0.1,0.2,0.2,0.2,0.3l-0.4-0.3c0,0.1,0.2,0.5-0.1,0.3c0.1,0.1,0.1,0.1,0.1,0.2c-0.4,0-0.7,0.3-0.9,0.6
						c-0.3,0.3-0.5,0.6-1.1,0.8c0.2,0,0.2,0,0.2,0.1c0.1,0,0.2,0.1,0.3,0.1c0,0-0.5,0.2-0.5,0.2c0.3,0.1-0.1,0.5,0.3,0.5l0-0.1
						c0.4,0.2,0.9-0.1,1.4,0.1c-0.2-0.1,0-0.1,0.1-0.1c0.2,0,0.3,0,0-0.2c0.1,0,0.1,0.1,0.2,0.1c-0.2-0.1-0.2-0.2-0.1-0.2l0,0
						c0.1-0.2,0.3-0.2,0.6-0.2l-0.2-0.2c0.1,0,0.1,0,0.2,0.1c-0.2-0.3-0.1,0.1-0.4-0.3c0.4,0.3,0.4-0.3,0.8,0.1
						c0.1-0.1-0.2-0.2-0.1-0.3l0.1,0.1l-0.1-0.2c0.1,0,0.2,0.1,0.3,0.2c0,0,0,0.1,0,0.1c0.2,0.1,0.2-0.2,0.2-0.1l-0.1,0
						c0.2-0.3,0.6-0.3,0.7-0.7l-0.1-0.1c0.1-0.3,0.2,0,0.4-0.1l0,0c0-0.1,0-0.2,0.1-0.2c0,0.2,0.2,0.2,0.2,0.4
						c0.1-0.3,0-0.2,0.1-0.7l0.1,0.2c0-0.2,0-0.3,0.1-0.4c0,0.2,0.2,0.3,0.1,0.5c0.4,0.3,0.3-0.5,0.5,0c0-0.6-0.3-0.2-0.3-0.4
						c-0.1-0.2,0-0.4,0.1-0.4c0.1,0,0.3,0.6,0.5,0.6c0,0,0,0,0,0c0.1,0.1,0.1-0.2,0.2,0c0-0.3,0.1,0,0.1-0.4l-0.2,0.1
						c0.1-0.1,0.1-0.6,0.3-0.4c0,0.1,0,0.2-0.1,0.3c0.1,0.1,0.1-0.1,0.2,0c0.1,0.4-0.2,0.1-0.3,0.5c0.1,0.2,0.2-0.3,0.2,0.1
						c0-0.6,0.2,0,0.3-0.4l0,0.2c0,0,0-0.2,0.1-0.2l0,0.3c0.1-0.3,0.2,0.2,0.3,0.1c-0.2,0-0.1-0.3-0.2-0.5c0.1-0.2,0.2,0,0.2,0.2
						c0.1,0.2,0,0.4,0.3,0.3c-0.1,0-0.2-0.1-0.1-0.3c0.1,0,0.2,0.1,0.2,0.3c0.3-0.1-0.1-0.3,0.1-0.4c0.1,0.3,0.1-0.1,0.2-0.2l0,0.3
						c0.3,0.1,0-0.5,0.3-0.4L19.6,77l0.1-0.1l0,0.3c0.1-0.2,0.2-0.2,0.3-0.1c0-0.2,0-0.5,0.1-0.5c0.1,0.1,0,0.2,0.1,0.2
						c0,0.2,0,0.4-0.1,0.1c0,0.1,0,0.2,0,0.2c0.1,0.2,0.2,0,0.3,0c0,0-0.1,0-0.1-0.1l0.2-0.4c0,0.1,0,0.2,0,0.2c0,0,0.1-0.2,0.1-0.2
						c0,0.2,0,0.4-0.1,0.5l0.2-0.2c0,0.1,0.1,0.2,0.1,0.3c0.1,0.1,0.3-0.4,0.4-0.3c0,0,0-0.1,0.1-0.1c0.1,0,0.1,0.3,0.2,0l-0.1,0.4
						c0.1-0.1,0.1-0.5,0.2-0.6c0.1-0.1-0.1,0.3-0.1,0.4C21.7,77,22,76.7,21.8,77C21.8,77.1,21.8,77,21.8,77z M22.4,77.4
						C22.4,77.4,22.2,77.4,22.4,77.4C22.6,77.2,22.5,77.3,22.4,77.4z M22.4,79.3C22.3,79.2,22.4,79.2,22.4,79.3
						C22.5,79.2,22.5,79.2,22.4,79.3z M16.5,84.1C16.5,84.1,16.5,84.1,16.5,84.1C16.6,84.2,16.6,84.2,16.5,84.1z M16.4,84
						C16.4,84,16.3,84,16.4,84C16.4,84,16.4,84,16.4,84C16.5,84,16.5,83.9,16.4,84z M17.1,75.1L17.1,75.1
						C17.1,75.2,17.1,75.2,17.1,75.1z"/>
					<path fill="#FFFFFF" d="M22.2,78.8c0,0,0.1,0,0.1,0C22.3,78.9,22.3,78.8,22.2,78.8z"/>
					<polygon fill="#FFFFFF" points="21.4,77.1 21.3,77.1 21.3,77.2 					"/>
					<path fill="#FFFFFF" d="M19,82.3c0,0,0,0.1,0.1,0.1C19,82.3,19,82.3,19,82.3z"/>
					<path fill="#FFFFFF" d="M15.3,84l0.1,0c-0.1,0-0.1-0.1-0.1-0.1C15.4,83.9,15.4,84,15.3,84z"/>
					<path fill="#FFFFFF" d="M15.1,82.2C15.1,82.2,15.1,82.2,15.1,82.2L15,82.3C15.1,82.3,15.1,82.3,15.1,82.2z"/>
					<path fill="#FFFFFF" d="M15.6,83.2c0.1-0.2,0-0.2-0.1-0.2c0,0,0,0,0,0C15.3,83.3,15.4,83.3,15.6,83.2z"/>
					<path fill="#FFFFFF" d="M15.4,83C15.4,83,15.4,83,15.4,83C15.3,83.1,15.4,83.1,15.4,83z"/>
					<path fill="#FFFFFF" d="M16.1,84c0-0.1-0.1,0.2-0.1,0.2C15.9,84.4,16.4,84,16.1,84z"/>
					<polygon fill="#FFFFFF" points="15.8,82.5 15.7,82.8 15.8,82.6 					"/>
					<path fill="#FFFFFF" d="M16.2,82.9l-0.1-0.1c0,0,0,0.1-0.1,0.1C16.2,82.9,16.2,83,16.2,82.9z"/>
					<path fill="#FFFFFF" d="M16.1,82.9c0,0-0.1,0-0.1,0C16,82.9,16.1,82.9,16.1,82.9z"/>
					<polygon fill="#FFFFFF" points="16,82.5 16,82.6 16,82.6 					"/>
					<path fill="#FFFFFF" d="M17.5,83.4l0.1,0c0-0.1,0-0.1,0-0.1C17.5,83.3,17.5,83.3,17.5,83.4z"/>
					<path fill="#FFFFFF" d="M17.3,82.6c0,0.1,0,0.1,0,0.2l0.1-0.3L17.3,82.6z"/>
					<path fill="#FFFFFF" d="M17.6,82.6c0-0.1,0.2-0.2,0.1-0.2C17.7,82.4,17.6,82.5,17.6,82.6z"/>
					<polygon fill="#FFFFFF" points="19.4,83.1 19.3,83.1 19.5,83.6 					"/>
					<path fill="#FFFFFF" d="M19.8,81.2c-0.2,0,0.2,0.3,0,0.2c0.1,0.1,0.2,0,0.2,0.1C20,81.4,20.1,81.4,19.8,81.2z"/>
					<path fill="#FFFFFF" d="M20,81.6C20,81.6,20.1,81.6,20,81.6C20.1,81.6,20.1,81.6,20,81.6z"/>
					<polygon fill="#FFFFFF" points="11.4,79 11.2,79.2 11.4,79.1 					"/>
					<path fill="#FFFFFF" d="M11.7,79.4l-0.3,0l0.3,0.1C11.7,79.5,11.6,79.4,11.7,79.4z"/>
					<path fill="#FFFFFF" d="M21.7,77.7L21.7,77.7c0.2,0,0.2-0.1,0.2-0.1L21.7,77.7z"/>
					<polygon fill="#FFFFFF" points="21.8,77.3 21.8,77.3 22.1,77.1 					"/>
					<path fill="#FFFFFF" d="M21.5,77.7C21.5,77.7,21.5,77.6,21.5,77.7C21.5,77.7,21.6,77.3,21.5,77.7z"/>
				</g>
			</g>
		</g>
	</g>
</g>
<g>
	<rect x="0" y="60" fill="none" width="40" height="40"/>
</g>
</svg>
