<?xml version="1.0" encoding="utf-8"?>
<!-- Generator: Adobe Illustrator 18.0.0, SVG Export Plug-In . SVG Version: 6.00 Build 0)  -->
<!DOCTYPE svg PUBLIC "-//W3C//DTD SVG 1.1//EN" "http://www.w3.org/Graphics/SVG/1.1/DTD/svg11.dtd">
<svg version="1.1" id="圖層_1" xmlns="http://www.w3.org/2000/svg" xmlns:xlink="http://www.w3.org/1999/xlink" x="0px" y="0px"
	 viewBox="0 0 60 45" enable-background="new 0 0 60 45" xml:space="preserve">
<g>
	<path fill="none" stroke="#000000" stroke-width="0.507" stroke-miterlimit="10" d="M32.4,34.7c-0.9,0.6-1.8,1.2-2.9,1.4
		c-0.5,0.1-1.1,0.2-1.6,0c-0.5-0.1-1-0.4-1.5-0.7c-0.3-0.3-0.6-0.7-0.5-0.8c0.4,0.4,0.8,0.7,1.2,1c0.4,0.3,0.9,0.4,1.4,0.4
		c1,0,2-0.5,2.9-1C31.8,34.8,32.3,34.6,32.4,34.7z"/>
	<path fill="none" stroke="#000000" stroke-width="0.507" stroke-miterlimit="10" d="M40.2,29.7c-1.3,1.9-2.6,3.7-4.1,5.4
		c-0.7,0.9-1.5,1.7-2.2,2.5c-0.8,0.8-1.6,1.6-2.6,2.2c-0.5,0.3-1,0.5-1.6,0.7c-0.6,0.2-1.2,0.2-1.7,0.1c-0.6-0.1-1.1-0.4-1.6-0.8
		c-0.5-0.4-0.8-0.8-1.2-1.2c-0.4-0.4-0.7-0.9-1.1-1.3c-0.3-0.5-0.6-0.9-0.9-1.4c-0.6-1-1.1-2-1.6-3c-0.4-0.8-0.8-1.6-1.2-2.3
		c-0.2-0.3-0.4-0.6-0.5-0.8c-0.1-0.2-0.3-0.3-0.2-0.3c0.3,0.2,0.5,0.4,0.7,0.6c0.2,0.2,0.3,0.5,0.5,0.7c0.3,0.5,0.6,1,0.8,1.5
		c0.5,1,1,2,1.6,3c0.3,0.5,0.6,1,0.9,1.4c0.3,0.5,0.7,0.9,1,1.3c0.4,0.4,0.7,0.9,1.1,1.2c0.4,0.4,0.8,0.7,1.3,0.9
		c0.5,0.2,1.1,0.2,1.6,0.1c0.1,0,0.3-0.1,0.4-0.1l0.2,0l0.2-0.1c0.1,0,0.3-0.1,0.4-0.1l0.4-0.2c1-0.5,1.8-1.3,2.6-2
		c0.8-0.8,1.5-1.6,2.3-2.5c0.7-0.9,1.4-1.7,2.1-2.6C38.7,31.4,40,29.6,40.2,29.7z"/>
	<path fill="none" stroke="#000000" stroke-width="0.507" stroke-miterlimit="10" d="M28.7,38c-0.2,0-0.4,0-0.7,0
		c-0.2,0-0.4-0.1-0.6-0.1c-0.4-0.1-0.8-0.3-1.1-0.6c-0.7-0.5-1.2-1.1-1.7-1.7c-1-1.3-1.9-2.6-2.7-4c-0.3-0.5-0.6-1.3-0.4-1.3
		c0.8,1.4,1.7,2.7,2.6,4.1c0.5,0.6,0.9,1.3,1.4,1.9c0.5,0.6,1.2,1.1,1.9,1.4c0.3,0.1,0.6,0.2,0.8,0.3C28.5,37.9,28.7,37.9,28.7,38z"
		/>
	<g>
		<g>
			<path d="M29.9,17.1v12.3v0.1c0,0.3-0.3,0.5-0.6,0.5h-0.1c-0.3,0-0.6-0.2-0.6-0.5v-0.1v-4.1V9.1c0-0.3,0.3-0.5,0.6-0.5l0,0
				c0.3,0,0.6,0.2,0.6,0.5v11.8V17.1"/>
		</g>
	</g>
	<g>
		<g>
			<g>
				<path d="M33.9,33l0.2-1.7l-0.5-0.1h-0.4h-3.3v0.2v0.1c0,0.2-0.2,0.3-0.4,0.3h0c-0.2,0-0.4-0.1-0.4-0.3v-0.1v-0.2h-2.9h-0.5
					l-0.9,0.2l0.1,1.5l2.6,0.3h4.8L33.9,33z"/>
			</g>
		</g>
	</g>
	<g>
		<g>
			<path d="M28.5,4.6v2.3c0,0.2,0.3,0.4,0.6,0.4h0.2c0.3,0,0.7-0.2,0.7-0.4V4.2c0-0.2-0.4-0.4-0.7-0.4h-0.2
				C28.8,3.9,28.5,4.1,28.5,4.6z"/>
		</g>
	</g>
	<path fill="none" stroke="#000000" stroke-width="0.507" stroke-miterlimit="10" d="M32,36.6c1.8-1.9,3.6-3.7,5.3-5.6
		c0.3-0.4,0.8-0.7,1-0.6c-0.9,1-1.7,1.9-2.6,2.8L33,36C32.6,36.3,32.1,36.7,32,36.6z"/>
</g>
</svg>
