<svg xmlns="http://www.w3.org/2000/svg" viewBox="0 0 40 100"><g fill="none"><g stroke="#823733" stroke-miterlimit="10"><path stroke-width=".442" d="M28.6 69.5c.4.4.5.9.5 1.4-.2 1-.2 2 0 3 .2.7-.3 1.1-.8 1.6-.8.7-1.8 1.1-2.8 1.4-.2.1-.4 0-.6-.1m7.9-2.5c-.8.2-1.6-.1-2.4-.1-.3 0-.6-.1-.9-.2M5.1 80c.7.6 1.1.5 1.7 0 .5-.3 1-.7 1.4-1.1.5-.4 1.1-.4 1.6-.6 1.3-.5 1.3-.4 1-1.8-.2-.8-.6-1.4-.8-2.2-.1-.5-1.2-.9-1.8-.7-.9.3-1.7.5-2.6.7-.4.1-.7-.1-1-.2-.8-.3-1.2-.2-1.4.7-.3.9-.6 1.9-.9 2.9.9.5 1.9 1.1 2.9 1.5"/><path stroke-width=".442" d="M5.3 79.4c0-.3-.1-.5 0-.8.1-.7-.1-1.3-.3-1.9-.1-.2-.1-.4-.1-.5"/><path stroke-width=".442" d="M3.9 75.1c.6 1.4 2.3 1.8 3.5.9.6-.4 1.8-.2 2.4.2.3.2.6.4 1 .4m19.6-6.5c.7.3 1.3.7 1.9 1.2"/><path opacity=".35" stroke-width=".265" d="M21.4 57.6c-.8.4-5.6 2.4-7.1 5s-.6 6.9 3.5 10.2S22 83.9 30 82s10.5-10 6.4-13.5-7.5-3.1-8.7-8.1c-1.1-5-6.3-2.8-6.3-2.8zM8.7 71.1c-4.8-.6-8.9 3.8-7.5 8.5v.1c1.5 4.8 11.2 1.5 11.9-.5.8-2 1.3-5-2-7.2-.6-.5-1.5-.8-2.4-.9z"/><path stroke-width=".442" d="M25.8 65.1c-.9-.3-2.2.7-3.1 1.8-.5.6-1.1 1.4-1.8 1.5-.4.1-.7.2-1 .5"/><path stroke-width=".442" d="M21.5 62.5c-.9 0-1.1.4-1.3 1.2-.1.6-.2 1.2-.2 1.8s-.4 1-.7 1.6c-.6 1.3-.6 1.2.6 2 .7.4 1.4.6 2.1 1 .4.2 1.5-.3 1.7-.8.4-.8.9-1.6 1.4-2.4.2-.3.5-.4.8-.6.8-.4 1-.7.6-1.5s-.8-1.5-1.2-2.4c-.1-.2-.3-.3-.5-.2-.9.2-1.9.5-2.8.9"/><path stroke-width=".442" d="M21.8 63.5c.2.2.5.3.6.6.4.6 0 1.1.7 1.4.2.1.3.2.5.3m8.5 3.1c.8.2.9 1.1 1.1 1.9.4 1.4.6 2.8.9 4.1.1.2 0 .5-.2.7-.5.6-1 1.2-1.6 1.7-.4.3-.8.6-1.4.4-.3-.1-.5.1-.7.3-.8.7-1.7 1.2-2.8 1.5-.3.1-.6 0-.8-.2-.5-.5-1-1-1.4-1.5-1-1.2-.9-3.3-.2-4.3.6-.9 1.3-1.7 1.9-2.6.1-.1.2-.3.3-.4.4-1 1.3-1.1 2.1-1.1.9 0 1.3-.2 2.2-.4 0-.2.2-.2.6-.1z"/></g><path d="M0 0h40v100H0z"/></g></svg>