<svg xmlns="http://www.w3.org/2000/svg" viewBox="0 0 40 100"><g fill="none"><g stroke="#823733" stroke-miterlimit="10"><g stroke-width=".442"><path d="M20.8 63.2c.1-.8.1-1.6.1-2.4-.1-.9-1-1.5-1.7-1.6-1.7-.3-3.1.4-4 1.7-.7.9-1.3 1.9-1.5 3.1-.1.6-.6 1.3-1.3 1.6-1.7.7-2.2 2-2 3.7.3 2 1 3.7 2.8 4.9 1.6 1 3.1.5 4.6-.1.9-.4 1.7-.9 2.7-1 .9-.1 1.7-.2 2.6-.3 1.1-.1 1.8.8 2.3 1.5.1.1.1.6.1 1.3v.2c0 .1-.1.6-.8 1.1-1.5 1-.8 1.6-.8 1.6s.4.6 2.1.4c0 0 1.3.2-.2.8-.3.1-1.6.3-1.5.7.1.3.3.5.7.6.8.2 2.2-.3 3.2-1.2"/><path d="M21.6 79.3c-1.1 1-.8 2 .5 2.8 1.2.8 2.5.8 3.9.9 1.6.2 2.9 0 4.2-1 .6-.4.7-.9.5-1.4-.2-.6-.4-1.2-1-1.6-.5-.3-.8-.4-1.2-.8-.5-.4-.6-1.3-.6-1.8l-.4-4.3c-.1-.8-.4-1.3-1.1-1.8-.6-.4-1-.7-1.6-.2 0 0-.4.3-.3.8.1.8.8.8 1.2 1.5.2.4.1.8-.1 1.2l-.4.3"/><path d="M24.4 70.6c-.7-.9-1.7-1.8-2.4-2.7-1.1-1.5-.9-3 .1-4.5.2-.3 1-.3 1.6.1 1.3.8 1.9 2 2 3.5 0 1.1.1 2.1.3 3.2 0 .1 0 .2-.1.3m-7.2-7.2c-.2-.4-.1-.7.3-.9.3-.2.5-.3.7-.7.4-.8-.5-2.1-1.8-1.4-.7.4-1.9 2.8-1.8 3.3"/><path d="M20.1 62.9c-1.2.6-2.5.7-3.9.8-.1 0-.8.2-.9.2m5.3-.5c.5-.2 1-.4 1.5-.1"/></g><path opacity=".35" stroke-width=".265" d="M11.9 62.9s1.3-5.9 6.5-6.2 4.2 3.1 4.2 3.1-.1 2.1 3.2 1.9c3.3-.2 4.3 13.6 4.3 13.6s-.4 1.9 2.2 2.9c2.5 1.1 1.9 6.8-6.3 6.3s-7.4-4.7-7.6-5.6-.3-2.7-2.2-2.5-5.6.2-7.3-5 1.6-6.4 1.6-6.4.9-.6 1.4-2.1z"/></g><path d="M0 0h40v100H0z"/></g></svg>