<svg xmlns="http://www.w3.org/2000/svg" viewBox="0 0 40 100"><path fill="none" d="M0 0h40v100H0z"/><path opacity=".2" fill="#796A56" d="M11.9 63.1s1.3-5.9 6.5-6.2 4.2 3.1 4.2 3.1-.1 2.1 3.2 1.9 4.3 13.6 4.3 13.6-.4 1.9 2.2 2.9c2.5 1.1 1.9 6.8-6.3 6.3s-7.4-4.7-7.6-5.6-.3-2.7-2.2-2.5c-1.9.2-5.6.2-7.3-5s1.6-6.4 1.6-6.4.9-.7 1.4-2.1z"/><path fill="#FFF" d="M11.9 62.9s1.3-5.9 6.5-6.2 4.2 3.1 4.2 3.1-.1 2.1 3.2 1.9c3.3-.2 4.3 13.6 4.3 13.6s-.4 1.9 2.2 2.9c2.5 1.1 1.9 6.8-6.3 6.3s-7.4-4.7-7.6-5.6-.3-2.7-2.2-2.5-5.6.2-7.3-5 1.6-6.4 1.6-6.4.9-.6 1.4-2.1z"/><path fill="#AC8349" d="M25.9 74.1c-.6-.7-1.2-1.5-2.3-1.5-.9.1-1.7.2-2.6.3-1 .1-1.8.7-2.7 1-1.5.6-3 1.1-4.6.1-1.8-1.2-2.5-2.9-2.8-4.9-.2-1.7.2-3 2-3.7.7-.3 1.2-1 1.3-1.6.2-1.2.9-2.2 1.5-3.1.9-1.3 2.3-2 4-1.7.7.1 1.6.7 1.7 1.6 0 .8-.1 1.6-.1 2.4 0 0-.7 1.1-1.1.5-.4-.6 0-4.1-1.7-3.1-1.8 1-3.6 4.7-1.5 4.5s4.2 2.6 5.8 1.8c1.5-.7 4.6 5.6 3.1 7.4z"/><path fill="#CFB47D" d="M15.3 60.8s1.5-.7.8.4-2.9 4.2-1.6 4.5c1.3.2 2.6-.6 3.4 1.2s1.6 2.9 3.4 3 2.8.7 3.3 1.3c.5.6 1.7 1.4 0 2s-2.9-.9-4.1-.3-4.8 2.8-7.3 1.2-3.5-5.8-2.4-7.5 2.3-1.7 2.4-1.8 1.6-3.8 2.1-4z"/><g fill="none" stroke="#823733" stroke-width=".442" stroke-miterlimit="10"><path d="M20.8 63.2c.1-.8.1-1.6.1-2.4-.1-.9-1-1.5-1.7-1.6-1.7-.3-3.1.4-4 1.7-.7.9-1.3 1.9-1.5 3.1-.1.6-.6 1.3-1.3 1.6-1.7.7-2.2 2-2 3.7.3 2 1 3.7 2.8 4.9 1.6 1 3.1.5 4.6-.1.9-.4 1.7-.9 2.7-1 .9-.1 1.7-.2 2.6-.3 1.1-.1 1.8.8 2.3 1.5"/><path d="M24.4 70.6c-.7-.9-1.7-1.8-2.4-2.7-1.1-1.5-.9-3 .1-4.5.2-.3 1-.3 1.6.1 1.3.8 1.9 2 2 3.5 0 1.1.1 2.1.3 3.2 0 .1.3.1.3.2m-7.6-7.1c-.2-.4-.1-.7.3-.9.3-.2.5-.3.7-.7.4-.8-.5-2.1-1.8-1.4-.7.4-1.9 2.8-1.8 3.3"/><path d="M20.1 62.9c-1.2.6-2.5.7-3.9.8-.1 0-.8.2-.9.2m6.8-.6c-.5-.3-1-.1-1.5.1"/></g><path fill="#2B0006" d="M21.3 79.5c-1.1 1-.8 2 .5 2.8 1.2.8 2.5.8 3.9.9 1.6.2 2.9 0 4.2-1 .6-.4.7-.9.5-1.4-.2-.6-.4-1.2-1-1.6-.5-.3-.8-.4-1.2-.8-.5-.4-.6-1.3-.6-1.8l-.4-4.3c-.2-.9-.5-1.3-1.2-1.8-.6-.4-1-.7-1.6-.2 0 0-.4.3-.3.8.1.8.8.8 1.2 1.5.2.4.1.8-.1 1.2l-.4.2s-.5.7-.1 1.9-.2 1.2-1.2 1.7-2.2 1.9-2.2 1.9z"/><path fill="none" stroke="#E5AB27" stroke-width=".442" stroke-miterlimit="10" d="M25.5 73.9c.1.1.1.8.1 1.5v.2c0 .1-.1.6-.8 1.1-1.5 1-.8 1.6-.8 1.6s.4.6 2.1.4c0 0 1.3.2-.2.8-.3.1-1.6.3-1.5.7.1.3.3.5.7.6.8.2 2.2-.3 3.2-1.2"/><path fill="none" stroke="#823733" stroke-width=".442" stroke-miterlimit="10" d="M21.6 79.3c-1.1 1-.8 2 .5 2.8 1.2.8 2.5.8 3.9.9 1.6.2 2.9 0 4.2-1 .6-.4.7-.9.5-1.4-.2-.6-.4-1.2-1-1.6-.5-.3-.8-.4-1.2-.8-.5-.4-.6-1.3-.6-1.8l-.4-4.3c-.1-.8-.4-1.3-1.1-1.8-.6-.4-1-.7-1.6-.2 0 0-.4.3-.3.8.1.8.8.8 1.2 1.5.2.4.1.8-.1 1.2l-.4.3"/></svg>