<svg xmlns="http://www.w3.org/2000/svg" viewBox="0 0 40 100"><g fill="none"><g stroke="#823733" stroke-miterlimit="10"><g stroke-width=".5"><path d="M24.4 71.2c0-.3-.2-.4-.4-.4-2.2-.6-3.4-2.4-4.8-3.9-2.6-2.9-5.6-5.2-9.5-6.2-1-.3-2.1-.2-3.1 0-.6 1.9-.2 2.7 1.7 3.2 1.6.4 3.1.8 4.7 1.2 1.9.5 3.4 1.7 4.6 3.3.3.4.6.9 1 1.4.1.1.3.2.3.4.1 1.6.7 3.1.8 4.7 0 .6.4 1.2.1 1.8"/><path d="M22.1 72.4c.1 0 .3-.6.6-.8.8-.6 1.6-.3 2.5-.4s1.8-.4 2.7-.7c1.1-.4 2.1-.1 3.1.5.5.3.6.8.5 1.4-.2.8-.4 1.7-.4 2.5 0 2-.4 2.7-2.3 3.5-.5.2-.8.2-1.3 0-.9-.6-1.9-1.1-2.9-1.7l-.2-.1c-.8-.4-1.3-1.2-1.7-1.8-.5-.9-1.3-1.5-.5-2.6"/><path d="M18.9 71.6c-.5.5-.5 1.1-.4 1.6.1.8.3 1.7.5 2.5.3 1 1.2 1.5 1.7 2.3 1.1 1.6 2.7 2.5 4.6 3 1.3.3 2.3-.2 3.4-.6.8-.2 1.4-.9 2.2-1.3.7-.3.8-.9.7-1.5 0-.6.4-1.4-.3-1.9"/><path d="M27.8 72.1c1.2.6 1.2.6.9 1.8-.2.6-.4 1.2-.2 1.9"/></g><path opacity=".35" stroke-width=".3" d="M2.8 58.5s2.3-2.9 8.2-.7 10.6 7.8 12.5 8.8 3.7 1.1 6.9 1c3.2 0 6.3 4.9 4 10.2-2.3 5.3-6.9 7.1-12 4.7s-7.3-8.1-8.1-12.2c-.8-4.2-6.1-3.3-7.9-4.6-1.8-1.2-6.1-2.5-3.6-7.2z"/></g><path d="M0 0h40v100H0z"/></g></svg>