<svg xmlns="http://www.w3.org/2000/svg" viewBox="-25 0 65 100"><path fill="none" d="M-25 0h65v100h-65z"/><path opacity=".3" fill="#F3AE00" d="M32.9 63.4s1.9 4.9-.9 5.3c-2.8.4-4.1-.6-7.7 1.1-3.6 1.7-14.4 1.5-18.1 1.5S2.6 70-1.5 70.2c-4.1.2-7.1.2-7.7-.6-.6-.8.7-3.6.7-3.6s2.6-5.5 2.6-11.4-.6-7.8 0-12S-4.8 29-4.8 29v-4.7c0-1.7.9-.2 3.2 0s11 1.5 15.1.5 14.6 0 16.9 0 1.3 1.3.8 2.7l-.8 3s1.6 14 1.6 18.4V61l.9 2.4z"/><path d="M30.3 64.8c-.1-.7-.1-1.3 0-2 0-.3.1-.6.1-1l.1-.5.1-.4V49.3c0-1.3-.1-2.6-.2-3.8-.2-2.6-.4-5.1-.7-7.7l-.4-3.8-.1-1-.1-.5v-.2c0-.1-.1-.3 0-.4l.5-1.9.3-.9.3-.9c.1-.3.2-.6.2-.7v-.1s-.1 0-.2-.1c-.4-.1-1.2 0-1.8-.1l-2-.2c-2.6-.2-5.2-.3-7.7-.3-1.3 0-2.6.1-3.8.2-.3 0-.6.1-.9.2l-1 .2c-.7.1-1.3.2-2 .2-2.6.1-5.2-.1-7.8-.4-1-.1-2.1-.3-3.2-.4-.5-.1-1.1-.2-1.6-.4s-1-.5-1.2-.6c-.2-.1-.4 0-.4.1-.1.2-.1.3-.1.5-.1.4-.1.7-.2 1-.1.6-.3.9-.4.9v-2.6c0-.1.1-.3.1-.4.1-.2.4-.4.6-.4.3 0 .6.1.8.2l.5.2.9.3c.3.1.6.1 1 .1l2.1.4c2.7.3 5.4.6 8.1.6.7 0 1.3 0 2-.1s1.2-.2 2-.4c1.4-.3 2.8-.3 4.2-.3 2.8 0 5.5.1 8.3.3l2 .1h1c.4 0 .7 0 1.3.3.3.2.4.4.5.7 0 .3 0 .5-.1.7-.1.4-.2.7-.4 1-.2.6-.4 1.3-.6 1.9l-.3 1-.1.2v.1l.1.5.2 2 .4 4.1c.3 2.7.5 5.5.7 8.2.1 1.4.1 2.8.1 4.1v4.1c0 1.9-.1 4-.3 5.8-.4 1-.6 1.9-.7 2.6 0 .8 0 1.3-.2 1.3z"/><path d="M32.7 63.7c.2.9.4 1.8.4 2.7 0 .5-.1 1-.5 1.5-.3.5-.9.8-1.4.9-.9.1-1.8.1-2.7.1-.9 0-1.6 0-2.4.2-.4.1-.8.2-1.2.4-.4.1-.7.3-1.2.5-.9.3-1.7.5-2.6.7-1.7.1-3.4.3-5.1.3-1.7.1-3.5.1-5.2.1H8.2c-.9 0-1.7 0-2.6-.1-.9 0-1.8-.3-2.6-.5s-1.6-.3-2.4-.3c-1.7 0-3.4.2-5.2.1-.7 0-1.4-.1-2.1-.3-.3-.1-.8-.3-1-.7-.2-.5-.1-.8 0-1.1.4-1.2 1-1.8 1.3-1.7-.2.4-.3.8-.4 1.2-.2.3-.3.7-.2.9 0 .2 0 .1.1.2s.3.1.4.2c.4.1.8.1 1.2.2 1.7.1 3.4 0 5.1-.1.9 0 1.8 0 2.7.1.9.2 1.7.5 2.5.7.8.2 1.6.2 2.5.2h2.6c3.4 0 6.9-.1 10.2-.5.8-.1 1.7-.3 2.5-.5.4-.1.7-.3 1.1-.4.4-.2.8-.4 1.3-.5.9-.3 1.8-.5 2.7-.4.9 0 1.7.1 2.5 0 .3 0 .7 0 .9-.1.3 0 .4-.2.6-.3.3-.4.5-1 .5-1.6.1-1.1 0-2 .3-2.1z"/><path d="M-2.9 31.2c-.1 2.6-.3 5.2-.4 7.8l-.3 3.9c-.2 1.2-.4 2.5-.4 3.7 0 2.5.2 5.1.2 7.8 0 1.3 0 2.6-.2 3.9-.2 1.3-.5 2.6-.7 3.9-.2.9-.5 2-.8 2.8-.3.8-.6 1.5-.8 1.5 0-2.7.9-5.2 1.3-7.7s.3-5.1.2-7.6c-.1-1.4-.2-2.7-.2-4 0-1.3.1-2.6.3-3.9.3-2.5.5-5.1.6-7.7 0-2 .6-4.5 1.2-4.4zm32.7-.8l-14 .6c-1.2.1-2.3.1-3.5.1-1.3 0-2.4-.2-3.5-.3l-7-.6c-1.8-.2-4-.8-3.9-1.4L11.7 30c2.3 0 4.6-.1 7-.2l7-.3c1.8 0 4.1.4 4.1.9zM-4.7 66.3c.5.2 1.1.4 1.6.5.3 0 .6.1.9.1h1c1.2.1 2.4.3 3.7.4 2.5.3 4.9.6 7.4.7 2.5.2 4.9 0 7.4-.3s4.9-.9 7.4-1.3c1.8-.2 4.3-.4 4.4.2-1.2.3-2.5.6-3.7.8-1.2.1-2.4.4-3.7.6-2.5.5-4.9.9-7.5 1-2.5.2-5.1 0-7.6-.2s-5-.6-7.4-.9c-.4-.1-.9-.1-1.4-.2-.5-.1-1-.2-1.4-.4-.9-.2-1.3-.7-1.1-1zM6.5 55l-2.8-2.5-.7-.6H1.2l.1.1 11.1 10c.3-.7-3.1-4.5-5.9-7zm-.3-10.9l4.7-4.3 1.4-1.3c.4-.4.8-.6 1.2-.6.4 0 .8.3 1.3.8l1.4 1.3 4.4 4h1.8l-1.1-1-5.5-5-.7-.6-.4-.3c-.1-.1-.3-.2-.4-.3-.6-.3-1.3-.3-1.9 0-.2.1-.3.2-.4.3l-.3.3-.7.6-1.4 1.3L4.4 44h1.8zm17.5 7.8l-.2.1-1.4 1.2-2.8 2.5-5.5 5c.3.7 4.1-2 6.9-4.5l2.8-2.5 1.4-1.2c.2-.2.4-.4.5-.6h-1.7z"/><path fill="#B90518" d="M15.5 49.6c.2 0 .3-.1.3-.3l.2-1.6c0-.2-.1-.3-.3-.3h-1.9V46c0-.6.2-1 1-1h.8c.2 0 .3-.1.3-.3v-1.4c0-.2-.1-.3-.3-.3h-1.3c-1.6 0-2.7 1-2.7 2.8v1.6h-1.3c-.2 0-.3.1-.3.3v1.6c0 .2.1.3.3.3h1.3v5h2.2v-5h1.7z"/><path stroke="#000" stroke-width=".141" stroke-miterlimit="10" d="M-14.2 70.6c0-.6-.4-1.2-.9-1.6-.5-.4-1.1-.5-1.7-.5-1.1 0-2.3.1-3.4.5-.3.1-.5.2-.8.4-.1 0-.1.1-.2.2s-.1.1-.1.2c-.1.2-.1.4 0 .6.2.4.4.5.7.7.3.2.5.3.8.4 1.1.3 2.3.4 3.4.2.4-.1.9-.2 1.2-.5.3-.2.5-.5.4-.6-.9.5-2 .6-3.1.6-.5 0-1.1-.1-1.6-.2s-1-.4-1.3-.7c-.1-.2-.1-.3 0-.4.1-.2.3-.3.6-.4.5-.2 1-.3 1.5-.4 1-.1 2.2-.3 3.1.2.3.2.6.4.9.7.2.3.3.6.5.6zm40.4 3.6c-.2-.5-.6-1-1-1.4-.4-.4-1-.7-1.6-.8-.6-.1-1.2.2-1.7.4s-1 .4-1.5.7c-.2.1-.5.3-.7.5l-.3.3c-.3.1-.4.3-.4.5 0 .3.2.5.3.5.2.1.3.2.4.2.3.1.6.1.9.2 1.1.1 2.2.1 3.4 0 .4 0 .9-.2 1.2-.4.3-.2.5-.4.4-.6-.9.4-2.1.5-3.1.5-.5 0-1.1 0-1.6-.1-.3 0-.5-.1-.8-.1-.2-.1-.5-.1-.6-.3v-.1c0-.1.1-.2.2-.2.2-.2.4-.3.6-.5.5-.3 1-.5 1.5-.7.5-.2 1-.4 1.5-.4s1 .2 1.4.5c.6.5 1.2 1.4 1.5 1.3zm3.1-.2h-.1c-.1-.1 0-.1.1 0 0 0 0-.1.1-.1h.4c0-.2-.2-.4-.5-.4s-.6.1-.7.3c-.1.2 0 .4.2.5.2.1.6.1.8 0 .2-.1 0-.4-.3-.3zm.5-2h0s0 0 0 0c-.2.1-.3 0-.5 0 0 .2.2.4.4.4s.4-.1.5-.3c.1-.2 0-.4-.2-.5-.2-.1-.4-.1-.6 0-.1 0-.1.2 0 .2 0 0 .1.1.2.1.1.1.2.1.2.1zm-3.6 0h0s0 0 0 0c-.2.1-.3 0-.5 0 0 .2.2.4.4.4s.4-.1.5-.3c.1-.2 0-.4-.2-.5-.2-.1-.4-.1-.6 0-.1 0-.1.2 0 .2 0 0 .1.1.2.1.1.1.2.1.2.1zm5.5-.2h0s0-.1 0 0h-.4c0 .2.2.3.3.4.2 0 .4-.1.4-.2.1-.2 0-.4-.1-.5-.1-.1-.4-.1-.5 0-.1 0 0 .2 0 .2.1 0 .1 0 .3.1-.1-.1-.1-.1 0 0z"/><path stroke="#000" stroke-width=".141" stroke-miterlimit="10" d="M24 73.8h0s.1 0 0 0c-.2.1-.3 0-.5 0 0 .2.2.4.4.4s.4-.1.5-.3c.1-.2 0-.4-.2-.5-.2-.1-.4-.1-.6 0-.1 0-.1.2 0 .2 0 0 .1.1.2.1.2.1.3.1.2.1zm-43.1-3.6h-.1c-.1-.1 0-.1.1 0 0 0 0-.1.1-.1h.4c0-.2-.2-.4-.5-.4s-.6.1-.7.3c-.1.2 0 .4.2.5.2.1.6.1.8 0 .2-.1 0-.3-.3-.3zm13.4 1.6h-.1c-.1-.1 0-.1.1 0 0 0 0-.1.1-.1h.4c0-.2-.2-.4-.5-.4s-.6.1-.7.3c-.1.2 0 .4.2.5.2.1.6.1.8 0 .2-.1 0-.4-.3-.3zM-17.8 70h0s0 0 0 0h-.4c0 .2.2.3.3.4.2 0 .4-.1.4-.2.1-.2 0-.4-.1-.5-.1-.1-.4-.1-.5 0-.1 0 0 .2 0 .2.1 0 .1.1.3.1-.1 0 0 0 0 0zm8.8.4c0-.1 0-.1 0 0 0-.1.1-.1 0 0 .1 0 0 .1 0 0 0 .1 0 .1-.1.1h-.4c0 .2.1.5.4.6.2.1.4 0 .6-.3.1-.1.1-.4 0-.6-.1-.2-.2-.3-.2-.3-.2-.1-.5-.1-.6.1-.1.1 0 .2 0 .3 0 0 .1 0 .3.1zm-3.6.2h0s.1 0 0 0h-.4c0 .2.2.3.3.4.2 0 .4-.1.4-.2.1-.2 0-.4-.1-.5-.1-.1-.4-.1-.5 0-.1 0 0 .2 0 .2.1.1.2.1.3.1 0 0 0 0 0 0zm-.2 1.5s.1-.1 0 0c.1.1.1.1 0 0 0 0 0 .1-.1.1h-.4c0 .2.1.5.4.5.2.1.4 0 .6-.3.1-.1.1-.4 0-.5-.1-.2-.2-.3-.2-.3-.2-.1-.5-.1-.6.1-.1.1 0 .2 0 .3 0 .1.2.1.3.1z"/></svg>