<svg xmlns="http://www.w3.org/2000/svg" viewBox="0 0 40 100"><path fill="none" d="M0 0h40v100H0z"/><path opacity=".2" fill="#796A56" d="M2.7 58.4s2.3-2.9 8.2-.7 10.6 7.8 12.5 8.8 3.7 1.1 6.9 1c3.2 0 6.3 4.9 4 10.2-2.3 5.3-6.9 7.1-12 4.7s-7.3-8.1-8.1-12.2c-.8-4.2-6.1-3.3-7.9-4.6S.2 63 2.7 58.4z"/><path fill="#FFF" d="M2.9 58.1s2.3-2.9 8.2-.7 10.6 7.8 12.5 8.8 3.7 1.1 6.9 1c3.2 0 6.3 4.9 4 10.2-2.3 5.3-6.9 7.1-12 4.7s-7.3-8.1-8.1-12.2c-.8-4.2-6.1-3.3-7.9-4.6s-6.1-2.5-3.6-7.2z"/><path fill="#EDBD62" d="M18.6 70.5c0-.2-.2-.3-.3-.4-.4-.4-.6-.9-1-1.4-1.2-1.6-2.7-2.9-4.6-3.3-1.5-.4-3.1-.8-4.7-1.2-2-.5-2.3-1.4-1.7-3.2 1-.2 2.1-.3 3.1 0 3.8 1 6.8 3.3 9.5 6.2 1.4 1.5 2.6 3.4 4.8 3.9.2.1.4.1.4.4 0 0 5.5.8 6.9 4.7.7.5.3 1.3.3 1.9s0 1.2-.7 1.5c-.8.4-1.4 1-2.2 1.3-1.1.3-2.1.9-3.4.6-1.9-.5-3.5-1.4-4.6-3-.5-.8-1.4-1.3-1.7-2.3-.3-.8-.4-1.7-.5-2.5-.1-.6-.1-1.2.4-1.6"/><path fill="#804F21" d="M23.4 74.6c.4.7.8 1.5 1.7 1.8l.2.1c1 .6 1.9 1.1 2.9 1.7.5.3.8.2 1.3 0 1.8-.7 2.3-1.5 2.3-3.5 0-.8.2-1.7.4-2.5.1-.6 0-1-.5-1.4-1-.7-2-.9-3.1-.5-.9.3-1.8.6-2.7.7-.9.1-1.7-.2-2.5.4-.2.2-.5.7-.6 1.1-.2.1-.5.4.6 2.1z"/><path fill="none" stroke="#823733" stroke-width=".5" stroke-miterlimit="10" d="M24.5 70.7c0-.3-.2-.4-.4-.4-2.2-.6-3.4-2.4-4.8-3.9-2.6-2.9-5.6-5.2-9.5-6.2-.7-.2-1.5-.2-2.3-.1-.4.1-.8.4-.9.8-.3 1.4.2 2.1 1.9 2.5 1.6.4 3.1.8 4.7 1.2 1.9.5 3.4 1.7 4.6 3.3.3.4.6.9 1 1.4.1.1.3.2.3.4.1 1.6.7 3.1.8 4.7 0 .6.4 1.4.1 2.1"/><path fill="none" stroke="#823733" stroke-width=".5" stroke-miterlimit="10" d="M22.2 72c.1 0 .3-.6.6-.8.8-.6 1.6-.3 2.5-.4s1.8-.4 2.7-.7c1.1-.4 2.2-.2 3.1.5.5.3.6.8.5 1.4-.2.8-.4 1.7-.4 2.5 0 2-.4 2.7-2.3 3.5-.5.2-.8.2-1.3 0-.9-.6-1.9-1.1-2.9-1.7l-.2-.1c-.8-.4-1.3-1.2-1.7-1.8-.5-.9-1.3-1.5-.5-2.6"/><path fill="none" stroke="#823733" stroke-width=".5" stroke-miterlimit="10" d="M19 71.1c-.5.5-.5 1.1-.4 1.6.1.8.3 1.7.5 2.5.3 1 1.2 1.5 1.7 2.3 1.1 1.6 2.7 2.5 4.6 3 1.3.3 2.3-.2 3.4-.6.8-.2 1.4-.9 2.2-1.3.7-.3.8-.9.7-1.5 0-.6.2-1.6-.5-2.1"/><path fill="none" stroke="#C19962" stroke-width=".5" stroke-miterlimit="10" d="M27.9 71.7c1.2.6 1.2.6.9 1.8-.2.6-.4 1.2-.2 1.9"/></svg>