<svg xmlns="http://www.w3.org/2000/svg" viewBox="0 0 40 100"><path fill="none" d="M0 0h40v100H0z"/><path opacity=".2" fill="#796A56" d="M2.1 71.2s6.7-6 8.4-6.3c1.8-.3 5.6-.1 8.2-1.5 2.6-1.4 4.2-1.6 6-3.4 1.9-1.8 4.2-1.1 5.2 0s2.7 5.2 2.3 7.8c-.4 2.6.5 3 1.6 4.5s3.1 2.5.6 4.4-8.3 4.2-12 4.4c-3.7.3-15.8.2-19.1-4.7-1.4-2.5-1.6-4.1-1.2-5.2z"/><path fill="#FFF" d="M2.1 70.9s6.7-6 8.4-6.3 5.6-.1 8.2-1.5 4.2-1.6 6-3.4c1.9-1.8 4.2-1.1 5.2 0s2.7 5.2 2.3 7.8c-.4 2.6.5 3 1.6 4.5s3.1 2.5.6 4.4-8.3 4.2-12 4.4-15.8.2-19.1-4.7c-1.4-2.4-1.6-4-1.2-5.2z"/><path fill="#C2B595" d="M15.3 72.1s-1.8 1.4-2.1.5c-.2-.9 2.8-6.1 6.5-7.8 3.7-1.7 4.3-.5 4.3-.5s2.9-2.3 3.4-2.4c.5-.2 4.2 4.1 1.5 4.6-.4.1-3.5 2.1-3.5 2.1s-5.7 5-7.3 5.1c-1.6 0-2.2-1.1-2.8-1.6z"/><path fill="#DD9034" d="M4.7 73.1s-.3 2.3 2.4 3.2c2.7.8 5.5 1.7 6.4 1.7s4.3-.4 5.5 0c1.1.4 2.5.5 3.9-.5s3.5-.4 4.1-.5 5.1-2.4 5.3-2.5.6-1.3-.2-2.1-2.5-2.1-4.3-2.8l-1.8-.7s-4.1 2.9-4.2 3.1c-.1.2-2.3 1.7-3.2 1.5s.8-1.7 1.8-3.7c.7-1.4 2.2-2.4 3.1-2.8.1-.1.1-.3-.1-.3-1.3-.1-4.1-.3-4.6-.1-.6.2-2.4.8-2.7 2.8s-1.4 2.5-1.4 2.5-1 1.3-1.2.3.7-3.6 2.4-4.5-1.3-.6-2.3-.3c-1.8.6-4 .6-5.1 2.6-.6.7-3.4 2.2-3.8 3.1z"/><g fill="none" stroke="#823733" stroke-width=".5" stroke-miterlimit="10"><path d="M16.7 67.2c-.3-.3-.6-.4-1.1-.3-.7.1-1.4.1-2.1.2-.7.1-1.4.4-2 .9-1.4 1.1-2.9 2.1-4.4 3.1-.4.2-.7.5-1.2.7-.3.1-.6.4-.9.8-.6.8-.6 1.1.2 2.2.7 1.2 1.9 1.6 3.1 1.9.9.3 1.8.4 2.6.9.3.2.7.1 1 .2 1.2.2 2.4.3 3.6 0 1.3-.3 2.6-.2 3.8.3 1 .4 2 .3 2.9-.4.6-.4 1.2-.7 2-.7.9 0 1.7-.1 2.6-.2 1.1-.1 2.1-.4 3-.9.5-.3 1-.6 1.4-1"/><path d="M25.5 68.7c.5 0 1.4-.2 1.8.1.4.2.9.4 1.2.8s.8.6 1.3.8c.6.2 1.1.5 1.4 1.1.2.3.4.7.8.8.5.2.7.7 1 1 .2.3.2.5-.1.6-.5.3-1 .7-1.5 1.1l-.7.5M25.6 68c-.2-.5.1-1-.1-1.5-.4-1.6-1.8-2.6-3.5-2.4-1.5.1-2.7.8-3.6 2-.1.2-.4.2-.4.5"/><path d="M23.3 70.7c.4-.2.7-.5 1.1-.6.6-.2.9-.8 1-1.5.1-.4.3-.6.6-.8.9-.5 1.9-1 2.9-1.4.5-.1.7-.5.7-1 0-.6 0-1.1-.1-1.7-.1-.8-.6-1.3-1.3-1.7-.1-.1-.2-.2-.4-.3-.4-.1-.7-.3-1.2 0s-.9.6-1.2 1c-.2.3-.6.6-.9.8-.2.2-.5.4-.5.7"/><path d="M26.2 62.2c0 .1.1.2.1.2.9-.1 1.3.8 2 1.2.1.1.2.2.2.3.1.8.3 1.5 0 2.3m-9.1 7.2c.1-.1.2-.3.4-.4.7-.4 1.3-.9 2.1-1.2.5-.2 1-.6 1.4-1l.6-.3m-3.5-4.7c.4.3.9.1 1.4.2s1.3.4 1.7.9"/><path d="M16.6 67.4c-1.3.7-2 1.8-2.6 3l-.2.3c-.4.4-.6 1.9 0 1.8l.4-.4c.1-.2.5-.1.5-.4 0-.4 0-.8.2-1.1.4-.7.8-1.4 1.3-1.9.2-.2.5-.5.5-.8.1-.9.6-1.3 1.5-1.2.2 0 .4 0 .6-.2.3-.2.6-.4.9-.5.2-.1.5 0 .6-.2.5-.7 1.2-.9 2-1.1.5-.1 1-.1 1.5.1.4.2.6.5.7 1 .1.4-.2.5-.5.8-.8.7-1.7 1.3-2.5 1.9-.9.7-1.6 1.5-1.7 2.7-.1.7-.2 1.3-.9 1.7-.1.1-.4.2-.3.4l1.5.3c.1 0 .2.1.3 0 .7-.4 1.2-.8 1.3-1.6"/></g></svg>