<svg xmlns="http://www.w3.org/2000/svg" viewBox="-25 0 65 100"><path opacity=".3" fill="#F3AE00" d="M-17 64.4s-1.9 4.9.9 5.3c2.8.4 4.1-.6 7.7 1.1 3.6 1.7 14.4 1.5 18.1 1.5s3.6-1.3 7.7-1.1c4.1.2 7.1.2 7.7-.6s-.7-3.6-.7-3.6-2.6-5.5-2.6-11.4.6-7.8 0-12c-.7-4.3-1-13.6-1-13.6v-4.7c0-1.7-.9-.2-3.2 0s-11 1.5-15.1.5c-4.1-1.1-14.6 0-16.9 0s-1.3 1.3-.8 2.7l.8 3s-1.6 14-1.6 18.4V62l-1 2.4z"/><path d="M-13.4 66c.1-.7.1-1.3 0-2 0-.3-.1-.6-.1-1l-.1-.5-.1-.4V50.5c0-1.3.1-2.6.2-3.8.2-2.6.4-5.1.7-7.7l.4-3.9.1-1 .1-.5v-.2c0-.1.1-.3 0-.4l-.5-1.9-.3-.9-.3-.9c-.1-.3-.2-.6-.2-.7v-.1s.1 0 .2-.1c.4-.1 1.2 0 1.8-.1l1.9-.1c2.6-.2 5.2-.3 7.7-.3 1.3 0 2.6.1 3.8.2.3 0 .6.1.9.2l1 .2c.7.1 1.3.2 2 .2 2.6.1 5.2-.1 7.8-.4 1-.1 2.1-.3 3.2-.4.5-.1 1.1-.2 1.6-.4s1-.5 1.2-.6c.2-.1.4 0 .4.1.1.2.1.3.1.5.1.4.1.7.2 1 .1.6.3.9.4.9v-2.6c0-.1-.1-.3-.1-.4-.1-.2-.4-.4-.6-.4-.3 0-.6.1-.8.2l-.5.2-.9.3c-.3.1-.6.1-1 .1l-2.1.2c-2.7.3-5.4.6-8.1.6-.7 0-1.3 0-2-.1s-1.2-.2-2-.4c-1.3-.1-2.7-.1-4.1-.2-2.8 0-5.5.1-8.3.3l-2 .1h-1c-.4 0-.7 0-1.3.3-.3.2-.4.4-.5.7 0 .3 0 .5.1.7.1.4.2.7.4 1 .2.6.4 1.3.6 1.9l.3 1 .1.2v.1l-.1.5-.2 2-.4 4.1c-.3 2.7-.5 5.5-.7 8.2-.1 1.4-.1 2.8-.1 4.1v4.1c0 1.9.1 4 .3 5.8.4 1 .6 1.9.7 2.6 0 .9 0 1.4.2 1.4z"/><path d="M-15.8 64.9c-.2.9-.4 1.8-.4 2.7 0 .5.1 1 .5 1.5.3.5.9.8 1.4.9.9.1 1.8.1 2.7.1.9 0 1.6 0 2.4.2.4.1.8.2 1.2.4.4.1.7.3 1.2.5.9.3 1.7.5 2.6.7 1.7.3 3.5.4 5.2.5 1.7.1 3.5.1 5.2.1h2.6c.9 0 1.7 0 2.6-.1.9-.1 1.8-.4 2.6-.6.8-.2 1.6-.3 2.4-.3 1.7 0 3.4.2 5.2.1.7 0 1.4-.1 2.1-.3.3-.1.8-.3 1-.7.2-.5.1-.8 0-1.1-.4-1.2-1-1.8-1.3-1.7.2.4.3.8.4 1.2.1.4.2.8.1 1.1 0 .2 0 .1-.1.2s-.3.1-.4.2c-.4.1-.8.1-1.2.2-1.7.1-3.4 0-5.1-.1-.9 0-1.8 0-2.7.1-.9.2-1.7.5-2.5.7-.8.2-1.6.2-2.5.2H6.8c-3.4 0-6.9-.1-10.2-.5-.8-.1-1.7-.3-2.5-.5-.4-.1-.7-.3-1.1-.4-.4-.2-.8-.4-1.3-.5-.7-.6-1.7-.7-2.6-.7-.9 0-1.7.1-2.5 0-.3 0-.7 0-.9-.1-.3 0-.4-.2-.6-.3-.3-.4-.5-1-.5-1.6-.2-1.1-.1-2-.4-2.1z"/><path d="M19.8 32.4c.1 2.6.3 5.2.4 7.8l.3 3.9c.2 1.3.3 2.5.3 3.8 0 2.5-.2 5.1-.2 7.8 0 1.3 0 2.6.2 3.9.2 1.3.5 2.6.7 3.9.2.9.5 2 .8 2.8.3.8.6 1.5.8 1.5 0-2.7-.9-5.2-1.3-7.7s-.3-5.1-.2-7.6c.1-1.3.1-2.6.1-3.9 0-1.3-.1-2.6-.3-3.9-.3-2.5-.5-5.1-.6-7.7.2-2.2-.4-4.6-1-4.6zm-32.7-.7l14 .6c1.2.1 2.3.1 3.5.1 1.3 0 2.4-.2 3.5-.3l7-.6c1.8-.2 4-.8 3.9-1.4L5.2 31.3c-2.3 0-4.6-.1-7-.2l-7-.3c-1.8-.1-4.1.3-4.1.9zm34.6 35.8c-.5.2-1.1.4-1.6.5-.3 0-.6.1-.9.1h-1c-1.3.1-2.5.3-3.7.4-2.5.4-5 .6-7.5.8-2.5.2-4.9 0-7.4-.3s-4.9-.9-7.4-1.3c-1.8-.2-4.3-.4-4.4.2 1.2.3 2.5.6 3.7.8 1.2.1 2.4.4 3.7.6 2.5.5 4.9.9 7.5 1 2.5.2 5.1 0 7.6-.2s5-.6 7.4-.9c.4-.1.9-.1 1.4-.2.5-.1 1-.2 1.4-.4.9-.3 1.3-.8 1.2-1.1z"/><path fill="#B90518" stroke="#B90518" stroke-width=".331" stroke-miterlimit="10" d="M-1.4 48.3c0-.2.1-.5.1-.7.2-1.3 1.2-2.2 2.5-2.2 1.6-.1 3.2-.1 4.8 0 1.4.1 2.5 1.1 2.5 2.6v4.6c0 1.4-1.1 2.5-2.5 2.6-1.6.1-3.2.1-4.8 0-1.4-.1-2.4-1.1-2.5-2.6 0-.1 0-.2-.1-.4v-3.9zm4.9 5.9h2.2c1.1 0 1.8-.7 1.9-1.9V48c0-1.1-.7-1.8-1.9-1.9H1.4c-1.1 0-1.8.7-1.9 1.8v4.3c0 1.1.7 1.8 1.9 1.8.7.2 1.4.2 2.1.2z"/><path fill="#B90518" stroke="#B90518" stroke-width=".331" stroke-miterlimit="10" d="M3.5 47.7c-1.4 0-2.5 1.1-2.5 2.5s1.1 2.5 2.5 2.5S6 51.6 6 50.2c.1-1.4-1.1-2.5-2.5-2.5zm0 4.2c-.9 0-1.7-.7-1.7-1.7s.7-1.7 1.7-1.7 1.7.7 1.7 1.7-.7 1.7-1.7 1.7zm3.3-4.3c0 .3-.3.6-.6.6s-.6-.3-.6-.6.3-.6.6-.6.6.2.6.6z"/><path stroke="#000" stroke-width=".141" stroke-miterlimit="10" d="M-15.9 73.9c.7.2 1.4.3 2.1.4.4 0 .7.1 1.1.1.3 0 .6-.1.7-.4 0-.1 0-.3-.1-.4l-.1-.2-.1-.1c-.6-.5-1.2-.9-1.9-1.2-.4-.1-.7-.2-1.1-.2h-.5c-.1 0-.2 0-.3.1-.1 0-.3.1-.3.3-.1.2-.1.5 0 .6.1.2.2.3.3.4.2.2.4.2.5.1-.2-.3-.4-.6-.4-.8 0 0 0-.1.1-.1h.5c.7 0 1.3.2 1.9.5.3.2.6.4.8.6l.2.1v.2h-.3c-.2 0-.3 0-.5-.1-.3 0-.7-.1-1-.2-.8 0-1.5 0-1.6.3zm-.8-4.2h0s0 0 0 0h-.4c0 .2.2.3.3.4.2 0 .4-.1.4-.2.1-.2 0-.4-.1-.5-.1-.1-.4-.1-.5 0-.1 0 0 .2 0 .2.1.1.1.1.3.1-.1 0 0 0 0 0zm6.3 3.3h0c-.1 0 0 0 0 0-.2.1-.3 0-.5 0 0 .2.2.4.4.4s.4-.1.5-.3c.1-.2 0-.4-.2-.5-.2-.1-.4-.1-.6 0-.1 0-.1.2 0 .2 0 0 .1.1.2.1.1.1.2.1.2.1zm-7.4-2.1h0s0-.1 0 0h-.4c0 .2.2.3.3.4.2 0 .4-.1.4-.2.1-.2 0-.4-.1-.5-.1-.1-.4-.1-.5 0-.1 0 0 .2 0 .2.1 0 .2 0 .3.1-.1 0 0 0 0 0z"/><path d="M-3.6 56.2l-2.8-2.5-.7-.6h-1.8l.1.1 11.1 9.9c.3-.6-3.1-4.4-5.9-6.9zM-4 45.3L.7 41l1.4-1.3c.4-.4.8-.6 1.2-.6.4 0 .8.3 1.3.8L6 41.3l4.4 4h1.8l-1.1-1-5.5-5-.7-.6-.4-.3c-.1-.1-.3-.2-.4-.3-.6-.3-1.3-.3-1.9 0-.2.1-.3.2-.4.3l-.3.3-.7.6-1.4 1.3-5.2 4.7H-4zm17.5 7.8l-.2.2-1.3 1.2L9.2 57l-5.5 5c.3.7 4.1-2 6.9-4.5l2.8-2.5 1.4-1.2c.2-.2.4-.4.5-.6h-1.8z"/></svg>