<svg xmlns="http://www.w3.org/2000/svg" viewBox="0 0 89 90"><g data-name="圖層 2"><g data-name="圖層 1"><path d="M38.27 74.56c2.76-.08 9.16.29 9.16.29l1.65-.31 8.52.15.54-.18c.76-2.17-.28-3.16-.28-3.16v-2c-8.87-.09-17.27-.15-17.27-.15l-.88.36s1.09 1 .33 3.16zm22.55-5.36c5.7 0 10.47 0 11.52.09.89 0 2.09.06 4.94.08l1.14.78s1.22.81.88 3.07L78.91 75 62 74.82l-.29-.88c1.36-1.91-1.22-4-1.22-4zM12 74.55l21.67.23.62-.49c.67-2.17-.25-3.17-.25-3.17l-.46-2H15l-4.76-.09C9 71 9.6 74.35 9.6 74.35zm39.71-31.93c-6.06-.12-10.85-.23-11.94-.28-3.43-.17-4-.33-4.87.7s.57 5.64 1.83 5.33c.78-.19 8.49-.24 15-.22l-.67-1.26a2.82 2.82 0 01.33-3.39zm26.29.13c-2.89.07-9.59-.3-9.59-.3l-1.73.32-8.92-.16-.56.18c-.8 2.17.29 3.16.29 3.16v2c9.28.09 18.07.15 18.07.15l.93-.35s-1.15-1-.35-3.17zm-66.87-.11c6 0 11 0 12.06.08.93 0 2.19.06 5.18.08l1.19.79s1.27.81.92 3.07l-.41 1.78c-6-.07-10.45-.12-17.68-.18l-.31-.89c1.43-1.9-1.28-4-1.28-4zm14.36-27.23c-5.7-.12-10.21-.23-11.23-.28-3.24-.18-3.75-.34-4.6.7s.54 5.64 1.73 5.33c.73-.2 8-.24 14.13-.22l-.63-1.26a3 3 0 01.3-3.4zm23.06 1.08c-2.73.07-9-.3-9-.3l-1.63.32-8.4-.16-.53.18c-.75 2.17.28 3.16.28 3.16v2l17 .16.87-.36s-1.08-1-.33-3.17zM54.34 22l24.1.21.69-.49c.75-2.17-.28-3.16-.28-3.16l-.5-2H57.68l-5.29-.09c-1.35 1.91-.68 5.3-.68 5.3z" fill="#6a3906" opacity=".55"/><path fill="none" d="M0 0h89v90H0z"/></g></g></svg>