<svg xmlns="http://www.w3.org/2000/svg" viewBox="-180 50 220 50"><path d="M-146.3 95.5c-.7 0-1.2-.1-1.6-.6l.6-.6c.3.3.7.4 1.1.4.5 0 .8-.2.8-.5 0-.2 0-.3-.1-.4-.1-.1-.2-.1-.4-.2l-.5-.1c-.4-.1-.7-.2-.9-.4-.2-.2-.3-.5-.3-.9 0-.8.6-1.3 1.5-1.3.6 0 1.1.1 1.4.5l-.5.5c-.3-.3-.6-.3-.9-.3-.5 0-.7.3-.7.6 0 .1 0 .2.1.3.1.1.2.1.4.2l.5.1c.4.1.7.2.8.3.2.2.3.5.3.9 0 1-.7 1.5-1.6 1.5zm2.5-.1V91h.9v4.4h-.9zm4.5 0l-1.8-2.7v2.7h-.9V91h.8l1.8 2.7V91h.9v4.4h-.8zm3.3.1c-.5 0-.9-.2-1.2-.5-.4-.4-.4-1-.4-1.8s0-1.3.4-1.8c.3-.3.7-.5 1.2-.5.8 0 1.5.5 1.6 1.4h-.9c-.1-.4-.3-.6-.7-.6-.2 0-.4.1-.6.2-.2.2-.2.4-.2 1.3s0 1.1.2 1.3c.1.1.3.2.6.2.4 0 .7-.3.7-.6h.9c-.1.9-.8 1.4-1.6 1.4zm2.4-.1V91h2.9v.8h-2.1v1h1.8v.8h-1.8v1.1h2.1v.8h-2.9zm7.7 0v-3.6l-.9.8v-.9l.9-.8h.8v4.4h-.8zm4.5-1.9l-.9 1.9h-.9l.9-1.8c-.1 0-.2.1-.3.1-.6 0-1.2-.5-1.2-1.3 0-.9.6-1.4 1.4-1.4.8 0 1.4.5 1.4 1.4 0 .3-.2.7-.4 1.1zm-1-1.8c-.3 0-.6.2-.6.6 0 .4.2.6.6.6.3 0 .6-.2.6-.6 0-.4-.3-.6-.6-.6zm4.4 3.4c-.2.2-.5.4-1 .4s-.8-.2-1-.4c-.3-.3-.3-.6-.4-.9h.8c0 .3.2.5.5.5.2 0 .3 0 .4-.1.1-.1.2-.4.2-.7 0-.5-.1-.8-.5-.8-.3 0-.5.2-.5.4h-.7V91h2.5v.7h-1.8v1c.1-.1.4-.2.7-.2.4 0 .6.1.8.3.3.3.4.8.4 1.2 0 .4-.1.8-.4 1.1zm1 .3v-.7l1.7-1.9c.2-.2.2-.3.2-.5 0-.3-.2-.6-.5-.6s-.5.1-.5.6h-.8c0-.8.6-1.3 1.4-1.3.8 0 1.3.5 1.3 1.3 0 .4-.2.7-.5 1l-1.2 1.4h1.7v.7h-2.8zm44.3-.1c-.8 0-1.3-.2-1.8-.7l.6-.6c.3.3.7.4 1.2.4.6 0 .9-.2.9-.6 0-.2 0-.3-.2-.4-.1-.1-.2-.1-.4-.2l-.6-.1c-.4-.1-.7-.2-1-.4-.2-.2-.4-.6-.4-1 0-.9.7-1.5 1.7-1.5.7 0 1.2.2 1.6.6l-.6.6c-.3-.3-.7-.3-1-.3-.5 0-.8.3-.8.6 0 .1 0 .3.1.4.1.1.3.2.5.2l.6.1c.5.1.7.2.9.4.3.3.4.6.4 1.1.1.9-.7 1.4-1.7 1.4zm5.8 0v-2.1h-1.7v2.1h-1v-5h1v2h1.7v-2h1v5h-1zm2.5 0v-5h1v5h-1zm5.5 0l-2-3v3h-1v-5h.9l2 3v-3h1v5h-.9zm5.5-.6c-.4.4-.9.6-1.4.6-.5 0-1-.2-1.3-.5-.5-.5-.5-1.1-.5-2s0-1.5.5-2c.3-.3.8-.5 1.3-.5 1.1 0 1.7.8 1.9 1.6h-1c-.1-.5-.4-.7-.9-.7-.3 0-.5.1-.6.3-.2.2-.2.4-.2 1.4s0 1.2.2 1.4c.1.2.4.3.6.3.3 0 .5-.1.7-.3.2-.2.2-.4.2-.7v-.2h-.9v-.8h1.9v.7c0 .6-.2 1.1-.5 1.4zm6.8.6l-2-3v3h-1v-5h.9l2 3v-3h1v5h-.9zm5.3 0l-.3-.9h-1.8l-.3.9h-1l1.8-5h.8l1.8 5h-1zm-1.2-3.5l-.6 1.8h1.2l-.6-1.8zm6.1 3.5l-2-3v3h-1v-5h.9l2 3v-3h1v5h-.9zm5.9 0c-.8 0-1.3-.2-1.8-.7l.6-.6c.3.3.7.4 1.2.4.6 0 .9-.2.9-.6 0-.2 0-.3-.2-.4-.1-.1-.2-.1-.4-.2l-.6-.1c-.4-.1-.7-.2-1-.4-.2-.2-.4-.6-.4-1 0-.9.7-1.5 1.7-1.5.7 0 1.2.2 1.6.6l-.6.6c-.3-.3-.7-.3-1-.3-.5 0-.8.3-.8.6 0 .1 0 .3.1.4.1.1.3.2.5.2l.6.1c.5.1.7.2.9.4.3.3.4.6.4 1.1.1.9-.7 1.4-1.7 1.4zm4.9 0c-1 0-1.8-.7-1.8-1.7v-3.3h1v3.2c0 .6.3.9.9.9.5 0 .9-.3.9-.9v-3.2h1v3.3c-.2 1-1 1.7-2 1.7zm6.4-.6c-.4.4-.9.6-1.4.6-.5 0-1-.2-1.3-.5-.5-.5-.5-1.1-.5-2s0-1.5.5-2c.3-.3.8-.5 1.3-.5 1.1 0 1.7.8 1.9 1.6h-1c-.1-.5-.4-.7-.9-.7-.3 0-.5.1-.6.3-.2.2-.2.4-.2 1.4s0 1.2.2 1.4c.1.2.4.3.6.3.3 0 .5-.1.7-.3.2-.2.2-.4.2-.7v-.2h-.9v-.8h1.9v.7c-.1.6-.2 1.1-.5 1.4zm4.6.6l-.3-.9h-1.8l-.3.9h-1l1.8-5h.8l1.8 5h-1zm-1.2-3.5l-.6 1.8h1.2l-.6-1.8zm5.9 3.5l-1-2h-.7v2h-1v-5h1.9c1 0 1.6.7 1.6 1.5 0 .7-.4 1.1-.9 1.3l1.1 2.1h-1zm-.8-4.1h-.9v1.3h.9c.4 0 .7-.3.7-.7 0-.4-.3-.6-.7-.6zm6.1 0v1.2h2v.9h-2v2h-1v-5h3.3v.9h-2.3zm5.9 4.1l-.3-.9H-.8l-.2.9h-1l1.8-5h.8l1.8 5H1.3zM.2 91.8l-.6 1.8H.8l-.6-1.8zM5 95.3c-.5 0-1-.2-1.3-.5-.5-.5-.5-1.1-.5-2s0-1.5.5-2c.3-.3.7-.5 1.3-.5.9 0 1.6.5 1.8 1.6h-1c-.1-.4-.3-.7-.8-.7-.3 0-.5.1-.6.3-.2.2-.2.4-.2 1.4s.1 1.2.2 1.4c.1.2.4.3.6.3.5 0 .7-.3.8-.7h1c-.2.9-.9 1.4-1.8 1.4zm4.8-4.1v4.1h-1v-4.1H7.5v-.9h3.6v.9H9.8zm5.4 3.6c-.3.3-.8.5-1.3.5s-1-.2-1.3-.5c-.5-.5-.5-1.1-.5-2s0-1.5.5-2c.3-.3.8-.5 1.3-.5s1 .2 1.3.5c.5.5.5 1.1.5 2s0 1.5-.5 2zm-.8-3.4c-.1-.2-.4-.3-.6-.3-.3 0-.5.1-.6.3-.2.2-.2.4-.2 1.4s0 1.2.2 1.4c.1.2.4.3.6.3.3 0 .5-.1.6-.3.2-.2.2-.4.2-1.4s0-1.2-.2-1.4zm5.3 3.9l-1-2H18v2h-1v-5h2c1 0 1.6.7 1.6 1.5 0 .7-.4 1.1-.9 1.3l1.1 2.1h-1.1zm-.8-4.1H18v1.3h.9c.4 0 .7-.3.7-.7 0-.4-.2-.6-.7-.6zm5 2v2h-1v-2l-1.5-2.9h1.1l.9 2 .9-2h1.1l-1.5 2.9zm-94-18.2c-.6 1.7-1.6 3.7-2.5 5-.4-.4-1.4-1-1.9-1.3.8-1.1 1.6-2.8 2.1-4.3l2.3.6zm3.4-1.4v8.1h-2.8v-8.1H-74v-2.4h4.5v-1.9h-4.7v-2.4h2.4c-.1-.7-.4-1.8-.7-2.5l2-.5h-3.3v-2.4h4.1c-.2-.7-.5-1.3-.7-1.9l2.9-.7c.4.8.8 1.8 1.1 2.6h3.5v2.4h-3l2 .4c-.4.9-.7 1.9-1.1 2.6h2.5v2.4h-4.1v1.9h3.8v2.4h-3.9zm-3.5-9.7c.4.8.7 1.8.8 2.5l-1.7.5h3.5c.4-.9.8-2.1 1-3h-3.6zm18.5 5.9H-54v11.9h-2.8V69.8h-2.3v.3c0 3.6-.3 8.6-2.4 11.7-.5-.5-1.6-1.4-2.2-1.7.5-.7.8-1.5 1.1-2.4l-1.7 1.1c-.4-1-1.2-2.5-1.9-3.6l1.9-1c.7 1 1.4 2.3 1.8 3.2.7-2.3.8-5 .8-7.2v-8.6c2.6-.5 5.6-1.2 7.4-2.1l2.2 2.1c-2 .8-4.5 1.4-6.9 1.8v3.8h7.3v2.6zm16.4-5.9c-.1.7-.2 1.2-.3 1.8h8.9v13.2c0 1.4-.3 2.1-1.3 2.5-1 .4-2.4.4-4.3.4-.1-.7-.6-1.8-.9-2.5 1.2.1 2.7.1 3.1 0 .4 0 .6-.1.6-.5V68.3h-4.6l2.4.5c-.3.9-.7 1.8-1 2.5h1.8v2.2H-35v1.6h4.6v2.3H-35V81h-3v-3.6h-4.5v-2.3h4.5v-1.6h-4v-2.2h1.9c-.2-.7-.6-1.7-.9-2.5l2.3-.6c.4.8.9 1.9 1.1 2.6l-1.3.4h3.5c.4-.9.7-2.1.9-3h-9v13.4h-2.9V65.7h7.9l.3-1.8h-9.1v-2.7h9.3c0-.7.1-1.4.1-2l3.2.3c-.1.6-.2 1.2-.2 1.7h9v2.7h-9.4zm31.4 9.3v1.2H.4v7.4h-2.5v-.9h-5.3v.9h-2.4v-7.4h3.4v-1.2h-3.4v-2h3.4v-1.1h-3.9c-.1 3.7-.6 8.5-2.7 11.6-.5-.4-1.5-1.1-2.2-1.4 1.1-1.6 1.7-3.6 2-5.6l-1.6 1.7c-.3-.9-1-2.6-1.5-3.7v9.2h-2.3v-9.3c-.4 2.3-1.2 5.1-2.2 6.6-.2-.8-.7-1.9-1-2.6.8-1.3 1.5-3.7 1.8-5.6l1.4.5v-1.6h-2.8v-2.7h2.8v-8h2.3v6.6c.4-1.4.9-3.5 1.2-5.1l2 .5c-.5 1.7-1.1 3.8-1.6 5.1l-1.6-.5v1.4h2.6v2.7h-2.6v1.7l1-.7c.4.5 1.7 2.8 2.1 3.5.3-1.8.3-3.7.3-5.3v-7.8h5.6c-.1-.6-.3-1.2-.5-1.8l2.9-.5c.3.7.5 1.6.7 2.3H1v2.4h-11.4v4.4h3.9V67h-3.3v-2h3.3v-1H-4v1.1H.1V68h1v2.4h-1v2.9h-4zm-16.5-6.9c-.1-1.4-.6-3.6-1-5.2l1.7-.4c.5 1.7.9 3.8 1.1 5.2l-1.8.4zm18.3 10.4h-5.3v2.1h5.3v-2.1zm-1.8-8.5h1.7v-1.1h-1.7v1.1zm0 3.1h1.7v-1.1h-1.7v1.1zm13-7.6v4.9c0 3.8-.3 9.5-2.1 13.2-.5-.5-1.6-1.4-2.2-1.6 1.6-3.3 1.7-8.1 1.7-11.5v-7.3h9.7c-.2-.6-.5-1.1-.8-1.6l2.6-1c.5.7 1 1.6 1.2 2.3l-.7.3h9v2.4H9.1zm1.6 5.1c-.2-.8-.9-2.2-1.6-3.2l1.7-.8c.7.9 1.4 2.2 1.7 3.1l-1.8.9zm15.9 1c-.4 2.4-1 4.7-2.1 6.8.9 1.4 2 2.5 3.3 3.2-.5.5-1.3 1.4-1.7 2-1.2-.8-2.2-1.8-3-3.1-.9 1.3-2.1 2.4-3.6 3.2-.2-.4-.6-.9-.9-1.4-.1.2-.3.3-.5.4-.7.3-1.6.4-3.1.3-.1-.6-.3-1.5-.6-2h2.1c.3 0 .4-.1.4-.3V71h-5.3v10.3h-2V69.1H13v-4.9h2.4V68c.6-.9 1.3-2.3 1.7-3.3l2.2.7c-.7 1.2-1.5 2.5-2.1 3.3l-1.7-.6v.9H19v1.3c.8-1.7 1.4-4 1.8-6.2l2.5.5c-.2.9-.4 1.9-.6 2.8h4.8v2.4h-.9zm-13 8.2v.8h-1.2v-6.5h3.7V78h-2.5zm0-3.9v2.2h1.2v-2.2h-1.2zm5.4 5v.5c1.3-.8 2.2-1.9 3-3.1-.5-1.2-1-2.5-1.3-3.9-.2.4-.5.8-.7 1.1-.2-.2-.5-.6-.9-.9v6.3zm3-9.3c.3 1.4.7 2.8 1.2 4.1.5-1.3.8-2.7 1-4.1H22z" fill="#231815"/><g fill="#B70518"><path d="M-130.3 68.9v9.5h5.6v-4c-.1 0-.8-4.3-5.6-5.5z"/><path d="M-87.4 78.2v-15c0-1.8-1.4-3.2-3.2-3.2H-107c-6.1-2.8-14.6-4.5-24-4.5s-17.8 1.7-24 4.5h-16.4c-1.8 0-3.2 1.4-3.2 3.2v15c0 1.8 1.4 3.2 3.2 3.2h15.3c6.2 3.1 15.1 5.1 25.1 5.1 10 0 18.9-2 25.1-5.1h15.3c1.7 0 3.2-1.5 3.2-3.2zm-67.6.2h16.6s5.1 0 5.1-4.7-4.9-4.8-4.9-4.8h-5.4s-1.2.2-1.2-1.1 1.2-1.2 1.2-1.2h14.7s3.1 0 4.5 1.3c0 0 .9-1.3 3.1-1.3s3.6 1.7 3.6 2.9v13.2c-4 1-8.6 1.5-13.4 1.5-9.9 0-18.7-2.3-23.9-5.8zm43 2.6V67.9s-.3-4.7-6-4.7h-27.4s-4.9 0-4.9 5 4.8 4.7 4.8 4.7h4.5s1.2.1 1.2 1.2c0 1.2-1.2 1.1-1.2 1.1h-17.7c-1-1.3-1.5-2.7-1.5-4.2 0-7.3 13-13.2 29-13.2s29.1 5.9 29.1 13.2c.2 3.9-3.8 7.5-9.9 10z"/></g><path fill="none" d="M-180 50H40v50h-220z"/></svg>