<?xml version="1.0" encoding="utf-8"?>
<!-- Generator: Adobe Illustrator 18.0.0, SVG Export Plug-In . SVG Version: 6.00 Build 0)  -->
<!DOCTYPE svg PUBLIC "-//W3C//DTD SVG 1.1//EN" "http://www.w3.org/Graphics/SVG/1.1/DTD/svg11.dtd">
<svg version="1.1" id="圖層_1" xmlns="http://www.w3.org/2000/svg" xmlns:xlink="http://www.w3.org/1999/xlink" x="0px" y="0px"
	 viewBox="-180 50 220 50" enable-background="new -180 50 220 50" xml:space="preserve">
<g>
	<g>
		<g>
			<g>
				<g>
					<path fill="#231815" d="M-146.3,95.5c-0.7,0-1.2-0.1-1.6-0.6l0.6-0.6c0.3,0.3,0.7,0.4,1.1,0.4c0.5,0,0.8-0.2,0.8-0.5
						c0-0.2,0-0.3-0.1-0.4c-0.1-0.1-0.2-0.1-0.4-0.2l-0.5-0.1c-0.4-0.1-0.7-0.2-0.9-0.4c-0.2-0.2-0.3-0.5-0.3-0.9
						c0-0.8,0.6-1.3,1.5-1.3c0.6,0,1.1,0.1,1.4,0.5l-0.5,0.5c-0.3-0.3-0.6-0.3-0.9-0.3c-0.5,0-0.7,0.3-0.7,0.6c0,0.1,0,0.2,0.1,0.3
						c0.1,0.1,0.2,0.1,0.4,0.2l0.5,0.1c0.4,0.1,0.7,0.2,0.8,0.3c0.2,0.2,0.3,0.5,0.3,0.9C-144.7,95-145.4,95.5-146.3,95.5z"/>
					<path fill="#231815" d="M-143.8,95.4V91h0.9v4.4H-143.8z"/>
					<path fill="#231815" d="M-139.3,95.4l-1.8-2.7v2.7h-0.9V91h0.8l1.8,2.7V91h0.9v4.4H-139.3z"/>
					<path fill="#231815" d="M-136,95.5c-0.5,0-0.9-0.2-1.2-0.5c-0.4-0.4-0.4-1-0.4-1.8c0-0.8,0-1.3,0.4-1.8
						c0.3-0.3,0.7-0.5,1.2-0.5c0.8,0,1.5,0.5,1.6,1.4h-0.9c-0.1-0.4-0.3-0.6-0.7-0.6c-0.2,0-0.4,0.1-0.6,0.2
						c-0.2,0.2-0.2,0.4-0.2,1.3c0,0.9,0,1.1,0.2,1.3c0.1,0.1,0.3,0.2,0.6,0.2c0.4,0,0.7-0.3,0.7-0.6h0.9
						C-134.5,95-135.2,95.5-136,95.5z"/>
					<path fill="#231815" d="M-133.6,95.4V91h2.9v0.8h-2.1v1h1.8v0.8h-1.8v1.1h2.1v0.8H-133.6z"/>
					<path fill="#231815" d="M-125.9,95.4v-3.6l-0.9,0.8v-0.9l0.9-0.8h0.8v4.4H-125.9z"/>
					<path fill="#231815" d="M-121.4,93.5l-0.9,1.9h-0.9l0.9-1.8c-0.1,0-0.2,0.1-0.3,0.1c-0.6,0-1.2-0.5-1.2-1.3
						c0-0.9,0.6-1.4,1.4-1.4c0.8,0,1.4,0.5,1.4,1.4C-121,92.7-121.2,93.1-121.4,93.5z M-122.4,91.7c-0.3,0-0.6,0.2-0.6,0.6
						c0,0.4,0.2,0.6,0.6,0.6c0.3,0,0.6-0.2,0.6-0.6C-121.8,91.9-122.1,91.7-122.4,91.7z"/>
					<path fill="#231815" d="M-118,95.1c-0.2,0.2-0.5,0.4-1,0.4c-0.5,0-0.8-0.2-1-0.4c-0.3-0.3-0.3-0.6-0.4-0.9h0.8
						c0,0.3,0.2,0.5,0.5,0.5c0.2,0,0.3,0,0.4-0.1c0.1-0.1,0.2-0.4,0.2-0.7c0-0.5-0.1-0.8-0.5-0.8c-0.3,0-0.5,0.2-0.5,0.4h-0.7V91
						h2.5v0.7h-1.8v1c0.1-0.1,0.4-0.2,0.7-0.2c0.4,0,0.6,0.1,0.8,0.3c0.3,0.3,0.4,0.8,0.4,1.2C-117.6,94.4-117.7,94.8-118,95.1z"/>
					<path fill="#231815" d="M-117,95.4v-0.7l1.7-1.9c0.2-0.2,0.2-0.3,0.2-0.5c0-0.3-0.2-0.6-0.5-0.6c-0.3,0-0.5,0.1-0.5,0.6h-0.8
						c0-0.8,0.6-1.3,1.4-1.3c0.8,0,1.3,0.5,1.3,1.3c0,0.4-0.2,0.7-0.5,1l-1.2,1.4h1.7v0.7H-117z"/>
				</g>
			</g>
		</g>
		<g>
			<path fill="#231815" d="M-72.7,95.3c-0.8,0-1.3-0.2-1.8-0.7l0.6-0.6c0.3,0.3,0.7,0.4,1.2,0.4c0.6,0,0.9-0.2,0.9-0.6
				c0-0.2,0-0.3-0.2-0.4c-0.1-0.1-0.2-0.1-0.4-0.2l-0.6-0.1c-0.4-0.1-0.7-0.2-1-0.4c-0.2-0.2-0.4-0.6-0.4-1c0-0.9,0.7-1.5,1.7-1.5
				c0.7,0,1.2,0.2,1.6,0.6l-0.6,0.6c-0.3-0.3-0.7-0.3-1-0.3c-0.5,0-0.8,0.3-0.8,0.6c0,0.1,0,0.3,0.1,0.4c0.1,0.1,0.3,0.2,0.5,0.2
				l0.6,0.1c0.5,0.1,0.7,0.2,0.9,0.4c0.3,0.3,0.4,0.6,0.4,1.1C-70.9,94.8-71.7,95.3-72.7,95.3z"/>
			<path fill="#231815" d="M-66.9,95.3v-2.1h-1.7v2.1h-1v-5h1v2h1.7v-2h1v5H-66.9z"/>
			<path fill="#231815" d="M-64.4,95.3v-5h1v5H-64.4z"/>
			<path fill="#231815" d="M-58.9,95.3l-2-3v3h-1v-5h0.9l2,3v-3h1v5H-58.9z"/>
			<path fill="#231815" d="M-53.4,94.7c-0.4,0.4-0.9,0.6-1.4,0.6c-0.5,0-1-0.2-1.3-0.5c-0.5-0.5-0.5-1.1-0.5-2s0-1.5,0.5-2
				c0.3-0.3,0.8-0.5,1.3-0.5c1.1,0,1.7,0.8,1.9,1.6h-1c-0.1-0.5-0.4-0.7-0.9-0.7c-0.3,0-0.5,0.1-0.6,0.3c-0.2,0.2-0.2,0.4-0.2,1.4
				s0,1.2,0.2,1.4c0.1,0.2,0.4,0.3,0.6,0.3c0.3,0,0.5-0.1,0.7-0.3c0.2-0.2,0.2-0.4,0.2-0.7v-0.2h-0.9v-0.8h1.9v0.7
				C-52.9,93.9-53.1,94.4-53.4,94.7z"/>
			<path fill="#231815" d="M-46.6,95.3l-2-3v3h-1v-5h0.9l2,3v-3h1v5H-46.6z"/>
			<path fill="#231815" d="M-41.3,95.3l-0.3-0.9h-1.8l-0.3,0.9h-1l1.8-5h0.8l1.8,5H-41.3z M-42.5,91.8l-0.6,1.8h1.2L-42.5,91.8z"/>
			<path fill="#231815" d="M-36.4,95.3l-2-3v3h-1v-5h0.9l2,3v-3h1v5H-36.4z"/>
			<path fill="#231815" d="M-30.5,95.3c-0.8,0-1.3-0.2-1.8-0.7l0.6-0.6c0.3,0.3,0.7,0.4,1.2,0.4c0.6,0,0.9-0.2,0.9-0.6
				c0-0.2,0-0.3-0.2-0.4c-0.1-0.1-0.2-0.1-0.4-0.2l-0.6-0.1c-0.4-0.1-0.7-0.2-1-0.4c-0.2-0.2-0.4-0.6-0.4-1c0-0.9,0.7-1.5,1.7-1.5
				c0.7,0,1.2,0.2,1.6,0.6l-0.6,0.6c-0.3-0.3-0.7-0.3-1-0.3c-0.5,0-0.8,0.3-0.8,0.6c0,0.1,0,0.3,0.1,0.4c0.1,0.1,0.3,0.2,0.5,0.2
				l0.6,0.1c0.5,0.1,0.7,0.2,0.9,0.4c0.3,0.3,0.4,0.6,0.4,1.1C-28.7,94.8-29.5,95.3-30.5,95.3z"/>
			<path fill="#231815" d="M-25.6,95.3c-1,0-1.8-0.7-1.8-1.7v-3.3h1v3.2c0,0.6,0.3,0.9,0.9,0.9c0.5,0,0.9-0.3,0.9-0.9v-3.2h1v3.3
				C-23.8,94.6-24.6,95.3-25.6,95.3z"/>
			<path fill="#231815" d="M-19.2,94.7c-0.4,0.4-0.9,0.6-1.4,0.6c-0.5,0-1-0.2-1.3-0.5c-0.5-0.5-0.5-1.1-0.5-2s0-1.5,0.5-2
				c0.3-0.3,0.8-0.5,1.3-0.5c1.1,0,1.7,0.8,1.9,1.6h-1c-0.1-0.5-0.4-0.7-0.9-0.7c-0.3,0-0.5,0.1-0.6,0.3c-0.2,0.2-0.2,0.4-0.2,1.4
				s0,1.2,0.2,1.4c0.1,0.2,0.4,0.3,0.6,0.3c0.3,0,0.5-0.1,0.7-0.3c0.2-0.2,0.2-0.4,0.2-0.7v-0.2h-0.9v-0.8h1.9v0.7
				C-18.8,93.9-18.9,94.4-19.2,94.7z"/>
			<path fill="#231815" d="M-14.6,95.3l-0.3-0.9h-1.8l-0.3,0.9h-1l1.8-5h0.8l1.8,5H-14.6z M-15.8,91.8l-0.6,1.8h1.2L-15.8,91.8z"/>
			<path fill="#231815" d="M-9.9,95.3l-1-2h-0.7v2h-1v-5h1.9c1,0,1.6,0.7,1.6,1.5c0,0.7-0.4,1.1-0.9,1.3l1.1,2.1H-9.9z M-10.7,91.2
				h-0.9v1.3h0.9c0.4,0,0.7-0.3,0.7-0.7C-10,91.4-10.3,91.2-10.7,91.2z"/>
			<path fill="#231815" d="M-4.6,91.2v1.2h2v0.9h-2v2h-1v-5h3.3v0.9H-4.6z"/>
			<path fill="#231815" d="M1.3,95.3l-0.3-0.9h-1.8L-1,95.3h-1l1.8-5h0.8l1.8,5H1.3z M0.2,91.8l-0.6,1.8h1.2L0.2,91.8z"/>
			<path fill="#231815" d="M5,95.3c-0.5,0-1-0.2-1.3-0.5c-0.5-0.5-0.5-1.1-0.5-2s0-1.5,0.5-2C4,90.5,4.4,90.3,5,90.3
				c0.9,0,1.6,0.5,1.8,1.6h-1c-0.1-0.4-0.3-0.7-0.8-0.7c-0.3,0-0.5,0.1-0.6,0.3c-0.2,0.2-0.2,0.4-0.2,1.4s0.1,1.2,0.2,1.4
				c0.1,0.2,0.4,0.3,0.6,0.3c0.5,0,0.7-0.3,0.8-0.7h1C6.6,94.8,5.9,95.3,5,95.3z"/>
			<path fill="#231815" d="M9.8,91.2v4.1h-1v-4.1H7.5v-0.9h3.6v0.9H9.8z"/>
			<path fill="#231815" d="M15.2,94.8c-0.3,0.3-0.8,0.5-1.3,0.5s-1-0.2-1.3-0.5c-0.5-0.5-0.5-1.1-0.5-2s0-1.5,0.5-2
				c0.3-0.3,0.8-0.5,1.3-0.5s1,0.2,1.3,0.5c0.5,0.5,0.5,1.1,0.5,2S15.7,94.3,15.2,94.8z M14.4,91.4c-0.1-0.2-0.4-0.3-0.6-0.3
				c-0.3,0-0.5,0.1-0.6,0.3C13,91.6,13,91.8,13,92.8s0,1.2,0.2,1.4c0.1,0.2,0.4,0.3,0.6,0.3c0.3,0,0.5-0.1,0.6-0.3
				c0.2-0.2,0.2-0.4,0.2-1.4S14.6,91.6,14.4,91.4z"/>
			<path fill="#231815" d="M19.7,95.3l-1-2H18v2h-1v-5H19c1,0,1.6,0.7,1.6,1.5c0,0.7-0.4,1.1-0.9,1.3l1.1,2.1H19.7z M18.9,91.2H18
				v1.3h0.9c0.4,0,0.7-0.3,0.7-0.7C19.6,91.4,19.4,91.2,18.9,91.2z"/>
			<path fill="#231815" d="M23.9,93.2v2h-1v-2l-1.5-2.9h1.1l0.9,2l0.9-2h1.1L23.9,93.2z"/>
		</g>
		<g>
			<path fill="#231815" d="M-70.1,75c-0.6,1.7-1.6,3.7-2.5,5c-0.4-0.4-1.4-1-1.9-1.3c0.8-1.1,1.6-2.8,2.1-4.3L-70.1,75z M-66.7,73.6
				v8.1h-2.8v-8.1H-74v-2.4h4.5v-1.9h-4.7v-2.4h2.4c-0.1-0.7-0.4-1.8-0.7-2.5l2-0.5h-3.3v-2.4h4.1c-0.2-0.7-0.5-1.3-0.7-1.9l2.9-0.7
				c0.4,0.8,0.8,1.8,1.1,2.6h3.5v2.4h-3l2,0.4c-0.4,0.9-0.7,1.9-1.1,2.6h2.5v2.4h-4.1v1.9h3.8v2.4H-66.7z M-70.2,63.9
				c0.4,0.8,0.7,1.8,0.8,2.5l-1.7,0.5h3.5c0.4-0.9,0.8-2.1,1-3H-70.2z M-51.7,69.8H-54v11.9h-2.8V69.8h-2.3v0.3
				c0,3.6-0.3,8.6-2.4,11.7c-0.5-0.5-1.6-1.4-2.2-1.7c0.5-0.7,0.8-1.5,1.1-2.4l-1.7,1.1c-0.4-1-1.2-2.5-1.9-3.6l1.9-1
				c0.7,1,1.4,2.3,1.8,3.2c0.7-2.3,0.8-5,0.8-7.2v-8.6c2.6-0.5,5.6-1.2,7.4-2.1l2.2,2.1c-2,0.8-4.5,1.4-6.9,1.8v3.8h7.3V69.8z"/>
			<path fill="#231815" d="M-35.3,63.9c-0.1,0.7-0.2,1.2-0.3,1.8h8.9v13.2c0,1.4-0.3,2.1-1.3,2.5c-1,0.4-2.4,0.4-4.3,0.4
				c-0.1-0.7-0.6-1.8-0.9-2.5c1.2,0.1,2.7,0.1,3.1,0c0.4,0,0.6-0.1,0.6-0.5V68.3h-4.6l2.4,0.5c-0.3,0.9-0.7,1.8-1,2.5h1.8v2.2h-4.1
				v1.6h4.6v2.3h-4.6v3.6H-38v-3.6h-4.5v-2.3h4.5v-1.6h-4v-2.2h1.9c-0.2-0.7-0.6-1.7-0.9-2.5l2.3-0.6c0.4,0.8,0.9,1.9,1.1,2.6
				l-1.3,0.4h3.5c0.4-0.9,0.7-2.1,0.9-3h-9v13.4h-2.9V65.7h7.9c0.1-0.6,0.2-1.2,0.3-1.8h-9.1v-2.7h9.3c0-0.7,0.1-1.4,0.1-2l3.2,0.3
				c-0.1,0.6-0.2,1.2-0.2,1.7h9v2.7H-35.3z"/>
			<path fill="#231815" d="M-3.9,73.2v1.2h4.3v7.4h-2.5v-0.9h-5.3v0.9h-2.4v-7.4h3.4v-1.2h-3.4v-2h3.4v-1.1h-3.9
				c-0.1,3.7-0.6,8.5-2.7,11.6c-0.5-0.4-1.5-1.1-2.2-1.4c1.1-1.6,1.7-3.6,2-5.6l-1.6,1.7c-0.3-0.9-1-2.6-1.5-3.7v9.2h-2.3v-9.3
				c-0.4,2.3-1.2,5.1-2.2,6.6c-0.2-0.8-0.7-1.9-1-2.6c0.8-1.3,1.5-3.7,1.8-5.6l1.4,0.5v-1.6h-2.8v-2.7h2.8v-8h2.3v6.6
				c0.4-1.4,0.9-3.5,1.2-5.1l2,0.5c-0.5,1.7-1.1,3.8-1.6,5.1l-1.6-0.5v1.4h2.6v2.7h-2.6v1.7l1-0.7c0.4,0.5,1.7,2.8,2.1,3.5
				c0.3-1.8,0.3-3.7,0.3-5.3v-7.8h5.6c-0.1-0.6-0.3-1.2-0.5-1.8l2.9-0.5c0.3,0.7,0.5,1.6,0.7,2.3h5.2v2.4h-11.4v4.4h3.9v-1.1h-3.3
				v-2h3.3V64h2.5v1.1h4.1V68h1v2.4h-1v2.9H-3.9z M-20.4,66.3c-0.1-1.4-0.6-3.6-1-5.2l1.7-0.4c0.5,1.7,0.9,3.8,1.1,5.2L-20.4,66.3z
				 M-2.1,76.7h-5.3v2.1h5.3V76.7z M-3.9,68.2h1.7v-1.1h-1.7V68.2z M-3.9,71.3h1.7v-1.1h-1.7V71.3z"/>
			<path fill="#231815" d="M9.1,63.7v4.9c0,3.8-0.3,9.5-2.1,13.2c-0.5-0.5-1.6-1.4-2.2-1.6c1.6-3.3,1.7-8.1,1.7-11.5v-7.3h9.7
				c-0.2-0.6-0.5-1.1-0.8-1.6l2.6-1c0.5,0.7,1,1.6,1.2,2.3l-0.7,0.3h9v2.4H9.1z M10.7,68.8c-0.2-0.8-0.9-2.2-1.6-3.2l1.7-0.8
				c0.7,0.9,1.4,2.2,1.7,3.1L10.7,68.8z M26.6,69.8c-0.4,2.4-1,4.7-2.1,6.8c0.9,1.4,2,2.5,3.3,3.2c-0.5,0.5-1.3,1.4-1.7,2
				c-1.2-0.8-2.2-1.8-3-3.1c-0.9,1.3-2.1,2.4-3.6,3.2c-0.2-0.4-0.6-0.9-0.9-1.4c-0.1,0.2-0.3,0.3-0.5,0.4c-0.7,0.3-1.6,0.4-3.1,0.3
				c-0.1-0.6-0.3-1.5-0.6-2c0.9,0,1.8,0,2.1,0c0.3,0,0.4-0.1,0.4-0.3v-7.9h-5.3v10.3h-2V69.1H13v-4.9h2.4V68
				c0.6-0.9,1.3-2.3,1.7-3.3l2.2,0.7c-0.7,1.2-1.5,2.5-2.1,3.3l-1.7-0.6v0.9H19v1.3c0.8-1.7,1.4-4,1.8-6.2l2.5,0.5
				c-0.2,0.9-0.4,1.9-0.6,2.8h4.8v2.4H26.6z M13.6,78v0.8h-1.2v-6.5h3.7V78H13.6z M13.6,74.1v2.2h1.2v-2.2H13.6z M19,79.1
				c0,0.2,0,0.3,0,0.5c1.3-0.8,2.2-1.9,3-3.1c-0.5-1.2-1-2.5-1.3-3.9c-0.2,0.4-0.5,0.8-0.7,1.1c-0.2-0.2-0.5-0.6-0.9-0.9V79.1z
				 M22,69.8c0.3,1.4,0.7,2.8,1.2,4.1c0.5-1.3,0.8-2.7,1-4.1H22z"/>
		</g>
	</g>
	<g>
		<path fill="#B70518" d="M-130.3,68.9v9.5h5.6v-4C-124.8,74.4-125.5,70.1-130.3,68.9z"/>
		<g>
			<path fill="#B70518" d="M-87.4,78.2v-15c0-1.8-1.4-3.2-3.2-3.2H-107c-6.1-2.8-14.6-4.5-24-4.5c-9.4,0-17.8,1.7-24,4.5h-16.4
				c-1.8,0-3.2,1.4-3.2,3.2v15c0,1.8,1.4,3.2,3.2,3.2h15.3c6.2,3.1,15.1,5.1,25.1,5.1c10,0,18.9-2,25.1-5.1h15.3
				C-88.9,81.4-87.4,79.9-87.4,78.2z M-155,78.4h16.6c0,0,5.1,0,5.1-4.7c0-4.7-4.9-4.8-4.9-4.8h-5.4c0,0-1.2,0.2-1.2-1.1
				c0-1.3,1.2-1.2,1.2-1.2h14.7c0,0,3.1,0,4.5,1.3c0,0,0.9-1.3,3.1-1.3c2.2,0,3.6,1.7,3.6,2.9c0,1.1,0,11.3,0,13.2
				c-4,1-8.6,1.5-13.4,1.5C-141,84.2-149.8,81.9-155,78.4z M-112,81V67.9c0,0-0.3-4.7-6-4.7c-5.7,0-27.4,0-27.4,0s-4.9,0-4.9,5
				c0,5,4.8,4.7,4.8,4.7h4.5c0,0,1.2,0.1,1.2,1.2c0,1.2-1.2,1.1-1.2,1.1h-17.7c-1-1.3-1.5-2.7-1.5-4.2c0-7.3,13-13.2,29-13.2
				c16,0,29.1,5.9,29.1,13.2C-101.9,74.9-105.9,78.5-112,81z"/>
		</g>
	</g>
</g>
<rect x="-180" y="50" fill="none" width="220" height="50"/>
</svg>
