<svg xmlns="http://www.w3.org/2000/svg" viewBox="0 0 120 120"><defs><style>.cls-3{stroke:#823733;stroke-miterlimit:10;fill:#823733;stroke-width:.3px}</style></defs><g id="圖層_2" data-name="圖層 2"><g id="圖層_1-2" data-name="圖層 1"><path fill="none" d="M0 0h120v120H0z"/><path d="M107.56 60.28c-.33-6.4-2.34-35.62-15-30.85S75.2 27.37 75.2 27.37c-12-17-25.69-9.72-28.35-4.47s-7.33 4.43-7.33 4.43C25.63 28 24.5 40 17.82 53.19s14 10.17 17 4.54 6-3.38 8-3.47 1.88 29.11 1.88 29.11-.86 18.68 7.9 21 10.93-4.34 14.93-5.88 8-.46 10.72-2.8 3.62-16.34 6.92-18.17 11.38 9.17 17.72 8.25.33-14.09.33-18.13 4.67-.95 4.34-7.36zM65 89.38c-1.67 4.75-5-19.27-5-19.27-.8-5.27 5.94-1.75 8.6-1S66.63 84.62 65 89.38z" stroke-width=".9" opacity=".35" stroke="#823733" stroke-miterlimit="10" fill="none"/><path class="cls-3" d="M51.63 38.13V31.2c0-3.69 1.47-6.63 4.92-8.23 3.61-1.66 7.06-1.85 10.29 1.12A25.75 25.75 0 0173.65 33c1.26 3 2.78 5.93 4.43 9.39-3.16-2.64-5.76-5-8.54-7.11s-5.72-4-8.59-5.93l-1 .26-2.73 10.83.76.44c.92-.48 1.83-1 2.76-1.44 2.51-1.28 5-1.29 7.06.73a39.7 39.7 0 015.3 5.71c1 1.39 1.65 2.45 3.52 2a6.35 6.35 0 012 .19c.35-1.21.68-2.39 1-3.55.85-2.82 1.59-5.77 4.94-6.7 4.17-1.17 8.27-.69 11 2.74 4 5 5.6 11.05 6.76 17.23 0 .1-.16.24-.33.49-4.49-4.9-9-9.77-13.78-15a23.46 23.46 0 00-5.07 11.15c2.48.14 4.9-.11 7.07.51 3 .86 4.84 3.38 5.67 6.28 1.7 5.83 3.12 11.78 4.59 17.66a5.51 5.51 0 01-.16 1.24A17.67 17.67 0 0197.88 78c-3.19-4.25-6.28-8.58-9.47-12.84-2-2.63-4.44-3.31-6.94-1.31-1.3 1-2 3.17-2.38 4.93-.68 3.47-2.24 16.74-2.71 20.25-.31 2.36-1.16 2.72-4 2.3-2.21-.33-2.37-1.38-2-3.38.16-.92.38-2.3.63-3.93.88-5.92 2.09-15.23 2.4-18.59.19-2 .59-3.62 2.79-4.47a47.45 47.45 0 00-3.5-4.17 2.1 2.1 0 00-2.07-.08c-2.07 2-4 4.12-6 6.27.11-3.83 1.58-7.38 3.25-10.85-2.94-3.91-4-4.25-8.61-2.66S54.71 51 54.9 55.79c.17 4.07 1.6 13.35 1.78 17.25-.47.26-.6.39-.74.39-5.17 0-5.08-.05-5.08-5.12 0-3.6-1.5-12.42-1.66-16a12.71 12.71 0 010-1.38c0-1 .55-2.39.08-2.89a22.91 22.91 0 00-4.93-4c-.59-.36-2 .11-2.74.62-4 2.73-7.91 5.59-11.85 8.41-.47.33-.92.67-1.38 1l-.71-.44a60.36 60.36 0 013.16-6.15c2.06-3.15 4.34-6.18 6.61-9.19 4.08-5.39 7.08-5.72 12.31-1.49.58.44 1.25.85 1.88 1.33zM60 41.06l-4 2.33c9.55 3.11 15.23 10.1 21.27 16.73-.85-3.38-2-6.54-3-9.74a19.14 19.14 0 00-7.26-9.88c-2.55-1.85-4.56-1.71-7 .56zm21 16.77c8.45 4.47 12 13.33 18.1 20A60.86 60.86 0 0097.58 70a96.88 96.88 0 00-2.89-9.48c-1.56-4-5.19-6-8.5-5.08 4.29 3 7 7.65 7.49 10.73-.77-1.24-1.16-2-1.71-2.74A50.5 50.5 0 0086.51 57c-2.03-1.74-3.33-1.33-5.51.83zM29 51.3l.71.6c6.72-5.17 13.51-10.2 22.38-11.59-1.53-2.33-3.15-3.26-5.62-2.21S41.34 40.12 39 41c1.75-3.18 5.84-2.74 8.85-4.37-2.59-2.53-5.59-2.76-7.8-.08-3.91 4.77-7.4 9.83-11.05 14.75zm45.6-13.11c-1.74-5.11-3.73-9.91-8-13.33-3.9-3.1-8.74-3-12.15.68a16.35 16.35 0 00-1.79 2.94c5.88-2.67 9.9 1 14 3.5a87.2 87.2 0 017.94 6.21zm7 3.8c4.92-.73 8.28 1.58 11.21 4.93 2.61 3 5.33 5.88 8 8.82l.7-.29c-1.65-4.14-3.07-8.39-5-12.39-1.84-3.81-5.4-5.27-9.63-4.78-2.29.28-4.41.72-5.26 3.72zm-7.36 48.73a5.83 5.83 0 001.22-2c.9-4.89 3.05-19.51 3.79-24.43a1.74 1.74 0 00-.6-1.5c-.86-.39-2.1-.9-2.74-.55a3.85 3.85 0 00-1.39 2.59c-.68 4.4-2.48 18.54-3.2 22.93-.39 2.37-.23 2.81 2.92 2.96zM59.73 28.3a50.55 50.55 0 00-5.76.85 2.52 2.52 0 00-1.48 1.78 24.88 24.88 0 002.35 13 8.49 8.49 0 002-3.35c.65-2.73 1-5.54 1.58-8.3a39.68 39.68 0 011.31-3.98zm-8.79 32.53c-.1 0 .3 1.28.2 1.29-.08 1.61.43 7.19.54 8.78A2.33 2.33 0 0053 72.59c2 .67 2.72.12 2.68-2-.07-4.44-1.57-14.1-1.57-18.54 0-1.87-.51-2.7-2.45-2.54-2.16.18-1.55 1.7-1.46 2.89.17 2.82.47 5.6.74 8.43zm28.13-2.63c1.28-1.2 2.57-1.86 3-2.87 1.54-4 2.79-8 4.16-12.1-2.49-.93-5-.76-5.51.76a29.11 29.11 0 00-1.65 14.21zm-27.25-9a30.69 30.69 0 001.69-3.78c.51-1.75-.84-4.26-2.12-4-1.92.33-3.79.94-5.68 1.43l1.3-.75zM62 47.74v-.9a31.52 31.52 0 00-5.18-2.19c-.71-.18-1.94.62-2.53 1.32a3.32 3.32 0 00-.72 2.65 2.56 2.56 0 002.23 1.07c2.2-.46 4.2-1.28 6.2-1.95zm23.26 13.82a32.71 32.71 0 00-3.62-2.36c-.63-.31-1.93-.45-2.16-.12a3.11 3.11 0 00-.55 2.6 3 3 0 002.41 1.06c1.09-.03 2.15-.61 3.92-1.18zm-16.52-9.49L66.17 59l.43.2 4.76-4.31zm5.84-3.55c.53 1.67.82 2.77 1.24 3.82a1.35 1.35 0 00.91.8c.36 0 1-.35 1.08-.64.2-1.1.63-2.48.17-3.28-.34-.59-1.98-.45-3.4-.7z"/><path class="cls-3" d="M56.6 74.86c.19 1.26.47 2.52.56 3.78.26 3.38 1.8 12.66 2.09 16 .16 1.84-.41 2.81-2.36 2.71a19.79 19.79 0 00-2.31 0c-1.37.1-1.72-.66-1.74-1.83-.09-5.08-1.62-16-1.7-21.12 0-.09.2-.19.69-.62a41.33 41.33 0 01.53 4.39c0 3.54 1.47 13 1.34 16.52-.07 2.05 1 2.2 2.62 2.15s2.36-.49 2.17-2.33C58 90 56.32 79.48 56 74.89zm3.34-33.8c1.14.26 2.54.2 3.38.85A44 44 0 0170 48.35l-10-7.29zm8.6-10.44l-10-6.15a20 20 0 0110 6.15zm25.02 13.81c-3.35-2-5.63-3.65-9-5.7 4.03.96 6.24 2.74 9 5.7zM76.11 84.87c.17-1.07.26-.22-.89-.14s-3 .12-3.36-.58c-.67-1.34.67 1.33.67 1.33s3.41.43 3.58-.61z"/></g></g></svg>