<svg version="1.1" id="圖層_1" xmlns="http://www.w3.org/2000/svg" x="0" y="0" viewBox="0 0 120 120" xml:space="preserve"><style>.st4{fill:none;stroke:#c19962;stroke-width:1.5;stroke-miterlimit:10}</style><g id="圖層_1-2"><path fill="none" d="M0 0h120v120H0z"/><path d="M27.3 67.7C12.8 65.8.7 79 4.8 93c0 .1.1.3.1.4C9.3 107.8 38.4 98 40.7 92s3.8-14.9-5.9-21.5C32.6 69 30 68 27.3 67.7zm37.9-40.3c-2.4 1.4-16.8 7.1-21.2 15S42.3 63 54.7 73s12.5 33.2 36.3 27.6 31.5-30.2 19.4-40.5-22.6-9.4-26.2-24.4-19-8.3-19-8.3z" opacity=".2" fill="#796a56"/><path d="M27.3 66.6C12.8 64.7.7 77.9 4.8 91.9c0 .1.1.3.1.4 4.4 14.4 33.5 4.6 35.8-1.5s3.8-14.9-5.9-21.5c-2.2-1.5-4.8-2.4-7.5-2.7zm37.9-40.3c-2.4 1.4-16.8 7.1-21.2 15s-1.7 20.6 10.6 30.6S67.1 105.1 91 99.5s31.4-30.2 19.4-40.5-22.6-9.4-26.1-24.4-19.1-8.3-19.1-8.3z" fill="#fff"/><path d="M98.9 60.3c2 1.4 2.6 3.4 3.2 5.6 1.3 4.1 1.7 8.3 2.6 12.4.1.7 0 1.5-.5 2-1.5 1.8-3.1 3.5-4.8 5.1-1.1 1.1-2.6 1.6-4.1 1.2-.8-.2-1.4.2-2.1.9-2.7 2.5-6.1 4.2-9.7 4.9-1.7-1.9-3.5-3.7-5.2-5.7-3-3.5-2.6-9.9-.5-13 1.8-2.7 3.8-5.2 5.8-7.8.3-.4.6-.8.8-1.2 1.2-2.9 3.8-3.4 6.4-3.4 2.6-.1 5.3-.5 7.8-1.2M71.3 41.2c2.8-1.2 3.9-.2 6.8-1 .4-.1.9.1 1.1.5l3.8 7.4c1.2 2.3.8 3.3-1.7 4.4-1 .3-1.9.9-2.5 1.7-1.5 2.3-2.9 4.6-4.1 7.1-.8 1.6-4 3.1-5.2 2.4-2-1.1-4.3-1.5-6.3-2.9-3.5-2.4-3.6-2.1-1.7-5.9.8-1.5 2.1-2.8 2.1-4.7 0-1.8.2-3.6.6-5.4.5-2.4.9-3.5 3.8-3.6 1 .2 2.1.2 3.3 0M17.9 93.6c2.1 1.9 3.2 1.5 5.2.1 1.5-1 2.9-2.2 4.2-3.4 1.4-1.3 3.2-1.3 4.8-1.8 4-1.4 3.8-1.2 3-5.4-.5-2.4-1.7-4.3-2.4-6.5-.4-1.4-3.7-2.6-5.4-2-2.6.9-5.2 1.6-7.9 2.1-1 .1-2.1-.1-3-.6-2.6-.9-3.5-.5-4.3 2-.7 2.2-1.4 4.5-2.1 6.8-.5 1.1 0 2.3 1 2.9 2.2 1.4 4.6 2.6 7 3.6" fill="#804f21"/><path class="st4" d="M86.9 61.8c1.2 1 1.7 2.6 1.4 4.1-.6 3-.6 6-.1 9 .5 2.1-1 3.4-2.4 4.7-2.5 2.2-5.4 3.2-8.4 4.3-.6.2-1.4.1-1.9-.3m24-7.3c-2.4.7-4.8-.2-7.1-.3-.9-.1-1.8-.3-2.7-.6M66.4 44.2c.7.5 1.3 1 1.9 1.7 1.3 1.7 0 3.3 2 4.1l1.5.9m6.8-2c-2.6-.8-6.7 2.1-9.4 5.4-1.4 1.8-3.3 4.2-5.4 4.6-1.1.1-2.1.6-2.9 1.4M17 91.5c-.1-.8-.2-1.5-.1-2.3.2-2-.1-3.9-.9-5.7-.2-.5-.3-1.1-.4-1.6"/><path class="st4" d="M12.9 78.6c1.6 3.5 5.7 5.1 9.2 3.5.4-.2.9-.4 1.2-.7 1.8-1.3 5.4-.7 7.1.6.8.7 1.9 1.1 3 1.1m58.9-19.3c2 1 3.9 2.2 5.7 3.6"/><path d="M97.3 60.1c2.3.6 2.6 3.4 3.2 5.6 1.3 4.1 1.7 8.3 2.6 12.4.1.7-.1 1.4-.5 2-1.5 1.8-3.1 3.5-4.8 5.1-1.1 1.1-2.6 1.6-4.1 1.2-.8-.2-1.4.2-2.1.9-2.3 2.2-5.2 3.8-8.3 4.6-.9.2-1.8-.1-2.4-.7-1.4-1.5-2.9-3-4.2-4.6-3-3.5-2.6-9.9-.5-13 1.8-2.7 3.8-5.2 5.8-7.8.3-.4.6-.8.8-1.2 1.2-2.9 3.8-3.4 6.4-3.4s4-.6 6.6-1.2c.4-.2 1-.1 1.5.1zM65.6 41c-2.8.1-3.3 1.2-3.8 3.6-.3 1.8-.5 3.6-.5 5.4 0 1.9-1.3 3.2-2.1 4.7-1.9 3.8-1.8 3.6 1.7 5.9 2 1.3 4.3 1.8 6.3 2.9 1.2.7 4.4-.8 5.2-2.4 1.2-2.4 2.6-4.8 4.1-7 .6-.8 1.5-1.4 2.5-1.7 2.4-1.2 2.9-2.1 1.7-4.4L77 40.8c-.3-.6-1-.9-1.7-.8-2.8.7-5.6 1.5-8.2 2.6M16.5 93.4c2.1 1.9 3.2 1.5 5.2.1 1.5-1 2.9-2.2 4.2-3.4 1.4-1.3 3.2-1.3 4.8-1.8 4-1.4 3.8-1.2 3-5.4-.5-2.4-1.7-4.3-2.4-6.5-.4-1.3-3.7-2.6-5.4-2-2.6.9-5.3 1.6-7.9 2.2-1 .1-2.1-.1-3-.6-2.5-.9-3.5-.5-4.3 2-.7 2.3-1.5 4.6-2.2 7-.3 1 .1 2.1 1 2.6 2.9 1.7 6 3.2 9.1 4.5" stroke="#823733" stroke-width="1.32" fill="none" stroke-miterlimit="10"/></g></svg>