<svg xmlns="http://www.w3.org/2000/svg" viewBox="0 0 120 120"><defs><style>.cls-6{fill:none;stroke:#823733;stroke-miterlimit:10;stroke-width:1.5px}</style></defs><g id="圖層_2" data-name="圖層 2"><g id="圖層_1-2" data-name="圖層 1"><path fill="none" d="M0 0h120v120H0z"/><path d="M14.06 28.07s7-8.64 24.61-2S70.6 49.5 76.25 52.59s11 3.19 20.62 3.14 19 14.58 12 30.55-20.62 21.28-35.92 14S51 76 48.65 63.52s-18.43-10-23.85-13.76S6.41 42 14.06 28.07z" fill="#796a56" opacity=".2"/><path d="M14.65 27.22s7-8.65 24.61-2 31.93 23.43 37.59 26.52 11 3.18 20.62 3.14 19 14.58 12 30.54-20.62 21.29-35.92 14-21.98-24.26-24.31-36.76-18.43-10-23.85-13.76S7 41.19 14.65 27.22z" fill="#fff"/><path d="M61.6 64.55c0-.6-.46-.9-.81-1.33-1.06-1.28-1.9-2.75-2.92-4.08-3.59-4.7-8.14-8.56-13.77-9.94-4.69-1.15-9.39-2.41-14.06-3.63-5.88-1.53-7-4.07-5.2-9.71a19.18 19.18 0 019.34-.09c11.51 3 20.5 9.93 28.36 18.61C66.71 59 70.25 64.49 76.86 66.2c.61.15 1.23.38 1.12 1.23 0 0 16.49 2.45 20.66 14 2.14 1.52.94 3.75 1 5.63s-.14 3.59-2.21 4.6c-2.28 1.12-4.24 3.06-6.6 3.78-3.27 1-6.39 2.68-10.24 1.68-5.72-1.5-10.49-4.17-13.71-9.11-1.55-2.38-4.07-4-5-6.87a46.64 46.64 0 01-1.65-7.58 5.35 5.35 0 011.28-4.94" fill="#edbd62"/><path d="M76 76.8c1.17 2 2.53 4.42 5 5.51l.62.17c2.87 1.67 5.79 3.27 8.59 5a3.74 3.74 0 003.86.12c5.44-2.23 6.78-4.44 6.76-10.45a36 36 0 011.11-7.54c.38-1.77.09-3.09-1.44-4.12a9.8 9.8 0 00-9.37-1.4 32.37 32.37 0 01-8.05 2.13c-2.82.23-5.14-.62-7.5 1.25a6.76 6.76 0 00-1.89 3.28s-.75.96 2.31 6.05z" fill="#804f21"/><path class="cls-6" d="M79.33 65.12c.1-.85-.51-1.07-1.13-1.23-6.61-1.71-10.14-7.21-14.32-11.82C56 43.39 47 36.51 35.53 33.46a17.92 17.92 0 00-7.25-.31 3.21 3.21 0 00-2.66 2.48c-.87 4.21.66 6.3 5.76 7.64 4.67 1.22 9.37 2.47 14.06 3.62 5.63 1.38 10.18 5.24 13.78 10 1 1.32 1.85 2.79 2.91 4.07.36.43.79.73.81 1.33.15 4.82 2 9.37 2.33 14.18.13 1.82 1.17 4.28.37 6.19"/><path class="cls-6" d="M72.46 69c.4 0 1-1.73 1.78-2.32 2.36-1.87 4.67-1 7.5-1.25a32.48 32.48 0 008.05-2.13 9.78 9.78 0 019.36 1.4c1.53 1 1.83 2.35 1.44 4.12a36 36 0 00-1.1 7.54c0 6-1.32 8.22-6.76 10.45a3.74 3.74 0 01-3.86-.12c-2.81-1.78-5.73-3.38-8.6-5l-.62-.17c-2.46-1.09-3.83-3.52-5-5.51-1.52-2.61-3.8-4.58-1.47-7.84"/><path class="cls-6" d="M62.88 66.35a5.38 5.38 0 00-1.28 4.94 47.72 47.72 0 001.65 7.58c1 2.91 3.47 4.49 5 6.87 3.21 5 8 7.61 13.7 9.11 3.85 1 7-.69 10.25-1.68 2.35-.72 4.31-2.66 6.59-3.78 2.08-1 2.32-2.83 2.21-4.6s.52-4.79-1.61-6.31"/><path d="M89.57 68.05c3.75 1.7 3.66 1.67 2.57 5.37-.53 1.82-1.19 3.7-.66 5.67" stroke="#c19962" stroke-miterlimit="10" stroke-width="1.5" fill="none"/></g></g></svg>