<svg version="1.1" id="圖層_1" xmlns="http://www.w3.org/2000/svg" x="0" y="0" viewBox="0 0 165 165" xml:space="preserve"><style>.st2{stroke:#000;stroke-width:.42;stroke-miterlimit:10}</style><g id="圖層_1-2"><path d="M160.8 122.5s5.6 14.5-2.8 15.8-12.3-1.9-23 3.2-43.2 4.4-54.4 4.4-10.7-3.8-23-3.2-21.3.6-23-1.9 2.2-10.8 2.2-10.8 7.8-16.4 7.8-34.2-1.7-23.4 0-36.1 2.8-40.5 2.8-40.5V5.3c0-5.2 2.8-.5 9.5 0S90 9.9 102.3 6.7s43.7 0 50.6 0 3.8 3.8 2.4 8.2-2.4 8.9-2.4 8.9S158 66 158 79.2v36.4l2.8 6.9z" opacity=".3" fill="#f3ae00"/><path d="M152.9 126.8c-.3-2-.3-4 0-6 .1-1 .2-1.9.4-2.9l.3-1.4.3-1.2V80.7c-.1-3.8-.3-7.7-.6-11.5-.6-7.7-1.3-15.4-2.1-23.1L150 34.4l-.3-2.9-.2-1.5-.1-.7c0-.3-.2-.8 0-1.2l1.6-5.8.8-2.8c.3-1 .7-2 1-2.8.3-.7.5-1.4.6-2.2 0-.1 0-.2-.1-.3-.1-.1-.2-.1-.6-.2-1.3-.3-3.6-.1-5.5-.3l-5.8-.4c-7.7-.5-15.5-.9-23.2-.8-3.8 0-7.6.2-11.4.7-.9.1-1.8.3-2.7.5l-3 .6c-2 .3-4 .5-6 .6-7.8.2-15.7-.2-23.5-1.2-3.1-.3-6.4-.8-9.6-1.3-1.7-.2-3.3-.5-4.9-1.1-1.3-.5-2.5-1.1-3.7-1.8-.4-.3-.8-.2-1.1.2 0 .1-.1.1-.1.2-.2.5-.3 1-.3 1.5-.2 1.1-.3 2.2-.5 3-.4 1.7-.8 2.7-1.2 2.7V11l.1-1.4c.1-.4.2-.8.4-1.2.4-.7 1.1-1.2 1.9-1.2.9 0 1.7.2 2.5.6l1.4.6c.9.4 1.8.6 2.7.8 1 .2 1.9.3 2.9.4l6.2.7c8.1 1 16.2 1.6 24.4 1.7 2 0 4-.1 6-.3 2-.3 4-.6 5.9-1.1 4.1-.7 8.3-1 12.6-1 8.3-.1 16.5.4 24.8.9l6.1.4 3 .1c1.4-.1 2.7.2 3.9.9.8.5 1.3 1.3 1.4 2.2.1.7 0 1.5-.2 2.2-.3 1.2-.7 2.1-1.1 3-.7 1.7-1.1 3.9-1.7 5.7l-.8 3-.2.7v.2l.2 1.5.7 6.1 1.3 12.3c.8 8.2 1.6 16.4 2.1 24.6.3 4.1.3 8.3.3 12.4v12.4c0 5.7-.3 11.9-.8 17.4-.9 2.5-1.6 5.1-2.2 7.7-.4 2.1-.6 3.4-1.1 3.5z"/><path d="M160.2 123.5c.8 2.6 1.2 5.4 1.2 8.2-.1 1.6-.5 3.1-1.4 4.4-1 1.4-2.6 2.3-4.3 2.6-2.7.3-5.3.4-8 .2-2.4-.2-4.9 0-7.3.5-1.2.3-2.3.7-3.5 1.1-1.2.4-2.2 1-3.6 1.5-2.5.9-5.1 1.6-7.8 2-5.2.8-10.4 1.3-15.6 1.5-5.2.2-10.4.4-15.6.4h-7.8c-2.6.1-5.3 0-7.9-.2-2.6-.4-5.3-1-7.8-1.9-2.3-.7-4.8-1-7.2-.9-5 .1-10.3.5-15.5.4-2.1 0-4.3-.4-6.3-1-1.3-.3-2.3-1.1-3.1-2.1-.4-1.1-.5-2.3-.1-3.3 1.2-3.5 3-5.4 3.8-5.1-.5 1.1-.9 2.3-1.2 3.5-.3 1-.5 2.1-.4 3.2.1.4 0 .3.3.6.4.2.8.4 1.3.5 1.2.3 2.3.5 3.5.6 5.1.2 10.2.2 15.3-.2 2.7-.2 5.4 0 8.1.4 2.8.5 5.2 1.6 7.5 2 2.4.4 4.9.6 7.4.5H92c10.3-.1 20.6-.2 30.7-1.5 2.5-.3 4.9-.8 7.4-1.5 1.2-.3 2.3-.7 3.4-1.2 1.2-.6 2.5-1.1 3.8-1.5 2.6-.9 5.3-1.3 8.1-1.3 2.7 0 5.2.3 7.6.1.9 0 1.8-.1 2.7-.3.7-.1 1.4-.5 1.9-1 1-1.4 1.5-3 1.6-4.7.2-3.5.1-6.2 1-6.5z"/><path d="M53.3 25.9c-.3 7.8-.8 15.5-1.3 23.3-.3 3.9-.6 7.8-1 11.7-.6 3.8-.9 7.6-1 11.4 0 7.6.7 15.4.7 23.2.1 4-.2 7.9-.7 11.8-.5 3.9-1.4 7.8-2.2 11.6-.7 2.9-1.5 5.7-2.5 8.5-.9 2.5-1.7 4.4-2.5 4.4.1-8.1 2.7-15.7 3.8-23.1s.9-15.2.6-22.9c-.2-3.9-.4-7.7-.5-11.7 0-4 .2-7.9.8-11.8.9-7.6 1.4-15.4 1.8-23.1.5-5.9 2.3-13.4 4-13.3zm98.1-2.1l-42 1.6c-3.5.2-7 .3-10.6.3-3.8 0-7.1-.6-10.6-.8l-21-1.9c-5.2-.5-11.9-2.5-11.8-4.2l41.8 3.8c6.8.1 13.9-.4 20.9-.6l21-.8c5.3-.3 12.2.8 12.3 2.6zM47.8 131.4c1.6.7 3.2 1.2 4.9 1.4.9.1 1.7.2 2.6.2.9 0 2 0 2.9.1 3.8.3 7.5.8 11.2 1.3 7.4.9 14.8 1.8 22.2 2.2 7.4.4 14.8.1 22.1-1 7.4-1 14.6-2.6 22.1-3.8 5.5-.5 12.8-1.1 13.3.5-3.7 1.1-7.4 1.9-11.2 2.4-3.6.4-7.3 1.2-11 1.9-7.4 1.5-14.9 2.5-22.4 3.1-7.6.4-15.2.2-22.7-.7-7.5-.7-15-1.8-22.3-2.6l-4.3-.5c-1.5-.2-2.9-.5-4.3-1.1-2.3-1.1-3.6-2.7-3.1-3.4zm33.8-34L73.3 90l-2.1-1.9h-5.5l.4.4 33.3 29.8c.7-2-9.5-13.4-17.8-20.9zm-1.1-32.6l14-12.8 4.1-3.8c.9-1.1 2.3-1.8 3.7-1.7 1.3.1 2.3 1 3.8 2.4l4.1 3.8 13.2 12.1h5.4l-3.2-2.9-16.5-15.1-2.1-1.9-1-1c-.4-.4-.9-.7-1.3-.9-1.8-1-4-1-5.7.1-.5.3-.9.6-1.3 1l-1 .9-2.1 1.9-4.1 3.8-15.4 14.1h5.4zM133 88.1l-.5.5-4.2 3.7-8.3 7.5-16.6 14.9c.8 2 12.2-6 20.6-13.5l8.3-7.4 4.2-3.7c.6-.6 1.1-1.2 1.6-1.9H133z"/><path d="M108.5 81.2c.5 0 .9-.4.9-.8l.6-4.8c0-.5-.3-1-.8-1h-5.9v-4c0-1.8.5-3.1 3.1-3.1h2.4c.5 0 .9-.4.9-.9v-4.1c0-.5-.4-.9-.9-.9h-4c-4.8 0-8.1 2.9-8.1 8.3v4.7h-3.8c-.5 0-.9.4-.9.9v4.8c0 .5.4.9.9.9h3.9v14.9h6.5V81.2h5.2z" fill="#b90518"/><path class="st2" d="M24.3 144.3c-.1-1.9-1.1-3.7-2.7-4.8-1.5-1-3.3-1.5-5.1-1.5-3.4-.1-6.8.4-10.1 1.5-.9.3-1.7.8-2.4 1.3-.2.2-.4.3-.5.5-.2.2-.3.4-.4.7-.3.6-.3 1.2 0 1.8.4.9 1.2 1.7 2.1 2.1.8.4 1.6.8 2.4 1 3.3 1 6.8 1.2 10.2.7 1.3-.2 2.6-.6 3.7-1.4 1-.6 1.5-1.4 1.2-1.8-2.6 1.5-6 1.9-9.2 1.8-1.6 0-3.2-.3-4.7-.6s-2.8-1-3.9-2c-.4-.5-.4-.8-.1-1.3.5-.5 1-.9 1.7-1.2 1.5-.6 3-1 4.5-1.2 3.1-.4 6.6-.8 9.2.5 1 .5 1.9 1.3 2.6 2.1.6.9 1 1.8 1.5 1.8zM140.6 155c-.7-1.6-1.7-3.1-3-4.3-1.3-1.3-3-2.1-4.9-2.3-1.8 0-3.6.4-5.2 1.1-1.6.6-3.1 1.3-4.6 2.1-.8.4-1.5.9-2.2 1.4-.4.3-.7.6-1 1-.4.5-.6 1-.7 1.6 0 .7.4 1.3 1 1.6.4.3.9.4 1.3.6.8.2 1.7.4 2.6.5 3.4.4 6.8.4 10.1 0 1.3-.1 2.6-.6 3.7-1.2 1-.6 1.6-1.3 1.4-1.7-2.8 1.3-6.2 1.6-9.4 1.6-1.6 0-3.3-.1-4.9-.2l-2.4-.3c-.7-.1-1.3-.3-1.8-.8-.1-.1-.1-.1-.1-.3.1-.3.3-.5.5-.7.6-.5 1.2-1 1.9-1.4 1.4-.8 2.9-1.5 4.4-2.1 1.4-.7 2.9-1.1 4.5-1.3 1.5-.1 2.9.5 4.1 1.4 1.9 1.5 3.9 4 4.7 3.7zm9.3-.7c-.1.1-.3.1-.4 0-.1-.2.2-.2.3-.2.2 0 .3-.1.5-.1.3 0 .7.1 1.2.1-.1-.7-.8-1.2-1.5-1.2-.8-.1-1.6.2-2 .8-.3.6 0 1.3.6 1.6.7.4 1.6.3 2.3-.1.5-.3-.1-1-1-.9zm1.5-5.9s.1 0-.2.1h-1.1c.1.7.7 1.3 1.5 1.2.7-.1 1.3-.7 1.2-1.5s-.7-1.3-1.5-1.2c-.3 0-.6.1-.8.3-.2.2-.2.5 0 .7.1.1.3.2.5.2.1.2.5.2.4.2zm-10.8-.1s.1 0-.2.1h-1.1c.1.7.7 1.3 1.5 1.2.7-.1 1.3-.7 1.2-1.5s-.7-1.3-1.5-1.2c-.3 0-.6.1-.8.3-.2.2-.2.5 0 .7.1.1.3.2.5.2.1.2.5.2.4.2zm16.4-.6h-.1c-.4.1-.7.1-1.1.1 0 .7.6 1.2 1.3 1.1s1.2-.6 1.1-1.3c0-.7-.6-1.2-1.3-1.1-.3 0-.5.1-.7.3-.2.2-.1.5.1.6.1.1.3.2.5.2l.2.1z"/><path class="st2" d="M134.1 153.7s.1 0-.2.1h-1.1c.1.7.7 1.3 1.5 1.3.5 0 1-.4 1.2-.9.3-.7-.1-1.5-.8-1.8-.5-.2-1-.1-1.4.2-.2.2-.2.5 0 .7.1.1.3.2.5.2 0 .2.2.2.3.2zM9.7 142.9c-.1.1-.3.1-.4 0-.1-.2.2-.2.3-.1.2 0 .3-.1.5-.1.3 0 .8.1 1.2.1-.1-.7-.8-1.2-1.5-1.2-.8-.1-1.5.2-1.9.8-.3.6-.1 1.3.5 1.6h.1c.7.4 1.6.3 2.3-.1.3-.4-.2-1-1.1-1zm35.2 4.8c-.1.1-.3.1-.4 0-.1-.2.2-.2.3-.2.2 0 .3-.1.5-.1.3 0 .7.1 1.2.1-.2-.7-.8-1.2-1.5-1.2-.8-.1-1.6.2-2 .8-.3.6 0 1.3.6 1.6.7.4 1.6.3 2.3-.1.5-.3-.1-1-1-.9zm-31.3-5.3s.1 0 0 0c-.5.1-.8.1-1.2.1.1.7.6 1.2 1.3 1.1.5 0 .8-.3 1-.7.3-.6 0-1.3-.7-1.6-.4-.2-.9-.1-1.3.2-.2.2-.1.5.1.6.1.1.3.2.5.2l.3.1zm21.3 1.1c0-.1 0-.2.1-.2s.2.1.2.2-.1.5-.3.2c0 0-.2.1-.5 0s-.7-.1-1.1-.1c0 .7.4 1.4 1.1 1.7.7.2 1.5-.2 1.7-.9.2-.5.3-1.1.1-1.7-.1-.4-.4-.8-.7-1-.6-.4-1.4-.2-1.8.4-.2.3-.1.7.1.9.3.3.7.5 1.1.5zm-5.6.7h-.1c-.4.1-.7.1-1.1.1 0 .6.5 1 1 1.1.7.1 1.3-.4 1.4-1 .1-.5-.1-.9-.5-1.2-.5-.3-1.1-.3-1.5.1-.2.2-.1.5.1.6.1.1.3.2.5.2l.2.1zm-.6 4.6c0-.2.3-.3.3 0s-.1.4-.2.2h-.5c-.3 0-.7-.1-1.1-.1 0 .7.4 1.3 1.1 1.6.7.2 1.5-.1 1.8-.8.2-.5.3-1 .1-1.5-.1-.4-.4-.7-.7-.9-.6-.3-1.4-.2-1.8.4-.2.3-.1.6.1.8.1.2.5.3.9.3z"/><path fill="none" d="M0 0h165v165H0z"/></g></svg>