<svg xmlns="http://www.w3.org/2000/svg" viewBox="0 0 495 108"><defs><style>.cls-1{fill:#231815;}.cls-2{fill:#b70518;}.cls-3{fill:none;}</style></defs><title>資產 15</title><g id="圖層_2" data-name="圖層 2"><g id="圖層_1-2" data-name="圖層 1"><path class="cls-1" d="M78.37,95.09a4.82,4.82,0,0,1-3.76-1.36l1.3-1.3a3.39,3.39,0,0,0,2.49.87c1.19,0,1.82-.45,1.82-1.28a1.12,1.12,0,0,0-.32-.86,1.55,1.55,0,0,0-.91-.37l-1.24-.17a3.52,3.52,0,0,1-2-.85,2.73,2.73,0,0,1-.73-2c0-1.83,1.35-3.12,3.58-3.12a4.43,4.43,0,0,1,3.33,1.2l-1.27,1.26a2.89,2.89,0,0,0-2.12-.71c-1.07,0-1.59.59-1.59,1.3a1,1,0,0,0,.31.74,1.67,1.67,0,0,0,.95.4l1.22.18a3.4,3.4,0,0,1,2,.79,2.9,2.9,0,0,1,.8,2.19C82.19,94,80.53,95.09,78.37,95.09Z"/><path class="cls-1" d="M84.08,95V84.71h2V95Z"/><path class="cls-1" d="M94.58,95,90.5,88.68V95h-2V84.71h1.79L94.36,91v-6.3h2V95Z"/><path class="cls-1" d="M102.21,95.09A3.81,3.81,0,0,1,99.43,94c-1-1-1-2.33-1-4.11s0-3.06,1-4.1a3.77,3.77,0,0,1,2.78-1.13A3.62,3.62,0,0,1,106,87.87h-2a1.72,1.72,0,0,0-1.74-1.46,1.65,1.65,0,0,0-1.29.54c-.39.43-.5.92-.5,2.9s.11,2.48.5,2.91a1.68,1.68,0,0,0,1.29.54A1.72,1.72,0,0,0,104,91.84h2A3.63,3.63,0,0,1,102.21,95.09Z"/><path class="cls-1" d="M107.73,95V84.71h6.78V86.5h-4.77v2.41h4.06v1.8h-4.06v2.5h4.77V95Z"/><path class="cls-1" d="M125.56,95V86.73l-2.09,1.82v-2l2.09-1.82h1.88V95Z"/><path class="cls-1" d="M136.13,90.55,134,95h-2l2.14-4.25a2.08,2.08,0,0,1-.77.13,2.83,2.83,0,0,1-2.72-3,3,3,0,0,1,3.21-3.21A3,3,0,0,1,137,87.8,6.36,6.36,0,0,1,136.13,90.55Zm-2.36-4.24a1.52,1.52,0,1,0,1.33,1.5A1.34,1.34,0,0,0,133.77,86.31Z"/><path class="cls-1" d="M143.91,94.25a3.13,3.13,0,0,1-2.27.84,3.24,3.24,0,0,1-2.3-.82,3.15,3.15,0,0,1-.84-2.15h1.88c.1.81.48,1.28,1.26,1.28a1.2,1.2,0,0,0,.89-.33,2.13,2.13,0,0,0,.41-1.54c0-1.18-.35-1.85-1.26-1.85a1.18,1.18,0,0,0-1.24.84h-1.72V84.71h5.87V86.4h-4.17v2.21a2.39,2.39,0,0,1,1.55-.52,2.69,2.69,0,0,1,1.92.69,3.58,3.58,0,0,1,.93,2.75A3.41,3.41,0,0,1,143.91,94.25Z"/><path class="cls-1" d="M146.38,95V93.31l3.84-4.47a1.75,1.75,0,0,0,.54-1.24,1.25,1.25,0,1,0-2.5,0h-1.88a2.92,2.92,0,0,1,3.13-3,2.89,2.89,0,0,1,3.13,3,3.27,3.27,0,0,1-1.1,2.36l-2.88,3.34h4V95Z"/><path class="cls-1" d="M249,94.75a5.41,5.41,0,0,1-4.2-1.51l1.45-1.46a3.76,3.76,0,0,0,2.78,1c1.32,0,2-.5,2-1.42a1.3,1.3,0,0,0-.35-1,1.74,1.74,0,0,0-1-.4l-1.39-.2a3.9,3.9,0,0,1-2.23-1,3.07,3.07,0,0,1-.82-2.26c0-2,1.52-3.49,4-3.49A4.94,4.94,0,0,1,253,84.4l-1.42,1.41a3.18,3.18,0,0,0-2.36-.79c-1.19,0-1.78.66-1.78,1.45a1.1,1.1,0,0,0,.34.82,2,2,0,0,0,1.07.46l1.36.19a3.81,3.81,0,0,1,2.19.89,3.23,3.23,0,0,1,.89,2.44C253.26,93.49,251.4,94.75,249,94.75Z"/><path class="cls-1" d="M262.47,94.66V89.85h-3.89v4.81h-2.24V83.16h2.24v4.7h3.89v-4.7h2.24v11.5Z"/><path class="cls-1" d="M268.35,94.66V83.16h2.25v11.5Z"/><path class="cls-1" d="M281,94.66l-4.55-7.06v7.06h-2.25V83.16h2l4.55,7v-7H283v11.5Z"/><path class="cls-1" d="M293.77,93.44a4.55,4.55,0,0,1-6.34,0c-1.17-1.16-1.13-2.6-1.13-4.58s0-3.42,1.13-4.59a4.19,4.19,0,0,1,3.1-1.26,4.13,4.13,0,0,1,4.32,3.69h-2.26a1.94,1.94,0,0,0-2.06-1.68,1.86,1.86,0,0,0-1.44.61c-.44.48-.55,1-.55,3.23s.11,2.76.55,3.24a1.82,1.82,0,0,0,1.44.6,2.11,2.11,0,0,0,1.59-.64,2.2,2.2,0,0,0,.52-1.54v-.43h-2.11V88.26h4.34v1.68A4.53,4.53,0,0,1,293.77,93.44Z"/><path class="cls-1" d="M309.61,94.66l-4.55-7.06v7.06h-2.24V83.16h2l4.55,7v-7h2.25v11.5Z"/><path class="cls-1" d="M321.79,94.66l-.67-2H317l-.69,2H314l4.18-11.5h1.76l4.2,11.5Zm-2.68-8.11-1.45,4.18h2.86Z"/><path class="cls-1" d="M333.31,94.66l-4.55-7.06v7.06h-2.24V83.16h2l4.55,7v-7h2.25v11.5Z"/><path class="cls-1" d="M346.83,94.75a5.43,5.43,0,0,1-4.2-1.51l1.46-1.46a3.73,3.73,0,0,0,2.77,1c1.33,0,2-.5,2-1.42a1.31,1.31,0,0,0-.36-1,1.68,1.68,0,0,0-1-.4l-1.38-.2a3.87,3.87,0,0,1-2.23-1,3,3,0,0,1-.82-2.26c0-2,1.51-3.49,4-3.49a4.92,4.92,0,0,1,3.71,1.34l-1.42,1.41A3.17,3.17,0,0,0,347,85c-1.19,0-1.77.66-1.77,1.45a1.1,1.1,0,0,0,.34.82,2,2,0,0,0,1.06.46l1.36.19a3.88,3.88,0,0,1,2.2.89,3.23,3.23,0,0,1,.88,2.44C351.09,93.49,349.24,94.75,346.83,94.75Z"/><path class="cls-1" d="M358.22,94.75a4,4,0,0,1-4.23-4V83.16h2.25v7.48a2,2,0,1,0,4,0V83.16h2.23v7.56A4,4,0,0,1,358.22,94.75Z"/><path class="cls-1" d="M373,93.44a4.55,4.55,0,0,1-6.34,0c-1.17-1.16-1.13-2.6-1.13-4.58s0-3.42,1.13-4.59a4.2,4.2,0,0,1,3.1-1.26,4.13,4.13,0,0,1,4.32,3.69h-2.26a1.94,1.94,0,0,0-2.06-1.68,1.86,1.86,0,0,0-1.44.61c-.44.48-.55,1-.55,3.23s.11,2.76.55,3.24a1.82,1.82,0,0,0,1.44.6,2.1,2.1,0,0,0,1.59-.64,2.2,2.2,0,0,0,.52-1.54v-.43h-2.11V88.26h4.34v1.68A4.53,4.53,0,0,1,373,93.44Z"/><path class="cls-1" d="M383.71,94.66l-.67-2H379l-.69,2h-2.34l4.18-11.5h1.76l4.2,11.5ZM381,86.55l-1.45,4.18h2.86Z"/><path class="cls-1" d="M394.54,94.66l-2.24-4.59h-1.62v4.59h-2.24V83.16h4.5a3.48,3.48,0,0,1,3.73,3.52,3.09,3.09,0,0,1-2.1,3l2.57,5Zm-1.74-9.5h-2.12v3h2.12a1.52,1.52,0,1,0,0-3Z"/><path class="cls-1" d="M406.91,85.16V88h4.54v2h-4.54v4.67h-2.24V83.16h7.57v2Z"/><path class="cls-1" d="M420.72,94.66l-.67-2H416l-.69,2h-2.34l4.18-11.5h1.76l4.2,11.5ZM418,86.55l-1.45,4.18h2.86Z"/><path class="cls-1" d="M429.13,94.75a4.23,4.23,0,0,1-3.1-1.26c-1.16-1.16-1.13-2.6-1.13-4.58s0-3.42,1.13-4.59a4.27,4.27,0,0,1,3.1-1.26,4.06,4.06,0,0,1,4.23,3.64h-2.28a1.9,1.9,0,0,0-1.94-1.63,1.84,1.84,0,0,0-1.43.59c-.44.49-.57,1-.57,3.25s.13,2.76.57,3.24a1.81,1.81,0,0,0,1.43.6,1.9,1.9,0,0,0,1.94-1.63h2.28A4.06,4.06,0,0,1,429.13,94.75Z"/><path class="cls-1" d="M440.33,85.16v9.5h-2.25v-9.5h-3v-2h8.25v2Z"/><path class="cls-1" d="M452.75,93.49a4.15,4.15,0,0,1-3.1,1.26,4.19,4.19,0,0,1-3.12-1.26c-1.16-1.16-1.13-2.6-1.13-4.58s0-3.42,1.13-4.59a4.23,4.23,0,0,1,3.12-1.26,4.19,4.19,0,0,1,3.1,1.26c1.16,1.17,1.15,2.6,1.15,4.59S453.91,92.33,452.75,93.49Zm-1.66-7.81a2,2,0,0,0-2.89,0c-.44.48-.55,1-.55,3.23s.11,2.74.55,3.23a2,2,0,0,0,2.89,0c.43-.49.56-1,.56-3.23S451.52,86.16,451.09,85.68Z"/><path class="cls-1" d="M463.25,94.66,461,90.07h-1.62v4.59h-2.24V83.16h4.5a3.47,3.47,0,0,1,3.73,3.52,3.1,3.1,0,0,1-2.09,3l2.56,5Zm-1.74-9.5h-2.12v3h2.12a1.52,1.52,0,1,0,0-3Z"/><path class="cls-1" d="M473.06,89.94v4.72h-2.23V89.94l-3.45-6.78h2.44L472,87.79l2.12-4.63h2.44Z"/><path class="cls-1" d="M255,47.7a53.86,53.86,0,0,1-5.68,11.53,44.1,44.1,0,0,0-4.39-3,40.11,40.11,0,0,0,4.95-10Zm7.88-3.27V63.11h-6.47V44.43H246V38.81h10.47V34.48H245.63V29h5.46a33.59,33.59,0,0,0-1.63-5.85L254.07,22h-7.59V16.53h9.62c-.51-1.52-1.13-3.09-1.69-4.45l6.7-1.63c.84,1.86,1.85,4.17,2.53,6.08h8V22h-7l4.56.9c-.85,2.14-1.69,4.33-2.53,6.07h5.85v5.52h-9.62v4.33h8.72v5.62ZM254.81,22a27.74,27.74,0,0,1,1.85,5.85L252.61,29h8.1a61.85,61.85,0,0,0,2.42-7Zm42.81,13.67h-5.23V63.28h-6.53V35.66h-5.23v.67c0,8.27-.73,19.86-5.51,27.07a24.94,24.94,0,0,0-5.18-4,22,22,0,0,0,2.53-5.46l-4,2.48A68.88,68.88,0,0,0,264.09,48l4.39-2.36A55.76,55.76,0,0,1,272.7,53c1.57-5.4,1.74-11.48,1.74-16.66v-20c6.13-1.12,12.94-2.86,17.05-4.78l5.12,4.9a88.54,88.54,0,0,1-16,4.22v8.83h17Z"/><path class="cls-1" d="M335.72,21.87c-.23,1.52-.51,2.87-.79,4.22h20.65V56.64c0,3.27-.79,4.79-3.1,5.74s-5.56,1-10.07,1a21.76,21.76,0,0,0-2.13-5.68c2.7.17,6.24.17,7.09.11,1,0,1.29-.28,1.29-1.18V32.23H337.91l5.63,1.12c-.79,2.08-1.58,4.11-2.36,5.91h4.1v5.17h-9.5v3.66h10.74v5.4H335.78v8.33h-6.31V53.49h-10.4v-5.4h10.4V44.43h-9.22V39.26h4.33a42.64,42.64,0,0,0-2.19-5.68l5.28-1.3a33.54,33.54,0,0,1,2.54,6.14l-3,.84h8.22a52.81,52.81,0,0,0,2.14-7H316.82V63.34h-6.76V26.09h18.23c.23-1.35.45-2.7.62-4.22h-21V15.63h21.66c.11-1.69.22-3.26.28-4.73l7.42.68c-.16,1.29-.39,2.7-.56,4.05h20.93v6.24Z"/><path class="cls-1" d="M408.53,43.53v2.76h10V63.34h-5.85V61.26H400.43V63.4h-5.57V46.29h7.88V43.53h-7.82V39h7.82V36.45h-8.95c-.17,8.55-1.29,19.63-6.36,26.89a21.55,21.55,0,0,0-5-3.26A31.4,31.4,0,0,0,387.15,47L383.5,50.9c-.68-2.13-2.25-6-3.44-8.66V63.51h-5.23V42c-1,5.4-2.76,11.76-5.06,15.36a32.46,32.46,0,0,0-2.42-6.13,44.47,44.47,0,0,0,4.16-12.89l3.32,1.24V35.83h-6.58V29.58h6.58V11h5.23V26.15a90.27,90.27,0,0,0,2.76-11.76l4.67,1.24c-1.24,4-2.59,8.83-3.71,11.81l-3.72-1.12v3.26h6.08v6.25h-6.08v4.05l2.37-1.63c.9,1.24,3.88,6.41,4.84,8.15A87.34,87.34,0,0,0,388,34.14V16h12.88c-.34-1.4-.67-2.87-1.07-4.1l6.81-1.19c.62,1.64,1.18,3.61,1.63,5.29h12v5.63H393.79V32h8.95V29.36h-7.65V24.8h7.65V22.21h5.79V24.8h9.4v6.64h2.42V36.9h-2.42v6.63ZM370.39,27.44a88.24,88.24,0,0,0-2.31-12.09l4-1a95.57,95.57,0,0,1,2.54,12Zm42.25,24.14H400.43v4.84h12.21ZM408.53,32h3.94V29.36h-3.94Zm0,7h3.94V36.45h-3.94Z"/><path class="cls-1" d="M438.7,21.54V32.85c0,8.83-.73,22.11-4.84,30.55a25.16,25.16,0,0,0-5.06-3.83c3.6-7.6,3.82-18.74,3.82-26.72V16H455a27.43,27.43,0,0,0-1.85-3.72l6-2.25A26,26,0,0,1,462,15.29l-1.63.68h20.76v5.57Zm3.83,11.64a27.12,27.12,0,0,0-3.66-7.31L442.92,24a27,27,0,0,1,3.94,7.2Zm36.73,2.37a56.32,56.32,0,0,1-4.78,15.8,21.81,21.81,0,0,0,7.71,7.49,21.55,21.55,0,0,0-3.88,4.72,24.9,24.9,0,0,1-7-7.14,27.07,27.07,0,0,1-8.27,7.48,35,35,0,0,0-2.19-3.15,3.62,3.62,0,0,1-1.19,1c-1.57.73-3.82.85-7.08.79a20.53,20.53,0,0,0-1.41-4.67c2.08.06,4.22.06,4.84,0s.84-.17.84-.79V38.87H444.49V62.78h-4.55V34h7.82V22.72h5.57v8.83A49,49,0,0,0,457.21,24l5.06,1.63c-1.69,2.75-3.43,5.74-4.89,7.71l-4.05-1.41V34h8.32V37a54.07,54.07,0,0,0,4.17-14.4l5.74,1.07c-.4,2.19-.91,4.33-1.41,6.47h11.14v5.46Zm-30.1,19.07v1.74h-2.81v-15h8.5V54.62Zm0-9.12v5H452v-5Zm12.49,11.76a8.11,8.11,0,0,1,0,1.13,22.91,22.91,0,0,0,6.86-7.26,59.46,59.46,0,0,1-3.09-8.94c-.57,1-1.07,1.8-1.63,2.58a24.7,24.7,0,0,0-2.09-2Zm6.87-21.71a60.07,60.07,0,0,0,2.75,9.5,54.64,54.64,0,0,0,2.31-9.5Z"/><path class="cls-2" d="M115.36,33.58V55.5h12.93V46.31A17.09,17.09,0,0,0,115.36,33.58Z"/><path class="cls-2" d="M214.89,55V20.2a7.41,7.41,0,0,0-7.4-7.41H169.42C155.17,6.33,135.53,2.34,113.85,2.34s-41.32,4-55.57,10.45h-38a7.41,7.41,0,0,0-7.41,7.41V55a7.41,7.41,0,0,0,7.41,7.41H55.65c14.42,7.2,35.12,11.76,58.2,11.76s43.79-4.56,58.21-11.76h35.43A7.41,7.41,0,0,0,214.89,55ZM58.11,55.5H96.65s11.83,0,11.83-10.8S97.23,33.58,97.23,33.58H84.82a2.48,2.48,0,0,1-2.89-2.64,2.46,2.46,0,0,1,2.76-2.71h34.14s7.2.07,10.54,3c0,0,2.19-3,7.21-3s8.36,3.86,8.36,6.7V65.49A135.68,135.68,0,0,1,113.85,69C90.67,69,70.23,63.62,58.11,55.5Zm99.75,6V31.19S157.15,20.26,144,20.26H80.58S69.27,20.2,69.27,31.77,80.45,42.64,80.45,42.64H90.93s2.9.12,2.9,2.83S91,48,91,48H50a16.46,16.46,0,0,1-3.49-9.72c0-16.95,30.16-30.7,67.35-30.7s67.36,13.75,67.36,30.7C181.21,47.54,172.14,55.84,157.86,61.48Z"/><rect class="cls-3" width="495" height="108"/></g></g></svg>