<svg version="1.1" id="圖層_1" xmlns="http://www.w3.org/2000/svg" x="0" y="0" viewBox="0 0 165 165" xml:space="preserve"><style>.st2{stroke-miterlimit:10;fill:#b90518;stroke:#b90518;stroke-width:.99}</style><g id="圖層_1-2"><path d="M24.6 125.5S19 140 27.4 141.3s12.3-1.9 23 3.2 43.1 4.5 54.3 4.5 10.7-3.8 23-3.2 21.3.6 23-1.9-2.2-10.8-2.2-10.8-7.9-16.4-7.9-34.2 1.7-23.4 0-36.1-2.8-40.5-2.8-40.5V8.4c0-5.2-2.8-.5-9.5 0s-33 4.5-45.3 1.4-43.7 0-50.6 0-3.8 3.8-2.5 8.2 2.5 8.9 2.5 8.9-5 42.1-5 55.3v36.4l-2.8 6.9z" opacity=".3" fill="#f3ae00"/><path d="M35.4 130.5c.3-2 .3-4 0-5.9-.1-1-.2-1.9-.4-2.9l-.3-1.4-.3-1.2V84.3c0-3.8.3-7.7.6-11.5.6-7.7 1.3-15.4 2.1-23.1l1.2-11.6.3-2.9.2-1.4.2-.8c0-.3.2-.8 0-1.2l-1.6-5.7-.8-2.8c-.3-1-.7-2-1-2.8-.3-.7-.5-1.4-.6-2.2 0-.1 0-.2.1-.3.1-.1.2-.1.5-.2 1.3-.3 3.6-.1 5.5-.3l5.8-.3c7.7-.5 15.5-.9 23.2-.9 3.8 0 7.6.2 11.4.7.9.1 1.8.3 2.7.5l3 .6c2 .3 4 .5 6 .6 7.8.2 15.7-.2 23.5-1.2 3.1-.3 6.4-.8 9.6-1.3 1.7-.2 3.3-.5 4.9-1.1 1.3-.5 2.5-1.1 3.7-1.8.3-.3.8-.2 1.1.2 0 .1.1.1.1.2.2.5.3 1 .3 1.5.2 1.1.3 2.2.5 3 .4 1.7.8 2.7 1.2 2.7v-6.2l-.2-1.4c-.1-.4-.2-.8-.4-1.2-.4-.7-1.1-1.2-1.9-1.2-.9 0-1.7.2-2.4.6l-1.4.6c-.9.4-1.8.6-2.7.8-1 .2-1.9.3-2.9.4l-6.2.7c-8.1 1-16.2 1.6-24.4 1.6-2 0-4-.1-6-.3-2-.3-4-.6-5.9-1.1-4.2-.7-8.4-1-12.6-1-8.3-.1-16.5.4-24.8.9l-6.1.4-3 .1c-1.3-.1-2.7.2-3.9.9-.8.5-1.3 1.3-1.4 2.2-.1.7 0 1.5.2 2.2.3 1.2.7 2.1 1.1 3 .7 1.8 1.1 3.9 1.7 5.8l.8 3 .2.7v.2l-.2 1.5-.7 6.1-1.3 12.3c-.8 8.2-1.6 16.4-2.1 24.6-.3 4.1-.3 8.3-.3 12.4v12.3c0 5.7.3 11.9.8 17.4.9 2.5 1.6 5.1 2.2 7.7.4 2.1.6 3.5 1.1 3.6z"/><path d="M28.2 127.2c-.8 2.6-1.2 5.4-1.2 8.2.1 1.6.5 3.1 1.4 4.5 1 1.4 2.6 2.3 4.3 2.6 2.7.3 5.3.4 8 .2 3.7-.3 7.3.2 10.7 1.6 1.2.4 2.2 1 3.6 1.5 2.5.9 5.1 1.6 7.8 2 5.2.8 10.4 1.3 15.6 1.5 5.2.2 10.4.4 15.6.4h7.8c2.6.1 5.3 0 7.9-.2 2.6-.4 5.3-1 7.8-1.9 2.3-.7 4.8-1 7.2-1 5 .1 10.3.5 15.5.4 2.1 0 4.3-.4 6.3-1 1.3-.3 2.3-1.1 3.1-2.1.4-1.1.5-2.3.1-3.3-1.2-3.5-3-5.4-3.8-5.1.5 1.2.8 2.3 1.2 3.6.3 1 .5 2.1.4 3.2-.1.4-.1.3-.3.6-.4.2-.8.4-1.3.5-1.2.3-2.3.5-3.5.5-5.1.2-10.2.2-15.3-.2-2.7-.2-5.4 0-8.1.4-2.8.5-5.2 1.6-7.5 2-2.4.4-4.9.6-7.4.5h-7.7c-10.3-.1-20.6-.2-30.7-1.5-2.5-.3-4.9-.8-7.4-1.5-1.2-.3-2.3-.7-3.4-1.2-1.2-.6-2.5-1.1-3.8-1.5-2.6-.9-5.3-1.3-8.1-1.3-2.7 0-5.2.3-7.6.1-.9 0-1.8-.1-2.7-.3-.7-.1-1.4-.5-1.9-1-1-1.4-1.5-3-1.6-4.7-.3-3.6-.2-6.3-1-6.5z"/><path d="M135.1 29.5c.3 7.8.8 15.5 1.3 23.3.3 3.9.6 7.8 1 11.7.5 3.8.9 7.6.9 11.4 0 7.6-.7 15.4-.7 23.2-.1 4 .2 7.9.6 11.8.5 3.9 1.4 7.8 2.2 11.6.7 2.9 1.5 5.7 2.5 8.5.9 2.5 1.7 4.4 2.5 4.4-.1-8.1-2.7-15.7-3.8-23.1s-.9-15.2-.6-22.9c.2-3.9.4-7.7.4-11.7 0-4-.2-7.9-.8-11.8-.9-7.6-1.4-15.4-1.8-23.1-.3-5.8-2-13.3-3.7-13.3zM37 27.4l42 1.7c3.5.2 7 .3 10.6.3 3.8 0 7.1-.6 10.7-.8l20.9-1.9c5.2-.5 11.9-2.5 11.8-4.2l-41.9 3.8c-6.8.1-13.9-.4-20.9-.6l-21-.8c-5.3-.4-12.2.8-12.2 2.5zM140.6 135c-1.6.7-3.2 1.2-4.9 1.4-.9.1-1.7.2-2.6.2-.9 0-2 0-2.9.1-3.8.3-7.5.8-11.2 1.3-7.4.9-14.8 1.8-22.2 2.2-7.4.4-14.8.1-22.1-1-7.4-.9-14.6-2.6-22.2-3.8-5.5-.4-12.8-1.1-13.3.6 3.7 1.1 7.4 1.9 11.2 2.4 3.7.4 7.3 1.2 11 1.9 7.4 1.5 14.9 2.5 22.4 3.1 7.6.4 15.2.2 22.7-.7 7.5-.7 15-1.8 22.3-2.6l4.3-.5c1.5-.2 2.9-.5 4.3-1.1 2.3-1.1 3.6-2.7 3.2-3.5z"/><path d="M88.3 125.5c-.9-2.2 10.2-14.5 19.3-22.7l9-8.1 4.5-4.1 2.3-2c.6-.5 1.1-1.1 1.3-1.8.6-1.6.5-3.3-.3-4.9l-.6-.9c-.2-.3-.7-.7-1.1-1l-2.2-2-9-8.2-18-16.4-4.5-4c-1-1.2-2.5-1.9-4.1-1.9-1.4.1-2.5 1.1-4.1 2.6l-4.5 4.1-18 16.4-9 8.2c-2.3 2-2.8 7.4-1 10.4.4.8 1 1.5 1.7 2l2.3 2 4.5 4 9 8.1 18.1 16.2" fill="#fff"/><path class="st2" d="M71.3 77.3l.3-2.1c.7-3.9 3.5-6.6 7.4-6.7 4.8-.2 9.6-.2 14.3 0 4.2 0 7.6 3.5 7.6 7.7.1 4.6.1 9.2 0 13.8 0 4.2-3.4 7.6-7.6 7.7-4.8.2-9.6.2-14.3 0-4.3-.2-7.3-3.4-7.6-7.7 0-.4-.1-.7-.2-1.1V77.3zM86.2 95c2.2 0 4.4.1 6.6 0 3.4-.1 5.5-2.2 5.6-5.6.1-4.3.1-8.5 0-12.8.2-2.9-2.1-5.4-5-5.6h-.6c-4.3-.1-8.7-.1-13 0-3.4.1-5.5 2.1-5.6 5.5-.1 4.3-.1 8.6 0 13 .1 3.4 2.2 5.4 5.6 5.5 2.1.1 4.2 0 6.4 0z"/><path class="st2" d="M86.2 75.5c-4.2 0-7.6 3.4-7.6 7.6 0 4.2 3.4 7.6 7.6 7.6s7.6-3.4 7.6-7.6c0-4.3-3.4-7.7-7.6-7.6zm0 12.5c-2.8 0-5-2.2-5-5s2.2-5 5-5 5 2.2 5 5-2.3 5-5 5zM96 75.1c0 1-.8 1.8-1.8 1.8s-1.8-.8-1.8-1.8.8-1.8 1.8-1.8 1.8.8 1.8 1.8z"/><path d="M27.8 154.1c2.1.5 4.2 1 6.3 1.3 1.1.2 2.3.3 3.4.2.9-.1 1.8-.4 2-1.2 0-.4-.1-.8-.3-1.1l-.4-.5-.3-.3c-1.6-1.6-3.6-2.8-5.7-3.5-1.1-.3-2.2-.6-3.3-.6-.5-.1-1.1-.1-1.6-.1-.3 0-.7 0-1 .1-.4.1-.8.4-1 .8-.3.6-.3 1.2 0 1.8.2.4.5.8.8 1.1.6.5 1.2.7 1.6.4-.6-.7-.9-1.5-1.1-2.4 0-.1 0-.2.4-.2H29c2 .1 4 .6 5.7 1.6.9.5 1.7 1.1 2.4 1.8l.5.4.1.1c.1.1 0 .2-.1.2h-1c-.5 0-1-.1-1.5-.2-1-.1-2-.3-3.1-.5-1.8-.2-4 0-4.2.8zm-2.4-12.5h-.1c-.4.1-.7.1-1.1.1.1.7.7 1.2 1.3 1.1.7-.1 1.2-.7 1.1-1.3 0-.4-.2-.7-.5-.9-.5-.3-1.1-.3-1.5.1-.2.2-.1.5 0 .6h.1c.1.1.3.2.5.2l.2.1zm18.8 9.7s.1 0-.2.1h-1.1c.1.7.7 1.3 1.5 1.3.5 0 1-.4 1.2-.9.3-.7 0-1.5-.7-1.8-.5-.2-1-.1-1.4.2-.2.2-.2.5 0 .7.1.1.3.2.5.2 0 .2.1.2.2.2zm-22-6.3s.1 0 0 0c-.5.1-.8.1-1.2.1 0 .6.5 1 1 1.1.7.1 1.3-.4 1.4-1 .1-.5-.1-.9-.5-1.2-.5-.3-1.1-.3-1.5.1-.2.2-.1.5.1.6.1.1.3.2.5.2l.2.1z" stroke="#000" stroke-width=".42" stroke-miterlimit="10"/><path d="M64.7 101.1l-8.3-7.5-2.1-1.9h-5.5l.4.4 33.3 29.8c.7-2-9.4-13.3-17.8-20.8zm-1.1-32.7l14-12.8 4.1-3.8c.9-1.1 2.3-1.8 3.7-1.7 1.3.1 2.3 1 3.8 2.4l4.1 3.8 13.2 12.1h5.4l-3.1-2.9-16.4-15.1-2.1-1.9-1.1-1c-.4-.3-.8-.6-1.3-.9-1.8-1-4-1-5.7.1-.5.3-.9.6-1.3 1l-1 .9-2.1 1.9-4.1 3.8-15.5 14.1h5.4zm52.5 23.3l-.5.5-4.2 3.7-8.3 7.4-16.6 14.9c.8 2 12.2-6 20.6-13.5l8.3-7.4 4.2-3.7c.6-.5 1.1-1.2 1.5-1.9h-5z"/><path fill="none" d="M0 0h165v165H0z"/></g></svg>