<svg xmlns="http://www.w3.org/2000/svg" viewBox="0 0 120 120"><defs><style>.cls-6{fill:none;stroke:#823733;stroke-miterlimit:10;stroke-width:1.33px}</style></defs><g id="圖層_2" data-name="圖層 2"><g id="圖層_1-2" data-name="圖層 1"><path fill="none" d="M0 0h120v120H0z"/><path d="M34.81 38.38s3.85-17.86 19.48-18.64S67 29.06 67 29.06s-.35 6.37 9.71 5.81 13 41.05 13 41.05-1.18 5.61 6.49 8.85 5.77 20.37-19 18.89S54.89 89.6 54.29 86.74s-.9-8.12-6.65-7.55-17 .57-22-15.07S30.48 45 30.48 45a14.9 14.9 0 004.33-6.62z" fill="#796a56" opacity=".2"/><path d="M34.81 37.79s3.85-17.85 19.48-18.63S67 28.48 67 28.48s-.35 6.37 9.71 5.81 13 41.05 13 41.05-1.18 5.6 6.49 8.85 5.77 20.36-19 18.89S54.89 89 54.29 86.16s-.9-8.12-6.65-7.55-17 .56-22-15.08 4.82-19.14 4.82-19.14a15 15 0 004.35-6.6z" fill="#fff"/><path d="M76.87 71.46c-1.66-2.17-3.62-4.66-6.94-4.42-2.6.18-5.18.61-7.77.88-3 .31-5.53 2-8.24 3.15-4.47 1.91-9 3.42-13.71.31-5.34-3.5-7.57-8.66-8.42-14.65-.72-5.13.7-9.12 5.91-11.24a6.85 6.85 0 003.95-4.78c.62-3.68 2.64-6.5 4.6-9.28 2.84-4 6.84-6.08 12-5.11 2.1.39 4.77 2.13 5 4.83 0 2.43-.26 4.87-.41 7.31 0 0-2.18 3.41-3.43 1.6s.15-12.38-5.18-9.35-10.83 14-4.58 13.54 12.51 8 17.52 5.35 14.39 16.55 9.7 21.86z" fill="#ac8349"/><path d="M45.12 31.45s4.41-2.19 2.41 1.06S38.77 45.27 42.78 46s7.76-1.9 10.22 3.63 5 8.67 10.31 9.1 8.41 2.18 9.86 4.05 5.26 4.11.13 5.93-8.78-2.62-12.3-.77-14.52 8.34-22 3.47S28.61 54 32 49s7-5.19 7.27-5.57S43.6 32 45.12 31.45z" fill="#cfb47d"/><path class="cls-6" d="M61.71 38.48c.15-2.44.41-4.87.42-7.31-.21-2.69-2.88-4.43-5-4.83-5.19-1-9.19 1.09-12 5.11-2 2.79-4 5.6-4.6 9.28a6.86 6.86 0 01-4 4.79c-5.21 2.12-6.64 6.11-5.91 11.23.85 6 3.08 11.15 8.42 14.66 4.72 3.1 9.24 1.6 13.7-.31C55.5 69.94 58 68.26 61 67.94c2.59-.27 5.17-.7 7.77-.88 3.31-.23 5.27 2.26 6.93 4.42"/><path class="cls-6" d="M72.51 60.75c-2.2-2.74-5-5.3-7.12-8.12-3.3-4.43-2.64-9.08.22-13.46.65-1 3-.83 4.78.22a11.86 11.86 0 015.94 10.51 65.79 65.79 0 00.9 9.6c0 .28 1 .31.91.62M55.32 38.94a1.9 1.9 0 01.9-2.77 4.61 4.61 0 002.05-2c1.16-2.28-1.4-6.3-5.44-4.09-2.15 1.18-5.6 8.46-5.28 10"/><path class="cls-6" d="M59.43 37.79c-3.65 1.92-7.65 2.21-11.65 2.52-.39 0-2.3.49-2.68.56m20.5-1.93c-1.57-.87-3.08-.45-4.57.22"/><path d="M63.25 87.57c-3.43 3-2.54 6 1.43 8.41 3.74 2.29 7.54 2.32 11.59 2.81 4.85.59 8.77-.13 12.64-3.09 1.66-1.27 2-2.66 1.59-4.08-.55-1.81-1.13-3.74-3.13-4.86a20.16 20.16 0 01-3.7-2.49c-1.45-1.21-1.77-3.91-1.76-5.48L80.62 66a6.46 6.46 0 00-3.27-5.35c-1.68-1.12-3-2.14-4.82-.63a2.49 2.49 0 00-.86 2.26c.44 2.4 2.47 2.54 3.5 4.39.62 1.11.23 2.4-.32 3.6l-1.15 1s-1.4 2-.28 5.78-.62 3.76-3.5 5.13-6.67 5.39-6.67 5.39z" fill="#2b0006"/><path d="M75.73 70.79c.3.38.39 2.54.33 4.51l-.12.46A4.59 4.59 0 0173.66 79c-4.53 3.12-2.37 4.81-2.37 4.81s1.15 1.88 6.27 1.2c0 0 3.82.62-.66 2.33-.87.33-4.84 1-4.67 2.11a2.25 2.25 0 002 1.86c2.43.47 6.76-.87 9.53-3.53" stroke="#e5ab27" stroke-miterlimit="10" stroke-width="1.33" fill="none"/><path class="cls-6" d="M64 87.07c-3.43 3-2.53 6 1.43 8.41 3.74 2.29 7.54 2.32 11.6 2.81 4.84.59 8.76-.13 12.64-3.09 1.66-1.27 2-2.66 1.58-4.08-.55-1.81-1.13-3.74-3.13-4.86a20.5 20.5 0 01-3.7-2.49c-1.42-1.21-1.72-3.91-1.72-5.48l-1.28-12.82a6.49 6.49 0 00-3.28-5.35c-1.68-1.12-3-2.14-4.81-.64a2.51 2.51 0 00-.87 2.27c.44 2.4 2.47 2.54 3.51 4.39.61 1.11.22 2.4-.33 3.6l-1.15 1"/></g></g></svg>