<svg xmlns="http://www.w3.org/2000/svg" viewBox="0 0 165 165"><defs><style>.cls-4{stroke:#000;stroke-miterlimit:10;stroke-width:.42px}</style></defs><g id="圖層_2" data-name="圖層 2"><g id="圖層_1-2" data-name="圖層 1"><path d="M160.82 122.51s5.6 14.55-2.81 15.81-12.33-1.89-23 3.17-43.16 4.43-54.37 4.43-10.65-3.8-23-3.17-21.3.63-23-1.9 2.24-10.75 2.24-10.75 7.85-16.45 7.85-34.17-1.69-23.41 0-36.06 2.8-40.49 2.8-40.49V5.32c0-5.2 2.8-.49 9.53 0s33.07 4.57 45.4 1.4 43.72 0 50.6 0 3.77 3.8 2.45 8.23-2.45 8.94-2.45 8.94S158 66 158 79.17v36.38z" fill="#f3ae00" opacity=".3"/><path d="M152.93 126.81a22.9 22.9 0 010-6c.11-1 .24-1.91.42-2.86l.28-1.41.29-1.21V80.66c-.05-3.79-.31-7.66-.6-11.51-.58-7.72-1.34-15.43-2.12-23.14l-1.23-11.57-.32-2.88-.16-1.45-.08-.72c0-.3-.2-.76 0-1.16l1.57-5.77.77-2.84c.31-1 .69-1.95 1-2.84a8 8 0 00.61-2.16.4.4 0 00-.11-.27c-.07-.07-.17-.1-.55-.2-1.33-.26-3.63-.15-5.51-.3l-5.82-.35c-7.74-.47-15.47-.87-23.16-.84a87.53 87.53 0 00-11.39.7c-.94.09-1.81.34-2.71.51l-3 .6a55.23 55.23 0 01-6 .56 167.84 167.84 0 01-23.46-1.19c-3.09-.32-6.39-.81-9.57-1.31a20.85 20.85 0 01-4.87-1.06 29.23 29.23 0 01-3.7-1.84.79.79 0 00-1.21.37 6.91 6.91 0 00-.3 1.51c-.17 1.15-.34 2.16-.53 3-.37 1.69-.79 2.69-1.22 2.69V11l.11-1.35a5.13 5.13 0 01.4-1.18 2.22 2.22 0 011.93-1.19 6 6 0 012.46.62l1.43.6a15.19 15.19 0 002.68.81 24.53 24.53 0 002.9.35l6.15.68A202.85 202.85 0 0092.68 12c2 0 4-.12 6-.34a54.77 54.77 0 005.94-1.08 74.5 74.5 0 0112.55-1c8.31-.09 16.55.37 24.77.86l6.13.36 3 .1a7.36 7.36 0 013.88.9 3.24 3.24 0 011.45 2.2 5.4 5.4 0 01-.19 2.21c-.33 1.18-.74 2.11-1.08 3.05-.66 1.74-1.13 3.85-1.67 5.74l-.8 2.95-.19.72a.36.36 0 000 .25l.17 1.51.67 6.13 1.29 12.28c.81 8.19 1.6 16.38 2.12 24.63.29 4.12.33 8.35.3 12.43v12.36c0 5.68-.29 11.93-.77 17.41a65.54 65.54 0 00-2.2 7.72c-.46 1.98-.65 3.33-1.12 3.42z"/><path d="M160.16 123.5a24.77 24.77 0 011.16 8.18 8.93 8.93 0 01-1.37 4.45 6.6 6.6 0 01-4.29 2.58 40.24 40.24 0 01-8 .22 25 25 0 00-7.27.51 24.53 24.53 0 00-3.47 1.11c-1.18.44-2.18 1-3.56 1.5a38.13 38.13 0 01-7.81 2 142.23 142.23 0 01-15.59 1.51c-5.19.25-10.38.35-15.56.38h-7.79a75.92 75.92 0 01-7.9-.23 38.91 38.91 0 01-7.77-1.89 24.86 24.86 0 00-7.22-.95c-5 .12-10.29.52-15.53.35a23.11 23.11 0 01-6.3-1 5.5 5.5 0 01-3.09-2.15 4.65 4.65 0 01-.09-3.34c1.16-3.52 3-5.38 3.78-5.08a29.19 29.19 0 00-1.19 3.48 8.89 8.89 0 00-.41 3.17c.07.45 0 .31.33.56a4.54 4.54 0 001.27.54 21.21 21.21 0 003.51.6 132.43 132.43 0 0015.28-.18 34.06 34.06 0 018.09.44c2.76.52 5.16 1.57 7.49 2a35.74 35.74 0 007.4.54h7.73c10.29-.05 20.62-.2 30.71-1.5a54.92 54.92 0 007.37-1.47 23.05 23.05 0 003.4-1.24 38.84 38.84 0 013.76-1.52 25.06 25.06 0 018.1-1.34c2.71 0 5.22.28 7.64.1a18.42 18.42 0 002.67-.3 3.28 3.28 0 001.86-1 9 9 0 001.59-4.71c.35-3.35.21-6.07 1.07-6.32z"/><path d="M53.28 25.89c-.34 7.77-.75 15.53-1.3 23.3-.28 3.88-.59 7.76-1 11.66A91.39 91.39 0 0050 72.29c0 7.6.73 15.45.68 23.25a85.3 85.3 0 01-.65 11.83c-.49 3.93-1.36 7.8-2.19 11.57a87.9 87.9 0 01-2.46 8.49c-.86 2.5-1.66 4.4-2.52 4.38.11-8.09 2.74-15.66 3.82-23.13s.9-15.2.63-22.94c-.15-3.86-.41-7.74-.45-11.69a81.76 81.76 0 01.76-11.82c.91-7.62 1.38-15.38 1.84-23.1.36-5.83 2.1-13.31 3.82-13.24zm98.1-2.14l-42 1.65c-3.53.17-7 .29-10.6.29-3.75 0-7.12-.57-10.64-.83l-20.95-1.93c-5.25-.49-11.92-2.51-11.76-4.24l41.81 3.84c6.85.14 13.88-.41 20.88-.62l21-.82c5.31-.21 12.2.91 12.26 2.66zM47.76 131.39a16.82 16.82 0 004.9 1.44 20.54 20.54 0 002.6.2c.89 0 2 0 2.89.12 3.82.3 7.52.81 11.24 1.27 7.42.94 14.82 1.77 22.24 2.19a108.27 108.27 0 0022.09-1c7.4-1 14.56-2.59 22.15-3.8 5.49-.47 12.75-1.14 13.29.49a75.25 75.25 0 01-11.16 2.41c-3.65.38-7.27 1.2-11 1.87a190.26 190.26 0 01-22.41 3.13 136 136 0 01-22.7-.71c-7.48-.7-15-1.82-22.3-2.59l-4.26-.49a14.69 14.69 0 01-4.27-1.12c-2.47-1.09-3.72-2.66-3.3-3.41z"/><path d="M103.39 118.22L121.48 102l9-8.09 4.52-4 2.26-2a6.73 6.73 0 001.69-2c1.82-3 1.3-8.35-1-10.37l-9-8.21L111 50.92l-4.5-4.11c-1.62-1.52-2.68-2.51-4.13-2.62a4.91 4.91 0 00-4.06 1.86l-4.51 4.1-18 16.41-9 8.2-2.25 2c-.34.33-.81.72-1.06 1a3.47 3.47 0 00-.63.86 6.3 6.3 0 00-.27 4.87 4.32 4.32 0 001.34 1.85l2.26 2 4.52 4.06 9 8.1C88.8 107.7 99.86 120 99 122.2" fill="#fff"/><path d="M81.59 97.44L73.27 90l-2.12-1.9h-5.52l.42.36 33.27 29.82c.79-2.03-9.38-13.36-17.73-20.84zm-1.1-32.66L94.53 52l4.14-3.77a4.54 4.54 0 013.73-1.71c1.34.1 2.32 1 3.8 2.41l4.14 3.78 13.24 12.08H129l-3.19-2.91-16.54-15.12-2.07-1.89-1-.95a8.2 8.2 0 00-1.32-.94 5.64 5.64 0 00-5.71.09 7.77 7.77 0 00-1.3 1l-1 .94-2.07 1.89-4.14 3.77-15.61 14.11zM133 88.09l-.52.46-4.16 3.72-8.32 7.45-16.64 14.89c.78 2 12.23-6 20.59-13.49l8.32-7.44 4.16-3.68a8.42 8.42 0 001.57-1.91z"/><path d="M108.51 81.23a.93.93 0 00.91-.81l.58-4.82a.92.92 0 00-.91-1h-5.77v-4c0-1.83.51-3.07 3.13-3.07h2.43a.92.92 0 00.92-.92v-4.13a.92.92 0 00-.92-.91h-4c-4.82 0-8.12 2.94-8.12 8.35v4.66h-3.85a.92.92 0 00-.92.92v4.82a.92.92 0 00.92.91h3.89v14.91h6.52V81.23z" fill="#b90518"/><path class="cls-4" d="M24.28 144.27a6.31 6.31 0 00-2.67-4.78 9.73 9.73 0 00-5.12-1.49 27.41 27.41 0 00-10.09 1.47 8.6 8.6 0 00-2.4 1.34 2.72 2.72 0 00-.53.54 2 2 0 00-.44.71 2.21 2.21 0 000 1.8A4.73 4.73 0 005.09 146a11.61 11.61 0 002.42 1 24.2 24.2 0 0010.18.69 8.78 8.78 0 003.68-1.36c1-.65 1.45-1.43 1.2-1.8-2.6 1.51-6 1.86-9.17 1.8a20.57 20.57 0 01-4.71-.65 8.34 8.34 0 01-3.92-2c-.44-.52-.44-.81-.11-1.27a4.29 4.29 0 011.68-1.19 17.92 17.92 0 014.55-1.22c3.13-.42 6.61-.81 9.25.49a7.83 7.83 0 012.6 2.15c.67.8 1.09 1.65 1.54 1.63zM140.57 155a14 14 0 00-3-4.33 7.86 7.86 0 00-4.89-2.3 11.61 11.61 0 00-5.17 1.12 38.59 38.59 0 00-4.62 2.14 16.51 16.51 0 00-2.2 1.43 6.68 6.68 0 00-1 1 2.56 2.56 0 00-.66 1.65 2.05 2.05 0 001 1.62 5.49 5.49 0 001.34.58 14.21 14.21 0 002.59.49 47.73 47.73 0 0010.14 0 9.75 9.75 0 003.73-1.2c1-.61 1.57-1.34 1.35-1.72-2.78 1.27-6.18 1.55-9.4 1.59-1.63 0-3.29-.06-4.91-.19a17.64 17.64 0 01-2.36-.34 3.91 3.91 0 01-1.84-.75c-.1-.14-.13-.12-.06-.32a2.38 2.38 0 01.54-.73 10.62 10.62 0 011.86-1.36 34 34 0 014.37-2.14 14.12 14.12 0 014.49-1.31 5.84 5.84 0 014.07 1.44c1.84 1.38 3.84 3.97 4.63 3.63zm9.31-.72a.28.28 0 01-.4 0c-.09-.17.2-.21.31-.16a3.88 3.88 0 01.49-.06c.31 0 .74.07 1.18.05a1.55 1.55 0 00-1.49-1.23 2 2 0 00-2 .82 1.21 1.21 0 00.59 1.63 2.33 2.33 0 002.29-.1c.51-.34-.08-1.01-.97-.95zm1.51-5.89s.13 0-.23.09a9.53 9.53 0 01-1.13 0 1.36 1.36 0 10.46-1.14.51.51 0 00.05.73 1 1 0 00.46.23c.15.07.48.09.39.09zm-10.82-.08s.13 0-.23.09a9.6 9.6 0 01-1.13 0 1.36 1.36 0 10.46-1.14.51.51 0 00.05.73 1 1 0 00.46.24c.16.06.48.08.39.08zm16.43-.65h-.1a5.26 5.26 0 01-1.12.07 1.21 1.21 0 10.41-1 .46.46 0 00.09.67 1.09 1.09 0 00.46.21z"/><path class="cls-4" d="M134.09 153.7s.13 0-.23.08a6.61 6.61 0 01-1.13 0 1.36 1.36 0 002.62.4 1.36 1.36 0 00-2.16-1.53.5.5 0 00.05.72.92.92 0 00.46.24 1.87 1.87 0 00.39.09zM9.66 142.93a.26.26 0 01-.39 0c-.09-.16.19-.21.3-.15a2.87 2.87 0 01.49-.07c.32 0 .75.07 1.18.05a1.55 1.55 0 00-1.49-1.23 1.92 1.92 0 00-1.95.83 1.2 1.2 0 00.59 1.64 2.31 2.31 0 002.28-.09c.48-.37-.12-1.04-1.01-.98zm35.21 4.75a.28.28 0 01-.4 0c-.09-.17.2-.21.31-.16a3.88 3.88 0 01.49-.06c.31 0 .74.07 1.18.05a1.55 1.55 0 00-1.45-1.19 2 2 0 00-2 .82 1.21 1.21 0 00.59 1.63 2.33 2.33 0 002.29-.1c.48-.38-.12-1.05-1.01-.99zm-31.3-5.33h-.09a5.34 5.34 0 01-1.12.06 1.22 1.22 0 002.34.37 1.22 1.22 0 00-1.93-1.38.45.45 0 00.09.66 1 1 0 00.46.22zm21.29 1.12a.27.27 0 01.12-.22c.1 0 .16.08.18.16s-.12.46-.26.24c0 0-.18.06-.48 0s-.7-.1-1.14-.08a1.88 1.88 0 001.08 1.73 1.39 1.39 0 001.73-.92 2.44 2.44 0 00.09-1.67 1.77 1.77 0 00-.73-1 1.29 1.29 0 00-1.78.4.77.77 0 00.11.9 1.48 1.48 0 001.08.46zm-5.55.76h-.1a5.26 5.26 0 01-1.12.07 1.22 1.22 0 001 1.11 1.22 1.22 0 00.89-2.2 1.22 1.22 0 00-1.51.07.46.46 0 00.09.67 1.07 1.07 0 00.47.21zm-.64 4.53c0-.19.27-.27.29 0s-.12.4-.25.22h-.48c-.3 0-.7-.09-1.14-.08a1.73 1.73 0 001.06 1.59 1.41 1.41 0 001.75-.84 2 2 0 00.08-1.54 1.7 1.7 0 00-.74-.94 1.36 1.36 0 00-1.76.4.67.67 0 00.11.83 1.55 1.55 0 001.08.36z"/><path fill="none" d="M0 0h165v165H0z"/></g></g></svg>