<svg xmlns="http://www.w3.org/2000/svg" viewBox="0 0 495 108"><defs><style>.cls-2{fill:#b70518}</style></defs><g id="圖層_2" data-name="圖層 2"><g id="圖層_1-2" data-name="圖層 1"><path d="M78.37 95.09a4.82 4.82 0 01-3.76-1.36l1.3-1.3a3.39 3.39 0 002.49.87c1.19 0 1.82-.45 1.82-1.28a1.12 1.12 0 00-.32-.86 1.55 1.55 0 00-.91-.37l-1.24-.17a3.52 3.52 0 01-2-.85 2.73 2.73 0 01-.73-2c0-1.83 1.35-3.12 3.58-3.12a4.43 4.43 0 013.33 1.2l-1.27 1.26a2.89 2.89 0 00-2.12-.71c-1.07 0-1.59.59-1.59 1.3a1 1 0 00.31.74 1.67 1.67 0 00.95.4l1.22.18a3.4 3.4 0 012 .79 2.9 2.9 0 01.8 2.19c-.04 2-1.7 3.09-3.86 3.09zm5.71-.09V84.71h2V95zm10.5 0l-4.08-6.32V95h-2V84.71h1.79L94.36 91v-6.3h2V95zm7.63.09A3.81 3.81 0 0199.43 94c-1-1-1-2.33-1-4.11s0-3.06 1-4.1a3.77 3.77 0 012.78-1.13 3.62 3.62 0 013.79 3.21h-2a1.72 1.72 0 00-1.74-1.46 1.65 1.65 0 00-1.29.54c-.39.43-.5.92-.5 2.9s.11 2.48.5 2.91a1.68 1.68 0 001.29.54 1.72 1.72 0 001.74-1.46h2a3.63 3.63 0 01-3.79 3.25zm5.52-.09V84.71h6.78v1.79h-4.77v2.41h4.06v1.8h-4.06v2.5h4.77V95zm17.83 0v-8.27l-2.09 1.82v-2l2.09-1.82h1.88V95zm10.57-4.45L134 95h-2l2.14-4.25a2.08 2.08 0 01-.77.13 2.83 2.83 0 01-2.72-3 3 3 0 013.21-3.21A3 3 0 01137 87.8a6.36 6.36 0 01-.87 2.75zm-2.36-4.24a1.52 1.52 0 101.33 1.5 1.34 1.34 0 00-1.33-1.5zm10.14 7.94a3.13 3.13 0 01-2.27.84 3.24 3.24 0 01-2.3-.82 3.15 3.15 0 01-.84-2.15h1.88c.1.81.48 1.28 1.26 1.28a1.2 1.2 0 00.89-.33 2.13 2.13 0 00.41-1.54c0-1.18-.35-1.85-1.26-1.85a1.18 1.18 0 00-1.24.84h-1.72v-5.81h5.87v1.69h-4.17v2.21a2.39 2.39 0 011.55-.52 2.69 2.69 0 011.92.69 3.58 3.58 0 01.93 2.75 3.41 3.41 0 01-.91 2.72zm2.47.75v-1.69l3.84-4.47a1.75 1.75 0 00.54-1.24 1.25 1.25 0 10-2.5 0h-1.88a2.92 2.92 0 013.13-3 2.89 2.89 0 013.13 3 3.27 3.27 0 01-1.1 2.36l-2.88 3.34h4V95zM249 94.75a5.41 5.41 0 01-4.2-1.51l1.45-1.46a3.76 3.76 0 002.78 1c1.32 0 2-.5 2-1.42a1.3 1.3 0 00-.35-1 1.74 1.74 0 00-1-.4l-1.39-.2a3.9 3.9 0 01-2.23-1 3.07 3.07 0 01-.82-2.26c0-2 1.52-3.49 4-3.49A4.94 4.94 0 01253 84.4l-1.42 1.41a3.18 3.18 0 00-2.36-.79c-1.19 0-1.78.66-1.78 1.45a1.1 1.1 0 00.34.82 2 2 0 001.07.46l1.36.19a3.81 3.81 0 012.19.89 3.23 3.23 0 01.89 2.44c-.03 2.22-1.89 3.48-4.29 3.48zm13.47-.09v-4.81h-3.89v4.81h-2.24v-11.5h2.24v4.7h3.89v-4.7h2.24v11.5zm5.88 0v-11.5h2.25v11.5zm12.65 0l-4.55-7.06v7.06h-2.25v-11.5h2l4.55 7v-7H283v11.5zm12.77-1.22a4.55 4.55 0 01-6.34 0c-1.17-1.16-1.13-2.6-1.13-4.58s0-3.42 1.13-4.59a4.19 4.19 0 013.1-1.26 4.13 4.13 0 014.32 3.69h-2.26a1.94 1.94 0 00-2.06-1.68 1.86 1.86 0 00-1.44.61c-.44.48-.55 1-.55 3.23s.11 2.76.55 3.24a1.82 1.82 0 001.44.6 2.11 2.11 0 001.59-.64 2.2 2.2 0 00.52-1.54v-.43h-2.11v-1.83h4.34v1.68a4.53 4.53 0 01-1.1 3.5zm15.84 1.22l-4.55-7.06v7.06h-2.24v-11.5h2l4.55 7v-7h2.25v11.5zm12.18 0l-.67-2H317l-.69 2H314l4.18-11.5h1.76l4.2 11.5zm-2.68-8.11l-1.45 4.18h2.86zm14.2 8.11l-4.55-7.06v7.06h-2.24v-11.5h2l4.55 7v-7h2.25v11.5zm13.52.09a5.43 5.43 0 01-4.2-1.51l1.46-1.46a3.73 3.73 0 002.77 1c1.33 0 2-.5 2-1.42a1.31 1.31 0 00-.36-1 1.68 1.68 0 00-1-.4l-1.38-.2a3.87 3.87 0 01-2.23-1 3 3 0 01-.82-2.26c0-2 1.51-3.49 4-3.49a4.92 4.92 0 013.71 1.34l-1.42 1.41A3.17 3.17 0 00347 85c-1.19 0-1.77.66-1.77 1.45a1.1 1.1 0 00.34.82 2 2 0 001.06.46l1.36.19a3.88 3.88 0 012.2.89 3.23 3.23 0 01.88 2.44c.02 2.24-1.83 3.5-4.24 3.5zm11.39 0a4 4 0 01-4.23-4v-7.59h2.25v7.48a2 2 0 104 0v-7.48h2.23v7.56a4 4 0 01-4.25 4.03zM373 93.44a4.55 4.55 0 01-6.34 0c-1.17-1.16-1.13-2.6-1.13-4.58s0-3.42 1.13-4.59a4.2 4.2 0 013.1-1.26 4.13 4.13 0 014.32 3.69h-2.26a1.94 1.94 0 00-2.06-1.68 1.86 1.86 0 00-1.44.61c-.44.48-.55 1-.55 3.23s.11 2.76.55 3.24a1.82 1.82 0 001.44.6 2.1 2.1 0 001.59-.64 2.2 2.2 0 00.52-1.54v-.43h-2.11v-1.83h4.34v1.68a4.53 4.53 0 01-1.1 3.5zm10.71 1.22l-.67-2H379l-.69 2h-2.34l4.18-11.5h1.76l4.2 11.5zM381 86.55l-1.45 4.18h2.86zm13.54 8.11l-2.24-4.59h-1.62v4.59h-2.24v-11.5h4.5a3.48 3.48 0 013.73 3.52 3.09 3.09 0 01-2.1 3l2.57 5zm-1.74-9.5h-2.12v3h2.12a1.52 1.52 0 100-3zm14.11 0V88h4.54v2h-4.54v4.67h-2.24V83.16h7.57v2zm13.81 9.5l-.67-2H416l-.69 2h-2.34l4.18-11.5h1.76l4.2 11.5zM418 86.55l-1.45 4.18h2.86zm11.13 8.2a4.23 4.23 0 01-3.1-1.26c-1.16-1.16-1.13-2.6-1.13-4.58s0-3.42 1.13-4.59a4.27 4.27 0 013.1-1.26 4.06 4.06 0 014.23 3.64h-2.28a1.9 1.9 0 00-1.94-1.63 1.84 1.84 0 00-1.43.59c-.44.49-.57 1-.57 3.25s.13 2.76.57 3.24a1.81 1.81 0 001.43.6 1.9 1.9 0 001.94-1.63h2.28a4.06 4.06 0 01-4.23 3.63zm11.2-9.59v9.5h-2.25v-9.5h-3v-2h8.25v2zm12.42 8.33a4.15 4.15 0 01-3.1 1.26 4.19 4.19 0 01-3.12-1.26c-1.16-1.16-1.13-2.6-1.13-4.58s0-3.42 1.13-4.59a4.23 4.23 0 013.12-1.26 4.19 4.19 0 013.1 1.26c1.16 1.17 1.15 2.6 1.15 4.59s.01 3.42-1.15 4.58zm-1.66-7.81a2 2 0 00-2.89 0c-.44.48-.55 1-.55 3.23s.11 2.74.55 3.23a2 2 0 002.89 0c.43-.49.56-1 .56-3.23s-.13-2.75-.56-3.23zm12.16 8.98L461 90.07h-1.62v4.59h-2.24v-11.5h4.5a3.47 3.47 0 013.73 3.52 3.1 3.1 0 01-2.09 3l2.56 5zm-1.74-9.5h-2.12v3h2.12a1.52 1.52 0 100-3zm11.55 4.78v4.72h-2.23v-4.72l-3.45-6.78h2.44l2.18 4.63 2.12-4.63h2.44zM255 47.7a53.86 53.86 0 01-5.68 11.53 44.1 44.1 0 00-4.39-3 40.11 40.11 0 004.95-10zm7.88-3.27v18.68h-6.47V44.43H246v-5.62h10.47v-4.33h-10.84V29h5.46a33.59 33.59 0 00-1.63-5.85l4.61-1.15h-7.59v-5.47h9.62c-.51-1.52-1.13-3.09-1.69-4.45l6.7-1.63c.84 1.86 1.85 4.17 2.53 6.08h8V22h-7l4.56.9c-.85 2.14-1.69 4.33-2.53 6.07h5.85v5.52h-9.62v4.33h8.72v5.62zM254.81 22a27.74 27.74 0 011.85 5.85L252.61 29h8.1a61.85 61.85 0 002.42-7zm42.81 13.67h-5.23v27.61h-6.53V35.66h-5.23v.67c0 8.27-.73 19.86-5.51 27.07a24.94 24.94 0 00-5.18-4 22 22 0 002.53-5.46l-4 2.48a68.88 68.88 0 00-4.38-8.42l4.39-2.36A55.76 55.76 0 01272.7 53c1.57-5.4 1.74-11.48 1.74-16.66v-20c6.13-1.12 12.94-2.86 17.05-4.78l5.12 4.9a88.54 88.54 0 01-16 4.22v8.83h17zm38.1-13.8c-.23 1.52-.51 2.87-.79 4.22h20.65v30.55c0 3.27-.79 4.79-3.1 5.74s-5.56 1-10.07 1a21.76 21.76 0 00-2.13-5.68c2.7.17 6.24.17 7.09.11 1 0 1.29-.28 1.29-1.18v-24.4h-10.75l5.63 1.12c-.79 2.08-1.58 4.11-2.36 5.91h4.1v5.17h-9.5v3.66h10.74v5.4h-10.74v8.33h-6.31v-8.33h-10.4v-5.4h10.4v-3.66h-9.22v-5.17h4.33a42.64 42.64 0 00-2.19-5.68l5.28-1.3a33.54 33.54 0 012.54 6.14l-3 .84h8.22a52.81 52.81 0 002.14-7h-20.75v31.08h-6.76V26.09h18.23c.23-1.35.45-2.7.62-4.22h-21v-6.24h21.66c.11-1.69.22-3.26.28-4.73l7.42.68c-.16 1.29-.39 2.7-.56 4.05h20.93v6.24zm72.81 21.66v2.76h10v17.05h-5.85v-2.08h-12.25v2.14h-5.57V46.29h7.88v-2.76h-7.82V39h7.82v-2.55h-8.95c-.17 8.55-1.29 19.63-6.36 26.89a21.55 21.55 0 00-5-3.26A31.4 31.4 0 00387.15 47l-3.65 3.9c-.68-2.13-2.25-6-3.44-8.66v21.27h-5.23V42c-1 5.4-2.76 11.76-5.06 15.36a32.46 32.46 0 00-2.42-6.13 44.47 44.47 0 004.16-12.89l3.32 1.24v-3.75h-6.58v-6.25h6.58V11h5.23v15.15a90.27 90.27 0 002.76-11.76l4.67 1.24c-1.24 4-2.59 8.83-3.71 11.81l-3.72-1.12v3.26h6.08v6.25h-6.08v4.05l2.37-1.63c.9 1.24 3.88 6.41 4.84 8.15a87.34 87.34 0 00.73-12.26V16h12.88c-.34-1.4-.67-2.87-1.07-4.1l6.81-1.19c.62 1.64 1.18 3.61 1.63 5.29h12v5.63h-26.46V32h8.95v-2.64h-7.65V24.8h7.65v-2.59h5.79v2.59h9.4v6.64h2.42v5.46h-2.42v6.63zm-38.14-16.09a88.24 88.24 0 00-2.31-12.09l4-1a95.57 95.57 0 012.54 12zm42.25 24.14h-12.21v4.84h12.21zM408.53 32h3.94v-2.64h-3.94zm0 7h3.94v-2.55h-3.94zm30.17-17.46v11.31c0 8.83-.73 22.11-4.84 30.55a25.16 25.16 0 00-5.06-3.83c3.6-7.6 3.82-18.74 3.82-26.72V16H455a27.43 27.43 0 00-1.85-3.72l6-2.25a26 26 0 012.85 5.26l-1.63.68h20.76v5.57zm3.83 11.64a27.12 27.12 0 00-3.66-7.31l4.05-1.87a27 27 0 013.94 7.2zm36.73 2.37a56.32 56.32 0 01-4.78 15.8 21.81 21.81 0 007.71 7.49 21.55 21.55 0 00-3.88 4.72 24.9 24.9 0 01-7-7.14 27.07 27.07 0 01-8.27 7.48 35 35 0 00-2.19-3.15 3.62 3.62 0 01-1.19 1c-1.57.73-3.82.85-7.08.79a20.53 20.53 0 00-1.41-4.67c2.08.06 4.22.06 4.84 0s.84-.17.84-.79V38.87h-12.36v23.91h-4.55V34h7.82V22.72h5.57v8.83a49 49 0 003.88-7.55l5.06 1.63c-1.69 2.75-3.43 5.74-4.89 7.71l-4.05-1.41V34h8.32v3a54.07 54.07 0 004.17-14.4l5.74 1.07c-.4 2.19-.91 4.33-1.41 6.47h11.14v5.46zm-30.1 19.07v1.74h-2.81v-15h8.5v13.26zm0-9.12v5H452v-5zm12.49 11.76a8.11 8.11 0 010 1.13 22.91 22.91 0 006.86-7.26 59.46 59.46 0 01-3.09-8.94c-.57 1-1.07 1.8-1.63 2.58a24.7 24.7 0 00-2.09-2zm6.87-21.71a60.07 60.07 0 002.75 9.5 54.64 54.64 0 002.31-9.5z" fill="#231815"/><path class="cls-2" d="M115.36 33.58V55.5h12.93v-9.19a17.09 17.09 0 00-12.93-12.73z"/><path class="cls-2" d="M214.89 55V20.2a7.41 7.41 0 00-7.4-7.41h-38.07c-14.25-6.46-33.89-10.45-55.57-10.45s-41.32 4-55.57 10.45h-38a7.41 7.41 0 00-7.41 7.41V55a7.41 7.41 0 007.41 7.41h35.37c14.42 7.2 35.12 11.76 58.2 11.76s43.79-4.56 58.21-11.76h35.43a7.41 7.41 0 007.4-7.41zm-156.78.5h38.54s11.83 0 11.83-10.8-11.25-11.12-11.25-11.12H84.82a2.48 2.48 0 01-2.89-2.64 2.46 2.46 0 012.76-2.71h34.14s7.2.07 10.54 3c0 0 2.19-3 7.21-3s8.36 3.86 8.36 6.7v30.56A135.68 135.68 0 01113.85 69c-23.18 0-43.62-5.38-55.74-13.5zm99.75 6V31.19s-.71-10.93-13.86-10.93H80.58s-11.31-.06-11.31 11.51 11.18 10.87 11.18 10.87h10.48s2.9.12 2.9 2.83S91 48 91 48H50a16.46 16.46 0 01-3.49-9.72c0-16.95 30.16-30.7 67.35-30.7s67.36 13.75 67.36 30.7c-.01 9.26-9.08 17.56-23.36 23.2z"/><path fill="none" d="M0 0h495v108H0z"/></g></g></svg>